<svg width="375" height="324" viewBox="0 0 375 324" fill="none" xmlns="http://www.w3.org/2000/svg">
<g style="mix-blend-mode:multiply" opacity="0.2">
<path d="M-95.6287 154.983L130.615 284.214C149.59 295.052 171.07 300.727 192.916 300.675C214.763 300.622 236.215 294.843 255.137 283.913L307.947 253.409C309.169 252.703 310.183 251.688 310.889 250.466C311.595 249.244 311.967 247.857 311.968 246.446C311.969 245.034 311.6 243.647 310.896 242.423C310.192 241.2 309.18 240.183 307.959 239.476L24.9952 75.3666C23.768 74.6548 22.3745 74.2806 20.9561 74.2822C19.5377 74.2838 18.145 74.6611 16.9194 75.3756L-95.6904 141.039C-96.9105 141.75 -97.922 142.771 -98.623 143.998C-99.324 145.225 -99.6898 146.615 -99.6835 148.029C-99.6773 149.442 -99.2992 150.829 -98.5874 152.05C-97.8756 153.271 -96.8552 154.282 -95.6287 154.983Z" fill="#AFB6E5"/>
</g>
<path d="M110.969 248.195L151.49 224.557C151.49 224.557 123.688 210.174 122.439 210.174C121.189 210.174 104.322 221.118 104.322 221.118L110.969 248.195Z" fill="url(#paint0_linear_2_1275)"/>
<path d="M173.219 263.342C173.219 270.602 170.716 275.745 166.647 278.229C166.525 278.302 153.792 285.68 153.668 285.747C149.434 288.117 152.141 282.74 145.706 279.024C132.766 271.546 122.272 253.436 122.272 238.575C122.272 231.225 115.483 231.165 119.641 228.712C119.757 228.643 133.311 221.138 133.423 221.075C137.644 218.786 143.415 219.207 149.777 222.879C162.729 230.368 173.219 248.48 173.219 263.342Z" fill="url(#paint1_linear_2_1275)"/>
<path d="M152.687 247.877C143.48 232.113 128.645 223.647 119.553 228.968C110.46 234.289 110.553 251.382 119.76 267.146C128.966 282.91 143.801 291.376 152.893 286.055C161.986 280.734 161.893 263.642 152.687 247.877Z" fill="url(#paint2_linear_2_1275)"/>
<path style="mix-blend-mode:screen" d="M137.346 230.037C131.144 226.452 125.507 225.977 121.316 228.067C125.222 226.972 130.071 227.79 135.323 230.825C148.263 238.303 158.757 256.413 158.757 271.274C158.757 279.012 155.903 284.337 151.357 286.612C157.076 285.01 160.781 279.314 160.781 270.483C160.776 255.627 150.283 237.515 137.346 230.037Z" fill="url(#paint3_radial_2_1275)"/>
<path style="mix-blend-mode:multiply" d="M155.044 268.325C155.044 279.771 146.965 284.38 136.999 278.623C127.034 272.865 118.956 258.915 118.956 247.469C118.956 236.023 127.035 231.412 136.999 237.172C146.963 242.931 155.044 256.879 155.044 268.325ZM143.133 261.107C143.133 261.222 143.133 261.336 143.133 261.447C143.133 261.559 143.133 261.671 143.133 261.78C143.151 262.511 143.419 263.213 143.891 263.771L149.489 270.718C150.327 271.76 151.41 271.892 151.665 270.966C152.034 269.569 152.213 268.128 152.199 266.683C152.189 265.037 152.01 263.396 151.665 261.786C151.41 260.565 150.327 259.446 149.489 259.517L143.891 259.993C143.409 260.032 143.106 260.455 143.133 261.104V261.107ZM147.79 251.843C145.967 248.637 143.641 245.745 140.899 243.28C139.953 242.445 139.024 242.725 139.024 243.85V251.254C139.057 251.996 139.338 252.705 139.823 253.267C139.995 253.469 140.161 253.675 140.322 253.888C140.489 254.153 140.716 254.374 140.985 254.533C141.254 254.693 141.557 254.785 141.869 254.804L147.465 254.327C148.302 254.252 148.47 253.025 147.787 251.84L147.79 251.843ZM133.107 238.776C131.977 238.407 130.784 238.27 129.6 238.373C128.416 238.476 127.265 238.818 126.216 239.378C125.533 239.773 125.701 241.196 126.541 242.235L132.137 249.18C132.304 249.441 132.532 249.656 132.802 249.808C133.072 249.96 133.375 250.043 133.684 250.051C133.848 250.025 134.015 250.01 134.181 250.007C134.681 249.998 134.982 249.556 134.982 248.917V241.508C134.957 240.922 134.768 240.354 134.436 239.87C134.104 239.386 133.642 239.006 133.104 238.773L133.107 238.776ZM122.338 244.834C121.969 246.232 121.79 247.672 121.804 249.117C121.814 250.763 121.993 252.405 122.338 254.015C122.593 255.236 123.676 256.354 124.514 256.284L130.112 255.807C130.594 255.765 130.897 255.345 130.87 254.693C130.87 254.578 130.87 254.464 130.87 254.353C130.87 254.242 130.87 254.129 130.87 254.021C130.852 253.29 130.584 252.587 130.112 252.03L124.514 245.083C123.673 244.038 122.59 243.905 122.335 244.831L122.338 244.834ZM126.216 263.957C128.038 267.166 130.365 270.06 133.107 272.528C134.053 273.363 134.982 273.083 134.982 271.958V264.554C134.949 263.812 134.668 263.102 134.183 262.54C134.011 262.34 133.845 262.133 133.684 261.919C133.517 261.655 133.29 261.434 133.021 261.274C132.752 261.115 132.449 261.022 132.137 261.004L126.541 261.48C125.698 261.542 125.53 262.769 126.213 263.954L126.216 263.957ZM140.899 277.024C142.029 277.393 143.222 277.53 144.406 277.427C145.59 277.324 146.741 276.982 147.79 276.423C148.473 276.026 148.303 274.603 147.465 273.566L141.869 266.62C141.702 266.36 141.474 266.144 141.204 265.992C140.934 265.84 140.631 265.757 140.322 265.749C140.157 265.776 139.99 265.79 139.823 265.793C139.325 265.802 139.024 266.244 139.024 266.883V274.289C139.049 274.874 139.237 275.441 139.568 275.924C139.899 276.407 140.359 276.787 140.896 277.021L140.899 277.024Z" fill="url(#paint4_linear_2_1275)"/>
<path d="M153.912 268.775C153.912 280.221 145.835 284.831 135.869 279.072C125.904 273.313 117.826 259.366 117.826 247.92C117.826 236.474 125.905 231.864 135.869 237.623C145.833 243.382 153.912 257.329 153.912 268.775ZM142.001 261.557C142.001 261.671 142.009 261.784 142.009 261.897C142.009 262.01 142.009 262.119 142.001 262.229C142.021 262.96 142.288 263.662 142.76 264.22L148.357 271.166C149.197 272.208 150.28 272.34 150.534 271.414C150.902 270.017 151.082 268.577 151.067 267.133C151.058 265.486 150.879 263.844 150.534 262.234C150.28 261.013 149.197 259.894 148.357 259.965L142.76 260.443C142.285 260.482 141.98 260.906 142.007 261.556L142.001 261.557ZM146.658 252.291C144.835 249.083 142.509 246.189 139.768 243.72C138.821 242.886 137.893 243.165 137.893 244.29V251.694C137.926 252.437 138.207 253.147 138.692 253.709C138.863 253.909 139.028 254.117 139.191 254.329C139.357 254.594 139.584 254.815 139.853 254.975C140.121 255.134 140.424 255.227 140.736 255.246L146.332 254.768C147.176 254.703 147.345 253.475 146.663 252.29L146.658 252.291ZM131.974 239.224C130.844 238.855 129.652 238.719 128.468 238.822C127.284 238.925 126.133 239.267 125.084 239.826C124.402 240.221 124.57 241.644 125.41 242.683L131.005 249.627C131.172 249.887 131.4 250.103 131.67 250.255C131.939 250.407 132.242 250.491 132.551 250.499C132.716 250.472 132.883 250.456 133.05 250.454C133.55 250.445 133.849 250.01 133.849 249.365V241.959C133.825 241.374 133.637 240.807 133.307 240.323C132.976 239.839 132.517 239.458 131.98 239.223L131.974 239.224ZM121.206 245.283C120.838 246.68 120.659 248.12 120.673 249.565C120.683 251.212 120.862 252.854 121.206 254.464C121.46 255.685 122.543 256.804 123.383 256.732L128.98 256.255C129.461 256.214 129.766 255.793 129.739 255.141C129.739 255.027 129.731 254.914 129.731 254.801C129.731 254.688 129.731 254.577 129.739 254.469C129.72 253.738 129.452 253.036 128.98 252.478L123.383 245.531C122.548 244.489 121.465 244.355 121.211 245.281L121.206 245.283ZM125.084 264.405C126.906 267.614 129.233 270.508 131.974 272.976C132.921 273.811 133.849 273.53 133.849 272.405V265.001C133.817 264.258 133.535 263.549 133.05 262.987C132.878 262.786 132.713 262.58 132.551 262.368C132.385 262.103 132.158 261.881 131.889 261.722C131.62 261.562 131.317 261.469 131.005 261.45L125.41 261.927C124.574 261.992 124.406 263.219 125.088 264.404L125.084 264.405ZM139.768 277.474C140.897 277.843 142.09 277.979 143.274 277.876C144.458 277.773 145.609 277.431 146.658 276.872C147.34 276.477 147.172 275.054 146.332 274.015L140.736 267.071C140.57 266.81 140.342 266.594 140.072 266.442C139.803 266.29 139.5 266.207 139.191 266.199C139.026 266.226 138.859 266.24 138.692 266.243C138.193 266.252 137.893 266.686 137.893 267.333V274.74C137.918 275.326 138.108 275.893 138.441 276.376C138.773 276.859 139.234 277.239 139.772 277.472L139.768 277.474Z" fill="url(#paint5_linear_2_1275)"/>
<path d="M213.024 96.0484C213.024 96.0484 217.832 82.679 222.476 88.1103C227.121 93.5417 224.953 113.559 224.953 113.559L213.024 96.0484Z" fill="url(#paint6_radial_2_1275)"/>
<path d="M306.109 184.218C298.613 170.147 220.367 101.093 178.977 68.5292C137.587 35.9651 81.0244 11.5782 67.6713 7.02798C54.3182 2.4778 17.6149 -0.404797 -0.944862 0.0463118C-22.3933 0.566591 -85.7803 41.9258 -94.1326 48.927C-94.1326 48.927 -106 95.8273 -106 100.832C-106 105.634 -96.1801 126.566 -86.3001 134.599C-86.3451 133.835 -86.3767 133.074 -86.3767 132.322C-86.3767 115.055 -74.1893 108.099 -59.1568 116.787C-44.1242 125.476 -31.9353 146.517 -31.9353 163.785C-31.9353 164.733 -31.9789 165.644 -32.051 166.528C9.56004 190.45 67.4054 223.413 110.972 248.179C110.277 245.112 109.915 241.979 109.892 238.835C109.892 221.568 122.078 214.612 137.112 223.3C152.146 231.988 164.332 253.03 164.332 270.298C164.356 272.873 164.037 275.44 163.384 277.931C166.73 279.824 169.243 281.239 170.78 282.11C192.869 294.541 237.914 276.334 281.435 252.057C323.899 228.383 313.608 198.292 306.109 184.218Z" fill="url(#paint7_radial_2_1275)"/>
<g style="mix-blend-mode:multiply">
<path d="M129.624 186.412C109.632 166.088 96.1996 133.254 79.0204 106.992C61.8412 80.7303 -0.319962 54.7765 -13.1262 52.8999C-24.8434 51.1826 -71.5845 53.1735 -93.9644 48.8008L-94.1326 48.9391C-94.1326 48.9391 -106 95.8394 -106 100.844C-106 105.647 -96.1801 126.578 -86.3001 134.611C-86.3451 133.847 -86.3767 133.086 -86.3767 132.334C-86.3767 115.067 -74.1893 108.111 -59.1568 116.799C-44.1242 125.488 -31.9444 146.529 -31.9444 163.797C-31.9444 164.745 -31.9879 165.656 -32.06 166.54C9.55102 190.463 67.3964 223.425 110.963 248.191C110.268 245.124 109.906 241.991 109.883 238.847C109.883 221.58 122.069 214.624 137.103 223.312C152.137 232.001 164.323 253.042 164.323 270.31C164.347 272.885 164.028 275.452 163.375 277.943C166.721 279.836 169.234 281.251 170.771 282.122C177.185 285.731 185.543 286.744 195.228 285.789C196.37 272.936 196.85 254.377 191.154 247.692C182.1 237.065 149.615 206.736 129.624 186.412Z" fill="#E5E9FF"/>
</g>
<path opacity="0.5" d="M194.257 246.253C185.199 235.621 152.714 205.292 132.723 184.968C112.731 164.644 96.8319 130.094 79.6527 103.83C62.4735 77.5664 2.77895 53.3328 -10.0288 51.4562C-21.746 49.739 -68.4856 51.7299 -90.8669 47.3586C-90.921 47.4038 -28.5089 50.742 -17.9409 52.2908C-5.13466 54.1659 57.2669 77.7769 74.4446 104.039C91.6223 130.301 105.056 163.134 125.048 183.458C145.039 203.782 177.284 236.456 186.338 247.086C191.961 253.684 191.564 271.826 190.457 284.654C193.084 284.713 195.712 284.613 198.327 284.353C199.473 271.497 199.955 252.936 194.257 246.253Z" fill="#00C2BE"/>
<path d="M-15.4172 46.1257L50.5955 8.50022C50.5955 8.50022 21.2335 -0.150562 -7.50361 9.54227C-36.2408 19.2351 -61.96 38.7245 -60.7102 43.7273C-59.4603 48.7301 -22.6023 48.0008 -15.4172 46.1257Z" fill="url(#paint8_linear_2_1275)"/>
<path d="M2.10147 9.36628C8.79426 7.14131 15.7115 5.66124 22.7282 4.95291C12.4681 4.8192 2.25547 6.3695 -7.50368 9.5422C-36.2408 19.235 -61.96 38.7244 -60.7102 43.7272C-60.4593 44.7287 -58.7679 45.4971 -56.1901 46.076C-55.2842 39.6402 -28.1244 19.5628 2.10147 9.36628Z" fill="url(#paint9_linear_2_1275)"/>
<path d="M92.4005 109.995C94.7439 100.459 158.981 66.0315 165.229 65.7188C171.476 65.406 234.574 114.496 232.386 126.378C230.199 138.26 158.984 184.218 135.364 174.656C109.197 164.054 90.4221 118.062 92.4005 109.995Z" fill="url(#paint10_linear_2_1275)"/>
<path d="M95.0519 110.848C97.3292 101.577 159.78 68.1082 165.854 67.8044C171.927 67.5007 233.27 115.223 231.142 126.775C229.015 138.326 159.78 183.013 136.818 173.708C111.378 163.403 93.1245 118.691 95.0519 110.848Z" fill="url(#paint11_linear_2_1275)"/>
<path d="M222.458 110.503C223.634 112.149 224.233 114.138 224.16 116.16C221.918 128.351 150.552 174.663 124.052 167.513C127.41 170.494 131.232 172.907 135.367 174.656C158.986 184.222 230.205 138.266 232.391 126.378C232.977 123.198 228.883 117.353 222.458 110.503Z" fill="url(#paint12_linear_2_1275)"/>
<path d="M105.259 176.719L-62.8958 78.6431C-62.8958 78.6431 -25.3091 54.1509 3.42955 64.1565C32.1682 74.1621 75.2724 104.49 83.0809 122.626C90.8893 140.762 105.259 176.719 105.259 176.719Z" fill="url(#paint13_linear_2_1275)"/>
<path d="M100.685 172.967L-58.3232 80.225C-58.3232 80.225 -22.7796 57.0681 4.3938 66.5263C31.5672 75.9846 72.3294 104.668 79.7142 121.816C87.0991 138.964 100.685 172.967 100.685 172.967Z" fill="url(#paint14_linear_2_1275)"/>
<path d="M222.5 239.253C222.5 239.253 231.193 255.042 235.619 255.2C240.044 255.358 251.626 251.27 274.742 237.826C289.517 229.231 296.062 223.306 297.519 218.616C298.976 213.926 295.281 197.355 295.281 197.355C295.281 197.355 286.535 207.674 262.794 221.114C249.854 228.198 236.382 234.263 222.5 239.253Z" fill="url(#paint15_linear_2_1275)"/>
<path style="mix-blend-mode:screen" d="M295.287 197.355C295.287 197.355 294.836 197.88 293.887 198.84C294.872 203.851 296.561 213.624 295.494 217.054C294.037 221.744 287.493 227.668 272.718 236.262C249.603 249.707 238.017 253.792 233.594 253.636C233.135 253.6 232.69 253.461 232.293 253.228C233.153 254.239 234.326 254.933 235.625 255.2C240.051 255.35 251.633 251.27 274.749 237.826C289.523 229.231 296.068 223.306 297.525 218.616C298.982 213.926 295.287 197.355 295.287 197.355Z" fill="url(#paint16_radial_2_1275)"/>
<path d="M216.356 240.295L227.602 258.013C227.602 258.013 213.44 261.348 204.07 260.828C200.086 260.531 196.227 259.313 192.794 257.27C189.361 255.226 186.449 252.413 184.287 249.051C181.371 244.048 180.746 234.876 180.746 234.876C180.746 234.876 192.201 240.087 200.947 241.341C206.098 242.108 211.355 241.751 216.356 240.295Z" fill="url(#paint17_linear_2_1275)"/>
<path style="mix-blend-mode:multiply" d="M216.356 240.295L227.602 258.013C227.602 258.013 211.363 255.876 198.76 249.442C186.156 243.008 180.744 234.877 180.744 234.877C180.744 234.877 192.198 240.089 200.944 241.343C206.097 242.109 211.354 241.752 216.356 240.295Z" fill="url(#paint18_linear_2_1275)"/>
<path d="M299.176 196.177L301.345 215.803C301.345 215.803 311.964 207.256 312.589 200.164C313.214 193.073 307.515 185.391 307.515 185.391C305.703 189.641 302.832 193.355 299.176 196.177Z" fill="url(#paint19_linear_2_1275)"/>
<path style="mix-blend-mode:multiply" d="M299.177 196.177L301.346 215.803C301.346 215.803 306.528 204.442 307.151 197.355C307.527 193.38 307.649 189.386 307.516 185.395C305.704 189.644 302.833 193.356 299.177 196.177Z" fill="url(#paint20_linear_2_1275)"/>
<path d="M217.516 247.983L213.076 257.389C213.076 257.389 199.556 249.018 200.894 246.125C202.233 243.232 217.516 247.983 217.516 247.983Z" fill="url(#paint21_linear_2_1275)"/>
<path d="M211.631 254.658C211.631 257.028 213.304 257.983 215.368 256.791C216.454 256.085 217.358 255.133 218.008 254.012C218.657 252.891 219.033 251.632 219.106 250.338C219.106 247.968 217.432 247.013 215.368 248.206C214.282 248.912 213.378 249.864 212.728 250.985C212.079 252.106 211.703 253.364 211.631 254.658Z" fill="url(#paint22_linear_2_1275)"/>
<path d="M207.011 247.722L202.535 257.206C202.535 257.206 188.895 248.764 190.248 245.845C191.602 242.926 207.011 247.722 207.011 247.722Z" fill="url(#paint23_linear_2_1275)"/>
<path d="M201.076 254.452C201.076 256.843 202.764 257.807 204.845 256.603C205.94 255.891 206.852 254.931 207.507 253.801C208.162 252.67 208.541 251.401 208.614 250.096C208.614 247.705 206.927 246.743 204.845 247.946C203.75 248.657 202.838 249.617 202.183 250.748C201.528 251.878 201.149 253.147 201.076 254.452Z" fill="url(#paint24_linear_2_1275)"/>
<path d="M198.689 242.26L194.743 250.621C194.743 250.621 182.725 243.179 183.912 240.606C185.099 238.033 198.689 242.26 198.689 242.26Z" fill="url(#paint25_radial_2_1275)"/>
<path d="M193.458 248.188C193.458 250.293 194.945 251.144 196.779 250.084C197.745 249.457 198.549 248.61 199.126 247.613C199.703 246.617 200.038 245.498 200.102 244.347C200.102 242.242 198.615 241.39 196.779 242.451C195.814 243.079 195.011 243.925 194.433 244.922C193.856 245.919 193.522 247.038 193.458 248.188Z" fill="url(#paint26_radial_2_1275)"/>
<path d="M307.599 198.343L303.652 206.705C303.652 206.705 298.587 200.943 299.781 198.37C300.975 195.798 307.599 198.343 307.599 198.343Z" fill="url(#paint27_linear_2_1275)"/>
<path d="M308.056 198.31C306.766 197.556 304.663 198.756 303.357 200.992C302.052 203.227 302.039 205.651 303.328 206.405C304.617 207.16 306.721 205.959 308.026 203.724C309.332 201.488 309.345 199.065 308.056 198.31Z" fill="url(#paint28_linear_2_1275)"/>
<path d="M309.803 191.256L306.765 197.689C306.765 197.689 302.38 194.566 303.298 192.587C304.216 190.608 309.803 191.256 309.803 191.256Z" fill="url(#paint29_linear_2_1275)"/>
<path d="M305.777 195.822C305.777 197.444 306.921 198.097 308.33 197.282C309.073 196.799 309.691 196.147 310.134 195.38C310.578 194.613 310.835 193.752 310.884 192.867C310.884 191.246 309.741 190.593 308.33 191.408C307.588 191.891 306.97 192.543 306.527 193.31C306.083 194.076 305.826 194.937 305.777 195.822Z" fill="url(#paint30_linear_2_1275)"/>
<path opacity="0.2" d="M-62.4706 80.5046L107.658 178.245L137.958 210.138L134.835 213.264L108.596 204.197L-82.7849 94.6574L-62.4706 80.5046Z" fill="#00C2BE"/>
<g style="mix-blend-mode:multiply">
<path style="mix-blend-mode:multiply" d="M310.208 223.09C301.152 231.762 291.577 239.875 281.537 247.383C261.546 261.969 211.776 277.758 193.242 268.644C189.866 266.99 177.478 260.008 159.483 249.711C162.505 256.168 164.156 263.183 164.329 270.312C164.353 272.887 164.034 275.454 163.381 277.944C166.727 279.838 169.24 281.253 170.776 282.123C192.859 294.554 237.911 276.348 281.432 252.07C297.813 242.935 306.335 232.846 310.208 223.09Z" fill="url(#paint31_linear_2_1275)"/>
<path style="mix-blend-mode:multiply" d="M110.969 248.195C110.274 245.129 109.912 241.996 109.889 238.851C109.889 232.285 111.654 227.214 114.666 223.924C66.0849 195.865 4.43446 160.017 -42.8188 132.499C-36.2092 142.021 -31.9384 153.568 -31.9384 163.793C-31.9384 164.74 -31.982 165.651 -32.0541 166.536C9.56297 190.462 67.4023 223.425 110.969 248.195Z" fill="url(#paint32_linear_2_1275)"/>
</g>
<path d="M176.166 250.822C176.166 250.822 196.472 263.129 204.904 263.329C218.022 263.641 244.275 257.196 270.726 240.874C311.524 215.699 312.981 199.543 312.981 199.543C312.981 199.543 316.097 219.075 314.854 228.309C313.612 237.543 305.476 249.352 269.875 268.019C235.591 285.997 207.714 289.594 194.28 288.03C186.22 287.099 178.318 285.114 170.773 282.126L176.166 250.822Z" fill="url(#paint33_radial_2_1275)"/>
<path style="mix-blend-mode:color-dodge" d="M206.361 266.038C219.479 266.351 245.733 259.906 272.184 243.584C303.508 224.254 311.633 210.253 313.722 204.788C313.316 201.647 312.981 199.545 312.981 199.545C312.981 199.545 311.522 215.701 270.725 240.875C244.275 257.198 218.022 263.643 204.903 263.33C196.472 263.13 176.166 250.824 176.166 250.824L175.734 253.332C184.697 258.049 200.467 265.898 206.361 266.038Z" fill="url(#paint34_radial_2_1275)"/>
<path style="mix-blend-mode:multiply" d="M314.856 228.309C315.194 225.037 315.249 221.743 315.021 218.461C304.522 228.844 293.336 238.506 281.539 247.383C261.547 261.969 211.778 277.758 193.244 268.644C190.942 267.513 184.45 263.909 174.851 258.469L170.778 282.126C178.321 285.113 186.222 287.098 194.28 288.03C207.711 289.594 235.591 285.997 269.872 268.019C305.478 249.352 313.615 237.543 314.856 228.309Z" fill="url(#paint35_linear_2_1275)"/>
<path style="mix-blend-mode:multiply" d="M314.856 228.309C315.194 225.037 315.249 221.743 315.021 218.461C304.522 228.844 293.336 238.506 281.539 247.383C261.547 261.969 211.778 277.758 193.244 268.644C190.942 267.513 184.45 263.909 174.851 258.469L170.778 282.126C178.321 285.113 186.222 287.098 194.28 288.03C207.711 289.594 235.591 285.997 269.872 268.019C305.478 249.352 313.615 237.543 314.856 228.309Z" fill="url(#paint36_linear_2_1275)"/>
<path d="M85.8193 165.381L105.259 176.719C105.259 176.719 97.2346 156.638 89.9203 138.922L85.8193 165.381Z" fill="url(#paint37_linear_2_1275)"/>
<path style="mix-blend-mode:screen" d="M101.472 100.857C147.667 114.521 196.06 114.151 224.543 112.786C207.824 93.9748 169.997 65.4813 165.233 65.7204C160.344 65.964 119.928 87.1074 101.472 100.857Z" fill="url(#paint38_linear_2_1275)"/>
<path d="M265.294 267.393C296.738 251.755 309.864 238.465 311.323 233.879C312.781 229.293 309.948 233.542 303.825 238.258C295.704 244.51 283.228 252.052 262.794 262.808C228.305 280.963 205.736 279.901 204.695 281.985C203.654 284.069 219.389 290.216 265.294 267.393Z" fill="url(#paint39_linear_2_1275)"/>
<path opacity="0.5" d="M240.596 128.13C240.596 128.13 300.998 176.189 292.326 188.592C283.654 200.994 225.729 239.442 202.807 232.31C179.884 225.178 144.883 183.941 144.883 183.941C144.883 183.941 185.77 174.329 212.099 156.347C238.428 138.364 240.596 128.13 240.596 128.13Z" fill="#00C2BE"/>
<path style="mix-blend-mode:screen" d="M216.356 240.295C216.356 240.295 210.577 257.193 190.019 249.64C184.587 247.645 180.746 234.876 180.746 234.876C180.746 234.876 192.201 240.087 200.946 241.341C206.098 242.108 211.355 241.751 216.356 240.295Z" fill="url(#paint40_radial_2_1275)"/>
<path d="M90.368 99.2452C90.368 99.2452 156.277 62.349 156.901 60.1611C157.524 57.9732 71.6265 10.7587 60.0686 10.7587C48.5106 10.7587 -0.842809 44.5272 1.65686 47.3406C4.15652 50.154 43.2078 64.2226 54.7658 73.2929C66.3237 82.3632 81.0047 94.5551 90.368 99.2452Z" fill="#00C2BE"/>
<path d="M18.1106 125.856L35.6037 135.862L41.6426 84.1662L32.063 78.1213L18.1106 125.856Z" fill="url(#paint41_linear_2_1275)"/>
<path opacity="0.5" d="M105.663 177.708C102.295 187.086 100.37 196.923 99.9551 206.88C99.2551 219.709 99.0763 229.68 99.0313 233.871L26.0873 191.789C25.6407 174.836 26.0704 157.872 27.3747 140.964C29.5814 113.84 38.7914 82.7482 38.8845 82.4369L36.49 81.7212C36.3969 82.0355 27.1118 113.369 24.8856 140.761C23.6135 157.248 23.1673 173.789 23.5486 190.321L-18.1977 166.244C-19.3829 163.67 -26.7167 147.732 -34.6844 129.931C-37.1899 124.541 -38.6085 118.709 -38.8591 112.768C-39.1096 106.828 -38.1871 100.897 -36.1445 95.3146L-38.4203 94.2801C-38.7283 94.9567 -45.8593 111.084 -36.9647 130.954C-28.297 150.32 -20.3789 167.483 -20.2992 167.653L-20.134 168.015L101.511 238.187V236.023C101.511 235.904 101.522 223.978 102.446 207.012C102.878 197.335 104.743 187.776 107.978 178.646L105.663 177.708Z" fill="#00C2BE"/>
<path style="mix-blend-mode:multiply" d="M103.697 175.78C103.697 175.78 81.9886 193.446 70.7431 187.509C59.4976 181.573 92.2967 168.278 92.2967 168.278L103.697 175.78Z" fill="url(#paint42_linear_2_1275)"/>
<path d="M90.3814 158.933C87.0886 158.632 71.3034 159.942 68.6821 166.892C66.0608 173.842 103.394 177.698 104.598 176.203C105.803 174.708 97.5965 159.602 90.3814 158.933Z" fill="url(#paint43_radial_2_1275)"/>
<path style="mix-blend-mode:screen" d="M89.7909 160.128C87.2041 159.877 74.8395 160.644 72.8551 165.554C70.8707 170.463 100.195 173.591 101.122 172.542C102.049 171.492 95.4572 160.679 89.7909 160.128Z" fill="url(#paint44_linear_2_1275)"/>
<path style="mix-blend-mode:screen" d="M-54.7795 78.1032C-18.3721 87.8111 18.7337 89.2516 45.847 88.7268C32.192 79.261 16.865 70.8689 4.39373 66.5263C-17.6241 58.8604 -45.1339 72.6102 -54.7795 78.1032Z" fill="url(#paint45_linear_2_1275)"/>
<path opacity="0.5" d="M-26.1594 169.933C-26.1057 168.931 -25.6967 167.982 -25.006 167.256C-24.3153 166.529 -23.3884 166.073 -22.3919 165.97C-19.8021 165.988 -17.5472 168.954 -15.1151 168.063C-16.1126 166.045 -14.2258 163.512 -12.0011 163.16C-10.8756 163.088 -9.74781 163.259 -8.69438 163.663C-7.64096 164.066 -6.6866 164.691 -5.89618 165.497C-4.33096 167.115 -2.66519 168.634 -0.908855 170.042C1.10163 171.389 3.50266 172.027 5.9157 171.857C9.35875 171.605 13.2088 169.815 15.9804 171.883C18.6844 173.904 18.1631 177.982 17.9783 181.356C17.7214 187.151 19.2808 192.882 22.4384 197.746C5.30274 187.962 -11.3056 178.456 -26.1594 169.933Z" fill="url(#paint46_linear_2_1275)"/>
<path opacity="0.5" d="M15.7581 182.538C15.9429 179.141 16.4686 175.032 13.7452 172.994C10.9601 170.911 7.07988 172.713 3.61279 172.968C1.17775 173.14 -1.24503 172.495 -3.27328 171.135C-5.04134 169.715 -6.71905 168.185 -8.29664 166.555C-9.06493 165.787 -9.97927 165.181 -10.9856 164.773C-11.9918 164.365 -13.0697 164.163 -14.1553 164.179C-13.8871 164.065 -13.6061 163.984 -13.3185 163.937C-12.1927 163.865 -11.0644 164.036 -10.0106 164.439C-8.95686 164.842 -8.00236 165.468 -7.21207 166.274C-5.64649 167.892 -3.98075 169.411 -2.22475 170.82C-0.214135 172.169 2.18815 172.809 4.60274 172.639C8.04429 172.387 11.896 170.597 14.6675 172.665C17.3715 174.687 16.8487 178.765 16.6655 182.138C16.35 187.897 17.7576 191.622 20.8716 196.473C20.2677 196.133 15.4727 187.747 15.7581 182.538Z" fill="url(#paint47_linear_2_1275)"/>
<g clip-path="url(#clip0_2_1275)">
<path opacity="0.5" d="M146.8 164.459C144.136 166.675 142.535 157.19 137.762 161.398C134.94 163.901 131.42 160.968 129.374 157.621C128.518 156.186 129.232 155.373 125.981 153.779C123.349 152.472 121.018 154.592 116.372 149.699C113.328 146.511 116.372 141.729 116.372 139.672C116.515 132.181 119.068 127.08 124.173 124.482C125.295 123.976 126.555 123.874 127.742 124.194C128.929 124.513 129.97 125.234 130.69 126.235C131.769 127.686 133.973 126.745 135.273 125.47C138.301 122.489 152.255 132.579 154.395 134.364C155.474 135.273 155.474 135.464 156.124 139.146C156.916 143.578 159.025 160.952 152.873 151.643C150.162 147.547 149.813 161.988 146.8 164.459Z" fill="url(#paint48_linear_2_1275)"/>
<path d="M147.355 154.178C144.676 156.409 140.664 154.831 137.699 153.046C134.528 151.101 133.212 146.973 129.898 145.076C128.439 144.263 124.316 149.061 121.066 147.451C119.741 146.802 118.584 145.852 117.687 144.676C116.79 143.5 116.177 142.131 115.897 140.677C115.384 138.442 115.207 136.142 115.373 133.854C116.737 126.044 116.848 124.195 122.16 120.704C123.251 119.981 124.488 119.509 125.781 119.321C127.075 119.134 128.394 119.236 129.644 119.62C130.35 119.975 131.129 120.16 131.919 120.16C132.709 120.16 133.488 119.975 134.195 119.62C137.842 117.548 139.776 116.815 143.914 117.755C148.513 118.807 152.366 122.665 151.716 127.351C151.319 130.124 154.887 133.504 155.41 135.879C155.823 137.056 155.876 138.33 155.563 139.537C155.249 140.744 154.583 141.83 153.65 142.653C149.765 145.698 150.352 151.675 147.355 154.178Z" fill="#CED3F4"/>
<path d="M110.077 144.693C111.047 145.004 111.891 145.618 112.488 146.447C113.227 147.308 113.735 148.345 113.962 149.459C113.962 149.459 101.135 161.988 94.6018 167.169C88.069 172.349 71.0554 183.539 66.9486 177.083C64.9983 174.023 67.0914 170.277 72.9264 167.631C79.3523 164.734 85.5581 161.367 91.494 157.557C101.896 150.512 110.077 144.693 110.077 144.693Z" fill="#08505F"/>
<path d="M133.227 151.5C133.227 151.5 133.354 150.767 132.006 149.332C131.111 148.431 129.977 147.806 128.74 147.531C128.74 147.531 113.708 163.008 110.727 165.065C107.746 167.121 94.4748 174.947 94.4748 174.947C92.0832 175.736 89.493 175.663 87.1493 174.74C77.9051 171.329 71.7371 167.137 67.5986 171.361C65.3788 173.64 62.6357 188.895 58.5765 201.328C55.0723 212.039 52.0596 220.79 52.0596 220.79C55.9422 225.171 60.6957 228.684 66.013 231.103C71.7882 233.613 78.2632 233.975 84.2793 232.124C86.3799 223.753 88.9366 215.505 91.9378 207.417C95.664 197.375 98.9621 189.229 106.208 181.419C111.203 176.079 115.722 172.11 116.293 171.568C118.608 169.544 133.227 151.5 133.227 151.5Z" fill="url(#paint49_linear_2_1275)"/>
<path d="M88.6715 176.063C88.0373 177.96 84.2952 178.39 80.3153 177.019C76.3354 175.649 73.624 173.019 74.2583 171.138C74.8925 169.257 78.6346 168.826 82.6303 170.181C86.6261 171.536 89.3058 174.182 88.6715 176.063Z" fill="white"/>
<path d="M87.8312 175.218C87.2445 176.956 83.9623 177.418 80.5215 176.238C77.0807 175.059 74.7657 172.7 75.3524 170.946C75.9391 169.193 79.2213 168.747 82.5987 169.958C85.976 171.17 88.4179 173.465 87.8312 175.218Z" fill="#FFD4C0"/>
<path d="M89.4009 169.847L87.8153 175.139L75.7646 170.357C75.7646 170.357 77.8259 167.854 77.3502 165.989C76.8745 164.124 69.0416 154.831 80.8861 148.854C92.7307 142.876 93.5711 155.453 94.2529 159.071C94.9347 162.69 94.6969 166.276 94.126 167.041C93.5552 167.806 90.0352 169.257 89.4009 169.847Z" fill="#FFD4C0"/>
<path d="M93.8406 146.463C97.0119 149.173 88.6715 156.537 88.6715 156.537C89.1129 158.054 89.3319 159.627 89.3216 161.207C88.9887 162.084 87.9422 158.928 86.1504 160.458C84.3587 161.988 83.9464 168.061 82.9792 168.683C81.7107 169.544 77.8735 168.189 77.0965 166.738C76.4623 165.559 70.0088 155.15 77.2075 149.539C84.4062 143.928 90.9865 143.96 93.8406 146.463Z" fill="#363339"/>
<g style="mix-blend-mode:multiply">
<path d="M102.086 186.44C97.5511 192.736 94.8555 199.447 91.938 207.337C88.9339 215.451 86.3772 223.726 84.2795 232.124C82.893 232.558 81.4709 232.867 80.03 233.048L79.3958 232.952C83.2488 207.162 92.8418 196.291 94.697 193.677C96.3302 191.302 99.4538 189.086 102.086 186.44Z" fill="#CED3F4"/>
</g>
<path d="M141.821 138.078C143.724 139.672 143.264 144.104 139.681 146.654C136.097 149.205 134.115 150.496 133.608 151.309C133.101 152.121 130.865 155.947 130.865 155.947L125.41 150.145C125.41 150.145 128.074 147.515 128.582 147.164C129.085 146.415 129.495 145.607 129.802 144.757L131.245 145.634C131.245 145.634 138.412 135.018 141.821 138.078Z" fill="url(#paint50_radial_2_1275)"/>
<path d="M125.204 133.536C123.444 131.703 119.068 132.372 116.705 136.038C114.343 139.704 113.138 141.808 112.361 142.414L108.048 145.602L114.057 150.384C114.057 150.384 116.388 147.866 116.721 147.419C117.442 146.863 118.23 146.403 119.068 146.048L118.132 144.646C118.132 144.646 128.312 136.803 125.204 133.536Z" fill="url(#paint51_radial_2_1275)"/>
<path d="M52.8524 318.342C54.2319 318.438 56.8323 317.37 56.8323 316.748C56.8323 316.127 54.3112 314.278 53.9147 314.118C53.4675 314.001 53.0114 313.921 52.5511 313.879V310.882C52.5511 310.882 50.6959 309.575 49.6336 308.715C48.934 308.129 48.192 307.596 47.4137 307.121C46.2689 308.191 45.1787 309.319 44.1473 310.5C43.5924 311.313 44.7023 312.875 46.9697 314.102C49.2372 315.33 52.1547 318.295 52.8524 318.342Z" fill="#363339"/>
<path d="M43.8461 310.803C43.6371 311.102 43.5002 311.446 43.4461 311.808C43.392 312.169 43.4223 312.539 43.5346 312.886C43.6468 313.234 43.838 313.551 44.0929 313.812C44.3479 314.073 44.6596 314.27 45.0036 314.389C46.5892 315.202 51.8535 318.693 52.8048 319.044C54.2968 319.029 55.7309 318.462 56.8323 317.45C56.9 317.254 56.9 317.04 56.8323 316.844C56.8323 316.844 54.6124 318.438 53.3598 317.912C51.2981 316.784 49.4298 315.331 47.826 313.608C46.6299 312.499 45.2913 311.555 43.8461 310.803Z" fill="black"/>
<path d="M20.0303 283.482C19.0696 286.02 18.2543 288.612 17.5884 291.245C17.2396 293.381 16.3041 298.8 14.5757 298.178C12.8474 297.557 16.6846 278.349 16.6846 278.349L20.0303 283.482Z" fill="#363339"/>
<path d="M16.3674 278.174C19.3483 278.636 18.1908 284.119 17.5249 286.622C16.8589 289.125 16.3674 298.577 14.6232 298.178C13.371 297.674 12.2842 296.827 11.4857 295.734C10.6871 294.641 10.2086 293.346 10.1042 291.994C10.1042 289.188 12.2289 285.347 12.5778 283.737C12.9266 282.127 12.9266 277.632 16.3674 278.174Z" fill="black"/>
<path d="M35.0301 257.627L50.5532 219.372L57.4665 203.432L59.734 205.823L61.8111 206.97C63.3967 204.229 67.4083 196.227 71.3248 190.68C70.4701 186.751 69.9398 182.758 69.7392 178.741C69.5489 168.571 75.6218 167.711 75.8914 167.679L77.2392 167.535L76.4146 169.56C75.4363 170.123 74.6595 170.982 74.1948 172.014C73.4042 174.138 73.0273 176.395 73.0848 178.661C73.2092 181.396 73.5325 184.119 74.0521 186.807L75.4474 185.005C78.9939 180.634 83.2899 176.936 88.1323 174.087L92.6196 175.426C87.0411 178.319 82.1094 182.327 78.1271 187.205C77.0647 188.528 75.9865 189.979 74.9559 191.445C76.9696 200.881 79.2529 212.996 79.3005 213.171H79.1419L80.8861 213.809L90.2254 214.016L86.8004 227.533C86.4833 232.171 85.7381 241.289 84.5964 247.649C82.9119 257.226 79.6652 266.457 74.9876 274.97L52.4718 311.663C51.4965 311.441 50.5607 311.07 49.697 310.564C48.5509 309.831 47.4592 309.016 46.4306 308.125L63.4126 270.108C63.4126 270.108 63.1906 254.742 63.0479 241.974C54.7551 252.399 45.8122 263.589 44.8767 264.561C43.1167 266.41 19.4117 283.785 19.4117 283.785L16.2405 278.206L35.0301 257.627ZM75.3047 211.832C74.4802 208.851 73.5922 201.136 72.292 195.366C69.5013 199.527 66.5204 205.807 65.1409 208.118L75.3047 211.832Z" fill="#C0C6DE"/>
<g style="mix-blend-mode:multiply">
<path d="M70.9444 272.627C74.5279 266.06 78.8725 226.401 78.8725 226.401L82.5987 213.888L90.1621 214.064L86.7372 227.581C86.4201 232.219 85.6748 241.337 84.5332 247.697C82.8634 257.253 79.6384 266.468 74.9878 274.97L52.472 311.664H52.3135H52.139H52.0122H51.8219H51.6633H51.4414H51.2511L50.9974 311.552H50.8071L50.4424 311.393H50.3314C50.3314 311.393 67.361 279.21 70.9444 272.627Z" fill="#CED3F4"/>
</g>
<g style="mix-blend-mode:multiply">
<path d="M41.9277 262.856L62.9371 228.649C62.9371 231.837 62.9371 236.619 63.0481 241.974C54.7553 252.399 45.8124 263.589 44.8769 264.561C43.1169 266.41 19.4119 283.785 19.4119 283.785L18.1276 281.537L41.9277 262.856Z" fill="#CED3F4"/>
</g>
</g>
<path opacity="0.5" d="M180.215 118.41C177.435 119.396 174.216 118.779 171.572 120.086C167.879 121.912 166.777 126.838 167.657 130.866C168.537 134.895 170.872 138.428 172.408 142.254C173.949 146.095 174.68 150.213 174.557 154.351C174.345 156.505 174.334 158.674 174.523 160.83C174.629 161.91 174.997 162.948 175.594 163.854C176.191 164.76 177 165.506 177.95 166.029C179.605 166.67 181.417 166.787 183.14 166.362C195.104 162.847 194.106 179.745 203.756 176.075C215.474 171.624 184.803 158.319 212.651 153.008C218.047 151.98 216.814 161.053 231.044 158.814C240.234 157.369 230.312 140.192 230.813 136.057C231.313 131.922 232.817 127.557 230.822 123.903C229.504 121.488 220.539 116.008 218.308 113.677C214.173 109.339 209.053 102.162 203.319 101.497C197.585 100.833 194.285 100.4 190.762 104.976C187.214 109.584 185.694 116.467 180.215 118.41Z" fill="url(#paint52_linear_2_1275)"/>
<path opacity="0.5" d="M186.155 113.586C187.821 110.956 189.122 107.837 191.013 105.38C191.027 105.364 191.04 105.351 191.052 105.336C189.341 108.042 188.028 111.175 186.155 113.586Z" fill="url(#paint53_linear_2_1275)"/>
<path opacity="0.5" d="M173.335 141.172C174.845 144.932 176.347 148.199 176.223 152.249C176.015 154.364 176.005 156.494 176.191 158.611C176.294 159.673 176.654 160.694 177.24 161.585C177.827 162.476 178.622 163.21 179.556 163.723C181.18 164.354 182.96 164.469 184.651 164.051C196.4 160.6 195.418 177.187 204.897 173.588C205.153 173.488 205.403 173.374 205.648 173.248C205.079 173.804 204.392 174.224 203.638 174.478C194.256 178.04 195.225 161.624 183.601 165.041C181.927 165.453 180.166 165.34 178.558 164.716C177.635 164.208 176.849 163.483 176.269 162.603C175.689 161.723 175.332 160.714 175.23 159.665C175.046 157.569 175.056 155.461 175.261 153.367C175.382 149.347 174.671 145.344 173.175 141.612C171.686 137.891 171.826 137.418 173.335 141.172Z" fill="url(#paint54_linear_2_1275)"/>
<path d="M311.062 159.31L313.338 151.993L329.327 156.137C329.928 153.629 333.601 136.063 334.612 132.89C336.545 126.827 338.409 116.749 346.653 120.143C351.761 122.248 350.474 129.905 348.456 135.18C347.14 138.619 345.324 143.861 344.25 147.192C343.332 150.031 337.822 166.944 333.78 167.889C329.737 168.833 325.161 166.392 321.517 164.719C317.55 162.905 311.062 159.31 311.062 159.31Z" fill="url(#paint55_linear_2_1275)"/>
<g style="mix-blend-mode:multiply">
<path d="M321.507 164.723C317.55 162.905 311.062 159.31 311.062 159.31L311.479 157.967C315.14 159.394 330.134 165.358 332.66 163.914C335.491 162.295 339.33 140.646 339.33 140.646L343.879 126.28L350.172 125.56C350.302 128.854 349.717 132.138 348.455 135.183C347.139 138.622 345.322 143.864 344.248 147.195C343.331 150.034 337.82 166.947 333.778 167.892C329.736 168.836 325.151 166.397 321.507 164.723Z" fill="#CED3F4"/>
</g>
<path d="M339.694 121.074C341.636 119.195 344.177 118.06 346.871 117.868C345.768 118.765 344.962 119.976 344.562 121.342L353.832 118.757C354.795 118.963 355.814 119.074 356.718 119.316C356.372 119.144 356.013 118.996 355.646 118.874C357.126 119.342 358.555 119.96 359.91 120.718C364.926 123.331 370.148 124.796 371.628 129.045C372.931 132.78 373.026 177.066 373.163 179.339C373.603 186.607 341.016 175.391 340.706 170.192C340.308 163.626 337.036 136.522 337.065 133.875C337.093 131.229 337.526 123.291 339.694 121.074Z" fill="url(#paint56_linear_2_1275)"/>
<path d="M355.65 118.874C355.452 118.817 355.259 118.749 355.049 118.703C355.057 118.703 355.295 118.757 355.65 118.874Z" fill="url(#paint57_linear_2_1275)"/>
<g style="mix-blend-mode:multiply">
<path d="M366.223 162.093L362.876 134.036L371.81 129.856C372.947 136.866 373.04 177.173 373.171 179.339C373.291 181.321 369.442 182.327 365.977 182.057L366.223 162.093Z" fill="#CED3F4"/>
</g>
<path opacity="0.9" d="M286.274 148.132C251.507 134.104 208.042 99.5938 194.169 105.577C176.643 113.129 321.033 162.161 286.274 148.132Z" fill="url(#paint58_linear_2_1275)"/>
<path opacity="0.9" d="M288.494 148.428C252.261 138.804 193.51 102.028 185.916 114.187C174.995 131.675 324.727 158.041 288.494 148.428Z" fill="url(#paint59_linear_2_1275)"/>
<path opacity="0.9" d="M282.562 149.279C245.088 148.387 187.932 167.077 181.764 154.134C175.596 141.192 320.038 150.171 282.562 149.279Z" fill="url(#paint60_linear_2_1275)"/>
<path opacity="0.9" d="M285.16 148.965C247.831 145.535 180.456 158.712 177.452 144.693C173.792 127.633 322.488 152.396 285.16 148.965Z" fill="url(#paint61_linear_2_1275)"/>
<path opacity="0.9" d="M282.123 148.693C245.893 139.069 173.514 146.287 176.083 127.514C178.531 109.622 318.353 158.322 282.123 148.693Z" fill="url(#paint62_linear_2_1275)"/>
<path d="M346.724 255.759L347.146 258.165C347.243 258.722 347.159 259.295 346.905 259.8C346.652 260.305 346.243 260.716 345.739 260.971C345.305 261.203 344.856 261.404 344.394 261.572C343.427 261.873 337.018 265.874 334.33 266.412C331.435 266.99 329.407 266.059 329.362 265.223C329.317 264.387 330.066 263.023 332.703 261.313C334.708 259.695 336.368 257.69 337.583 255.417L346.724 255.759Z" fill="black"/>
<path d="M346.943 258.488C346.548 258.972 342.856 259.625 340.909 261.124C338.849 262.709 335.479 265.068 333.195 265.462C331.116 265.82 329.519 264.781 329.719 263.984C330.004 262.84 331.911 261.789 333.581 260.512C334.934 259.277 336.103 257.855 337.053 256.288L346.547 255.672L346.943 258.488Z" fill="#363339"/>
<path d="M376.589 265.5L376.646 268.092C376.656 268.524 376.578 268.954 376.417 269.356C376.256 269.757 376.016 270.121 375.711 270.427L374.875 271.263C373.469 273.219 371.703 274.888 369.673 276.183C366.697 278.111 363.094 277.643 362.215 276.935C361.336 276.227 361.336 275.571 363.534 272.624C365.731 269.677 368.897 265.406 368.897 265.406L376.589 265.5Z" fill="black"/>
<path d="M376.362 267.811C374.789 269.244 373.347 270.815 372.054 272.507C370.388 275.128 365.988 277.14 363.087 276.171C360.187 275.203 364.098 272.167 364.89 270.847C365.682 269.527 367.923 266.227 367.923 266.227L376.496 266.139L376.362 267.811Z" fill="#363339"/>
<g style="mix-blend-mode:multiply">
<path d="M365.369 180.807L374.725 178.933C374.73 178.948 374.734 178.962 374.737 178.977C375.326 183.598 375.382 188.271 374.904 192.904C374.232 199.8 370.076 212.001 369.144 229.805C368.877 234.895 376.205 263.047 376.592 265.13C376.552 266.182 375.583 266.879 374.302 267.279L363.442 230.164L365.369 180.807Z" fill="#CED3F4"/>
</g>
<path d="M340.083 169.877L339.698 159.934L340.75 158.246C340.75 158.246 340.277 147.363 339.686 138.728C339.49 132.298 340.044 125.867 341.339 119.566L344.643 118.501C344.643 118.501 343.461 125.954 342.991 130.92C342.82 135.54 343.017 140.166 343.581 144.754L353.035 144.873C353.035 144.873 354.572 137.655 356.34 132.217C357.709 128.35 359.45 124.626 361.539 121.097L364.375 122.516C364.375 122.516 358.938 133.517 357.639 143.454C356.828 149.647 360.121 156.939 360.121 156.939C360.121 156.939 364.979 162.29 368.524 161.817C370.124 161.531 371.753 161.44 373.375 161.548C375.803 171.815 376.317 182.444 374.892 192.898C373.818 199.743 370.064 211.995 369.132 229.799C368.865 234.889 376.193 263.041 376.58 265.124C377.16 268.227 368.096 268.282 367.611 266.458C367.357 265.504 355.465 236.605 354.567 230.158C353.867 225.137 353.927 209.487 354.107 196.993L345.928 223.692C345.928 223.692 346.73 253.542 346.777 255.604C346.838 258.335 337.443 258.762 337.14 256.028C336.837 253.294 333.505 222.703 333.505 220.398C333.517 216.893 339.655 172.4 340.083 169.877Z" fill="#C0C6DE"/>
<g style="mix-blend-mode:multiply" opacity="0.327">
<path d="M362.47 230.346C362.066 225.626 367.995 193.522 367.591 187.452C367.255 182.396 364.587 165.559 363.699 160.071C365.056 161.204 366.767 161.824 368.535 161.823C370.135 161.537 371.763 161.446 373.385 161.554C375.814 171.821 376.328 182.45 374.902 192.904C373.83 199.749 370.074 212.001 369.143 229.805C368.876 234.895 376.203 263.047 376.591 265.13C376.858 266.561 375.069 267.337 373.02 267.585C370.92 260.785 362.822 234.453 362.47 230.346Z" fill="#CED3F4"/>
</g>
<path d="M345.512 111.696C345.302 110.081 347.364 108.457 350.136 108.063C352.907 107.669 355.339 108.652 355.587 110.263C355.587 110.263 358.201 121.951 358.204 121.967C358.48 123.915 355.997 125.877 352.658 126.352C349.318 126.827 346.388 125.633 346.111 123.688C346.111 123.671 345.51 111.696 345.51 111.696H345.512Z" fill="#FFD4C0"/>
<g style="mix-blend-mode:multiply">
<path d="M354.343 116.061C354.97 113.798 355.166 111.438 354.919 109.103C354.238 108.605 353.461 108.254 352.637 108.075C351.813 107.896 350.961 107.892 350.136 108.063C347.364 108.457 345.302 110.081 345.512 111.696C345.512 111.696 346.113 123.671 346.113 123.688C346.186 124.119 346.381 124.52 346.675 124.844C350.289 123.426 353.394 119.112 354.343 116.061Z" fill="#F1D5BE"/>
</g>
<path d="M341.576 103.457C339.181 107.894 341.289 122.403 345.865 122.439C350.44 122.476 354.777 116.891 355.929 113.178C357.082 109.466 357.131 101.66 353.128 99.7622C351.101 98.7519 348.76 98.5726 346.603 99.2625C344.446 99.9524 342.642 101.457 341.576 103.457Z" fill="#FFD4C0"/>
<path d="M344.423 108.326C339.006 108.571 337.813 105.783 338.744 102.762C339.511 100.264 344.8 96.403 352.161 97.1563C359.521 97.9097 358.527 106.382 358.422 109.711C358.317 113.04 357.779 115.799 356.661 114.93C355.544 114.061 356.834 110.22 355.498 109.658C354.792 109.357 354.118 110.073 353.93 110.936C353.658 112.422 354.531 116.562 353.597 118.119C352.491 119.963 347.675 124.032 344.821 122.543C341.797 120.964 341.507 116.953 341.507 116.953C342.292 116.663 343.125 116.527 343.962 116.553C345.651 116.737 347.278 117.302 348.718 118.207C348.718 118.207 352.001 116.641 352.246 115.289C352.065 112.606 351.67 109.941 351.065 107.32C348.907 107.953 346.672 108.291 344.423 108.326ZM345.312 117.816C345.175 117.787 344.005 117.647 343.861 117.631C342.45 117.48 342.779 118.576 342.779 118.576C342.779 118.576 342.952 119.028 344.514 119.19C345.204 119.309 345.912 119.257 346.577 119.04C346.529 118.725 346.379 118.435 346.151 118.214C345.922 117.993 345.628 117.853 345.312 117.816Z" fill="#363339"/>
<path d="M282.903 144.442L281.692 151.283L276.975 150.447H276.948C275.849 150.252 275.23 148.563 275.563 146.673C275.897 144.783 277.065 143.41 278.159 143.605H278.186L282.903 144.442Z" fill="#454E9C"/>
<path d="M282.885 144.439C281.785 144.245 280.624 145.617 280.289 147.508C279.954 149.398 280.576 151.086 281.674 151.28C282.772 151.474 283.928 150.101 284.27 148.213C284.613 146.324 283.988 144.634 282.885 144.439Z" fill="#747DC2"/>
<path d="M366.426 160.145L365.524 165.202L282.011 150.417H281.99C281.179 150.267 280.72 149.025 280.967 147.628C281.213 146.231 282.072 145.222 282.885 145.36H282.905L366.426 160.145Z" fill="url(#paint63_linear_2_1275)"/>
<path d="M366.417 160.145C365.604 159.994 364.746 161.015 364.498 162.412C364.25 163.809 364.71 165.057 365.523 165.2C366.336 165.343 367.193 164.329 367.44 162.934C367.686 161.539 367.229 160.295 366.417 160.145Z" fill="url(#paint64_linear_2_1275)"/>
<path d="M366.415 160.145C369.182 160.716 366.866 169.356 365.64 171.597C363.786 174.989 349.888 171.517 347.363 170.335C343.472 168.514 341.654 159.358 341.654 159.358L344.683 159.74C344.683 159.74 348.001 166.137 350.663 166.887C353.325 167.637 361.598 169.206 362.002 167.25C362.479 164.941 363.013 162.056 363.013 162.056L366.415 160.145Z" fill="url(#paint65_linear_2_1275)"/>
<path d="M346.419 168.516C348.944 169.698 362.843 173.177 364.696 169.777C365.7 167.94 367.412 163.19 367.031 160.403C368.908 161.627 366.654 169.744 365.64 171.598C363.786 174.991 349.888 171.519 347.362 170.337C344.457 168.983 342.764 163.71 342.057 160.979C342.932 163.603 344.065 167.415 346.419 168.516Z" fill="url(#paint66_linear_2_1275)"/>
<path d="M365.772 155.518L369.466 160.931C369.466 160.931 366.652 161.581 365.861 161.921C365.069 162.26 361.432 164.426 360.143 165.229C358.025 166.259 355.64 166.613 353.314 166.242C351.606 166.005 350.008 165.262 348.725 164.108C347.711 163.185 347.206 161.883 348.069 161.883C349.685 162.006 351.31 161.853 352.876 161.432C354.351 160.842 355.933 159.627 355.907 158.826C355.893 158.375 355.048 158.143 353.987 157.94L351.258 157.384C351.495 156.385 355.052 156.1 356.308 155.841C358.425 155.821 360.541 155.965 362.635 156.274C363.644 156.213 364.634 155.984 365.568 155.597L365.772 155.518Z" fill="#FFD4C0"/>
<g style="mix-blend-mode:multiply" opacity="0.5">
<path d="M367.886 158.576L369.463 160.933C369.463 160.933 366.649 161.582 365.858 161.922C365.066 162.262 361.431 164.427 360.14 165.23C358.022 166.261 355.638 166.615 353.311 166.244C351.603 166.006 350.005 165.263 348.722 164.11C347.752 163.227 347.262 162.005 347.971 161.905C349.635 163.318 351.735 164.115 353.917 164.161C355.936 163.985 361.455 161.259 363.115 160.036C364.619 159.304 366.229 158.812 367.886 158.576Z" fill="#F1D5BE"/>
</g>
<path d="M368.143 143.072C364.001 138.245 357.149 132.134 364.359 126.887C368.829 123.635 371.847 126.826 377.428 132.822C379.936 135.517 395.591 151.619 392.791 156.967C391.308 159.8 365.901 162.97 365.901 162.97L363.744 155.888L376.119 151.482C373.166 148.45 369.51 144.667 368.143 143.072Z" fill="url(#paint67_linear_2_1275)"/>
<path d="M311.182 159.155C310.947 159.089 310.708 159.035 310.467 158.994C308.23 158.625 306.087 157.822 304.158 156.63C303.312 155.756 302.712 154.673 302.419 153.492C302.126 152.31 302.15 151.072 302.489 149.903C303.319 148.184 304.095 148.121 305.167 148.132C306.109 148.142 311.014 148.42 311.682 149.335C312.351 150.249 312.133 150.61 312.133 150.61C311.881 150.481 311.606 150.409 311.324 150.396C311.042 150.383 310.76 150.431 310.499 150.537C310.237 150.642 310 150.802 309.806 151.006C309.611 151.211 309.462 151.454 309.369 151.721C308.7 153.739 309.678 154.656 312.502 155.781C312.71 155.864 312.912 155.942 313.103 156.015L311.182 159.155Z" fill="#FFD4C0"/>
<g style="mix-blend-mode:multiply" opacity="0.327">
<path d="M351.578 189.118L354.378 189.673C354.307 192.745 354.201 191.291 354.12 196.999L345.934 223.698C345.934 223.698 346.736 253.548 346.783 255.61C346.805 256.619 345.533 257.311 343.908 257.647L339.571 221.981L351.578 189.118Z" fill="#CED3F4"/>
</g>
<g style="mix-blend-mode:multiply">
<path d="M365.152 160.483C370.124 159.5 387.546 155.999 389.558 154.81C391.267 153.798 390.332 149.923 389.235 146.816C392.043 150.892 393.922 154.807 392.792 156.967C391.309 159.8 365.903 162.97 365.903 162.97L365.152 160.483Z" fill="#CED3F4"/>
</g>
<g style="mix-blend-mode:multiply" opacity="0.5">
<path d="M308.032 151.1C308.583 148.867 312.007 149.111 312.146 150.551C312.141 150.572 312.134 150.593 312.125 150.613C311.874 150.484 311.598 150.412 311.316 150.399C311.034 150.386 310.753 150.434 310.491 150.54C310.229 150.645 309.993 150.805 309.798 151.009C309.603 151.214 309.454 151.457 309.361 151.724C308.693 153.742 309.671 154.659 312.495 155.784C312.702 155.867 312.905 155.945 313.096 156.019C313.102 156.023 307.189 154.506 308.032 151.1Z" fill="#F1D5BE"/>
</g>
<path d="M228.93 130.394C228.93 130.394 217.88 122.841 215.993 124.999C214.107 127.157 228.93 130.394 228.93 130.394Z" fill="url(#paint68_linear_2_1275)"/>
<path d="M194.432 138.218C194.432 138.218 183.113 133.631 182.305 136.329C181.497 139.027 194.432 138.218 194.432 138.218Z" fill="url(#paint69_linear_2_1275)"/>
<path d="M208.177 116.366C208.177 116.366 197.129 107.733 195.511 110.431C193.893 113.129 208.177 116.366 208.177 116.366Z" fill="url(#paint70_linear_2_1275)"/>
<path d="M240.518 148.199C240.518 148.199 231.086 147.39 230.817 149.279C230.548 151.168 240.518 148.199 240.518 148.199Z" fill="url(#paint71_linear_2_1275)"/>
<path d="M265.045 144.153C265.045 144.153 252.647 139.836 252.378 141.186C252.109 142.536 265.045 144.153 265.045 144.153Z" fill="url(#paint72_linear_2_1275)"/>
<path d="M214.377 143.073C214.377 143.073 203.861 140.106 203.596 142.535C203.33 144.963 214.377 143.073 214.377 143.073Z" fill="url(#paint73_linear_2_1275)"/>
<path d="M202.787 152.778C202.787 152.778 193.894 155.207 193.624 153.318C193.353 151.429 202.787 152.778 202.787 152.778Z" fill="url(#paint74_linear_2_1275)"/>
<path opacity="0.5" d="M218.534 179.544C212.652 182.563 206.608 169.63 208.224 168.213C209.84 166.797 226.417 175.499 218.534 179.544Z" fill="url(#paint75_linear_2_1275)"/>
<path opacity="0.5" d="M219.135 177.879C219.27 177.81 219.379 177.729 219.501 177.666C219.13 178.075 218.685 178.408 218.188 178.649C213.189 181.216 208.062 170.901 208.807 168.783C209.81 172.756 214.521 180.248 219.135 177.879Z" fill="url(#paint76_linear_2_1275)"/>
<defs>
<linearGradient id="paint0_linear_2_1275" x1="-10142.2" y1="229.185" x2="-10189.4" y2="229.185" gradientUnits="userSpaceOnUse">
<stop stop-color="#124257"/>
<stop offset="1" stop-color="#10054D"/>
</linearGradient>
<linearGradient id="paint1_linear_2_1275" x1="-10208" y1="277.864" x2="-10158" y2="232.421" gradientUnits="userSpaceOnUse">
<stop stop-color="#0A374A"/>
<stop offset="1" stop-color="#10054D"/>
</linearGradient>
<linearGradient id="paint2_linear_2_1275" x1="-5055.39" y1="-8631.78" x2="-5079.1" y2="-8672.29" gradientUnits="userSpaceOnUse">
<stop stop-color="#0A374A"/>
<stop offset="1" stop-color="#10054D"/>
</linearGradient>
<radialGradient id="paint3_radial_2_1275" cx="0" cy="0" r="1" gradientUnits="userSpaceOnUse" gradientTransform="translate(-496.227 256.718) scale(25.3336 25.3499)">
<stop stop-color="white"/>
<stop offset="1"/>
</radialGradient>
<linearGradient id="paint4_linear_2_1275" x1="-10156.8" y1="257.897" x2="-10192.9" y2="257.897" gradientUnits="userSpaceOnUse">
<stop stop-color="#BCBEC0"/>
<stop offset="1" stop-color="#E6E7E8"/>
</linearGradient>
<linearGradient id="paint5_linear_2_1275" x1="-10155.7" y1="258.347" x2="-10191.8" y2="258.347" gradientUnits="userSpaceOnUse">
<stop stop-color="#BCBEC0"/>
<stop offset="1" stop-color="#E6E7E8"/>
</linearGradient>
<radialGradient id="paint6_radial_2_1275" cx="0" cy="0" r="1" gradientUnits="userSpaceOnUse" gradientTransform="translate(-3084.42 89.3799) scale(21.0029 21.0229)">
<stop stop-color="#00C2BE"/>
<stop offset="0.258" stop-color="#03CECA"/>
<stop offset="0.676" stop-color="#00BAB7"/>
<stop offset="1" stop-color="#00C2BE"/>
</radialGradient>
<radialGradient id="paint7_radial_2_1275" cx="0" cy="0" r="1" gradientUnits="userSpaceOnUse" gradientTransform="translate(-168.781 58.6562) scale(246.276 246.642)">
<stop stop-color="#00C2BE"/>
<stop offset="0.258" stop-color="#03CECA"/>
<stop offset="0.676" stop-color="#00BAB7"/>
<stop offset="1" stop-color="#00C2BE"/>
</radialGradient>
<linearGradient id="paint8_linear_2_1275" x1="-9977.09" y1="26.2457" x2="-10088.4" y2="26.2457" gradientUnits="userSpaceOnUse">
<stop stop-color="#0A374A"/>
<stop offset="1" stop-color="#10054D"/>
</linearGradient>
<linearGradient id="paint9_linear_2_1275" x1="-9977.09" y1="25.5105" x2="-10060.6" y2="25.5105" gradientUnits="userSpaceOnUse">
<stop stop-color="#124257"/>
<stop offset="1" stop-color="#10054D"/>
</linearGradient>
<linearGradient id="paint10_linear_2_1275" x1="-10130.1" y1="120.836" x2="-10270.3" y2="120.836" gradientUnits="userSpaceOnUse">
<stop stop-color="#124257"/>
<stop offset="1" stop-color="#10054D"/>
</linearGradient>
<linearGradient id="paint11_linear_2_1275" x1="-10139.6" y1="198.551" x2="-10235.5" y2="-2.2538" gradientUnits="userSpaceOnUse">
<stop stop-color="#0A374A"/>
<stop offset="1" stop-color="#10054D"/>
</linearGradient>
<linearGradient id="paint12_linear_2_1275" x1="-10161.9" y1="143.23" x2="-10270.3" y2="143.23" gradientUnits="userSpaceOnUse">
<stop stop-color="#124257"/>
<stop offset="1" stop-color="#10054D"/>
</linearGradient>
<linearGradient id="paint13_linear_2_1275" x1="-9974.97" y1="119.237" x2="-10143.1" y2="119.237" gradientUnits="userSpaceOnUse">
<stop stop-color="#124257"/>
<stop offset="1" stop-color="#10054D"/>
</linearGradient>
<linearGradient id="paint14_linear_2_1275" x1="-9979.48" y1="118.612" x2="-10138.5" y2="118.612" gradientUnits="userSpaceOnUse">
<stop stop-color="#0A374A"/>
<stop offset="1" stop-color="#10054D"/>
</linearGradient>
<linearGradient id="paint15_linear_2_1275" x1="-10260.4" y1="226.28" x2="-10335.7" y2="226.28" gradientUnits="userSpaceOnUse">
<stop stop-color="#124257"/>
<stop offset="1" stop-color="#10054D"/>
</linearGradient>
<radialGradient id="paint16_radial_2_1275" cx="0" cy="0" r="1" gradientUnits="userSpaceOnUse" gradientTransform="translate(-256.759 226.28) scale(30.9064 30.9488)">
<stop stop-color="white"/>
<stop offset="1"/>
</radialGradient>
<linearGradient id="paint17_linear_2_1275" x1="-10242.8" y1="239.817" x2="-10242.1" y2="260.106" gradientUnits="userSpaceOnUse">
<stop stop-color="#BCBEC0"/>
<stop offset="1" stop-color="#E6E7E8"/>
</linearGradient>
<linearGradient id="paint18_linear_2_1275" x1="-10242.9" y1="255.954" x2="-10242.8" y2="224.696" gradientUnits="userSpaceOnUse">
<stop stop-color="#9C9C9C"/>
<stop offset="0.005" stop-color="#9C9C9C"/>
<stop offset="0.315" stop-color="#C7C7C7"/>
<stop offset="0.595" stop-color="#E5E5E5"/>
<stop offset="0.833" stop-color="#F8F8F8"/>
<stop offset="1" stop-color="white"/>
</linearGradient>
<linearGradient id="paint19_linear_2_1275" x1="-10337.3" y1="200.81" x2="-10350.7" y2="200.696" gradientUnits="userSpaceOnUse">
<stop stop-color="#BCBEC0"/>
<stop offset="1" stop-color="#E6E7E8"/>
</linearGradient>
<linearGradient id="paint20_linear_2_1275" x1="-10343.5" y1="177.033" x2="-10325.5" y2="183.295" gradientUnits="userSpaceOnUse">
<stop stop-color="#9C9C9C"/>
<stop offset="0.005" stop-color="#9C9C9C"/>
<stop offset="0.315" stop-color="#C7C7C7"/>
<stop offset="0.595" stop-color="#E5E5E5"/>
<stop offset="0.833" stop-color="#F8F8F8"/>
<stop offset="1" stop-color="white"/>
</linearGradient>
<linearGradient id="paint21_linear_2_1275" x1="-10238.3" y1="251.29" x2="-10255.1" y2="251.29" gradientUnits="userSpaceOnUse">
<stop stop-color="#BCBEC0"/>
<stop offset="1" stop-color="#E6E7E8"/>
</linearGradient>
<linearGradient id="paint22_linear_2_1275" x1="10460.1" y1="252.498" x2="10452.6" y2="252.498" gradientUnits="userSpaceOnUse">
<stop stop-color="#BCBEC0"/>
<stop offset="0.686" stop-color="#E8E9EA"/>
<stop offset="1" stop-color="white"/>
</linearGradient>
<linearGradient id="paint23_linear_2_1275" x1="-10228" y1="251.054" x2="-10244.9" y2="251.054" gradientUnits="userSpaceOnUse">
<stop stop-color="#BCBEC0"/>
<stop offset="1" stop-color="#E6E7E8"/>
</linearGradient>
<linearGradient id="paint24_linear_2_1275" x1="10449.6" y1="252.274" x2="10442.1" y2="252.274" gradientUnits="userSpaceOnUse">
<stop stop-color="#BCBEC0"/>
<stop offset="0.686" stop-color="#E8E9EA"/>
<stop offset="1" stop-color="white"/>
</linearGradient>
<radialGradient id="paint25_radial_2_1275" cx="0" cy="0" r="1" gradientUnits="userSpaceOnUse" gradientTransform="translate(-1801.22 245.198) scale(6.49961 6.507)">
<stop offset="0.159" stop-color="#FF9900"/>
<stop offset="0.34" stop-color="#FC9500"/>
<stop offset="0.518" stop-color="#F58900"/>
<stop offset="0.694" stop-color="#EA7500"/>
<stop offset="0.867" stop-color="#DA5A00"/>
<stop offset="0.995" stop-color="#CC4100"/>
</radialGradient>
<radialGradient id="paint26_radial_2_1275" cx="0" cy="0" r="1" gradientUnits="userSpaceOnUse" gradientTransform="translate(-1893.32 246.267) rotate(180) scale(3.82495 3.82848)">
<stop offset="0.159" stop-color="#FF9900"/>
<stop offset="0.34" stop-color="#FC9500"/>
<stop offset="0.518" stop-color="#F58900"/>
<stop offset="0.694" stop-color="#EA7500"/>
<stop offset="0.867" stop-color="#DA5A00"/>
<stop offset="0.995" stop-color="#CC4100"/>
</radialGradient>
<linearGradient id="paint27_linear_2_1275" x1="-10337.6" y1="201.963" x2="-10345.6" y2="201.963" gradientUnits="userSpaceOnUse">
<stop stop-color="#BCBEC0"/>
<stop offset="1" stop-color="#E6E7E8"/>
</linearGradient>
<linearGradient id="paint28_linear_2_1275" x1="9148.43" y1="5376.83" x2="9142.69" y2="5373.48" gradientUnits="userSpaceOnUse">
<stop stop-color="#BCBEC0"/>
<stop offset="0.686" stop-color="#E8E9EA"/>
<stop offset="1" stop-color="white"/>
</linearGradient>
<linearGradient id="paint29_linear_2_1275" x1="-10341.1" y1="194.422" x2="-10347.7" y2="194.422" gradientUnits="userSpaceOnUse">
<stop stop-color="#BCBEC0"/>
<stop offset="1" stop-color="#E6E7E8"/>
</linearGradient>
<linearGradient id="paint30_linear_2_1275" x1="10542.8" y1="194.345" x2="10537.7" y2="194.345" gradientUnits="userSpaceOnUse">
<stop stop-color="#BCBEC0"/>
<stop offset="0.686" stop-color="#E8E9EA"/>
<stop offset="1" stop-color="white"/>
</linearGradient>
<linearGradient id="paint31_linear_2_1275" x1="-10244" y1="297.932" x2="-10246.2" y2="270.44" gradientUnits="userSpaceOnUse">
<stop stop-color="#9C9C9C"/>
<stop offset="0.005" stop-color="#9C9C9C"/>
<stop offset="0.315" stop-color="#C7C7C7"/>
<stop offset="0.595" stop-color="#E5E5E5"/>
<stop offset="0.833" stop-color="#F8F8F8"/>
<stop offset="1" stop-color="white"/>
</linearGradient>
<linearGradient id="paint32_linear_2_1275" x1="-10063.7" y1="204.578" x2="-10072.2" y2="177.216" gradientUnits="userSpaceOnUse">
<stop stop-color="#9C9C9C"/>
<stop offset="0.005" stop-color="#9C9C9C"/>
<stop offset="0.315" stop-color="#C7C7C7"/>
<stop offset="0.595" stop-color="#E5E5E5"/>
<stop offset="0.833" stop-color="#F8F8F8"/>
<stop offset="1" stop-color="white"/>
</linearGradient>
<radialGradient id="paint33_radial_2_1275" cx="0" cy="0" r="1" gradientUnits="userSpaceOnUse" gradientTransform="translate(-155.082 225.033) scale(59.9331 59.9501)">
<stop stop-color="#00C2BE"/>
<stop offset="0.258" stop-color="#03CECA"/>
<stop offset="0.676" stop-color="#00BAB7"/>
<stop offset="1" stop-color="#00C2BE"/>
</radialGradient>
<radialGradient id="paint34_radial_2_1275" cx="0" cy="0" r="1" gradientUnits="userSpaceOnUse" gradientTransform="translate(-206.39 259.731) scale(58.0757 58.1912)">
<stop stop-color="#FFE4A7"/>
<stop offset="1"/>
</radialGradient>
<linearGradient id="paint35_linear_2_1275" x1="-10287.6" y1="290.735" x2="-10286.2" y2="251.997" gradientUnits="userSpaceOnUse">
<stop stop-color="#9C9C9C"/>
<stop offset="0.005" stop-color="#9C9C9C"/>
<stop offset="0.315" stop-color="#C7C7C7"/>
<stop offset="0.595" stop-color="#E5E5E5"/>
<stop offset="0.833" stop-color="#F8F8F8"/>
<stop offset="1" stop-color="white"/>
</linearGradient>
<linearGradient id="paint36_linear_2_1275" x1="-10247.5" y1="306.462" x2="-10251" y2="280.819" gradientUnits="userSpaceOnUse">
<stop stop-color="#9C9C9C"/>
<stop offset="0.005" stop-color="#9C9C9C"/>
<stop offset="0.315" stop-color="#C7C7C7"/>
<stop offset="0.595" stop-color="#E5E5E5"/>
<stop offset="0.833" stop-color="#F8F8F8"/>
<stop offset="1" stop-color="white"/>
</linearGradient>
<linearGradient id="paint37_linear_2_1275" x1="-10123.7" y1="157.82" x2="-10143.1" y2="157.82" gradientUnits="userSpaceOnUse">
<stop stop-color="#124257"/>
<stop offset="1" stop-color="#10054D"/>
</linearGradient>
<linearGradient id="paint38_linear_2_1275" x1="-10256.6" y1="28.9412" x2="-10244.5" y2="141.219" gradientUnits="userSpaceOnUse">
<stop stop-color="#5277F7"/>
<stop offset="0.075" stop-color="#4869DB"/>
<stop offset="0.27" stop-color="#334A99"/>
<stop offset="0.455" stop-color="#202F62"/>
<stop offset="0.626" stop-color="#121B38"/>
<stop offset="0.779" stop-color="#080C19"/>
<stop offset="0.909" stop-color="#020306"/>
<stop offset="1"/>
</linearGradient>
<linearGradient id="paint39_linear_2_1275" x1="-10242.5" y1="258.116" x2="-10349.6" y2="258.116" gradientUnits="userSpaceOnUse">
<stop stop-color="#124257"/>
<stop offset="1" stop-color="#10054D"/>
</linearGradient>
<radialGradient id="paint40_radial_2_1275" cx="0" cy="0" r="1" gradientUnits="userSpaceOnUse" gradientTransform="translate(-779.398 243.23) scale(13.9119 13.918)">
<stop stop-color="white"/>
<stop offset="1"/>
</radialGradient>
<linearGradient id="paint41_linear_2_1275" x1="-10056.2" y1="106.992" x2="-10079.8" y2="106.992" gradientUnits="userSpaceOnUse">
<stop stop-color="#124257"/>
<stop offset="1" stop-color="#10054D"/>
</linearGradient>
<linearGradient id="paint42_linear_2_1275" x1="-10139.5" y1="173.534" x2="-10113.6" y2="197.676" gradientUnits="userSpaceOnUse">
<stop stop-color="#696969"/>
<stop offset="0.242" stop-color="#9C9C9C"/>
<stop offset="0.48" stop-color="#C6C6C6"/>
<stop offset="0.692" stop-color="#E5E5E5"/>
<stop offset="0.873" stop-color="#F8F8F8"/>
<stop offset="1" stop-color="white"/>
</linearGradient>
<radialGradient id="paint43_radial_2_1275" cx="0" cy="0" r="1" gradientUnits="userSpaceOnUse" gradientTransform="translate(-921.879 158.576) scale(20.7659 20.7844)">
<stop stop-color="#00C2BE"/>
<stop offset="0.258" stop-color="#03CECA"/>
<stop offset="0.676" stop-color="#00BAB7"/>
<stop offset="1" stop-color="#00C2BE"/>
</radialGradient>
<linearGradient id="paint44_linear_2_1275" x1="-10123.4" y1="157.251" x2="-10123.8" y2="172.494" gradientUnits="userSpaceOnUse">
<stop stop-color="#9C9C9C"/>
<stop offset="0.013" stop-color="#989898"/>
<stop offset="0.262" stop-color="#626262"/>
<stop offset="0.493" stop-color="#383838"/>
<stop offset="0.7" stop-color="#191919"/>
<stop offset="0.876" stop-color="#060606"/>
<stop offset="1"/>
</linearGradient>
<linearGradient id="paint45_linear_2_1275" x1="-10073.6" y1="27.2111" x2="-10070.1" y2="107.737" gradientUnits="userSpaceOnUse">
<stop stop-color="#5277F7"/>
<stop offset="0.075" stop-color="#4869DB"/>
<stop offset="0.27" stop-color="#334A99"/>
<stop offset="0.455" stop-color="#202F62"/>
<stop offset="0.626" stop-color="#121B38"/>
<stop offset="0.779" stop-color="#080C19"/>
<stop offset="0.909" stop-color="#020306"/>
<stop offset="1"/>
</linearGradient>
<linearGradient id="paint46_linear_2_1275" x1="-5.31097" y1="199.892" x2="-1.52331" y2="165.139" gradientUnits="userSpaceOnUse">
<stop stop-color="white"/>
<stop offset="0.876" stop-color="#79D2FF"/>
<stop offset="1" stop-color="#66CCFF"/>
</linearGradient>
<linearGradient id="paint47_linear_2_1275" x1="-0.704942" y1="199.37" x2="5.22489" y2="167.303" gradientUnits="userSpaceOnUse">
<stop stop-color="white"/>
<stop offset="0.876" stop-color="#79D2FF"/>
<stop offset="1" stop-color="#66CCFF"/>
</linearGradient>
<linearGradient id="paint48_linear_2_1275" x1="157.123" y1="144.391" x2="115.04" y2="144.391" gradientUnits="userSpaceOnUse">
<stop stop-color="white"/>
<stop offset="0.88" stop-color="#79D2FF"/>
<stop offset="1" stop-color="#66CCFF"/>
</linearGradient>
<linearGradient id="paint49_linear_2_1275" x1="81.8993" y1="226.266" x2="97.0337" y2="136.543" gradientUnits="userSpaceOnUse">
<stop offset="0.01" stop-color="#00C2BE"/>
<stop offset="1" stop-color="#0A374A"/>
</linearGradient>
<radialGradient id="paint50_radial_2_1275" cx="0" cy="0" r="1" gradientUnits="userSpaceOnUse" gradientTransform="translate(131.911 134.221) rotate(180) scale(22.0242 22.1405)">
<stop stop-color="#FFE585"/>
<stop offset="1" stop-color="#FF9E6E"/>
</radialGradient>
<radialGradient id="paint51_radial_2_1275" cx="0" cy="0" r="1" gradientUnits="userSpaceOnUse" gradientTransform="translate(129.913 137.808) rotate(180) scale(21.1204 21.2319)">
<stop stop-color="#FFE585"/>
<stop offset="1" stop-color="#FF9E6E"/>
</radialGradient>
<linearGradient id="paint52_linear_2_1275" x1="216.781" y1="196.686" x2="193.601" y2="124.733" gradientUnits="userSpaceOnUse">
<stop stop-color="white"/>
<stop offset="0.876" stop-color="#79D2FF"/>
<stop offset="1" stop-color="#66CCFF"/>
</linearGradient>
<linearGradient id="paint53_linear_2_1275" x1="191.052" y1="109.461" x2="186.155" y2="109.461" gradientUnits="userSpaceOnUse">
<stop stop-color="white"/>
<stop offset="0.876" stop-color="#79D2FF"/>
<stop offset="1" stop-color="#66CCFF"/>
</linearGradient>
<linearGradient id="paint54_linear_2_1275" x1="205.648" y1="156.783" x2="172.128" y2="156.783" gradientUnits="userSpaceOnUse">
<stop stop-color="white"/>
<stop offset="0.876" stop-color="#79D2FF"/>
<stop offset="1" stop-color="#66CCFF"/>
</linearGradient>
<linearGradient id="paint55_linear_2_1275" x1="326.298" y1="156.183" x2="349.859" y2="123.332" gradientUnits="userSpaceOnUse">
<stop offset="0.005" stop-color="#66CCFF"/>
<stop offset="0.203" stop-color="#42CAEA"/>
<stop offset="0.525" stop-color="#00C7C5"/>
<stop offset="0.674" stop-color="#08CEBD"/>
<stop offset="0.915" stop-color="#20E0AB"/>
<stop offset="1" stop-color="#2BE9A3"/>
</linearGradient>
<linearGradient id="paint56_linear_2_1275" x1="354.683" y1="181.719" x2="358.064" y2="119.718" gradientUnits="userSpaceOnUse">
<stop offset="0.005" stop-color="#66CCFF"/>
<stop offset="0.203" stop-color="#42CAEA"/>
<stop offset="0.525" stop-color="#00C7C5"/>
<stop offset="0.674" stop-color="#08CEBD"/>
<stop offset="0.915" stop-color="#20E0AB"/>
<stop offset="1" stop-color="#2BE9A3"/>
</linearGradient>
<linearGradient id="paint57_linear_2_1275" x1="355.348" y1="118.869" x2="355.348" y2="118.712" gradientUnits="userSpaceOnUse">
<stop offset="0.005" stop-color="#66CCFF"/>
<stop offset="0.203" stop-color="#42CAEA"/>
<stop offset="0.525" stop-color="#00C7C5"/>
<stop offset="0.674" stop-color="#08CEBD"/>
<stop offset="0.915" stop-color="#20E0AB"/>
<stop offset="1" stop-color="#2BE9A3"/>
</linearGradient>
<linearGradient id="paint58_linear_2_1275" x1="291.202" y1="127.764" x2="193.776" y2="127.764" gradientUnits="userSpaceOnUse">
<stop stop-color="white"/>
<stop offset="0.876" stop-color="#79D2FF"/>
<stop offset="1" stop-color="#66CCFF"/>
</linearGradient>
<linearGradient id="paint59_linear_2_1275" x1="702.993" y1="915.866" x2="600.812" y2="915.866" gradientUnits="userSpaceOnUse">
<stop stop-color="white"/>
<stop offset="0.876" stop-color="#79D2FF"/>
<stop offset="1" stop-color="#66CCFF"/>
</linearGradient>
<linearGradient id="paint60_linear_2_1275" x1="-1677.62" y1="9659.02" x2="-1773.04" y2="9659.02" gradientUnits="userSpaceOnUse">
<stop stop-color="white"/>
<stop offset="0.876" stop-color="#79D2FF"/>
<stop offset="1" stop-color="#66CCFF"/>
</linearGradient>
<linearGradient id="paint61_linear_2_1275" x1="-2080.81" y1="9929.53" x2="-2183" y2="9929.53" gradientUnits="userSpaceOnUse">
<stop stop-color="white"/>
<stop offset="0.876" stop-color="#79D2FF"/>
<stop offset="1" stop-color="#66CCFF"/>
</linearGradient>
<linearGradient id="paint62_linear_2_1275" x1="-3157.45" y1="10472.7" x2="-3259.35" y2="10472.7" gradientUnits="userSpaceOnUse">
<stop stop-color="white"/>
<stop offset="0.876" stop-color="#79D2FF"/>
<stop offset="1" stop-color="#66CCFF"/>
</linearGradient>
<linearGradient id="paint63_linear_2_1275" x1="-11169.9" y1="-991.626" x2="-11175" y2="-991.626" gradientUnits="userSpaceOnUse">
<stop offset="0.04" stop-color="#AFB6E5"/>
<stop offset="0.293" stop-color="#B9C0EA"/>
<stop offset="0.348" stop-color="#BDC3EC"/>
<stop offset="0.929" stop-color="#9AA0C9"/>
</linearGradient>
<linearGradient id="paint64_linear_2_1275" x1="-11169.6" y1="-1036.39" x2="-11174" y2="-1035.47" gradientUnits="userSpaceOnUse">
<stop stop-color="#9F79C8"/>
<stop offset="0.137" stop-color="#A47FCA"/>
<stop offset="0.329" stop-color="#B491D3"/>
<stop offset="0.553" stop-color="#CDAFE1"/>
<stop offset="0.581" stop-color="#D1B4E3"/>
<stop offset="0.764" stop-color="#DAC3E8"/>
<stop offset="1" stop-color="#EBDEF3"/>
</linearGradient>
<linearGradient id="paint65_linear_2_1275" x1="354.295" y1="163.957" x2="354.592" y2="158.128" gradientUnits="userSpaceOnUse">
<stop offset="0.04" stop-color="#AFB6E5"/>
<stop offset="0.293" stop-color="#B9C0EA"/>
<stop offset="0.348" stop-color="#BDC3EC"/>
<stop offset="0.929" stop-color="#9AA0C9"/>
</linearGradient>
<linearGradient id="paint66_linear_2_1275" x1="355.034" y1="159.758" x2="354.891" y2="169.956" gradientUnits="userSpaceOnUse">
<stop offset="0.04" stop-color="#AFB6E5"/>
<stop offset="0.466" stop-color="#A6ADDA"/>
<stop offset="0.929" stop-color="#9AA0C9"/>
</linearGradient>
<linearGradient id="paint67_linear_2_1275" x1="370.591" y1="157.737" x2="385.682" y2="134.068" gradientUnits="userSpaceOnUse">
<stop offset="0.005" stop-color="#66CCFF"/>
<stop offset="0.203" stop-color="#42CAEA"/>
<stop offset="0.525" stop-color="#00C7C5"/>
<stop offset="0.674" stop-color="#08CEBD"/>
<stop offset="0.915" stop-color="#20E0AB"/>
<stop offset="1" stop-color="#2BE9A3"/>
</linearGradient>
<linearGradient id="paint68_linear_2_1275" x1="231.171" y1="132.528" x2="225.155" y2="116.456" gradientUnits="userSpaceOnUse">
<stop stop-color="white"/>
<stop offset="0.876" stop-color="#79D2FF"/>
<stop offset="1" stop-color="#66CCFF"/>
</linearGradient>
<linearGradient id="paint69_linear_2_1275" x1="197.084" y1="138.899" x2="194.505" y2="130.516" gradientUnits="userSpaceOnUse">
<stop stop-color="white"/>
<stop offset="0.876" stop-color="#79D2FF"/>
<stop offset="1" stop-color="#66CCFF"/>
</linearGradient>
<linearGradient id="paint70_linear_2_1275" x1="208.177" y1="113.137" x2="195.383" y2="113.137" gradientUnits="userSpaceOnUse">
<stop stop-color="white"/>
<stop offset="0.876" stop-color="#79D2FF"/>
<stop offset="1" stop-color="#66CCFF"/>
</linearGradient>
<linearGradient id="paint71_linear_2_1275" x1="240.518" y1="148.967" x2="222.454" y2="148.967" gradientUnits="userSpaceOnUse">
<stop stop-color="white"/>
<stop offset="0.876" stop-color="#79D2FF"/>
<stop offset="1" stop-color="#66CCFF"/>
</linearGradient>
<linearGradient id="paint72_linear_2_1275" x1="265.045" y1="142.539" x2="234.179" y2="142.539" gradientUnits="userSpaceOnUse">
<stop stop-color="white"/>
<stop offset="0.876" stop-color="#79D2FF"/>
<stop offset="1" stop-color="#66CCFF"/>
</linearGradient>
<linearGradient id="paint73_linear_2_1275" x1="214.377" y1="142.677" x2="195.512" y2="142.677" gradientUnits="userSpaceOnUse">
<stop stop-color="white"/>
<stop offset="0.876" stop-color="#79D2FF"/>
<stop offset="1" stop-color="#66CCFF"/>
</linearGradient>
<linearGradient id="paint74_linear_2_1275" x1="202.787" y1="153.174" x2="189.309" y2="153.174" gradientUnits="userSpaceOnUse">
<stop stop-color="white"/>
<stop offset="0.876" stop-color="#79D2FF"/>
<stop offset="1" stop-color="#66CCFF"/>
</linearGradient>
<linearGradient id="paint75_linear_2_1275" x1="222.057" y1="183.354" x2="205.773" y2="161.339" gradientUnits="userSpaceOnUse">
<stop stop-color="white"/>
<stop offset="0.876" stop-color="#79D2FF"/>
<stop offset="1" stop-color="#66CCFF"/>
</linearGradient>
<linearGradient id="paint76_linear_2_1275" x1="220.513" y1="182.693" x2="205.798" y2="163.343" gradientUnits="userSpaceOnUse">
<stop stop-color="white"/>
<stop offset="0.876" stop-color="#79D2FF"/>
<stop offset="1" stop-color="#66CCFF"/>
</linearGradient>
<clipPath id="clip0_2_1275">
<rect width="147.018" height="206.341" fill="white" transform="matrix(-1 0 0 1 157.123 117.357)"/>
</clipPath>
</defs>
</svg>
