<svg width="29" height="43" viewBox="0 0 29 43" fill="none" xmlns="http://www.w3.org/2000/svg">
<path d="M8.08758 33.6713C8.26758 33.6713 8.42091 33.7346 8.54758 33.8613C8.67424 33.9879 8.73758 34.1413 8.73758 34.3213C8.73758 34.4946 8.67424 34.6446 8.54758 34.7713C8.42091 34.8979 8.26758 34.9613 8.08758 34.9613C7.90758 34.9613 7.75424 34.8979 7.62758 34.7713C7.50091 34.6446 7.43758 34.4946 7.43758 34.3213C7.43758 34.1413 7.50091 33.9879 7.62758 33.8613C7.75424 33.7346 7.90758 33.6713 8.08758 33.6713ZM6.20758 39.4513C5.89424 39.0313 5.73758 38.5479 5.73758 38.0013C5.73758 37.2746 5.99091 36.7013 6.49758 36.2813C6.92424 35.9279 7.45424 35.7513 8.08758 35.7513C8.57424 35.7513 8.99091 35.8713 9.33758 36.1113C9.83758 36.4379 10.0876 36.9346 10.0876 37.6013V39.3813C10.0876 39.6946 9.97424 39.9579 9.74758 40.1713C9.52758 40.3713 9.28091 40.4713 9.00758 40.4713H2.94758C2.50758 40.4713 2.12091 40.3213 1.78758 40.0213C1.39424 39.6746 1.19758 39.2246 1.19758 38.6713V37.0913L1.81758 36.5913H2.41758V38.6713C2.41758 38.8846 2.49091 39.0646 2.63758 39.2113C2.77758 39.3713 2.96091 39.4513 3.18758 39.4513H6.20758ZM8.86758 37.6013C8.86758 37.3546 8.79424 37.1546 8.64758 37.0013C8.50091 36.8479 8.31091 36.7713 8.07758 36.7713C7.72424 36.7713 7.44758 36.8879 7.24758 37.1213C7.04758 37.3546 6.94758 37.6779 6.94758 38.0913C6.94758 38.5046 7.06424 38.8346 7.29758 39.0813C7.53758 39.3279 7.85758 39.4513 8.25758 39.4513H8.61758C8.78424 39.4513 8.86758 39.3679 8.86758 39.2013V37.6013ZM11.8043 35.8113C12.031 35.7713 12.2943 35.7513 12.5943 35.7513C13.361 35.7513 13.981 35.9979 14.4543 36.4913C14.8743 36.9379 15.0843 37.4913 15.0843 38.1513V39.1113C15.0843 39.2646 15.081 39.3779 15.0743 39.4513H15.3343V40.4713H15.2043L14.8743 40.0613H14.8443C14.791 40.1213 14.7343 40.1779 14.6743 40.2313C14.4743 40.3913 14.251 40.4713 14.0043 40.4713H10.7943V39.4513H13.6143C13.781 39.4513 13.8643 39.3679 13.8643 39.2013V38.2713C13.8643 37.8113 13.7243 37.4413 13.4443 37.1613C13.1843 36.9013 12.8076 36.7613 12.3143 36.7413C12.0876 36.7413 11.9176 36.7546 11.8043 36.7813V35.8113ZM17.4566 35.9813C18.1766 35.6546 18.9066 35.4913 19.6466 35.4913C20.6 35.4913 21.32 35.7779 21.8066 36.3513C22.2266 36.8513 22.4366 37.5246 22.4366 38.3713V39.1713C22.4366 39.1979 22.4333 39.2479 22.4266 39.3213C22.4266 39.3813 22.4266 39.4246 22.4266 39.4513H22.7566V40.4713H22.5566L22.2166 40.0613H22.1966C22.13 40.1346 22.0466 40.2113 21.9466 40.2913C21.7733 40.4113 21.5766 40.4713 21.3566 40.4713H18.8566C18.5766 40.4713 18.3633 40.4346 18.2166 40.3613H18.1766C18.03 40.4346 17.7833 40.4713 17.4366 40.4713H15.0166V39.4513H16.8166C16.71 39.3179 16.6233 39.1446 16.5566 38.9313C16.4966 38.7313 16.4666 38.5179 16.4666 38.2913C16.4666 37.8646 16.5766 37.4979 16.7966 37.1913C16.97 36.9579 17.19 36.7846 17.4566 36.6713V35.9813ZM21.2166 38.5313C21.2166 37.7913 21.0533 37.2546 20.7266 36.9213C20.42 36.6146 19.9566 36.4613 19.3366 36.4613C19.0633 36.4613 18.7733 36.4913 18.4666 36.5513C18.9466 36.6113 19.3233 36.8246 19.5966 37.1913C19.8166 37.4979 19.9266 37.8646 19.9266 38.2913C19.9266 38.5046 19.9 38.7079 19.8466 38.9013C19.78 39.1279 19.6933 39.3113 19.5866 39.4513H20.9566C21.0433 39.4513 21.1066 39.4246 21.1466 39.3713C21.1933 39.3246 21.2166 39.2679 21.2166 39.2013V38.5313ZM18.1866 39.3313C18.4066 39.3113 18.5833 39.2113 18.7166 39.0313C18.85 38.8446 18.9166 38.6113 18.9166 38.3313C18.9166 38.0113 18.84 37.7646 18.6866 37.5913C18.5533 37.4379 18.3866 37.3613 18.1866 37.3613C17.9933 37.3613 17.8266 37.4313 17.6866 37.5713C17.5266 37.7513 17.4466 38.0046 17.4466 38.3313C17.4533 38.6179 17.5233 38.8513 17.6566 39.0313C17.79 39.2113 17.9666 39.3113 18.1866 39.3313ZM25.4529 33.3113V39.3713C25.4529 39.6513 25.3629 39.8913 25.1829 40.0913C24.9762 40.3446 24.7062 40.4713 24.3729 40.4713H22.4429V39.4513H23.9829C24.0562 39.4513 24.1196 39.4246 24.1729 39.3713C24.2196 39.3246 24.2429 39.2679 24.2429 39.2013V33.3113H25.4529ZM27.8148 33.3113V40.2213L27.1948 40.7213H26.5948V33.3113H27.8148Z" fill="#B6BCCC"/>
<g clip-path="url(#clip0_2_551)">
<path d="M13.8866 25.5402C8.43515 25.5402 4 21.1569 4 15.769C4 10.3811 8.43515 5.99771 13.8866 5.99771C15.6884 5.99771 17.4533 6.48362 18.9907 7.4029L18.1607 8.75861C16.8737 7.98903 15.3958 7.58222 13.8866 7.58222C9.31918 7.58222 5.60326 11.2548 5.60326 15.769C5.60326 20.2832 9.31918 23.9557 13.8866 23.9557C18.4541 23.9557 22.17 20.2832 22.17 15.769C22.17 14.2775 21.7585 12.8168 20.9798 11.5449L22.3515 10.7246C23.2817 12.244 23.7733 13.9883 23.7733 15.769C23.7733 21.1569 19.3381 25.5402 13.8866 25.5402Z" fill="#B6BCCC"/>
<path d="M13.8866 21.1956C10.8591 21.1956 8.396 18.7612 8.396 15.769C8.396 12.7767 10.8591 10.3424 13.8866 10.3424C14.4707 10.3424 15.046 10.4327 15.5966 10.6109L15.0977 12.1168C14.7084 11.9908 14.301 11.9269 13.8866 11.9269C11.7431 11.9269 9.99925 13.6504 9.99925 15.7689C9.99925 17.8874 11.7432 19.6109 13.8866 19.6109C16.0301 19.6109 17.774 17.8874 17.774 15.7689C17.774 15.3418 17.7038 14.9226 17.5653 14.523L19.0821 14.0095C19.2779 14.5747 19.3773 15.1667 19.3773 15.7689C19.3773 18.7612 16.9142 21.1956 13.8866 21.1956Z" fill="#B6BCCC"/>
<path d="M28.3288 3.87021L26.2417 3.55813L25.9259 1.49531C25.8296 0.866304 25.0229 0.602386 24.5665 1.0536L21.5645 4.02055C21.385 4.19797 21.3012 4.4489 21.3384 4.69708L21.6744 6.93447L14.3 14.2381C14.168 14.2033 14.0296 14.1844 13.8867 14.1844C13.0027 14.1844 12.2834 14.8952 12.2834 15.7689C12.2834 16.6426 13.0027 17.3534 13.8867 17.3534C14.7707 17.3534 15.49 16.6426 15.49 15.7689C15.49 15.6266 15.4706 15.4887 15.4348 15.3574L22.8066 8.05642L25.0849 8.40345C25.3348 8.44157 25.5951 8.35735 25.7739 8.18067L28.7759 5.21372C29.0774 4.98096 29.1976 3.9774 28.3288 3.87021ZM24.9275 6.77627L23.2327 6.51811L22.9835 4.85893L24.5781 3.28302L24.7449 4.3726C24.7974 4.71599 25.0701 4.9855 25.4176 5.03741L26.52 5.20226L24.9275 6.77627Z" fill="#B6BCCC"/>
</g>
<defs>
<clipPath id="clip0_2_551">
<rect width="25" height="24.7126" fill="white" transform="translate(4 0.827576)"/>
</clipPath>
</defs>
</svg>
