<svg width="30" height="43" viewBox="0 0 30 43" fill="none" xmlns="http://www.w3.org/2000/svg">
<path d="M2.28746 36.7543V38.1443C2.28746 38.7776 2.44413 39.2209 2.75746 39.4743C3.07746 39.7343 3.62413 39.8643 4.39746 39.8643C5.07079 39.8643 5.55746 39.7776 5.85746 39.6043C6.22413 39.3976 6.43413 39.0276 6.48746 38.4943H5.86746L5.34746 37.8543V37.4743H8.10746V38.4943H7.72746C7.67413 39.3276 7.34079 39.9543 6.72746 40.3743C6.24746 40.7143 5.63746 40.8843 4.89746 40.8843H3.90746C3.06746 40.8843 2.39746 40.6676 1.89746 40.2343C1.34413 39.7809 1.06746 39.1209 1.06746 38.2543V37.2443L1.68746 36.7543H2.28746ZM3.60746 41.4643C3.78746 41.4643 3.94079 41.5276 4.06746 41.6543C4.19413 41.7809 4.25746 41.9343 4.25746 42.1143C4.25746 42.2943 4.19413 42.4476 4.06746 42.5743C3.94079 42.7009 3.78746 42.7643 3.60746 42.7643C3.42746 42.7643 3.27413 42.7009 3.14746 42.5743C3.02079 42.4476 2.95746 42.2943 2.95746 42.1143C2.95746 41.9343 3.02079 41.7809 3.14746 41.6543C3.27413 41.5276 3.42746 41.4643 3.60746 41.4643ZM5.12746 41.4643C5.30746 41.4643 5.46079 41.5276 5.58746 41.6543C5.71413 41.7809 5.77746 41.9343 5.77746 42.1143C5.77746 42.2943 5.71413 42.4476 5.58746 42.5743C5.46079 42.7009 5.30746 42.7643 5.12746 42.7643C4.95413 42.7643 4.80413 42.7009 4.67746 42.5743C4.55079 42.4476 4.48746 42.2943 4.48746 42.1143C4.48746 41.9343 4.55079 41.7809 4.67746 41.6543C4.80413 41.5276 4.95413 41.4643 5.12746 41.4643ZM10.012 33.8943V37.3943C10.012 37.6543 9.92533 37.8943 9.75199 38.1143C9.53199 38.3676 9.25866 38.4943 8.93199 38.4943H7.00199V37.4743H8.54199C8.61533 37.4743 8.67866 37.4476 8.73199 37.3943C8.77866 37.3476 8.80199 37.2909 8.80199 37.2243V33.8943H10.012ZM9.18199 39.2243C9.36199 39.2243 9.51533 39.2876 9.64199 39.4143C9.76866 39.5409 9.83199 39.6943 9.83199 39.8743C9.83199 40.0543 9.76866 40.2076 9.64199 40.3343C9.51533 40.4609 9.36199 40.5243 9.18199 40.5243C9.00199 40.5243 8.84866 40.4609 8.72199 40.3343C8.60199 40.2076 8.54199 40.0543 8.54199 39.8743C8.54199 39.6943 8.60199 39.5409 8.72199 39.4143C8.84866 39.2876 9.00199 39.2243 9.18199 39.2243ZM12.3739 31.3343V37.2243C12.3739 37.2909 12.3939 37.3443 12.4339 37.3843C12.4739 37.4443 12.5372 37.4743 12.6239 37.4743H12.8839V38.4943H12.2339C11.9605 38.4943 11.7205 38.3976 11.5139 38.2043C11.2739 37.9843 11.1539 37.7143 11.1539 37.3943V31.3343H12.3739ZM23.1867 33.8943V37.1643V37.4743H23.6967V38.4943H23.3067L22.9767 38.0843H22.9567C22.73 38.3576 22.4467 38.4943 22.1067 38.4943H19.9667L19.6367 38.0843H19.6067C19.3867 38.3576 19.1067 38.4943 18.7667 38.4943H16.6167L16.2867 38.0843H16.2567C16.0367 38.3576 15.7567 38.4943 15.4167 38.4943H12.5767V37.4743H15.0267C15.1933 37.4743 15.2767 37.3909 15.2767 37.2243V35.0443H16.4967V37.1643C16.4967 37.3043 16.4933 37.4076 16.4867 37.4743H18.3767C18.5433 37.4743 18.6267 37.3909 18.6267 37.2243V34.4643H19.8467V37.1343C19.8467 37.1743 19.8433 37.2343 19.8367 37.3143C19.8367 37.3876 19.8367 37.4409 19.8367 37.4743H21.7167C21.8833 37.4743 21.9667 37.3909 21.9667 37.2243V33.8943H23.1867ZM24.7214 34.0643C25.3814 33.8709 25.958 33.7743 26.4514 33.7743C27.258 33.7743 27.908 34.0276 28.4014 34.5343C28.848 34.9943 29.0714 35.5676 29.0714 36.2543V37.3943C29.0714 37.6676 28.978 37.9143 28.7914 38.1343C28.5714 38.3743 28.3047 38.4943 27.9914 38.4943H23.3914V37.4743H27.6014C27.768 37.4743 27.8514 37.3909 27.8514 37.2243V36.3243C27.8514 35.8576 27.698 35.4909 27.3914 35.2243C27.0914 34.9576 26.6747 34.8243 26.1414 34.8243C25.8347 34.8243 25.3614 34.8943 24.7214 35.0343V34.0643Z" fill="#B6BCCC"/>
<g clip-path="url(#clip0_2_562)">
<path d="M25.3389 4.44668C22.9779 2.11287 19.8389 0.827576 16.5 0.827576C13.1611 0.827576 10.0221 2.11287 7.66113 4.44668C5.30024 6.78048 4 9.88341 4 13.1839C4 16.4844 5.30024 19.5873 7.66113 21.9211C10.0221 24.2549 13.1611 25.5402 16.5 25.5402C19.8389 25.5402 22.9779 24.2549 25.3389 21.9211C27.6998 19.5873 29 16.4844 29 13.1839C29 9.88341 27.6998 6.78048 25.3389 4.44668ZM16.5 24.0922C13.5291 24.0922 10.829 22.9253 8.84316 21.0312C9.91855 17.7831 13.0082 15.549 16.5 15.549C19.9918 15.549 23.0814 17.7831 24.1569 21.0312C22.171 22.9253 19.4709 24.0922 16.5 24.0922ZM12.8379 10.481C12.8379 8.48488 14.4807 6.86094 16.5 6.86094C18.5193 6.86094 20.1621 8.48488 20.1621 10.481C20.1621 12.477 18.5193 14.101 16.5 14.101C14.4807 14.101 12.8379 12.477 12.8379 10.481ZM25.2568 19.8135C24.1792 17.3213 22.0633 15.4276 19.506 14.5838C20.7902 13.6619 21.627 12.1663 21.627 10.481C21.627 7.68644 19.327 5.41293 16.5 5.41293C13.673 5.41293 11.373 7.68644 11.373 10.481C11.373 12.1663 12.2098 13.6619 13.494 14.5838C10.9367 15.4276 8.8208 17.3213 7.74316 19.8135C6.31514 17.9748 5.46484 15.6758 5.46484 13.1839C5.46484 7.16902 10.4152 2.27558 16.5 2.27558C22.5848 2.27558 27.5352 7.16902 27.5352 13.1839C27.5352 15.6758 26.6849 17.9748 25.2568 19.8135Z" fill="#B6BCCC"/>
</g>
<defs>
<clipPath id="clip0_2_562">
<rect width="25" height="24.7126" fill="white" transform="translate(4 0.827576)"/>
</clipPath>
</defs>
</svg>
