<svg width="21" height="21" viewBox="0 0 21 21" fill="none" xmlns="http://www.w3.org/2000/svg">
<path d="M7.382 4.18481H3.8482C3.52116 4.18481 3.2561 4.44987 3.2561 4.77692C3.2561 5.10396 3.52116 5.36902 3.8482 5.36902H7.382C7.70889 5.36902 7.9741 5.10396 7.9741 4.77692C7.9741 4.44987 7.70889 4.18481 7.382 4.18481Z" fill="#00C2BE"/>
<path d="M7.382 6.55347H3.8482C3.52116 6.55347 3.2561 6.81852 3.2561 7.14557C3.2561 7.47261 3.52116 7.73767 3.8482 7.73767H7.382C7.70889 7.73767 7.9741 7.47261 7.9741 7.14557C7.9741 6.81852 7.70889 6.55347 7.382 6.55347Z" fill="#00C2BE"/>
<path d="M7.382 8.92188H3.8482C3.52116 8.92188 3.2561 9.18693 3.2561 9.51398C3.2561 9.84102 3.52116 10.1061 3.8482 10.1061H7.382C7.70889 10.1061 7.9741 9.84102 7.9741 9.51398C7.9741 9.18693 7.70889 8.92188 7.382 8.92188Z" fill="#00C2BE"/>
<path d="M7.382 11.2905H3.8482C3.52116 11.2905 3.2561 11.5556 3.2561 11.8826C3.2561 12.2097 3.52116 12.4747 3.8482 12.4747H7.382C7.70889 12.4747 7.9741 12.2097 7.9741 11.8826C7.9741 11.5556 7.70889 11.2905 7.382 11.2905Z" fill="#00C2BE"/>
<path d="M7.382 13.6987H3.8482C3.52116 13.6987 3.2561 13.9639 3.2561 14.2908C3.2561 14.6179 3.52116 14.8829 3.8482 14.8829H7.382C7.70889 14.8829 7.9741 14.6179 7.9741 14.2908C7.9741 13.9639 7.70889 13.6987 7.382 13.6987Z" fill="#00C2BE"/>
<path d="M9.37042 5.36902H12.9042C13.2313 5.36902 13.4963 5.10396 13.4963 4.77692C13.4963 4.44987 13.2313 4.18481 12.9042 4.18481H9.37042C9.04353 4.18481 8.77832 4.44987 8.77832 4.77692C8.77832 5.10396 9.04353 5.36902 9.37042 5.36902Z" fill="#00C2BE"/>
<path d="M9.37042 7.73767H12.9042C13.2313 7.73767 13.4963 7.47261 13.4963 7.14557C13.4963 6.81852 13.2313 6.55347 12.9042 6.55347H9.37042C9.04353 6.55347 8.77832 6.81852 8.77832 7.14557C8.77832 7.47261 9.04353 7.73767 9.37042 7.73767Z" fill="#00C2BE"/>
<path d="M11.6645 9.51398C11.6645 9.18693 11.3994 8.92188 11.0724 8.92188H9.37042C9.04353 8.92188 8.77832 9.18693 8.77832 9.51398C8.77832 9.84102 9.04353 10.1061 9.37042 10.1061H11.0724C11.3994 10.1061 11.6645 9.84102 11.6645 9.51398Z" fill="#00C2BE"/>
<path d="M17.2737 13.9484C17.0186 13.7438 16.6461 13.7846 16.4413 14.0397L14.9164 15.9409L13.9723 15.2569C13.7075 15.0649 13.3371 15.1241 13.1453 15.3889C12.9535 15.6538 13.0127 16.024 13.2775 16.2158L14.678 17.2305C14.7829 17.3064 14.9044 17.3433 15.0251 17.3433C15.1989 17.3433 15.3706 17.2669 15.4872 17.1215L17.3651 14.7807C17.5697 14.5257 17.5289 14.153 17.2737 13.9484Z" fill="#00C2BE"/>
<path d="M18.7703 12.131C17.999 11.3461 17.008 10.8515 15.9342 10.7058V2.67585C15.9342 1.36105 14.8644 0.29126 13.5496 0.29126H3.20311C1.88815 0.29126 0.818359 1.36105 0.818359 2.67585V16.3918C0.818359 17.7067 1.88815 18.7765 3.20295 18.7765H11.5246C12.461 19.8765 13.8074 20.5016 15.2641 20.5016C17.9756 20.5016 20.1814 18.2942 20.1814 15.5809C20.1814 14.2819 19.6803 13.0567 18.7703 12.131ZM2.00256 16.3918V2.67585C2.00256 2.01406 2.54116 1.47546 3.20311 1.47546H13.5496C14.2116 1.47546 14.75 2.01406 14.75 2.67585V10.6869C12.2792 10.9449 10.3467 13.0412 10.3467 15.5809C10.3467 16.2848 10.4935 16.9654 10.7751 17.5922H3.20311C2.54116 17.5922 2.00256 17.0537 2.00256 16.3918ZM15.2641 19.3174C14.0816 19.3174 12.9945 18.7745 12.2814 17.8281C11.7904 17.1763 11.5308 16.3993 11.5308 15.5809C11.5308 13.5205 13.2056 11.8443 15.2641 11.8443C15.2835 11.8443 15.3031 11.8446 15.3225 11.8449L15.3316 11.8451C16.3143 11.8625 17.2356 12.2588 17.9257 12.961C18.6167 13.6639 18.9972 14.5945 18.9972 15.5809C18.9972 17.6412 17.3225 19.3174 15.2641 19.3174Z" fill="#00C2BE"/>
</svg>
