<svg width="19" height="22" viewBox="0 0 19 22" fill="none" xmlns="http://www.w3.org/2000/svg">
<path d="M18.5775 6.06626L18.5769 6.04963C18.5676 5.84436 18.5614 5.6272 18.5576 5.38557C18.5402 4.20729 17.6035 3.23264 16.4251 3.16678C13.9681 3.02966 12.0674 2.22849 10.4433 0.645542L10.4295 0.632336C9.89976 0.146643 9.10071 0.146643 8.57083 0.632336L8.55697 0.645542C6.93294 2.22849 5.03224 3.02966 2.57524 3.16694C1.39696 3.23264 0.460136 4.20729 0.44269 5.38573C0.439103 5.62573 0.432745 5.8429 0.423452 6.04963L0.422474 6.08827C0.374703 8.59369 0.315357 11.7118 1.35848 14.542C1.93205 16.0984 2.80072 17.4513 3.9402 18.5634C5.23799 19.8298 6.93783 20.8353 8.99245 21.5517C9.0593 21.575 9.12875 21.5939 9.19951 21.6081C9.29929 21.628 9.39972 21.6379 9.50015 21.6379C9.60058 21.6379 9.70118 21.628 9.8008 21.6081C9.87156 21.5939 9.9415 21.5748 10.0087 21.5514C12.0608 20.8337 13.7589 19.8277 15.0555 18.5614C16.1945 17.449 17.0632 16.0958 17.6373 14.5391C18.6843 11.7004 18.6251 8.57641 18.5775 6.06626ZM16.4608 14.1052C15.3606 17.0882 13.1147 19.1368 9.59488 20.3677C9.58232 20.3719 9.56896 20.3757 9.5551 20.3785C9.51874 20.3856 9.48173 20.3856 9.44488 20.3783C9.43119 20.3755 9.41782 20.3719 9.40543 20.3677C5.88183 19.139 3.6345 17.0916 2.53513 14.1085C1.57369 11.4997 1.62815 8.63738 1.67624 6.11224L1.67657 6.09821C1.68635 5.88121 1.69287 5.65393 1.69646 5.40416C1.70429 4.88097 2.12101 4.4481 2.64518 4.41891C4.03558 4.34131 5.25707 4.07262 6.37943 3.59752C7.50032 3.12308 8.49583 2.4543 9.42255 1.55302C9.46966 1.51324 9.5308 1.51307 9.57776 1.55302C10.5046 2.4543 11.5002 3.12308 12.6209 3.59752C13.7432 4.07262 14.9647 4.34131 16.3553 4.41891C16.8795 4.4481 17.2962 4.88097 17.3038 5.40432C17.3076 5.6554 17.3141 5.88268 17.3239 6.09821C17.3718 8.6263 17.425 11.4909 16.4608 14.1052Z" fill="#00C2BE"/>
<path d="M9.49975 5.62769C6.56309 5.62769 4.17407 8.01686 4.17407 10.9534C4.17407 13.89 6.56309 16.2792 9.49975 16.2792C12.4363 16.2792 14.8254 13.89 14.8254 10.9534C14.8254 8.01686 12.4363 5.62769 9.49975 5.62769ZM9.49975 15.0251C7.25454 15.0251 5.42801 13.1986 5.42801 10.9534C5.42801 8.70815 7.25454 6.88162 9.49975 6.88162C11.7448 6.88162 13.5713 8.70815 13.5713 10.9534C13.5713 13.1986 11.7448 15.0251 9.49975 15.0251Z" fill="#00C2BE"/>
<path d="M11.0305 9.3L8.55689 11.7736L7.8855 11.1022C7.64061 10.8573 7.24361 10.8573 6.99873 11.1022C6.75401 11.3471 6.75401 11.7441 6.99873 11.9888L8.11359 13.1037C8.23603 13.2261 8.39646 13.2873 8.55689 13.2873C8.71732 13.2873 8.87776 13.2261 9.0002 13.1037L11.9173 10.1866C12.162 9.94172 12.162 9.54472 11.9173 9.3C11.6724 9.05495 11.2754 9.05495 11.0305 9.3Z" fill="#00C2BE"/>
</svg>
