<svg width="23" height="21" viewBox="0 0 23 21" fill="none" xmlns="http://www.w3.org/2000/svg">
<path d="M0.771109 11.1478L3.11625 12.8011C3.54116 13.1006 4.12844 12.7956 4.12844 12.2763V11.2651L15.3886 11.2651C15.7432 11.2651 16.0308 10.9776 16.0308 10.6229C16.0308 10.2682 15.7432 9.98079 15.3886 9.98079L4.12852 9.98079V8.96963C4.12852 8.44686 3.53812 8.14755 3.11638 8.44481L0.771236 10.0981C0.413107 10.3504 0.405872 10.8897 0.771109 11.1478Z" fill="#FF5959"/>
<path d="M3.98997 6.4999C4.29685 6.67738 4.68974 6.57259 4.86736 6.26557C6.37573 3.65789 9.19535 1.90726 12.4175 1.90726C17.2233 1.90726 21.1332 5.81716 21.1332 10.623C21.1332 15.4289 17.2233 19.3388 12.4175 19.3388C9.19321 19.3388 6.37487 17.5865 4.8674 14.9806C4.68983 14.6735 4.29686 14.5688 3.99001 14.7462C3.68303 14.9238 3.57816 15.3166 3.75568 15.6236C5.49051 18.6226 8.73059 20.623 12.4175 20.623C17.9445 20.623 22.4175 16.1505 22.4175 10.623C22.4175 5.09597 17.945 0.622986 12.4175 0.622986C8.729 0.622986 5.48974 2.62481 3.75564 5.62251C3.57811 5.92948 3.68299 6.32229 3.98997 6.4999Z" fill="#FF5959"/>
</svg>
