<svg width="21" height="17" viewBox="0 0 21 17" fill="none" xmlns="http://www.w3.org/2000/svg">
<path d="M17.4823 0.498779H3.51767C1.95683 0.498779 0.687012 1.7686 0.687012 3.32944V13.8972C0.687012 15.4581 1.95683 16.7279 3.51767 16.7279H17.4823C19.0431 16.7279 20.3129 15.4581 20.3129 13.8972V3.32944C20.3129 1.7686 19.0431 0.498779 17.4823 0.498779ZM19.1807 10.3117H15.029C14.0926 10.3117 13.3306 9.54986 13.3306 8.61334C13.3306 7.67681 14.0925 6.91493 15.029 6.91493H19.1807V10.3117ZM19.1807 5.78268H15.029C13.4682 5.78268 12.1984 7.0525 12.1984 8.61334C12.1984 10.1742 13.4682 11.444 15.029 11.444H19.1807V13.8972C19.1807 14.8337 18.4188 15.5956 17.4823 15.5956H3.51767C2.58118 15.5956 1.81926 14.8338 1.81926 13.8972V3.32944C1.81926 2.39295 2.58114 1.63103 3.51767 1.63103H17.4823C18.4188 1.63103 19.1807 2.39291 19.1807 3.32944V5.78268Z" fill="#00C2BE"/>
<path d="M15.7838 8.04736H15.029C14.7163 8.04736 14.4629 8.30085 14.4629 8.61349C14.4629 8.92616 14.7164 9.17961 15.029 9.17961H15.7838C16.0965 9.17961 16.35 8.92612 16.35 8.61349C16.35 8.30081 16.0965 8.04736 15.7838 8.04736Z" fill="#00C2BE"/>
</svg>
