<svg width="20" height="22" viewBox="0 0 20 22" fill="none" xmlns="http://www.w3.org/2000/svg">
<mask id="path-1-inside-1_2_2451" fill="white">
<path fill-rule="evenodd" clip-rule="evenodd" d="M10.402 21.5756C12.21 20.6589 19.4999 16.5303 19.4999 9.55658C19.4999 4.30991 15.2466 0.0566406 9.99994 0.0566406C4.75327 0.0566406 0.5 4.30991 0.5 9.55658C0.5 16.5303 7.78984 20.6589 9.59788 21.5756C9.85195 21.7044 10.1479 21.7044 10.402 21.5756ZM10.0001 13.628C12.2487 13.628 14.0715 11.8051 14.0715 9.55657C14.0715 7.308 12.2487 5.48517 10.0001 5.48517C7.75154 5.48517 5.92871 7.308 5.92871 9.55657C5.92871 11.8051 7.75154 13.628 10.0001 13.628Z"/>
</mask>
<path d="M10.402 21.5756L11.0803 22.9135L11.0803 22.9135L10.402 21.5756ZM9.59788 21.5756L8.91955 22.9135L8.91955 22.9135L9.59788 21.5756ZM17.9999 9.55658C17.9999 12.4866 16.4721 14.9008 14.5761 16.769C12.6835 18.6339 10.5617 19.8128 9.72366 20.2377L11.0803 22.9135C12.0503 22.4216 14.4775 21.0779 16.6818 18.9059C18.8827 16.7372 20.9999 13.6003 20.9999 9.55658H17.9999ZM9.99994 1.55664C14.4182 1.55664 17.9999 5.13834 17.9999 9.55658H20.9999C20.9999 3.48148 16.075 -1.44336 9.99994 -1.44336V1.55664ZM2 9.55658C2 5.13834 5.58169 1.55664 9.99994 1.55664V-1.44336C3.92484 -1.44336 -1 3.48148 -1 9.55658H2ZM10.2762 20.2377C9.43818 19.8128 7.31638 18.6339 5.42373 16.769C3.52773 14.9008 2 12.4866 2 9.55658H-1C-1 13.6003 1.11719 16.7372 3.31812 18.9059C5.52241 21.0779 7.94955 22.4216 8.91955 22.9135L10.2762 20.2377ZM9.72367 20.2377C9.89599 20.1504 10.1039 20.1504 10.2762 20.2377L8.91955 22.9135C9.6 23.2585 10.3999 23.2585 11.0803 22.9135L9.72367 20.2377ZM12.5715 9.55657C12.5715 10.9767 11.4203 12.128 10.0001 12.128V15.128C13.0771 15.128 15.5715 12.6336 15.5715 9.55657H12.5715ZM10.0001 6.98517C11.4203 6.98517 12.5715 8.13643 12.5715 9.55657H15.5715C15.5715 6.47957 13.0771 3.98517 10.0001 3.98517V6.98517ZM7.42871 9.55657C7.42871 8.13643 8.57997 6.98517 10.0001 6.98517V3.98517C6.92311 3.98517 4.42871 6.47957 4.42871 9.55657H7.42871ZM10.0001 12.128C8.57997 12.128 7.42871 10.9767 7.42871 9.55657H4.42871C4.42871 12.6336 6.92311 15.128 10.0001 15.128V12.128Z" fill="#00C2BE" mask="url(#path-1-inside-1_2_2451)"/>
</svg>
