<svg width="22" height="22" viewBox="0 0 22 22" fill="none" xmlns="http://www.w3.org/2000/svg">
<g clip-path="url(#clip0_2_2430)">
<path d="M18.4246 3.57539C16.4414 1.59221 13.8046 0.5 11 0.5C8.19535 0.5 5.55858 1.59221 3.57535 3.57539C1.59221 5.55858 0.5 8.19535 0.5 11C0.5 13.8046 1.59221 16.4414 3.57535 18.4246C5.55858 20.4078 8.19535 21.5 11 21.5C13.8046 21.5 16.4414 20.4078 18.4246 18.4246C20.4078 16.4414 21.5 13.8046 21.5 11C21.5 8.19535 20.4078 5.55858 18.4246 3.57539ZM11 20.2695C8.50445 20.2695 6.23636 19.2779 4.56826 17.6684C5.47159 14.9083 8.06685 13.0098 11 13.0098C13.9332 13.0098 16.5284 14.9083 17.4318 17.6684C15.7636 19.2779 13.4956 20.2695 11 20.2695ZM7.92383 8.70312C7.92383 7.00692 9.3038 5.62695 11 5.62695C12.6962 5.62695 14.0762 7.00692 14.0762 8.70312C14.0762 10.3993 12.6962 11.7793 11 11.7793C9.3038 11.7793 7.92383 10.3993 7.92383 8.70312ZM18.3557 16.6337C17.4505 14.5158 15.6732 12.9066 13.525 12.1896C14.6038 11.4062 15.3066 10.1353 15.3066 8.70312C15.3066 6.32844 13.3747 4.39648 11 4.39648C8.62532 4.39648 6.69336 6.32844 6.69336 8.70312C6.69336 10.1353 7.39624 11.4062 8.475 12.1896C6.32684 12.9066 4.54947 14.5158 3.64426 16.6337C2.44472 15.0712 1.73047 13.1176 1.73047 11C1.73047 5.88876 5.88876 1.73047 11 1.73047C16.1112 1.73047 20.2695 5.88876 20.2695 11C20.2695 13.1176 19.5553 15.0712 18.3557 16.6337Z" fill="#00C2BE"/>
</g>
<defs>
<clipPath id="clip0_2_2430">
<rect width="21" height="21" fill="white" transform="translate(0.5 0.5)"/>
</clipPath>
</defs>
</svg>
