<svg width="22" height="23" viewBox="0 0 22 23" fill="none" xmlns="http://www.w3.org/2000/svg">
<path fill-rule="evenodd" clip-rule="evenodd" d="M10.5 2.25653C7.85585 2.46869 5.52543 3.79281 3.97666 5.76095C4.81811 6.65845 5.89126 7.39578 7.12544 7.9118C8.18122 8.35324 9.32669 8.62084 10.5 8.70099V2.25653ZM10.5 10.2041C9.13133 10.1218 7.78878 9.81499 6.54681 9.29571C5.24609 8.75186 4.08296 7.98626 3.13038 7.04188C2.40972 8.35857 2 9.86972 2 11.4766C2 13.3073 2.53187 15.0139 3.44952 16.4501C4.34321 15.6837 5.39834 15.0578 6.56149 14.6001C7.79962 14.1129 9.13708 13.8252 10.5 13.7478V10.2041ZM12 13.7478V10.2041C13.4876 10.1147 14.9422 9.76008 16.2689 9.15815C17.4439 8.62499 18.496 7.90798 19.3696 7.04188C20.0903 8.35857 20.5 9.86972 20.5 11.4766C20.5 13.3073 19.9681 15.0139 19.0505 16.4501C18.2391 15.7543 17.2936 15.1735 16.2535 14.7293C14.9306 14.1644 13.4814 13.8319 12 13.7478ZM10.5 15.2505C9.32096 15.326 8.17041 15.5789 7.11076 15.9959C6.06076 16.4091 5.12937 16.9718 4.35878 17.6471C5.89621 19.3629 8.06509 20.5012 10.5 20.6966V15.2505ZM12 20.6966V15.2505C13.2846 15.3328 14.5325 15.6254 15.6644 16.1088C16.6041 16.5101 17.4398 17.0324 18.1412 17.6471C16.6038 19.3629 14.4349 20.5012 12 20.6966ZM12 8.70099V2.25653C14.6441 2.46869 16.9746 3.79281 18.5233 5.76094C17.7463 6.58968 16.7704 7.28343 15.6491 7.79217C14.5209 8.30403 13.2783 8.61367 12 8.70099ZM11.25 0.726562C5.31294 0.726562 0.5 5.5395 0.5 11.4766C0.5 17.4136 5.31294 22.2266 11.25 22.2266C17.1871 22.2266 22 17.4136 22 11.4766C22 5.5395 17.1871 0.726562 11.25 0.726562Z" fill="#00C2BE"/>
</svg>
