<svg width="18" height="20" viewBox="0 0 18 20" fill="none" xmlns="http://www.w3.org/2000/svg">
<path d="M15.0716 12.2991V8.68915C15.0716 6.00771 13.3717 3.6695 11.0312 2.79612C11.0586 2.6582 11.0737 2.51726 11.0737 2.37627C11.0738 1.22096 10.1449 0.283203 9.00045 0.283203C7.85604 0.283203 6.92713 1.22096 6.92713 2.37627C6.92713 2.51419 6.94229 2.65206 6.96657 2.78384C6.16216 3.07191 5.41843 3.52851 4.784 4.14754C3.58798 5.31206 2.92927 6.87801 2.92927 8.55737V12.2991C2.92927 12.4309 2.82301 12.5413 2.68944 12.5413C1.56931 12.5413 0.613071 13.3932 0.509858 14.478C0.452169 15.0818 0.64952 15.6824 1.05324 16.1298C1.45393 16.5742 2.02768 16.8316 2.62566 16.8316H6.28661C6.43839 18.2076 7.59801 19.2832 9.00045 19.2832C10.4029 19.2832 11.5625 18.2076 11.7143 16.8316H15.3752C15.9733 16.8316 16.547 16.5742 16.9477 16.1298C17.3483 15.6824 17.5457 15.0818 17.491 14.478C17.3878 13.3932 16.4286 12.5413 15.3115 12.5413C15.1779 12.5412 15.0716 12.4339 15.0716 12.2991ZM9.00045 1.50898C9.47398 1.50898 9.85951 1.89818 9.85951 2.37622C9.85951 2.41604 9.85343 2.45283 9.84734 2.49265C9.64092 2.46199 9.43145 2.44055 9.22198 2.43441C8.86074 2.42213 8.50558 2.44669 8.15346 2.49572C8.14738 2.4559 8.1413 2.41911 8.1413 2.37929C8.1414 1.89818 8.52692 1.50898 9.00045 1.50898ZM9.00045 18.0573C8.26889 18.0573 7.6557 17.5302 7.513 16.8315H10.4879C10.3453 17.5303 9.73207 18.0573 9.00045 18.0573ZM16.2829 14.5945C16.3071 14.858 16.2252 15.1124 16.0522 15.3054C15.8731 15.4985 15.6363 15.6057 15.3752 15.6057H2.62571C2.36464 15.6057 2.1279 15.4984 1.95179 15.3054C1.77573 15.1124 1.69376 14.858 1.71804 14.5945C1.76052 14.1317 2.18858 13.767 2.68944 13.767C3.49085 13.767 4.14349 13.1082 4.14349 12.2991V8.55737C4.14349 7.21511 4.67166 5.96175 5.6279 5.03013C6.5416 4.13838 7.73159 3.65415 9.00045 3.65415C9.06118 3.65415 9.11882 3.65415 9.17955 3.65722C11.7568 3.74913 13.8574 6.00771 13.8574 8.68915V12.2991C13.8574 13.1082 14.5101 13.767 15.3115 13.767C15.8123 13.767 16.2373 14.1317 16.2829 14.5945Z" fill="#00C2BE"/>
</svg>
