<svg width="235" height="168" viewBox="0 0 235 168" fill="none" xmlns="http://www.w3.org/2000/svg">
<g style="mix-blend-mode:multiply" opacity="0.2">
<path d="M16.2896 90.77L136.219 159.274C146.277 165.019 157.664 168.028 169.244 168C180.825 167.972 192.197 164.908 202.227 159.114L230.221 142.945C230.869 142.571 231.406 142.033 231.781 141.385C232.155 140.737 232.352 140.002 232.353 139.254C232.353 138.505 232.157 137.77 231.784 137.121C231.411 136.473 230.874 135.934 230.228 135.559L80.2311 48.5663C79.5806 48.1889 78.8419 47.9906 78.09 47.9915C77.3381 47.9923 76.5999 48.1923 75.9502 48.5711L16.2569 83.3786C15.6101 83.7557 15.074 84.2967 14.7024 84.9471C14.3308 85.5975 14.1369 86.3345 14.1402 87.0837C14.1435 87.833 14.3439 88.5682 14.7212 89.2153C15.0985 89.8624 15.6395 90.3987 16.2896 90.77Z" fill="#AFB6E5"/>
</g>
<path d="M21.2328 79.971L35.4452 71.8789L29.0597 63.5094C29.0597 63.5094 18.6281 73.6198 18.9594 74.4479C19.2906 75.2761 21.2328 79.971 21.2328 79.971Z" fill="url(#paint0_linear_2_4480)"/>
<path d="M125.805 140.181L147.285 127.651C147.285 127.651 132.548 120.027 131.885 120.027C131.223 120.027 122.282 125.828 122.282 125.828L125.805 140.181Z" fill="url(#paint1_linear_2_4480)"/>
<path d="M158.803 148.21C158.803 152.059 157.476 154.785 155.319 156.101C155.254 156.141 148.505 160.051 148.439 160.087C146.195 161.343 147.63 158.493 144.218 156.523C137.359 152.559 131.796 142.959 131.796 135.081C131.796 131.185 128.197 131.153 130.402 129.853C130.463 129.816 137.648 125.838 137.707 125.805C139.945 124.592 143.004 124.815 146.376 126.761C153.242 130.731 158.803 140.332 158.803 148.21Z" fill="url(#paint2_linear_2_4480)"/>
<path d="M147.918 140.013C143.038 131.656 135.174 127.169 130.354 129.989C125.535 132.81 125.584 141.87 130.464 150.227C135.344 158.583 143.208 163.071 148.028 160.25C152.848 157.43 152.799 148.369 147.918 140.013Z" fill="url(#paint3_linear_2_4480)"/>
<path style="mix-blend-mode:screen" d="M139.787 130.555C136.499 128.655 133.511 128.403 131.29 129.511C133.36 128.931 135.93 129.365 138.714 130.973C145.574 134.937 151.137 144.537 151.137 152.415C151.137 156.517 149.624 159.339 147.214 160.545C150.246 159.696 152.209 156.677 152.209 151.996C152.207 144.12 146.645 134.519 139.787 130.555Z" fill="url(#paint4_radial_2_4480)"/>
<path style="mix-blend-mode:multiply" d="M149.169 150.852C149.169 156.919 144.886 159.362 139.603 156.31C134.321 153.258 130.039 145.864 130.039 139.796C130.039 133.729 134.322 131.285 139.603 134.338C144.885 137.39 149.169 144.784 149.169 150.852ZM142.855 147.026C142.855 147.086 142.855 147.147 142.855 147.206C142.855 147.265 142.855 147.325 142.855 147.382C142.864 147.769 143.006 148.142 143.257 148.437L146.224 152.12C146.668 152.672 147.242 152.743 147.378 152.251C147.573 151.511 147.668 150.747 147.66 149.981C147.655 149.109 147.561 148.239 147.378 147.385C147.242 146.738 146.668 146.145 146.224 146.182L143.257 146.435C143.001 146.456 142.84 146.68 142.855 147.024V147.026ZM145.323 142.115C144.357 140.415 143.124 138.882 141.671 137.575C141.169 137.133 140.677 137.281 140.677 137.877V141.802C140.694 142.196 140.843 142.572 141.101 142.87C141.191 142.976 141.28 143.086 141.365 143.199C141.453 143.339 141.574 143.456 141.716 143.541C141.859 143.625 142.02 143.674 142.185 143.684L145.151 143.432C145.595 143.392 145.684 142.741 145.322 142.113L145.323 142.115ZM137.54 135.188C136.941 134.992 136.309 134.92 135.681 134.974C135.054 135.029 134.444 135.21 133.888 135.507C133.525 135.717 133.614 136.471 134.06 137.021L137.026 140.703C137.114 140.841 137.236 140.956 137.379 141.036C137.522 141.117 137.682 141.161 137.846 141.165C137.933 141.151 138.021 141.143 138.11 141.142C138.375 141.137 138.534 140.902 138.534 140.564V136.636C138.521 136.325 138.421 136.025 138.245 135.768C138.069 135.512 137.824 135.31 137.539 135.186L137.54 135.188ZM131.832 138.4C131.636 139.14 131.541 139.904 131.549 140.67C131.554 141.542 131.649 142.412 131.832 143.266C131.967 143.913 132.541 144.506 132.985 144.469L135.952 144.216C136.208 144.194 136.369 143.971 136.355 143.625C136.355 143.565 136.355 143.504 136.355 143.445C136.355 143.386 136.355 143.326 136.355 143.269C136.345 142.882 136.203 142.509 135.952 142.214L132.985 138.531C132.539 137.977 131.965 137.907 131.83 138.398L131.832 138.4ZM133.888 148.536C134.853 150.237 136.087 151.772 137.54 153.08C138.042 153.522 138.534 153.374 138.534 152.778V148.853C138.517 148.459 138.368 148.083 138.11 147.785C138.02 147.679 137.931 147.569 137.846 147.456C137.758 147.316 137.637 147.199 137.495 147.114C137.352 147.03 137.191 146.981 137.026 146.971L134.06 147.223C133.613 147.256 133.524 147.907 133.886 148.535L133.888 148.536ZM141.671 155.463C142.27 155.659 142.902 155.731 143.529 155.677C144.157 155.622 144.767 155.441 145.323 155.144C145.686 154.934 145.596 154.18 145.151 153.63L142.185 149.948C142.096 149.81 141.975 149.696 141.832 149.615C141.689 149.535 141.529 149.49 141.365 149.486C141.277 149.5 141.189 149.508 141.101 149.509C140.836 149.514 140.677 149.749 140.677 150.087V154.013C140.69 154.323 140.79 154.624 140.965 154.88C141.141 155.136 141.385 155.337 141.669 155.461L141.671 155.463Z" fill="url(#paint5_linear_2_4480)"/>
<path d="M148.569 151.09C148.569 157.158 144.287 159.602 139.004 156.549C133.722 153.496 129.44 146.103 129.44 140.035C129.44 133.968 133.722 131.524 139.004 134.577C144.286 137.63 148.569 145.023 148.569 151.09ZM142.255 147.264C142.255 147.325 142.259 147.384 142.259 147.444C142.259 147.504 142.259 147.562 142.255 147.62C142.265 148.008 142.407 148.38 142.657 148.676L145.624 152.358C146.069 152.91 146.643 152.98 146.778 152.489C146.973 151.749 147.068 150.985 147.061 150.22C147.056 149.347 146.961 148.476 146.778 147.623C146.643 146.976 146.069 146.382 145.624 146.42L142.657 146.673C142.405 146.694 142.244 146.919 142.258 147.263L142.255 147.264ZM144.723 142.352C143.757 140.652 142.524 139.118 141.071 137.809C140.569 137.367 140.077 137.515 140.077 138.111V142.036C140.094 142.43 140.244 142.806 140.501 143.104C140.591 143.21 140.679 143.32 140.765 143.432C140.853 143.573 140.973 143.69 141.116 143.775C141.258 143.859 141.419 143.909 141.584 143.919L144.551 143.665C144.998 143.631 145.087 142.98 144.726 142.352L144.723 142.352ZM136.94 135.426C136.341 135.23 135.708 135.158 135.081 135.212C134.453 135.267 133.843 135.448 133.287 135.744C132.925 135.954 133.015 136.708 133.46 137.259L136.426 140.94C136.514 141.078 136.635 141.192 136.778 141.273C136.921 141.354 137.081 141.398 137.245 141.402C137.333 141.388 137.421 141.38 137.51 141.378C137.775 141.374 137.933 141.143 137.933 140.801V136.876C137.921 136.565 137.821 136.264 137.646 136.008C137.471 135.751 137.227 135.549 136.943 135.425L136.94 135.426ZM131.232 138.637C131.036 139.378 130.941 140.141 130.949 140.907C130.954 141.78 131.049 142.65 131.232 143.504C131.366 144.151 131.94 144.744 132.385 144.706L135.352 144.454C135.607 144.432 135.769 144.209 135.755 143.863C135.755 143.802 135.751 143.743 135.751 143.683C135.751 143.623 135.751 143.564 135.755 143.507C135.744 143.119 135.603 142.747 135.352 142.451L132.385 138.769C131.943 138.216 131.369 138.145 131.234 138.636L131.232 138.637ZM133.287 148.774C134.253 150.475 135.486 152.009 136.94 153.317C137.441 153.76 137.933 153.611 137.933 153.014V149.089C137.916 148.696 137.767 148.32 137.51 148.022C137.419 147.915 137.331 147.806 137.245 147.694C137.157 147.553 137.037 147.436 136.894 147.351C136.752 147.267 136.591 147.217 136.426 147.207L133.46 147.46C133.017 147.494 132.928 148.145 133.289 148.773L133.287 148.774ZM141.071 155.701C141.67 155.897 142.302 155.969 142.93 155.915C143.557 155.86 144.167 155.679 144.723 155.382C145.085 155.173 144.996 154.419 144.551 153.868L141.584 150.187C141.496 150.049 141.375 149.934 141.232 149.854C141.089 149.773 140.929 149.729 140.765 149.725C140.678 149.739 140.589 149.747 140.501 149.748C140.236 149.753 140.077 149.983 140.077 150.326V154.252C140.091 154.563 140.191 154.863 140.367 155.12C140.543 155.376 140.788 155.577 141.073 155.701L141.071 155.701Z" fill="url(#paint6_linear_2_4480)"/>
<path d="M54.4611 89.5337C54.4611 93.3821 53.1344 96.1082 50.978 97.425C50.9127 97.464 44.1641 101.375 44.098 101.41C41.8532 102.667 43.2889 99.8162 39.8776 97.8466C33.0182 93.8827 27.4553 84.2825 27.4553 76.4048C27.4553 72.5086 23.8576 72.4775 26.0609 71.1767C26.1223 71.14 33.3073 67.1617 33.3662 67.1282C35.6046 65.915 38.6632 66.1382 42.0363 68.0847C48.9013 72.0551 54.4611 81.6553 54.4611 89.5337Z" fill="url(#paint7_linear_2_4480)"/>
<path d="M43.5765 81.3361C38.6961 72.9797 30.8325 68.492 26.0127 71.3125C21.1928 74.1331 21.2419 83.1938 26.1223 91.5502C31.0026 99.9066 38.8663 104.394 43.6861 101.574C48.506 98.7532 48.4569 89.6925 43.5765 81.3361Z" fill="url(#paint8_linear_2_4480)"/>
<path style="mix-blend-mode:screen" d="M35.4451 71.8789C32.1572 69.9786 29.1694 69.7228 26.9478 70.8347C29.0181 70.2552 31.5886 70.688 34.3725 72.2966C41.231 76.2605 46.7948 85.8615 46.7948 93.7384C46.7948 97.8403 45.2818 100.663 42.8722 101.869C45.9045 101.02 47.8674 98.0005 47.8674 93.3191C47.8642 85.4438 42.3045 75.8428 35.4451 71.8789Z" fill="url(#paint9_radial_2_4480)"/>
<path style="mix-blend-mode:multiply" d="M44.8261 92.1753C44.8261 98.2428 40.5444 100.687 35.2617 97.6338C29.979 94.5809 25.6973 87.1871 25.6973 81.1196C25.6973 75.0521 29.9798 72.609 35.2617 75.6611C40.5436 78.7132 44.8261 86.1078 44.8261 92.1753ZM38.5122 88.3493C38.5122 88.4098 38.5162 88.4704 38.5162 88.5302C38.5162 88.59 38.5162 88.6482 38.5122 88.7056C38.5222 89.0929 38.6641 89.4652 38.9143 89.7609L41.8814 93.4435C42.3265 93.9959 42.9006 94.066 43.036 93.575C43.231 92.8343 43.3258 92.0708 43.3179 91.3049C43.3129 90.4321 43.2185 89.5622 43.036 88.7087C42.9006 88.0615 42.3265 87.4685 41.8814 87.5059L38.9143 87.7586C38.6595 87.7793 38.4979 88.0017 38.5122 88.3477V88.3493ZM40.9807 83.4384C40.0145 81.7376 38.7812 80.2035 37.3281 78.8949C36.8264 78.4525 36.3343 78.6008 36.3343 79.197V83.1219C36.3515 83.5153 36.5008 83.8913 36.7579 84.1892C36.8487 84.296 36.9371 84.4052 37.0223 84.5184C37.1106 84.6587 37.2309 84.7759 37.3734 84.8603C37.5159 84.9447 37.6764 84.9939 37.8417 85.0038L40.8079 84.7512C41.2515 84.7153 41.3414 84.0649 40.9799 83.4368L40.9807 83.4384ZM33.1969 76.5116C32.5979 76.3161 31.9657 76.2435 31.3381 76.2983C30.7104 76.3531 30.1003 76.5341 29.5442 76.8304C29.1827 77.0409 29.2719 77.7949 29.717 78.3449L32.6832 82.0267C32.7717 82.1648 32.8927 82.2791 33.0356 82.3596C33.1784 82.44 33.3388 82.4842 33.5026 82.4882C33.5901 82.4744 33.6785 82.4666 33.767 82.4651C34.0322 82.4603 34.1906 82.226 34.1906 81.8872V77.9623C34.1784 77.651 34.0785 77.3495 33.9026 77.0926C33.7266 76.8356 33.4817 76.6337 33.196 76.51L33.1969 76.5116ZM27.4889 79.7231C27.2937 80.4637 27.1986 81.2273 27.2063 81.9932C27.2114 82.866 27.3061 83.736 27.4889 84.5894C27.6235 85.2366 28.1977 85.8296 28.6428 85.7922L31.6099 85.5395C31.8647 85.5172 32.0263 85.2948 32.0119 84.9488C32.0119 84.8883 32.008 84.8277 32.008 84.7687C32.008 84.7097 32.008 84.6499 32.0119 84.5925C32.0019 84.2052 31.8601 83.8329 31.6099 83.5372L28.6428 79.8546C28.1969 79.3014 27.6227 79.2305 27.4882 79.7239L27.4889 79.7231ZM29.5442 89.8597C30.5108 91.5591 31.7441 93.0918 33.1969 94.3992C33.6993 94.8416 34.1906 94.6933 34.1906 94.0971V90.1722C34.1738 89.7788 34.0245 89.4026 33.767 89.1049C33.6762 88.9981 33.5886 88.8889 33.5026 88.7757C33.4144 88.6355 33.2941 88.5183 33.1516 88.4339C33.0091 88.3494 32.8485 88.3002 32.6832 88.2903L29.717 88.5429C29.2711 88.5796 29.1819 89.2301 29.5458 89.8582L29.5442 89.8597ZM37.3281 96.7865C37.927 96.9822 38.5592 97.0548 39.1869 97C39.8145 96.9453 40.4247 96.7642 40.9807 96.4677C41.3422 96.258 41.2531 95.504 40.8079 94.9532L37.8417 91.2714C37.7532 91.1333 37.6322 91.019 37.4894 90.9385C37.3465 90.8581 37.1862 90.8139 37.0223 90.8099C36.9348 90.8238 36.8465 90.8315 36.7579 90.833C36.4936 90.8378 36.3343 91.0721 36.3343 91.4109V95.3358C36.3478 95.6457 36.448 95.9457 36.6236 96.2014C36.7992 96.457 37.043 96.6581 37.3273 96.7817L37.3281 96.7865Z" fill="url(#paint10_linear_2_4480)"/>
<path d="M44.2298 92.4136C44.2298 98.4811 39.9473 100.925 34.6655 97.8721C29.3836 94.8193 25.1011 87.4262 25.1011 81.3587C25.1011 75.2913 29.3828 72.8474 34.6655 75.9002C39.9481 78.9531 44.2298 86.3462 44.2298 92.4136ZM37.9159 88.5876C37.9159 88.6482 37.9159 88.708 37.9159 88.7677C37.9159 88.8275 37.9159 88.8857 37.9159 88.9439C37.9261 89.3312 38.068 89.7035 38.3181 89.9992L41.2851 93.6818C41.7295 94.2334 42.3044 94.3036 42.4389 93.8125C42.6342 93.0722 42.7293 92.3089 42.7217 91.5432C42.7165 90.6702 42.6217 89.8 42.4389 88.9463C42.3044 88.299 41.7295 87.706 41.2851 87.7435L38.3181 87.9969C38.0633 88.0137 37.9016 88.2409 37.9159 88.5868V88.5876ZM40.3845 83.6759C39.4183 81.9749 38.1847 80.4408 36.7311 79.1324C36.2294 78.6901 35.7373 78.8391 35.7373 79.4345V83.3602C35.7547 83.7537 35.9042 84.1297 36.1617 84.4275C36.2517 84.5336 36.3401 84.6436 36.4253 84.756C36.5135 84.8965 36.634 85.0139 36.7766 85.0984C36.9193 85.183 37.08 85.2323 37.2455 85.2422L40.2117 84.9887C40.656 84.9544 40.7452 84.304 40.3837 83.6751L40.3845 83.6759ZM32.6006 76.7491C32.0017 76.5536 31.3695 76.481 30.7418 76.5358C30.1142 76.5906 29.5041 76.7716 28.948 77.068C28.5857 77.2776 28.6757 78.0317 29.1208 78.5825L32.0862 82.2634C32.1748 82.4017 32.2958 82.5162 32.4388 82.5968C32.5818 82.6774 32.7424 82.7216 32.9064 82.7257C32.9938 82.7112 33.0822 82.7032 33.1708 82.7018C33.4352 82.6971 33.5944 82.4667 33.5944 82.1247V78.1999C33.5816 77.8888 33.4815 77.5877 33.3056 77.331C33.1297 77.0743 32.8851 76.8724 32.5999 76.7484L32.6006 76.7491ZM26.8919 79.9614C26.6967 80.7018 26.6017 81.4651 26.6093 82.2308C26.6144 83.1038 26.7091 83.974 26.8919 84.8277C27.0273 85.4749 27.6014 86.068 28.0466 86.0297L31.0136 85.777C31.2684 85.7555 31.4301 85.5323 31.4158 85.1864C31.4158 85.1258 31.4118 85.066 31.4118 85.0063C31.4118 84.9465 31.4118 84.8883 31.4158 84.8301C31.4056 84.4427 31.2637 84.0705 31.0136 83.7747L28.0466 80.0922C27.6006 79.5398 27.0265 79.4696 26.8912 79.963L26.8919 79.9614ZM28.948 90.0981C29.914 91.7991 31.1473 93.3332 32.6006 94.6415C33.1023 95.0839 33.5944 94.9348 33.5944 94.3386V90.405C33.5769 90.0117 33.4277 89.6357 33.1708 89.3377C33.08 89.2316 32.9916 89.1216 32.9064 89.0093C32.8183 88.8687 32.6979 88.7512 32.5552 88.6666C32.4125 88.582 32.2517 88.5328 32.0862 88.523L29.1208 88.7765C28.6725 88.8179 28.5849 89.4684 28.9472 90.0973L28.948 90.0981ZM36.7311 97.0248C37.3302 97.2204 37.9625 97.2929 38.5903 97.2381C39.218 97.1834 39.8283 97.0024 40.3845 96.706C40.746 96.4963 40.6568 95.7423 40.2117 95.1915L37.2455 91.5105C37.157 91.3722 37.036 91.2576 36.893 91.177C36.75 91.0964 36.5893 91.0522 36.4253 91.0482C36.3381 91.0623 36.25 91.0703 36.1617 91.0721C35.8965 91.0761 35.7373 91.3065 35.7373 91.6492V95.5741C35.7509 95.8841 35.8512 96.1841 36.0267 96.4399C36.2023 96.6957 36.446 96.897 36.7302 97.0208L36.7311 97.0248Z" fill="url(#paint11_linear_2_4480)"/>
<path d="M179.903 59.5295C179.903 59.5295 182.452 52.4425 184.914 55.3216C187.376 58.2008 186.227 68.8117 186.227 68.8117L179.903 59.5295Z" fill="url(#paint12_radial_2_4480)"/>
<path d="M229.247 106.267C225.273 98.8087 183.796 62.2037 161.855 44.9419C139.915 27.68 109.932 14.7527 102.853 12.3407C95.7751 9.92869 76.319 8.40066 66.4807 8.63978C55.111 8.91558 21.5103 30.8397 17.0828 34.5509C17.0828 34.5509 10.792 59.4123 10.792 62.065C10.792 64.611 15.9974 75.7065 21.2347 79.9646C21.2108 79.5597 21.1941 79.1563 21.1941 78.7578C21.1941 69.6047 27.6545 65.9174 35.6231 70.523C43.5917 75.1286 50.0529 86.2824 50.0529 95.4362C50.0529 95.9384 50.0298 96.4214 49.9916 96.8901C72.0492 109.571 102.712 127.044 125.807 140.172C125.438 138.547 125.246 136.886 125.234 135.219C125.234 126.066 131.694 122.379 139.663 126.984C147.633 131.59 154.092 142.744 154.092 151.898C154.105 153.263 153.936 154.623 153.59 155.944C155.363 156.947 156.695 157.697 157.51 158.159C169.22 164.748 193.098 155.097 216.167 142.228C238.677 129.679 233.222 113.728 229.247 106.267Z" fill="url(#paint13_radial_2_4480)"/>
<g style="mix-blend-mode:multiply">
<path d="M135.694 107.43C125.097 96.6566 117.976 79.252 108.869 65.3308C99.7629 51.4095 66.8119 37.6517 60.0234 36.6569C53.8123 35.7466 29.0353 36.802 17.172 34.484L17.0828 34.5573C17.0828 34.5573 10.792 59.4187 10.792 62.0714C10.792 64.6174 15.9974 75.7129 21.2347 79.971C21.2108 79.5661 21.1941 79.1627 21.1941 78.7642C21.1941 69.6112 27.6545 65.9238 35.6231 70.5294C43.5917 75.135 50.0481 86.2888 50.0481 95.4426C50.0481 95.9448 50.025 96.4278 49.9868 96.8965C72.0444 109.577 102.708 127.051 125.802 140.179C125.433 138.553 125.241 136.892 125.229 135.226C125.229 126.073 131.689 122.385 139.659 126.991C147.628 131.596 154.088 142.75 154.088 151.904C154.1 153.269 153.931 154.63 153.585 155.95C155.358 156.954 156.691 157.704 157.505 158.165C160.905 160.078 165.336 160.615 170.47 160.109C171.075 153.296 171.33 143.458 168.31 139.914C163.511 134.281 146.291 118.204 135.694 107.43Z" fill="#E5E9FF"/>
</g>
<path opacity="0.5" d="M169.955 139.151C165.154 133.516 147.934 117.438 137.337 106.665C126.739 95.8914 118.311 77.5765 109.205 63.6545C100.098 49.7324 68.4547 36.8865 61.6654 35.8917C55.4543 34.9814 30.6781 36.0368 18.814 33.7196C18.7853 33.7435 51.8693 35.5131 57.4713 36.3341C64.2598 37.328 97.3382 49.844 106.444 63.7653C115.55 77.6865 122.671 95.0911 133.268 105.865C143.865 116.638 160.958 133.958 165.757 139.593C168.738 143.091 168.528 152.707 167.941 159.507C169.333 159.539 170.727 159.486 172.113 159.348C172.72 152.533 172.976 142.694 169.955 139.151Z" fill="#00C2BE"/>
<path d="M58.8089 33.066L93.8016 13.1211C93.8016 13.1211 78.2371 8.5354 63.0038 13.6735C47.7705 18.8115 34.137 29.1427 34.7996 31.7946C35.4621 34.4466 55.0002 34.06 58.8089 33.066Z" fill="url(#paint14_linear_2_4480)"/>
<path d="M68.0954 13.5802C71.6431 12.4008 75.3099 11.6162 79.0294 11.2407C73.5906 11.1699 68.177 11.9917 63.0038 13.6735C47.7705 18.8116 34.137 29.1427 34.7996 31.7946C34.9325 32.3255 35.8292 32.7328 37.1956 33.0397C37.6758 29.6281 52.073 18.9853 68.0954 13.5802Z" fill="url(#paint15_linear_2_4480)"/>
<path d="M115.962 66.9225C117.204 61.8674 151.256 43.6179 154.568 43.4521C157.879 43.2863 191.326 69.3083 190.167 75.6069C189.008 81.9055 151.257 106.267 138.736 101.198C124.865 95.5789 114.913 71.199 115.962 66.9225Z" fill="url(#paint16_linear_2_4480)"/>
<path d="M117.367 67.3745C118.575 62.4604 151.679 44.7187 154.899 44.5577C158.118 44.3967 190.635 69.6941 189.508 75.8173C188.38 81.9406 151.679 105.629 139.507 100.696C126.022 95.2338 116.346 71.5322 117.367 67.3745Z" fill="url(#paint17_linear_2_4480)"/>
<path d="M184.904 67.192C185.528 68.0643 185.845 69.1188 185.807 70.1907C184.618 76.6527 146.788 101.202 132.74 97.4122C134.52 98.9925 136.546 100.271 138.738 101.198C151.258 106.27 189.011 81.9087 190.17 75.6069C190.48 73.9211 188.31 70.8228 184.904 67.192Z" fill="url(#paint18_linear_2_4480)"/>
<path d="M122.778 102.292L33.6411 50.3032C33.6411 50.3032 53.5654 37.3201 68.7995 42.6239C84.0336 47.9278 106.883 64.0044 111.022 73.6182C115.161 83.2319 122.778 102.292 122.778 102.292Z" fill="url(#paint19_linear_2_4480)"/>
<path d="M120.354 100.303L36.0649 51.1417C36.0649 51.1417 54.9063 38.8664 69.3106 43.8802C83.7149 48.8939 105.323 64.0985 109.237 73.1885C113.152 82.2786 120.354 100.303 120.354 100.303Z" fill="url(#paint20_linear_2_4480)"/>
<path d="M184.927 135.441C184.927 135.441 189.535 143.81 191.881 143.894C194.227 143.978 200.366 141.811 212.62 134.684C220.451 130.128 223.921 126.988 224.693 124.501C225.466 122.015 223.507 113.231 223.507 113.231C223.507 113.231 218.871 118.701 206.286 125.825C199.426 129.581 192.285 132.796 184.927 135.441Z" fill="url(#paint21_linear_2_4480)"/>
<path style="mix-blend-mode:screen" d="M223.51 113.231C223.51 113.231 223.271 113.51 222.768 114.018C223.29 116.675 224.185 121.855 223.62 123.673C222.847 126.159 219.379 129.3 211.546 133.855C199.293 140.982 193.152 143.148 190.807 143.065C190.564 143.046 190.328 142.972 190.118 142.849C190.573 143.385 191.195 143.753 191.884 143.894C194.23 143.974 200.369 141.811 212.623 134.684C220.454 130.128 223.924 126.988 224.696 124.501C225.469 122.015 223.51 113.231 223.51 113.231Z" fill="url(#paint22_radial_2_4480)"/>
<path d="M181.67 135.993L187.631 145.385C187.631 145.385 180.124 147.153 175.157 146.878C173.045 146.72 170.999 146.075 169.18 144.991C167.36 143.908 165.816 142.417 164.67 140.635C163.125 137.983 162.793 133.12 162.793 133.12C162.793 133.12 168.865 135.883 173.501 136.548C176.232 136.954 179.019 136.765 181.67 135.993Z" fill="url(#paint23_linear_2_4480)"/>
<path style="mix-blend-mode:multiply" d="M181.67 135.993L187.631 145.385C187.631 145.385 179.023 144.253 172.342 140.842C165.661 137.431 162.792 133.121 162.792 133.121C162.792 133.121 168.864 135.884 173.5 136.549C176.231 136.955 179.018 136.765 181.67 135.993Z" fill="url(#paint24_linear_2_4480)"/>
<path d="M225.572 112.606L226.722 123.01C226.722 123.01 232.351 118.479 232.682 114.72C233.013 110.961 229.992 106.889 229.992 106.889C229.032 109.142 227.51 111.111 225.572 112.606Z" fill="url(#paint25_linear_2_4480)"/>
<path style="mix-blend-mode:multiply" d="M225.572 112.606L226.722 123.01C226.722 123.01 229.469 116.988 229.799 113.231C229.998 111.124 230.063 109.007 229.993 106.891C229.032 109.144 227.51 111.111 225.572 112.606Z" fill="url(#paint26_linear_2_4480)"/>
<path d="M19.1796 32.4562C19.1796 32.4562 16.4196 33.6718 15.5365 35.219C14.6534 36.7661 13.3291 50.2466 13.3291 50.2466C13.3291 50.2466 21.0182 37.5911 21.6107 36.3237C22.2031 35.0564 19.1796 32.4562 19.1796 32.4562Z" fill="url(#paint27_radial_2_4480)"/>
<path d="M182.284 140.069L179.93 145.055C179.93 145.055 172.764 140.617 173.473 139.083C174.183 137.55 182.284 140.069 182.284 140.069Z" fill="url(#paint28_linear_2_4480)"/>
<path d="M179.164 143.607C179.164 144.863 180.051 145.369 181.145 144.737C181.721 144.363 182.2 143.859 182.545 143.264C182.889 142.67 183.088 142.003 183.126 141.317C183.126 140.061 182.239 139.555 181.145 140.187C180.57 140.561 180.09 141.065 179.746 141.66C179.402 142.254 179.202 142.921 179.164 143.607Z" fill="url(#paint29_linear_2_4480)"/>
<path d="M176.716 139.93L174.343 144.957C174.343 144.957 167.112 140.482 167.83 138.935C168.547 137.388 176.716 139.93 176.716 139.93Z" fill="url(#paint30_linear_2_4480)"/>
<path d="M173.57 143.498C173.57 144.765 174.465 145.276 175.568 144.638C176.148 144.261 176.632 143.752 176.979 143.152C177.326 142.553 177.527 141.88 177.566 141.189C177.566 139.921 176.671 139.411 175.568 140.049C174.987 140.426 174.504 140.935 174.157 141.534C173.81 142.133 173.609 142.806 173.57 143.498Z" fill="url(#paint31_linear_2_4480)"/>
<path d="M172.305 137.035L170.213 141.467C170.213 141.467 163.842 137.522 164.471 136.158C165.101 134.794 172.305 137.035 172.305 137.035Z" fill="url(#paint32_radial_2_4480)"/>
<path d="M169.532 140.177C169.532 141.293 170.32 141.744 171.292 141.182C171.804 140.85 172.23 140.401 172.536 139.873C172.842 139.344 173.02 138.751 173.054 138.141C173.054 137.025 172.265 136.573 171.292 137.136C170.781 137.469 170.355 137.918 170.049 138.446C169.743 138.974 169.566 139.567 169.532 140.177Z" fill="url(#paint33_radial_2_4480)"/>
<path d="M230.036 113.755L227.945 118.188C227.945 118.188 225.259 115.133 225.893 113.769C226.526 112.406 230.036 113.755 230.036 113.755Z" fill="url(#paint34_linear_2_4480)"/>
<path d="M230.278 113.738C229.595 113.338 228.48 113.974 227.788 115.159C227.096 116.344 227.089 117.629 227.772 118.029C228.456 118.429 229.571 117.792 230.263 116.607C230.955 115.422 230.962 114.137 230.278 113.738Z" fill="url(#paint35_linear_2_4480)"/>
<path d="M231.204 109.998L229.594 113.408C229.594 113.408 227.27 111.753 227.756 110.704C228.243 109.655 231.204 109.998 231.204 109.998Z" fill="url(#paint36_linear_2_4480)"/>
<path d="M229.07 112.418C229.07 113.278 229.677 113.624 230.424 113.192C230.818 112.936 231.145 112.591 231.38 112.184C231.616 111.778 231.752 111.321 231.778 110.852C231.778 109.993 231.172 109.647 230.424 110.079C230.031 110.335 229.703 110.68 229.468 111.087C229.233 111.493 229.097 111.949 229.07 112.418Z" fill="url(#paint37_linear_2_4480)"/>
<path opacity="0.2" d="M33.8666 51.29L124.05 103.101L140.112 120.007L138.456 121.665L124.547 116.858L23.0981 58.7922L33.8666 51.29Z" fill="#00C2BE"/>
<g style="mix-blend-mode:multiply">
<path style="mix-blend-mode:multiply" d="M21.2347 79.971C21.2108 79.5661 21.1941 79.1628 21.1941 78.7642C21.1941 73.2961 23.5034 69.7809 27.0565 68.8173C20.3484 64.9115 14.8794 61.7183 11.1718 59.555C10.9869 60.384 10.8599 61.2248 10.792 62.0714C10.7904 64.6174 15.9958 75.7129 21.2347 79.971Z" fill="url(#paint38_linear_2_4480)"/>
<path style="mix-blend-mode:multiply" d="M231.419 126.873C226.619 131.47 221.543 135.771 216.221 139.751C205.624 147.482 179.242 155.852 169.417 151.021C167.627 150.144 161.06 146.443 151.521 140.985C153.124 144.407 153.998 148.126 154.09 151.905C154.103 153.27 153.934 154.63 153.588 155.951C155.361 156.954 156.693 157.704 157.508 158.166C169.214 164.756 193.096 155.104 216.165 142.235C224.849 137.393 229.366 132.044 231.419 126.873Z" fill="url(#paint39_linear_2_4480)"/>
<path style="mix-blend-mode:multiply" d="M125.805 140.181C125.437 138.556 125.245 136.895 125.233 135.228C125.233 131.747 126.168 129.059 127.765 127.315C102.012 112.441 69.3322 93.4387 44.2837 78.8519C47.7874 83.8991 50.0513 90.02 50.0513 95.4402C50.0513 95.9424 50.0282 96.4254 49.99 96.8941C72.0508 109.577 102.711 127.051 125.805 140.181Z" fill="url(#paint40_linear_2_4480)"/>
</g>
<path d="M160.366 141.574C160.366 141.574 171.129 148.097 175.599 148.203C182.553 148.369 196.469 144.953 210.49 136.3C232.117 122.955 232.89 114.391 232.89 114.391C232.89 114.391 234.541 124.745 233.883 129.64C233.224 134.534 228.911 140.794 210.04 150.689C191.866 160.219 177.089 162.126 169.967 161.297C165.695 160.803 161.506 159.751 157.507 158.168L160.366 141.574Z" fill="url(#paint41_radial_2_4480)"/>
<path style="mix-blend-mode:color-dodge" d="M176.371 149.639C183.325 149.805 197.242 146.389 211.264 137.736C227.868 127.49 232.175 120.068 233.282 117.171C233.067 115.506 232.89 114.392 232.89 114.392C232.89 114.392 232.116 122.956 210.49 136.301C196.469 144.953 182.553 148.37 175.599 148.204C171.129 148.098 160.366 141.574 160.366 141.574L160.136 142.904C164.888 145.404 173.247 149.565 176.371 149.639Z" fill="url(#paint42_radial_2_4480)"/>
<path style="mix-blend-mode:multiply" d="M233.883 129.64C234.062 127.905 234.092 126.159 233.971 124.419C228.405 129.923 222.475 135.045 216.222 139.751C205.625 147.482 179.242 155.852 169.417 151.021C168.198 150.421 164.756 148.511 159.668 145.627L157.509 158.168C161.507 159.751 165.695 160.803 169.967 161.297C177.087 162.126 191.865 160.219 210.038 150.689C228.912 140.794 233.225 134.534 233.883 129.64Z" fill="url(#paint43_linear_2_4480)"/>
<path style="mix-blend-mode:multiply" d="M233.883 129.64C234.062 127.905 234.092 126.159 233.971 124.419C228.405 129.923 222.475 135.045 216.222 139.751C205.625 147.482 179.242 155.852 169.417 151.021C168.198 150.421 164.756 148.511 159.668 145.627L157.509 158.168C161.507 159.751 165.695 160.803 169.967 161.297C177.087 162.126 191.865 160.219 210.038 150.689C228.912 140.794 233.225 134.534 233.883 129.64Z" fill="url(#paint44_linear_2_4480)"/>
<path d="M112.473 96.2819L122.778 102.292C122.778 102.292 118.524 91.6476 114.647 82.2563L112.473 96.2819Z" fill="url(#paint45_linear_2_4480)"/>
<path d="M60.1453 41.3621C46.9601 41.6292 33.6411 50.3032 33.6411 50.3032L50.8412 60.3338C51.2394 58.2151 51.7968 55.4061 52.4092 52.6817C53.3798 48.3407 58.2477 43.2249 60.1453 41.3621Z" fill="url(#paint46_linear_2_4480)"/>
<path style="mix-blend-mode:screen" d="M120.771 62.0786C145.258 69.3218 170.911 69.1257 186.009 68.402C177.146 58.4303 157.095 43.3262 154.57 43.4529C151.978 43.582 130.554 54.79 120.771 62.0786Z" fill="url(#paint47_linear_2_4480)"/>
<path d="M207.611 150.358C224.279 142.068 231.237 135.023 232.01 132.592C232.783 130.161 231.282 132.413 228.036 134.913C223.731 138.227 217.118 142.226 206.286 147.927C188.003 157.551 176.04 156.988 175.488 158.093C174.936 159.197 183.277 162.456 207.611 150.358Z" fill="url(#paint48_linear_2_4480)"/>
<path opacity="0.5" d="M194.519 76.5355C194.519 76.5355 226.537 102.011 221.94 108.586C217.343 115.16 186.638 135.541 174.487 131.761C162.336 127.98 143.782 106.12 143.782 106.12C143.782 106.12 165.456 101.025 179.413 91.493C193.37 81.9606 194.519 76.5355 194.519 76.5355Z" fill="#00C2BE"/>
<path style="mix-blend-mode:screen" d="M181.67 135.993C181.67 135.993 178.606 144.951 167.709 140.947C164.83 139.889 162.793 133.12 162.793 133.12C162.793 133.12 168.865 135.883 173.501 136.548C176.232 136.954 179.019 136.765 181.67 135.993Z" fill="url(#paint49_radial_2_4480)"/>
<path d="M114.884 61.2241C114.884 61.2241 149.822 41.6659 150.153 40.5061C150.483 39.3463 104.95 14.3183 98.8231 14.3183C92.6963 14.3183 66.5346 32.2187 67.8596 33.7101C69.1847 35.2014 89.8854 42.659 96.0121 47.4671C102.139 52.2752 109.921 58.738 114.884 61.2241Z" fill="#00C2BE"/>
<path d="M76.5815 75.3303L85.8545 80.6342L89.0556 53.2309L83.9776 50.0266L76.5815 75.3303Z" fill="url(#paint50_linear_2_4480)"/>
<path opacity="0.5" d="M122.992 102.817C121.207 107.788 120.186 113.002 119.966 118.28C119.595 125.081 119.5 130.367 119.477 132.588L80.8097 110.281C80.5729 101.294 80.8007 92.3015 81.4921 83.3387C82.6619 68.9607 87.544 52.4792 87.5934 52.3142L86.3241 51.9348C86.2747 52.1014 81.3528 68.7112 80.1726 83.2311C79.4984 91.9709 79.2618 100.739 79.4639 109.503L57.3347 96.7395C56.7064 95.3749 52.8188 86.9265 48.5952 77.4904C47.2671 74.633 46.5151 71.5414 46.3823 68.3927C46.2495 65.2439 46.7384 62.0999 47.8212 59.1405L46.6148 58.5921C46.4516 58.9508 42.6715 67.4997 47.3864 78.0325C51.9811 88.2982 56.1784 97.3963 56.2206 97.4863L56.3082 97.6784L120.791 134.876V133.729C120.791 133.666 120.797 127.344 121.287 118.35C121.516 113.221 122.504 108.153 124.219 103.314L122.992 102.817Z" fill="#00C2BE"/>
<path style="mix-blend-mode:multiply" d="M121.951 101.795C121.951 101.795 110.443 111.159 104.482 108.012C98.5209 104.865 115.907 97.8179 115.907 97.8179L121.951 101.795Z" fill="url(#paint51_linear_2_4480)"/>
<path d="M114.892 92.864C113.147 92.7046 104.779 93.3988 103.39 97.083C102 100.767 121.79 102.811 122.429 102.019C123.067 101.226 118.717 93.2187 114.892 92.864Z" fill="url(#paint52_radial_2_4480)"/>
<path style="mix-blend-mode:screen" d="M114.579 93.4977C113.208 93.3646 106.654 93.7711 105.602 96.3736C104.55 98.9761 120.095 100.634 120.586 100.078C121.077 99.5213 117.583 93.7894 114.579 93.4977Z" fill="url(#paint53_linear_2_4480)"/>
<path style="mix-blend-mode:screen" d="M37.9438 50.017C57.243 55.163 76.9125 55.9266 91.285 55.6484C84.0466 50.6307 75.9219 46.1822 69.311 43.8802C57.6396 39.8166 43.0569 47.1052 37.9438 50.017Z" fill="url(#paint54_linear_2_4480)"/>
<path opacity="0.5" d="M53.1143 98.6948C53.1427 98.164 53.3596 97.6608 53.7257 97.2757C54.0918 96.8907 54.5832 96.6491 55.1114 96.5944C56.4842 96.604 57.6795 98.1759 58.9687 97.704C58.44 96.6343 59.4401 95.2912 60.6195 95.1047C61.2161 95.0665 61.8139 95.1574 62.3723 95.3711C62.9307 95.5849 63.4366 95.9165 63.8556 96.3433C64.6853 97.2014 65.5683 98.0062 66.4993 98.753C67.5651 99.4668 68.8378 99.8052 70.117 99.715C71.9421 99.5811 73.983 98.6326 75.4521 99.7286C76.8855 100.8 76.6092 102.962 76.5112 104.75C76.3751 107.822 77.2017 110.86 78.8755 113.439C69.792 108.252 60.9881 103.213 53.1143 98.6948Z" fill="url(#paint55_linear_2_4480)"/>
<path opacity="0.5" d="M57.6632 98.2787C56.3644 98.7569 55.1596 97.1699 53.7764 97.1627C53.7493 97.1627 53.7246 97.1707 53.6968 97.1715C53.9206 97.0651 54.1656 97.0106 54.4135 97.0121C55.5586 97.02 56.5802 98.1113 57.6353 98.2005C57.6496 98.2244 57.6504 98.2524 57.6632 98.2787Z" fill="url(#paint56_linear_2_4480)"/>
<path opacity="0.5" d="M75.3348 105.377C75.4328 103.576 75.7115 101.398 74.2678 100.318C72.7914 99.2136 70.7346 100.169 68.8967 100.304C67.6059 100.395 66.3216 100.053 65.2465 99.3324C64.3092 98.5794 63.4199 97.7685 62.5836 96.9045C62.1764 96.4974 61.6917 96.1762 61.1583 95.9599C60.6248 95.7436 60.0535 95.6365 59.478 95.6451C59.6202 95.5846 59.7691 95.5415 59.9216 95.5167C60.5184 95.4782 61.1165 95.5689 61.6751 95.7827C62.2337 95.9964 62.7396 96.3282 63.1585 96.7554C63.9884 97.6133 64.8714 98.4181 65.8023 99.165C66.8681 99.8802 68.1415 100.22 69.4215 100.13C71.2458 99.9956 73.2875 99.0471 74.7567 100.143C76.19 101.215 75.9129 103.377 75.8158 105.165C75.6486 108.218 76.3947 110.192 78.0454 112.763C77.7253 112.583 75.1835 108.138 75.3348 105.377Z" fill="url(#paint57_linear_2_4480)"/>
<path d="M68.051 163.159L12.5373 162.893C9.33032 162.878 6.26067 161.594 4.00337 159.322C1.74607 157.05 0.485954 153.978 0.500118 150.78L1.0862 12.0111C1.09317 10.4254 1.41358 8.85672 2.02907 7.39463C2.64457 5.93255 3.54309 4.6058 4.67324 3.49027C5.8034 2.37473 7.14301 1.49231 8.61547 0.893448C10.0879 0.294591 11.6643 -0.00894612 13.2545 0.000200732L68.7518 0.241318C71.9581 0.256459 75.0271 1.54048 77.2843 3.81112C79.5415 6.08177 80.8021 9.15321 80.789 12.3503L80.2029 151.136C80.1986 152.721 79.8807 154.291 79.2673 155.753C78.6539 157.216 77.7572 158.544 76.6284 159.661C75.4996 160.778 74.1609 161.662 72.6891 162.262C71.2173 162.862 69.6411 163.167 68.051 163.159Z" fill="#263238"/>
<path d="M68.6743 5.04731L57.9282 4.99827L26.4889 4.85115H22.706L13.2795 4.81028C12.1672 4.8049 11.0648 5.0181 10.0351 5.4377C9.00547 5.85731 8.06883 6.47509 7.27869 7.25575C6.48856 8.03641 5.86042 8.96466 5.43016 9.98746C4.99991 11.0103 4.77597 12.1076 4.77113 13.2167L4.19735 148.684C4.19249 149.792 4.40671 150.891 4.82776 151.918C5.24881 152.944 5.86845 153.877 6.6513 154.665C7.43414 155.452 8.36487 156.078 9.39034 156.507C10.4158 156.936 11.5159 157.159 12.6279 157.164L68.035 157.417C69.1473 157.421 70.2494 157.206 71.2785 156.785C72.3075 156.364 73.2432 155.745 74.0322 154.963C74.8212 154.181 75.448 153.252 75.8768 152.229C76.3055 151.205 76.5279 150.107 76.5311 148.998L77.1049 13.5314C77.1103 12.4222 76.8965 11.3229 76.4757 10.2962C76.0548 9.26953 75.4353 8.33556 74.6524 7.54769C73.8695 6.75982 72.9386 6.13348 71.9128 5.70445C70.8871 5.27543 69.7867 5.05213 68.6743 5.04731Z" fill="#FAFAFA"/>
<path d="M69.0835 17.3566C69.0835 17.4933 69.0428 17.627 68.9665 17.7407C68.8902 17.8544 68.7818 17.9429 68.655 17.995C68.5282 18.0472 68.3887 18.0606 68.2542 18.0336C68.1198 18.0067 67.9964 17.9405 67.8997 17.8435C67.803 17.7465 67.7373 17.623 67.7111 17.4888C67.6848 17.3545 67.6991 17.2155 67.7521 17.0894C67.8052 16.9633 67.8946 16.8557 68.0091 16.7803C68.1235 16.7049 68.2578 16.6651 68.395 16.6659C68.578 16.667 68.7531 16.7402 68.8821 16.8696C69.0111 16.999 69.0835 17.1741 69.0835 17.3566Z" fill="#263238"/>
<path d="M69.0752 19.8576C69.0744 19.9941 69.0331 20.1272 68.9565 20.2402C68.8799 20.3533 68.7715 20.4412 68.6448 20.4928C68.5182 20.5445 68.3791 20.5576 68.245 20.5304C68.1109 20.5033 67.9878 20.4372 67.8914 20.3405C67.7949 20.2437 67.7294 20.1207 67.703 19.9868C67.6766 19.8529 67.6905 19.7143 67.7431 19.5883C67.7956 19.4624 67.8844 19.3547 67.9982 19.279C68.112 19.2033 68.2458 19.1629 68.3826 19.1629C68.5667 19.164 68.7428 19.2377 68.8726 19.3678C69.0024 19.498 69.0752 19.6741 69.0752 19.8576Z" fill="#263238"/>
<path d="M69.0678 22.3301C69.0686 22.4679 69.0283 22.6027 68.9521 22.7176C68.8758 22.8325 68.7671 22.9222 68.6396 22.9753C68.5121 23.0283 68.3717 23.0424 68.2361 23.0158C68.1006 22.9891 67.9761 22.9228 67.8784 22.8254C67.7807 22.728 67.7143 22.6039 67.6875 22.4687C67.6608 22.3336 67.6749 22.1935 67.7281 22.0664C67.7814 21.9393 67.8713 21.8309 67.9865 21.7548C68.1017 21.6788 68.237 21.6386 68.3751 21.6394C68.5585 21.6405 68.7341 21.7136 68.8637 21.8429C68.9934 21.9722 69.0667 22.1473 69.0678 22.3301Z" fill="#263238"/>
<path d="M59.7066 41.7012H56.8213C56.1083 41.7012 55.5303 42.2776 55.5303 42.9886V45.8656C55.5303 46.5766 56.1083 47.1529 56.8213 47.1529H59.7066C60.4196 47.1529 60.9976 46.5766 60.9976 45.8656V42.9886C60.9976 42.2776 60.4196 41.7012 59.7066 41.7012Z" fill="white"/>
<path d="M55.3948 80.5742L50.6816 80.0062C46.922 82.5069 42.3603 83.515 37.8932 82.8323C33.426 82.1496 29.3765 79.8255 26.5406 76.3168C23.7047 72.8081 22.2875 68.3686 22.5675 63.8709C22.8476 59.3732 24.8047 55.1426 28.0541 52.0107C31.3036 48.8787 35.6103 47.072 40.1278 46.9456C44.6453 46.8192 49.0469 48.3822 52.4674 51.3275C55.8879 54.2728 58.0798 58.3873 58.6124 62.8622C59.145 67.3372 57.9797 71.849 55.3456 75.5108L55.3948 80.5742Z" fill="white"/>
<path d="M55.3948 80.5742C55.3948 80.5742 55.3948 80.4516 55.3948 80.2309C55.3948 80.0103 55.3948 79.671 55.3702 79.2501C55.3702 78.3837 55.3292 77.125 55.2964 75.5026L55.4071 75.5516C55.3938 75.5626 55.3771 75.5686 55.3599 75.5686C55.3427 75.5686 55.326 75.5626 55.3128 75.5516C55.3027 75.5404 55.2971 75.5258 55.2971 75.5108C55.2971 75.4957 55.3027 75.4811 55.3128 75.4699C57.0065 73.0874 58.0937 70.3301 58.4809 67.4354C58.7267 65.5428 58.6755 63.6236 58.3293 61.7466C57.9223 59.6162 57.1323 57.5768 55.9972 55.7269C54.7239 53.6824 53.0581 51.9088 51.0955 50.5081C48.9917 48.9782 46.5723 47.9353 44.0133 47.4553C41.2894 46.9549 38.4872 47.0751 35.8164 47.8068C33.0148 48.5808 30.4501 50.0371 28.3531 52.0447C27.2778 53.0574 26.3296 54.1964 25.5293 55.4367C25.1645 56.0661 24.7874 56.6913 24.476 57.3452L24.0661 58.3342L23.8571 58.8287L23.6972 59.3396C22.8212 61.9902 22.566 64.8059 22.9513 67.5702C23.3253 70.1648 24.2791 72.6425 25.7424 74.8201C27.0749 76.8405 28.7952 78.578 30.804 79.9326C32.6268 81.1432 34.656 82.0116 36.7918 82.495L38.2837 82.7565C38.7755 82.8301 39.2673 82.8424 39.7427 82.8873C40.6647 82.948 41.5902 82.9303 42.5092 82.8342C45.4146 82.5516 48.2078 81.5699 50.6487 79.9735C50.6622 79.9698 50.6763 79.9698 50.6897 79.9735L54.1652 80.4312L55.0751 80.5538L55.3948 80.6069L55.0997 80.5824L54.198 80.4884L50.6733 80.1043H50.7184C48.2731 81.7539 45.4578 82.7771 42.5215 83.0835C41.592 83.1851 40.6556 83.2084 39.7222 83.153C39.2386 83.1121 38.7386 83.1039 38.2427 83.0303L36.7263 82.7729C34.5567 82.2929 32.4939 81.4202 30.64 80.1982C28.5896 78.8386 26.8313 77.0854 25.4678 75.0408C23.9705 72.8342 22.99 70.3202 22.5989 67.6847C22.1994 64.872 22.4547 62.0054 23.3448 59.3069L23.5046 58.7878L23.7218 58.2852C23.8653 57.9501 24.0087 57.6109 24.1563 57.2758C24.4719 56.6137 24.853 55.9762 25.2219 55.3305C26.0362 54.0691 26.9994 52.9097 28.0908 51.8772C30.2276 49.8341 32.8401 48.3525 35.6934 47.5657C38.4116 46.8231 41.2631 46.7043 44.0338 47.2183C46.6355 47.7112 49.0941 48.7764 51.2307 50.3365C53.2123 51.7652 54.8908 53.5708 56.1694 55.6492C57.319 57.533 58.1135 59.6106 58.5137 61.7793C58.8558 63.682 58.8959 65.6265 58.6325 67.5416C58.2226 70.4639 57.0965 73.2404 55.3538 75.6252L55.2595 75.5353C55.2656 75.529 55.2729 75.524 55.281 75.5205C55.2891 75.5171 55.2979 75.5154 55.3067 75.5154C55.3154 75.5154 55.3241 75.5171 55.3322 75.5205C55.3403 75.524 55.3477 75.529 55.3538 75.5353C55.3595 75.5497 55.3595 75.5658 55.3538 75.5802C55.3538 77.2149 55.3538 78.49 55.3538 79.3686C55.3538 79.7773 55.3538 80.1043 55.3538 80.3331C55.3538 80.562 55.3948 80.5742 55.3948 80.5742Z" fill="#263238"/>
<path d="M32.6729 66.1113L34.9352 63.6919L39.5952 67.5457L48.1773 58.7306L50.4356 60.9947L39.4148 72.0656L32.6729 66.1113Z" fill="#00C2BE"/>
<path d="M22.4556 99.696C22.4534 99.4115 22.5099 99.1296 22.6217 98.8679C22.7335 98.6061 22.8981 98.3701 23.1053 98.1746C23.3126 97.9791 23.558 97.8282 23.8263 97.7314C24.0945 97.6345 24.38 97.5938 24.6647 97.6118C24.9913 97.5965 25.317 97.6568 25.6164 97.788C25.9157 97.9192 26.1805 98.1176 26.3901 98.3678L25.6688 99.0217C25.5579 98.8761 25.4147 98.7579 25.2505 98.6764C25.0863 98.5949 24.9055 98.5522 24.7221 98.5517C24.4177 98.5517 24.1258 98.6723 23.9106 98.8869C23.6954 99.1015 23.5745 99.3925 23.5745 99.696C23.5745 99.9995 23.6954 100.291 23.9106 100.505C24.1258 100.72 24.4177 100.84 24.7221 100.84C24.9057 100.841 25.0868 100.799 25.2512 100.717C25.4155 100.635 25.5585 100.517 25.6688 100.37L26.3901 101.024C26.1805 101.274 25.9157 101.473 25.6164 101.604C25.317 101.735 24.9913 101.796 24.6647 101.78C24.38 101.798 24.0945 101.758 23.8263 101.661C23.558 101.564 23.3126 101.413 23.1053 101.217C22.8981 101.022 22.7335 100.786 22.6217 100.524C22.5099 100.262 22.4534 99.9805 22.4556 99.696Z" fill="#232F42"/>
<path d="M26.6035 99.696C26.5739 99.2494 26.6797 98.8043 26.9071 98.4184C27.1345 98.0326 27.473 97.7238 27.8786 97.5323C28.2843 97.3407 28.7384 97.2752 29.1818 97.3443C29.6253 97.4134 30.0377 97.6139 30.3654 97.9197C30.6931 98.2255 30.9211 98.6225 31.0196 99.0591C31.1181 99.4958 31.0827 99.9519 30.9179 100.368C30.7531 100.784 30.4665 101.142 30.0955 101.394C29.7244 101.645 29.286 101.78 28.8372 101.78C28.5513 101.798 28.2647 101.757 27.9951 101.661C27.7255 101.564 27.4786 101.414 27.2694 101.219C27.0602 101.023 26.8933 100.788 26.7788 100.526C26.6643 100.264 26.6046 99.9817 26.6035 99.696ZM29.9233 99.696C29.9112 99.4849 29.8375 99.2818 29.7111 99.112C29.5847 98.9421 29.4112 98.8129 29.212 98.7403C29.0127 98.6676 28.7966 98.6547 28.5901 98.7032C28.3836 98.7516 28.1959 98.8593 28.0501 99.0129C27.9043 99.1665 27.8068 99.3594 27.7696 99.5676C27.7324 99.7758 27.7572 99.9904 27.841 100.185C27.9247 100.379 28.0636 100.545 28.2406 100.661C28.4177 100.778 28.625 100.84 28.8372 100.84C28.9855 100.842 29.1325 100.813 29.269 100.755C29.4055 100.697 29.5285 100.612 29.6305 100.504C29.7324 100.397 29.811 100.27 29.8614 100.131C29.9118 99.9916 29.9328 99.8436 29.9233 99.696Z" fill="#232F42"/>
<path d="M35.4889 97.6935V101.699H34.5668L32.7798 99.5489V101.682H31.665V97.6772H32.6036L34.3741 99.8105V97.6772L35.4889 97.6935Z" fill="#232F42"/>
<path d="M37.4351 98.5681V99.4508H39.2097V100.325H37.4351V101.699H36.2998V97.6935H39.4515V98.5681H37.4351Z" fill="#232F42"/>
<path d="M39.9766 97.6935H41.1241V101.699H39.9766V97.6935Z" fill="#232F42"/>
<path d="M43.6775 100.636H43.0586V101.699H41.9438V97.6935H43.78C44.8783 97.6935 45.5669 98.2616 45.5669 99.177C45.577 99.4418 45.5074 99.7035 45.3672 99.9285C45.227 100.154 45.0225 100.332 44.78 100.44L45.6448 101.699H44.4152L43.6775 100.636ZM43.6775 98.5926H43.0463V99.7655H43.6775C44.1488 99.7655 44.3865 99.5489 44.3865 99.1852C44.3865 98.8215 44.1611 98.5845 43.6898 98.5845L43.6775 98.5926Z" fill="#232F42"/>
<path d="M49.7967 101.699V99.5775L48.7598 101.306H48.2557L47.227 99.6347V101.699H46.1777V97.6935H47.1122L48.5262 100.007L49.9033 97.6935H50.8377V101.699H49.7967Z" fill="#232F42"/>
<path d="M54.87 100.824V101.699H51.6445V97.6935H54.7962V98.5681H52.7716V99.2424H54.5544V100.092H52.7716V100.824H54.87Z" fill="#232F42"/>
<path d="M55.501 97.6935H57.4027C58.7347 97.6935 59.6445 98.4659 59.6445 99.696C59.6445 100.926 58.7347 101.699 57.4027 101.699H55.501V97.6935ZM57.3576 100.795C57.65 100.795 57.9304 100.68 58.1372 100.473C58.3439 100.267 58.4601 99.9876 58.4601 99.696C58.4601 99.4045 58.3439 99.1249 58.1372 98.9187C57.9304 98.7125 57.65 98.5967 57.3576 98.5967H56.6403V100.795H57.3576Z" fill="#232F42"/>
<path d="M64.3992 132.97H17.0907C16.5251 132.969 15.983 132.744 15.5834 132.345C15.1839 131.946 14.9595 131.405 14.9595 130.841V117.939C14.9595 117.375 15.1839 116.834 15.5834 116.435C15.983 116.036 16.5251 115.811 17.0907 115.81H64.3992C64.9652 115.811 65.5077 116.036 65.9079 116.435C66.3081 116.834 66.5334 117.375 66.5345 117.939V130.841C66.5334 131.405 66.3081 131.946 65.9079 132.345C65.5077 132.744 64.9652 132.969 64.3992 132.97ZM17.0907 116.215C16.6338 116.216 16.1959 116.397 15.8732 116.72C15.5505 117.043 15.3693 117.48 15.3693 117.935V130.837C15.3693 131.293 15.5505 131.73 15.8732 132.052C16.1959 132.375 16.6338 132.556 17.0907 132.557H64.3992C64.8565 132.556 65.2948 132.375 65.6181 132.052C65.9415 131.73 66.1236 131.293 66.1247 130.837V117.939C66.1236 117.483 65.9415 117.046 65.6181 116.724C65.2948 116.401 64.8565 116.22 64.3992 116.219L17.0907 116.215Z" fill="#E0E0E0"/>
<path d="M27.98 123.383C27.9837 122.794 27.8511 122.213 27.5925 121.684C27.3339 121.155 26.9563 120.693 26.4891 120.334C26.022 119.974 25.4779 119.727 24.8992 119.612C24.3206 119.496 23.723 119.516 23.1532 119.669C22.5833 119.821 22.0566 120.103 21.6139 120.492C21.1713 120.881 20.8247 121.367 20.6013 121.912C20.3778 122.456 20.2835 123.045 20.3257 123.632C20.3679 124.219 20.5455 124.788 20.8445 125.295C20.9921 125.541 21.1765 125.704 21.361 125.978L23.5864 128.916C23.6515 129.001 23.7352 129.07 23.8312 129.117C23.9271 129.164 24.0327 129.189 24.1397 129.189C24.2467 129.189 24.3523 129.164 24.4483 129.117C24.5442 129.07 24.628 129.001 24.693 128.916L26.8775 126.027C27.077 125.792 27.2631 125.547 27.4349 125.291C27.782 124.714 27.97 124.056 27.98 123.383ZM24.1479 125.046C23.8138 125.047 23.4869 124.949 23.2087 124.764C22.9304 124.58 22.7134 124.317 22.585 124.009C22.4565 123.702 22.4225 123.363 22.4872 123.036C22.5519 122.709 22.7124 122.409 22.9484 122.173C23.1843 121.937 23.4852 121.777 23.8129 121.711C24.1405 121.646 24.4803 121.679 24.789 121.806C25.0978 121.934 25.3618 122.149 25.5475 122.426C25.7332 122.703 25.8324 123.029 25.8324 123.362C25.8324 123.808 25.655 124.236 25.3393 124.551C25.0235 124.867 24.595 125.045 24.1479 125.046Z" fill="#00C2BE"/>
<path d="M59.6162 122.271H35.8984C34.7779 122.271 33.8696 123.177 33.8696 124.294V124.784C33.8696 125.902 34.7779 126.807 35.8984 126.807H59.6162C60.7366 126.807 61.6449 125.902 61.6449 124.784V124.294C61.6449 123.177 60.7366 122.271 59.6162 122.271Z" fill="#E0E0E0"/>
<defs>
<linearGradient id="paint0_linear_2_4480" x1="-5205.97" y1="71.7402" x2="-5222.46" y2="71.7402" gradientUnits="userSpaceOnUse">
<stop stop-color="#124257"/>
<stop offset="1" stop-color="#10054D"/>
</linearGradient>
<linearGradient id="paint1_linear_2_4480" x1="-5309.3" y1="130.104" x2="-5334.3" y2="130.104" gradientUnits="userSpaceOnUse">
<stop stop-color="#124257"/>
<stop offset="1" stop-color="#10054D"/>
</linearGradient>
<linearGradient id="paint2_linear_2_4480" x1="-5344.15" y1="155.908" x2="-5317.67" y2="131.819" gradientUnits="userSpaceOnUse">
<stop stop-color="#0A374A"/>
<stop offset="1" stop-color="#10054D"/>
</linearGradient>
<linearGradient id="paint3_linear_2_4480" x1="-2612.83" y1="-4567" x2="-2625.4" y2="-4588.48" gradientUnits="userSpaceOnUse">
<stop stop-color="#0A374A"/>
<stop offset="1" stop-color="#10054D"/>
</linearGradient>
<radialGradient id="paint4_radial_2_4480" cx="0" cy="0" r="1" gradientUnits="userSpaceOnUse" gradientTransform="translate(-196.064 144.699) scale(13.4291 13.4377)">
<stop stop-color="white"/>
<stop offset="1"/>
</radialGradient>
<linearGradient id="paint5_linear_2_4480" x1="-5317.05" y1="145.324" x2="-5336.18" y2="145.324" gradientUnits="userSpaceOnUse">
<stop stop-color="#BCBEC0"/>
<stop offset="1" stop-color="#E6E7E8"/>
</linearGradient>
<linearGradient id="paint6_linear_2_4480" x1="-5316.47" y1="145.563" x2="-5335.6" y2="145.563" gradientUnits="userSpaceOnUse">
<stop stop-color="#BCBEC0"/>
<stop offset="1" stop-color="#E6E7E8"/>
</linearGradient>
<linearGradient id="paint7_linear_2_4480" x1="-5239.61" y1="97.2316" x2="-5213.13" y2="73.1438" gradientUnits="userSpaceOnUse">
<stop stop-color="#0A374A"/>
<stop offset="1" stop-color="#10054D"/>
</linearGradient>
<linearGradient id="paint8_linear_2_4480" x1="-2611.86" y1="-4445.36" x2="-2624.42" y2="-4466.83" gradientUnits="userSpaceOnUse">
<stop stop-color="#0A374A"/>
<stop offset="1" stop-color="#10054D"/>
</linearGradient>
<radialGradient id="paint9_radial_2_4480" cx="0" cy="0" r="1" gradientUnits="userSpaceOnUse" gradientTransform="translate(-226.833 86.0215) scale(13.4291 13.4385)">
<stop stop-color="white"/>
<stop offset="1"/>
</radialGradient>
<linearGradient id="paint10_linear_2_4480" x1="-5212.71" y1="86.6476" x2="-5231.84" y2="86.6476" gradientUnits="userSpaceOnUse">
<stop stop-color="#BCBEC0"/>
<stop offset="1" stop-color="#E6E7E8"/>
</linearGradient>
<linearGradient id="paint11_linear_2_4480" x1="-5212.13" y1="86.8862" x2="-5231.25" y2="86.8862" gradientUnits="userSpaceOnUse">
<stop stop-color="#BCBEC0"/>
<stop offset="1" stop-color="#E6E7E8"/>
</linearGradient>
<radialGradient id="paint12_radial_2_4480" cx="0" cy="0" r="1" gradientUnits="userSpaceOnUse" gradientTransform="translate(-1568.04 55.9947) scale(11.1334 11.144)">
<stop stop-color="#00C2BE"/>
<stop offset="0.258" stop-color="#03CECA"/>
<stop offset="0.676" stop-color="#00BAB7"/>
<stop offset="1" stop-color="#00C2BE"/>
</radialGradient>
<radialGradient id="paint13_radial_2_4480" cx="0" cy="0" r="1" gradientUnits="userSpaceOnUse" gradientTransform="translate(-22.4877 39.7083) scale(130.549 130.742)">
<stop stop-color="#00C2BE"/>
<stop offset="0.258" stop-color="#03CECA"/>
<stop offset="0.676" stop-color="#00BAB7"/>
<stop offset="1" stop-color="#00C2BE"/>
</radialGradient>
<linearGradient id="paint14_linear_2_4480" x1="-5221.77" y1="22.5278" x2="-5280.8" y2="22.5278" gradientUnits="userSpaceOnUse">
<stop stop-color="#0A374A"/>
<stop offset="1" stop-color="#10054D"/>
</linearGradient>
<linearGradient id="paint15_linear_2_4480" x1="-5221.77" y1="22.1381" x2="-5266.03" y2="22.1381" gradientUnits="userSpaceOnUse">
<stop stop-color="#124257"/>
<stop offset="1" stop-color="#10054D"/>
</linearGradient>
<linearGradient id="paint16_linear_2_4480" x1="-5302.89" y1="72.6692" x2="-5377.2" y2="72.6692" gradientUnits="userSpaceOnUse">
<stop stop-color="#124257"/>
<stop offset="1" stop-color="#10054D"/>
</linearGradient>
<linearGradient id="paint17_linear_2_4480" x1="-5307.93" y1="113.865" x2="-5358.77" y2="7.42054" gradientUnits="userSpaceOnUse">
<stop stop-color="#0A374A"/>
<stop offset="1" stop-color="#10054D"/>
</linearGradient>
<linearGradient id="paint18_linear_2_4480" x1="-5319.76" y1="84.5399" x2="-5377.22" y2="84.5399" gradientUnits="userSpaceOnUse">
<stop stop-color="#124257"/>
<stop offset="1" stop-color="#10054D"/>
</linearGradient>
<linearGradient id="paint19_linear_2_4480" x1="-5220.65" y1="71.8214" x2="-5309.79" y2="71.8214" gradientUnits="userSpaceOnUse">
<stop stop-color="#124257"/>
<stop offset="1" stop-color="#10054D"/>
</linearGradient>
<linearGradient id="paint20_linear_2_4480" x1="-5223.04" y1="71.4901" x2="-5307.33" y2="71.4901" gradientUnits="userSpaceOnUse">
<stop stop-color="#0A374A"/>
<stop offset="1" stop-color="#10054D"/>
</linearGradient>
<linearGradient id="paint21_linear_2_4480" x1="-5371.93" y1="128.564" x2="-5411.87" y2="128.564" gradientUnits="userSpaceOnUse">
<stop stop-color="#124257"/>
<stop offset="1" stop-color="#10054D"/>
</linearGradient>
<radialGradient id="paint22_radial_2_4480" cx="0" cy="0" r="1" gradientUnits="userSpaceOnUse" gradientTransform="translate(-69.1238 128.564) scale(16.3831 16.4056)">
<stop stop-color="white"/>
<stop offset="1"/>
</radialGradient>
<linearGradient id="paint23_linear_2_4480" x1="-5362.63" y1="135.74" x2="-5362.25" y2="146.495" gradientUnits="userSpaceOnUse">
<stop stop-color="#BCBEC0"/>
<stop offset="1" stop-color="#E6E7E8"/>
</linearGradient>
<linearGradient id="paint24_linear_2_4480" x1="-5362.66" y1="144.294" x2="-5362.6" y2="127.724" gradientUnits="userSpaceOnUse">
<stop stop-color="#9C9C9C"/>
<stop offset="0.005" stop-color="#9C9C9C"/>
<stop offset="0.315" stop-color="#C7C7C7"/>
<stop offset="0.595" stop-color="#E5E5E5"/>
<stop offset="0.833" stop-color="#F8F8F8"/>
<stop offset="1" stop-color="white"/>
</linearGradient>
<linearGradient id="paint25_linear_2_4480" x1="-5412.73" y1="115.062" x2="-5419.8" y2="115.002" gradientUnits="userSpaceOnUse">
<stop stop-color="#BCBEC0"/>
<stop offset="1" stop-color="#E6E7E8"/>
</linearGradient>
<linearGradient id="paint26_linear_2_4480" x1="-5415.98" y1="102.459" x2="-5406.44" y2="105.778" gradientUnits="userSpaceOnUse">
<stop stop-color="#9C9C9C"/>
<stop offset="0.005" stop-color="#9C9C9C"/>
<stop offset="0.315" stop-color="#C7C7C7"/>
<stop offset="0.595" stop-color="#E5E5E5"/>
<stop offset="0.833" stop-color="#F8F8F8"/>
<stop offset="1" stop-color="white"/>
</linearGradient>
<radialGradient id="paint27_radial_2_4480" cx="0" cy="0" r="1" gradientUnits="userSpaceOnUse" gradientTransform="translate(-991.523 35.4984) scale(6.95141 6.95602)">
<stop stop-color="#FF9E6E"/>
<stop offset="1" stop-color="#FF4572"/>
</radialGradient>
<linearGradient id="paint28_linear_2_4480" x1="-5360.26" y1="141.821" x2="-5369.12" y2="141.821" gradientUnits="userSpaceOnUse">
<stop stop-color="#BCBEC0"/>
<stop offset="1" stop-color="#E6E7E8"/>
</linearGradient>
<linearGradient id="paint29_linear_2_4480" x1="5611.79" y1="142.462" x2="5607.83" y2="142.462" gradientUnits="userSpaceOnUse">
<stop stop-color="#BCBEC0"/>
<stop offset="0.686" stop-color="#E8E9EA"/>
<stop offset="1" stop-color="white"/>
</linearGradient>
<linearGradient id="paint30_linear_2_4480" x1="-5354.79" y1="141.697" x2="-5363.73" y2="141.697" gradientUnits="userSpaceOnUse">
<stop stop-color="#BCBEC0"/>
<stop offset="1" stop-color="#E6E7E8"/>
</linearGradient>
<linearGradient id="paint31_linear_2_4480" x1="5606.23" y1="142.343" x2="5602.24" y2="142.343" gradientUnits="userSpaceOnUse">
<stop stop-color="#BCBEC0"/>
<stop offset="0.686" stop-color="#E8E9EA"/>
<stop offset="1" stop-color="white"/>
</linearGradient>
<radialGradient id="paint32_radial_2_4480" cx="0" cy="0" r="1" gradientUnits="userSpaceOnUse" gradientTransform="translate(-887.825 138.592) scale(3.44538 3.4493)">
<stop offset="0.159" stop-color="#FF9900"/>
<stop offset="0.34" stop-color="#FC9500"/>
<stop offset="0.518" stop-color="#F58900"/>
<stop offset="0.694" stop-color="#EA7500"/>
<stop offset="0.867" stop-color="#DA5A00"/>
<stop offset="0.995" stop-color="#CC4100"/>
</radialGradient>
<radialGradient id="paint33_radial_2_4480" cx="0" cy="0" r="1" gradientUnits="userSpaceOnUse" gradientTransform="translate(-936.648 139.159) rotate(180) scale(2.02757 2.02944)">
<stop offset="0.159" stop-color="#FF9900"/>
<stop offset="0.34" stop-color="#FC9500"/>
<stop offset="0.518" stop-color="#F58900"/>
<stop offset="0.694" stop-color="#EA7500"/>
<stop offset="0.867" stop-color="#DA5A00"/>
<stop offset="0.995" stop-color="#CC4100"/>
</radialGradient>
<linearGradient id="paint34_linear_2_4480" x1="-5412.85" y1="115.674" x2="-5417.09" y2="115.674" gradientUnits="userSpaceOnUse">
<stop stop-color="#BCBEC0"/>
<stop offset="1" stop-color="#E6E7E8"/>
</linearGradient>
<linearGradient id="paint35_linear_2_4480" x1="4916.47" y1="2858.82" x2="4913.43" y2="2857.04" gradientUnits="userSpaceOnUse">
<stop stop-color="#BCBEC0"/>
<stop offset="0.686" stop-color="#E8E9EA"/>
<stop offset="1" stop-color="white"/>
</linearGradient>
<linearGradient id="paint36_linear_2_4480" x1="-5414.71" y1="111.676" x2="-5418.23" y2="111.676" gradientUnits="userSpaceOnUse">
<stop stop-color="#BCBEC0"/>
<stop offset="1" stop-color="#E6E7E8"/>
</linearGradient>
<linearGradient id="paint37_linear_2_4480" x1="5655.6" y1="111.636" x2="5652.89" y2="111.636" gradientUnits="userSpaceOnUse">
<stop stop-color="#BCBEC0"/>
<stop offset="0.686" stop-color="#E8E9EA"/>
<stop offset="1" stop-color="white"/>
</linearGradient>
<linearGradient id="paint38_linear_2_4480" x1="-5199.44" y1="78.4602" x2="-5208.54" y2="66.1378" gradientUnits="userSpaceOnUse">
<stop stop-color="#9C9C9C"/>
<stop offset="0.005" stop-color="#9C9C9C"/>
<stop offset="0.315" stop-color="#C7C7C7"/>
<stop offset="0.595" stop-color="#E5E5E5"/>
<stop offset="0.833" stop-color="#F8F8F8"/>
<stop offset="1" stop-color="white"/>
</linearGradient>
<linearGradient id="paint39_linear_2_4480" x1="-5363.27" y1="166.546" x2="-5364.45" y2="151.973" gradientUnits="userSpaceOnUse">
<stop stop-color="#9C9C9C"/>
<stop offset="0.005" stop-color="#9C9C9C"/>
<stop offset="0.315" stop-color="#C7C7C7"/>
<stop offset="0.595" stop-color="#E5E5E5"/>
<stop offset="0.833" stop-color="#F8F8F8"/>
<stop offset="1" stop-color="white"/>
</linearGradient>
<linearGradient id="paint40_linear_2_4480" x1="-5267.71" y1="117.06" x2="-5272.21" y2="102.555" gradientUnits="userSpaceOnUse">
<stop stop-color="#9C9C9C"/>
<stop offset="0.005" stop-color="#9C9C9C"/>
<stop offset="0.315" stop-color="#C7C7C7"/>
<stop offset="0.595" stop-color="#E5E5E5"/>
<stop offset="0.833" stop-color="#F8F8F8"/>
<stop offset="1" stop-color="white"/>
</linearGradient>
<radialGradient id="paint41_radial_2_4480" cx="0" cy="0" r="1" gradientUnits="userSpaceOnUse" gradientTransform="translate(-15.2257 127.903) scale(31.7699 31.779)">
<stop stop-color="#00C2BE"/>
<stop offset="0.258" stop-color="#03CECA"/>
<stop offset="0.676" stop-color="#00BAB7"/>
<stop offset="1" stop-color="#00C2BE"/>
</radialGradient>
<radialGradient id="paint42_radial_2_4480" cx="0" cy="0" r="1" gradientUnits="userSpaceOnUse" gradientTransform="translate(-42.4235 146.296) scale(30.7853 30.8466)">
<stop stop-color="#FFE4A7"/>
<stop offset="1"/>
</radialGradient>
<linearGradient id="paint43_linear_2_4480" x1="-5386.37" y1="162.731" x2="-5385.65" y2="142.196" gradientUnits="userSpaceOnUse">
<stop stop-color="#9C9C9C"/>
<stop offset="0.005" stop-color="#9C9C9C"/>
<stop offset="0.315" stop-color="#C7C7C7"/>
<stop offset="0.595" stop-color="#E5E5E5"/>
<stop offset="0.833" stop-color="#F8F8F8"/>
<stop offset="1" stop-color="white"/>
</linearGradient>
<linearGradient id="paint44_linear_2_4480" x1="-5365.1" y1="171.067" x2="-5366.96" y2="157.475" gradientUnits="userSpaceOnUse">
<stop stop-color="#9C9C9C"/>
<stop offset="0.005" stop-color="#9C9C9C"/>
<stop offset="0.315" stop-color="#C7C7C7"/>
<stop offset="0.595" stop-color="#E5E5E5"/>
<stop offset="0.833" stop-color="#F8F8F8"/>
<stop offset="1" stop-color="white"/>
</linearGradient>
<linearGradient id="paint45_linear_2_4480" x1="-5299.49" y1="92.2742" x2="-5309.8" y2="92.2742" gradientUnits="userSpaceOnUse">
<stop stop-color="#124257"/>
<stop offset="1" stop-color="#10054D"/>
</linearGradient>
<linearGradient id="paint46_linear_2_4480" x1="-5220.65" y1="50.848" x2="-5247.15" y2="50.848" gradientUnits="userSpaceOnUse">
<stop stop-color="#124257"/>
<stop offset="1" stop-color="#10054D"/>
</linearGradient>
<linearGradient id="paint47_linear_2_4480" x1="-5369.91" y1="23.9566" x2="-5363.52" y2="83.4741" gradientUnits="userSpaceOnUse">
<stop stop-color="#5277F7"/>
<stop offset="0.075" stop-color="#4869DB"/>
<stop offset="0.27" stop-color="#334A99"/>
<stop offset="0.455" stop-color="#202F62"/>
<stop offset="0.626" stop-color="#121B38"/>
<stop offset="0.779" stop-color="#080C19"/>
<stop offset="0.909" stop-color="#020306"/>
<stop offset="1"/>
</linearGradient>
<linearGradient id="paint48_linear_2_4480" x1="-5362.48" y1="145.44" x2="-5419.23" y2="145.44" gradientUnits="userSpaceOnUse">
<stop stop-color="#124257"/>
<stop offset="1" stop-color="#10054D"/>
</linearGradient>
<radialGradient id="paint49_radial_2_4480" cx="0" cy="0" r="1" gradientUnits="userSpaceOnUse" gradientTransform="translate(-346.169 137.549) scale(7.37455 7.37778)">
<stop stop-color="white"/>
<stop offset="1"/>
</radialGradient>
<linearGradient id="paint50_linear_2_4480" x1="-5263.72" y1="65.3304" x2="-5276.19" y2="65.3304" gradientUnits="userSpaceOnUse">
<stop stop-color="#124257"/>
<stop offset="1" stop-color="#10054D"/>
</linearGradient>
<linearGradient id="paint51_linear_2_4480" x1="-5307.88" y1="100.604" x2="-5294.14" y2="113.401" gradientUnits="userSpaceOnUse">
<stop stop-color="#696969"/>
<stop offset="0.242" stop-color="#9C9C9C"/>
<stop offset="0.48" stop-color="#C6C6C6"/>
<stop offset="0.692" stop-color="#E5E5E5"/>
<stop offset="0.873" stop-color="#F8F8F8"/>
<stop offset="1" stop-color="white"/>
</linearGradient>
<radialGradient id="paint52_radial_2_4480" cx="0" cy="0" r="1" gradientUnits="userSpaceOnUse" gradientTransform="translate(-421.697 92.675) scale(11.0078 11.0176)">
<stop stop-color="#00C2BE"/>
<stop offset="0.258" stop-color="#03CECA"/>
<stop offset="0.676" stop-color="#00BAB7"/>
<stop offset="1" stop-color="#00C2BE"/>
</radialGradient>
<linearGradient id="paint53_linear_2_4480" x1="-5299.35" y1="91.9726" x2="-5299.53" y2="100.053" gradientUnits="userSpaceOnUse">
<stop stop-color="#9C9C9C"/>
<stop offset="0.013" stop-color="#989898"/>
<stop offset="0.262" stop-color="#626262"/>
<stop offset="0.493" stop-color="#383838"/>
<stop offset="0.7" stop-color="#191919"/>
<stop offset="0.876" stop-color="#060606"/>
<stop offset="1"/>
</linearGradient>
<linearGradient id="paint54_linear_2_4480" x1="-5272.91" y1="23.0396" x2="-5271.09" y2="65.7254" gradientUnits="userSpaceOnUse">
<stop stop-color="#5277F7"/>
<stop offset="0.075" stop-color="#4869DB"/>
<stop offset="0.27" stop-color="#334A99"/>
<stop offset="0.455" stop-color="#202F62"/>
<stop offset="0.626" stop-color="#121B38"/>
<stop offset="0.779" stop-color="#080C19"/>
<stop offset="0.909" stop-color="#020306"/>
<stop offset="1"/>
</linearGradient>
<linearGradient id="paint55_linear_2_4480" x1="64.1658" y1="114.576" x2="66.1736" y2="96.1539" gradientUnits="userSpaceOnUse">
<stop stop-color="white"/>
<stop offset="0.876" stop-color="#79D2FF"/>
<stop offset="1" stop-color="#66CCFF"/>
</linearGradient>
<linearGradient id="paint56_linear_2_4480" x1="55.5531" y1="98.3129" x2="55.5796" y2="97.2485" gradientUnits="userSpaceOnUse">
<stop stop-color="white"/>
<stop offset="0.876" stop-color="#79D2FF"/>
<stop offset="1" stop-color="#66CCFF"/>
</linearGradient>
<linearGradient id="paint57_linear_2_4480" x1="66.6079" y1="114.299" x2="69.7513" y2="97.3007" gradientUnits="userSpaceOnUse">
<stop stop-color="white"/>
<stop offset="0.876" stop-color="#79D2FF"/>
<stop offset="1" stop-color="#66CCFF"/>
</linearGradient>
</defs>
</svg>
