<svg width="24" height="27" viewBox="0 0 24 27" fill="none" xmlns="http://www.w3.org/2000/svg">
<path d="M21.7567 9.47121L19.2458 8.55731C20.1536 7.80715 20.5412 6.61728 20.2633 5.48659C19.7171 3.2651 17.0085 2.42179 15.2973 3.93455L13.5637 5.46708L13.2207 3.16869C12.8816 0.905868 10.2619 -0.182792 8.41889 1.16553C7.49738 1.83968 7.00718 3.00184 7.22456 4.18185L4.85723 3.32023C3.69252 2.89622 2.39979 3.49899 1.97578 4.66385L0.950662 7.4804C0.809126 7.86929 1.00965 8.29935 1.39858 8.44083C1.55633 8.49822 12.9427 12.6425 13.1099 12.7034C12.636 12.7034 2.25815 12.7034 1.80158 12.7034C1.38773 12.7034 1.05222 13.0389 1.05222 13.4527V23.9435C1.05222 25.183 2.06068 26.1915 3.30024 26.1915H9.29497H12.2923H18.2871C19.5266 26.1915 20.5351 25.183 20.5351 23.9435V15.406L21.1148 15.617C21.5019 15.758 21.933 15.5596 22.0752 15.1691L23.1004 12.3526C23.5242 11.1877 22.9215 9.89517 21.7567 9.47121ZM8.54557 24.6928H3.30019C2.88699 24.6928 2.55083 24.3567 2.55083 23.9435V14.2021H8.54557V24.6928ZM11.5429 24.6928H10.0443V14.2021H11.5429V24.6928ZM16.2899 5.05743C17.1591 4.28892 18.5315 4.72003 18.8079 5.84446C19.1028 7.04334 17.944 8.08287 16.7842 7.66141C15.7977 7.30235 15.3354 7.13409 14.3475 6.77453L16.2899 5.05743ZM9.30373 2.37516C10.2403 1.69004 11.5669 2.24598 11.7386 3.39092L12.1228 5.96473C11.8463 5.86407 9.95842 5.17691 9.68641 5.07795C8.5265 4.65554 8.30742 3.1039 9.30373 2.37516ZM9.65674 9.85169L2.61527 7.28879L3.38414 5.17641C3.52547 4.78812 3.95638 4.5873 4.34462 4.72854C5.1326 5.01531 10.4389 6.94663 10.6819 7.03508L9.65674 9.85169ZM12.4733 10.8769L11.065 10.3643L12.0902 7.54774L13.4985 8.06035L12.4733 10.8769ZM19.0363 23.9435C19.0363 24.3567 18.7002 24.6928 18.287 24.6928H13.0416V14.2021H17.2275L19.0364 14.8605V23.9435H19.0363ZM21.6919 11.8399L20.9231 13.9523L13.8816 11.3894L14.9068 8.57287L21.2441 10.8794C21.6324 11.0207 21.8333 11.4517 21.6919 11.8399Z" fill="white"/>
</svg>
