<svg width="27" height="26" viewBox="0 0 27 26" fill="none" xmlns="http://www.w3.org/2000/svg">
<path d="M24.4316 8.53697C24.2168 8.60117 24.0363 8.74803 23.9298 8.94526C23.8234 9.14249 23.7996 9.37394 23.8637 9.58871C24.5592 11.9293 24.4545 14.435 23.5661 16.7094C22.6776 18.9838 21.0562 20.897 18.9583 22.1464C16.8604 23.3957 14.4058 23.9099 11.9828 23.6076C9.55989 23.3053 7.3069 22.2037 5.58032 20.4771C3.85374 18.7505 2.75215 16.4975 2.44983 14.0746C2.1475 11.6516 2.6617 9.19703 3.91108 7.09912C5.16046 5.00122 7.07368 3.37979 9.34806 2.49135C11.6224 1.60291 14.1281 1.49819 16.4687 2.19375C16.6821 2.25333 16.9104 2.22675 17.1043 2.11974C17.2983 2.01272 17.4426 1.83382 17.506 1.62155C17.5694 1.40927 17.5469 1.18058 17.4434 0.984687C17.3399 0.788799 17.1637 0.641372 16.9526 0.574134C14.2512 -0.229405 11.359 -0.109176 8.73358 0.915795C6.10819 1.94077 3.89956 3.81195 2.45716 6.23325C1.01477 8.65456 0.420982 11.4877 0.769761 14.2844C1.11854 17.0811 2.38997 19.6817 4.38286 21.6746C6.37575 23.6675 8.9763 24.9389 11.773 25.2877C14.5697 25.6365 17.4029 25.0427 19.8242 23.6003C22.2455 22.1579 24.1167 19.9492 25.1416 17.3239C26.1666 14.6985 26.2868 11.8063 25.4833 9.10486C25.4517 8.99838 25.3994 8.8992 25.3294 8.81298C25.2594 8.72677 25.1731 8.65523 25.0754 8.60246C24.9777 8.5497 24.8705 8.51676 24.76 8.50552C24.6495 8.49428 24.5379 8.50497 24.4316 8.53697Z" fill="white"/>
<path d="M12.4842 10.192H15.8654C16.0896 10.192 16.3046 10.103 16.4632 9.94445C16.6217 9.78593 16.7107 9.57092 16.7107 9.34673C16.7107 9.12254 16.6217 8.90753 16.4632 8.749C16.3046 8.59048 16.0896 8.50142 15.8654 8.50142H14.1748V7.6561C14.1748 7.43191 14.0857 7.2169 13.9272 7.05838C13.7687 6.89985 13.5537 6.81079 13.3295 6.81079C13.1053 6.81079 12.8903 6.89985 12.7318 7.05838C12.5732 7.2169 12.4842 7.43191 12.4842 7.6561V8.50142C11.8116 8.50142 11.1666 8.76859 10.691 9.24417C10.2154 9.71976 9.94824 10.3648 9.94824 11.0374C9.94824 11.7099 10.2154 12.355 10.691 12.8305C11.1666 13.3061 11.8116 13.5733 12.4842 13.5733H14.1748C14.399 13.5733 14.614 13.6624 14.7725 13.8209C14.9311 13.9794 15.0201 14.1944 15.0201 14.4186C15.0201 14.6428 14.9311 14.8578 14.7725 15.0163C14.614 15.1749 14.399 15.2639 14.1748 15.2639H10.7936C10.5694 15.2639 10.3544 15.353 10.1958 15.5115C10.0373 15.67 9.94824 15.885 9.94824 16.1092C9.94824 16.3334 10.0373 16.5484 10.1958 16.707C10.3544 16.8655 10.5694 16.9545 10.7936 16.9545H12.4842V17.7999C12.4842 18.024 12.5732 18.2391 12.7318 18.3976C12.8903 18.5561 13.1053 18.6452 13.3295 18.6452C13.5537 18.6452 13.7687 18.5561 13.9272 18.3976C14.0857 18.2391 14.1748 18.024 14.1748 17.7999V16.9545C14.8474 16.9545 15.4924 16.6874 15.968 16.2118C16.4436 15.7362 16.7107 15.0912 16.7107 14.4186C16.7107 13.746 16.4436 13.101 15.968 12.6254C15.4924 12.1498 14.8474 11.8827 14.1748 11.8827H12.4842C12.26 11.8827 12.045 11.7936 11.8865 11.6351C11.7279 11.4766 11.6389 11.2615 11.6389 11.0374C11.6389 10.8132 11.7279 10.5982 11.8865 10.4396C12.045 10.2811 12.26 10.192 12.4842 10.192Z" fill="white"/>
<path d="M25.1637 3.42959H22.6278V0.893652C22.6278 0.669461 22.5387 0.454453 22.3802 0.295926C22.2217 0.137399 22.0067 0.0483398 21.7825 0.0483398C21.5583 0.0483398 21.3433 0.137399 21.1847 0.295926C21.0262 0.454453 20.9372 0.669461 20.9372 0.893652V3.42959H18.4012C18.177 3.42959 17.962 3.51865 17.8035 3.67718C17.645 3.8357 17.5559 4.05071 17.5559 4.2749C17.5559 4.49909 17.645 4.7141 17.8035 4.87263C17.962 5.03116 18.177 5.12021 18.4012 5.12021H20.9372V7.65615C20.9372 7.88034 21.0262 8.09535 21.1847 8.25388C21.3433 8.41241 21.5583 8.50146 21.7825 8.50146C22.0067 8.50146 22.2217 8.41241 22.3802 8.25388C22.5387 8.09535 22.6278 7.88034 22.6278 7.65615V5.12021H25.1637C25.3879 5.12021 25.6029 5.03116 25.7614 4.87263C25.92 4.7141 26.009 4.49909 26.009 4.2749C26.009 4.05071 25.92 3.8357 25.7614 3.67718C25.6029 3.51865 25.3879 3.42959 25.1637 3.42959Z" fill="white"/>
</svg>
