<svg width="135" height="257" viewBox="0 0 135 257" fill="none" xmlns="http://www.w3.org/2000/svg">
<path d="M77.0916 256.903C76.2248 256.918 75.364 256.755 74.5611 256.425C73.7582 256.095 73.0297 255.604 72.4195 254.982L5.22155 183.88C2.38163 180.935 0.779242 176.995 0.749695 172.884C0.750137 172.162 0.801437 171.441 0.903206 170.726C1.2602 168.356 2.14871 166.098 3.50093 164.127C4.85315 162.156 6.63333 160.523 8.70559 159.353L10.7079 158.186C14.06 156.319 17.8331 155.36 21.6606 155.402C25.4883 155.359 29.2616 156.319 32.6133 158.186L126.843 213.127L131.835 216.006C132.495 216.298 133.056 216.777 133.451 217.386C133.845 217.995 134.055 218.707 134.055 219.434C134.055 220.162 133.845 220.874 133.451 221.483C133.056 222.092 132.495 222.571 131.835 222.863L125.868 226.295C124.452 227.049 122.87 227.431 121.269 227.407C120.202 227.421 119.141 227.238 118.139 226.868L37.4589 195.052L85.8684 246.238C86.3794 246.736 86.7649 247.35 86.9929 248.03C87.2208 248.709 87.2845 249.434 87.1787 250.143C87.0729 250.853 86.8006 251.526 86.3845 252.107C85.9685 252.689 85.4208 253.161 84.7872 253.485L80.1151 256.142C79.1891 256.655 78.1476 256.917 77.0916 256.903Z" fill="#E0E0E0"/>
<path d="M117.342 216.243C117.615 216.051 117.832 215.788 117.97 215.482C118.107 215.175 118.16 214.837 118.123 214.502V139.085C118.091 138.147 117.822 137.234 117.342 136.431L121.969 133.733C122.449 134.534 122.718 135.446 122.75 136.381V211.805C122.787 212.14 122.733 212.478 122.595 212.785C122.456 213.091 122.238 213.354 121.963 213.545L117.342 216.243Z" fill="#263238"/>
<path d="M117.341 136.419C116.894 135.598 116.245 134.907 115.458 134.411L30.9766 85.1436C28.0353 83.428 23.2601 83.428 20.3188 85.1436L18.4727 86.219C17.7182 86.6117 17.0821 87.202 16.6307 87.928C16.1793 88.6541 15.9292 89.4893 15.9067 90.3463V171.986C15.9288 171.128 16.1786 170.292 16.63 169.565C17.0813 168.837 17.7178 168.246 18.4727 167.852L20.3188 166.777C23.2601 165.061 28.0353 165.061 30.9766 166.777L115.471 216.057C115.726 216.283 116.045 216.422 116.383 216.456C116.72 216.49 117.06 216.415 117.354 216.244C117.648 216.073 117.881 215.812 118.022 215.5C118.162 215.188 118.201 214.839 118.135 214.503V139.085C118.101 138.142 117.828 137.224 117.341 136.419Z" fill="#0A374A"/>
<path d="M16.1219 91.7449C15.4574 89.6875 16.2881 87.487 18.4664 86.219L20.3125 85.1437C23.2539 83.4281 28.029 83.4281 30.9704 85.1437L115.464 134.423C116.252 134.918 116.901 135.61 117.347 136.431L121.975 133.733C121.524 132.913 120.877 132.221 120.092 131.719L33.2718 81.0971C28.9213 78.5672 22.3616 78.5672 17.9988 81.0971L16.1527 82.1662C14.8881 82.8733 13.8004 83.8631 12.9727 85.0601C12.1451 86.257 11.5994 87.6294 11.3776 89.0721C11.3172 89.4837 11.2864 89.8992 11.2853 90.3153C11.3165 92.8252 12.3064 95.2258 14.0482 97.016L17.3834 93.7962C16.818 93.2054 16.3875 92.4968 16.1219 91.7201" fill="#455A64"/>
<path d="M111.963 148.751V138.439L27.0937 88.9602C26.2716 88.5251 25.3574 88.2979 24.4293 88.2979C23.5012 88.2979 22.5869 88.5251 21.7648 88.9602L20.8479 89.4948C20.4713 89.6923 20.1537 89.9876 19.9276 90.3503C19.7016 90.7131 19.5753 91.1301 19.5618 91.5585V109.442L111.963 148.751Z" fill="#00C2BE"/>
<path d="M28.2508 86.9401C27.073 86.3155 25.7627 85.9893 24.4325 85.9893C23.1023 85.9893 21.7921 86.3155 20.6143 86.9401L19.6912 87.4746C19.0598 87.8269 18.5164 88.3202 18.1026 88.9171C17.6887 89.5139 17.4155 90.1984 17.3037 90.9183C17.2726 91.124 17.2561 91.3317 17.2545 91.5398V94.337L19.562 96.7736V91.5585C19.5736 91.1296 19.6991 90.7118 19.9253 90.3488C20.1516 89.9857 20.4703 89.6908 20.8481 89.4948L21.7465 88.9602C22.5722 88.5371 23.4851 88.3165 24.411 88.3165C25.3369 88.3165 26.2498 88.5371 27.0755 88.9602L111.945 138.439L114.259 137.09L28.2508 86.9401Z" fill="#27DEBF"/>
<path opacity="0.3" d="M28.2508 86.9401C27.073 86.3155 25.7627 85.9893 24.4325 85.9893C23.1023 85.9893 21.7921 86.3155 20.6143 86.9401L19.6912 87.4746C19.0598 87.8269 18.5164 88.3202 18.1026 88.9171C17.6887 89.5139 17.4155 90.1984 17.3037 90.9183C17.2726 91.124 17.2561 91.3317 17.2545 91.5398V94.337L19.562 96.7736V91.5585C19.5736 91.1296 19.6991 90.7118 19.9253 90.3488C20.1516 89.9857 20.4703 89.6908 20.8481 89.4948L21.7465 88.9602C22.5722 88.5371 23.4851 88.3165 24.411 88.3165C25.3369 88.3165 26.2498 88.5371 27.0755 88.9602L111.945 138.439L114.259 137.09L28.2508 86.9401Z" fill="black"/>
<path d="M111.963 138.439L114.277 137.09V149.957L111.963 148.571V138.439Z" fill="#27DEBF"/>
<path opacity="0.4" d="M111.963 138.439L114.277 137.09V149.957L111.963 148.571V138.439Z" fill="black"/>
<path d="M114.929 206.795V148.726L30.2935 99.3221C29.4252 98.8165 28.4405 98.5503 27.4382 98.5503C26.436 98.5503 25.4513 98.8165 24.583 99.3221L22.4416 100.565V155.961L112.283 208.349C112.553 208.501 112.857 208.58 113.166 208.577C113.475 208.575 113.777 208.491 114.045 208.334C114.312 208.177 114.534 207.953 114.689 207.683C114.844 207.413 114.927 207.107 114.929 206.795Z" fill="#263238"/>
<path d="M106.702 204.626L108.148 203.78C108.389 203.621 108.589 203.407 108.733 203.156C108.878 202.904 108.962 202.622 108.979 202.332V142.635C108.963 142.343 108.879 142.06 108.735 141.807C108.591 141.555 108.39 141.34 108.148 141.18L31.5492 96.5126C31.2923 96.3825 31.0089 96.3147 30.7216 96.3147C30.4342 96.3147 30.1508 96.3825 29.8939 96.5126L28.4417 97.358C28.2011 97.5173 28.0006 97.7312 27.8564 97.9827C27.7122 98.2341 27.6281 98.5162 27.611 98.8063V158.479C27.6281 158.769 27.7122 159.051 27.8564 159.302C28.0006 159.554 28.2011 159.768 28.4417 159.927L105.041 204.607C105.297 204.741 105.581 204.813 105.869 204.816C106.158 204.819 106.443 204.754 106.702 204.626Z" fill="#27DEBF"/>
<path opacity="0.7" d="M106.702 204.626L108.148 203.78C108.389 203.621 108.589 203.407 108.733 203.156C108.878 202.904 108.962 202.622 108.979 202.332V142.635C108.963 142.343 108.879 142.06 108.735 141.807C108.591 141.555 108.39 141.34 108.148 141.18L31.5492 96.5126C31.2923 96.3825 31.0089 96.3147 30.7216 96.3147C30.4342 96.3147 30.1508 96.3825 29.8939 96.5126L28.4417 97.358C28.2011 97.5173 28.0006 97.7312 27.8564 97.9827C27.7122 98.2341 27.6281 98.5162 27.611 98.8063V158.479C27.6281 158.769 27.7122 159.051 27.8564 159.302C28.0006 159.554 28.2011 159.768 28.4417 159.927L105.041 204.607C105.297 204.741 105.581 204.813 105.869 204.816C106.158 204.819 106.443 204.754 106.702 204.626Z" fill="white"/>
<path d="M105.041 143.008L28.4417 98.3216C27.9863 98.0543 27.611 98.2719 27.611 98.8064V158.479C27.6281 158.769 27.7122 159.051 27.8564 159.303C28.0006 159.554 28.2011 159.768 28.4417 159.927L105.041 204.607C105.502 204.874 105.871 204.657 105.871 204.129V144.456C105.854 144.166 105.77 143.884 105.626 143.632C105.482 143.381 105.281 143.167 105.041 143.008Z" fill="#27DEBF"/>
<path d="M105.041 143.008L28.4417 98.3216C27.9863 98.0543 27.611 98.2719 27.611 98.8064V158.479C27.6281 158.769 27.7122 159.051 27.8564 159.303C28.0006 159.554 28.2011 159.768 28.4417 159.927L105.041 204.607C105.502 204.874 105.871 204.657 105.871 204.129V144.456C105.854 144.166 105.77 143.884 105.626 143.632C105.482 143.381 105.281 143.167 105.041 143.008Z" fill="#00C2BE"/>
<path d="M28.4415 98.3215C34.7243 102.231 41.0624 106.023 47.4067 109.815L66.4826 121.078L85.7431 132.155L95.3795 137.625L105.071 143.008L95.5887 137.221L86.0815 131.514L66.981 120.257L47.7759 109.174C41.3516 105.52 34.9212 101.877 28.4415 98.3215Z" fill="white"/>
<path d="M105.625 143.629L108.733 141.82C108.888 142.065 108.971 142.35 108.973 142.641V202.313C108.958 202.603 108.876 202.886 108.734 203.139C108.592 203.391 108.393 203.607 108.154 203.768L106.702 204.613C106.472 204.731 106.22 204.798 105.962 204.811C105.705 204.823 105.447 204.782 105.207 204.688C105.588 204.812 105.865 204.588 105.865 204.122V144.45C105.863 144.159 105.78 143.874 105.625 143.629Z" fill="#27DEBF"/>
<path d="M105.871 151.275L108.979 149.459V165.061L105.865 166.852L105.871 151.275Z" fill="#27DEBF"/>
<path opacity="0.2" d="M105.871 151.275L108.979 149.459V165.061L105.865 166.852L105.871 151.275Z" fill="black"/>
<path opacity="0.2" d="M27.611 105.613L105.871 151.268L105.865 166.852L27.611 121.196V105.613Z" fill="black"/>
<path d="M101.041 185.375V195.575C101.041 196.34 100.505 196.651 99.853 196.272L89.2505 190.168C88.9048 189.94 88.6171 189.634 88.4107 189.273C88.2043 188.912 88.0852 188.508 88.0629 188.091V177.891C88.0629 177.127 88.5921 176.816 89.2505 177.195C92.1426 178.886 96.9608 181.615 99.853 183.299C100.198 183.527 100.485 183.834 100.691 184.195C100.897 184.555 101.017 184.959 101.041 185.375Z" fill="#455A64"/>
<path d="M103.127 189.416L103.398 188.943L85.977 178.867L85.7062 179.333L103.127 189.416Z" fill="white"/>
<path d="M96.8565 185.288H96.3212V190.485H96.8565V185.288Z" fill="white"/>
<path d="M92.7766 183.013H92.2413V188.203H92.7766V183.013Z" fill="white"/>
<path d="M103.127 194.625L103.398 194.152L85.9771 184.076L85.7063 184.542L103.127 194.625Z" fill="white"/>
<path d="M59.8982 133.765C59.4558 132.901 59.2337 131.94 59.2521 130.967C59.2521 129.917 59.4613 129.233 59.8674 128.922C60.2736 128.612 60.8951 128.692 61.7135 129.152C62.0349 129.34 62.336 129.561 62.6119 129.811C62.8705 130.041 63.0999 130.302 63.295 130.588C63.3344 130.643 63.3578 130.707 63.3626 130.775C63.3647 130.822 63.3493 130.869 63.3196 130.905L63.0857 131.328C63.055 131.371 63.018 131.39 62.9873 131.371C62.9439 131.334 62.9047 131.293 62.8704 131.247C62.5949 130.872 62.2475 130.557 61.8489 130.321C61.3689 130.047 61.0058 130.008 60.7597 130.203C60.6034 130.395 60.4883 130.618 60.4216 130.858C60.3548 131.098 60.338 131.349 60.372 131.595C60.3535 132.241 60.493 132.882 60.7782 133.46C61.022 133.955 61.4053 134.366 61.8796 134.641C62.1946 134.861 62.5744 134.966 62.9565 134.939C62.9948 134.929 63.0351 134.929 63.0734 134.939C63.118 134.981 63.15 135.035 63.1657 135.095L63.4303 135.866C63.4369 135.907 63.4369 135.949 63.4303 135.99C63.4303 136.027 63.4303 136.058 63.3503 136.083C62.9996 136.214 62.4519 136.083 61.7135 135.636C60.9477 135.195 60.319 134.547 59.8982 133.765Z" fill="#455A64"/>
<path d="M64.0704 136.798C64.0231 136.69 63.9999 136.574 64.0027 136.456V131.03C63.9903 130.937 64.0146 130.843 64.0704 130.769C64.1196 130.727 64.1996 130.74 64.3104 130.806L66.0518 131.807C66.5945 132.097 67.0449 132.536 67.3508 133.074C67.6568 133.612 67.8059 134.226 67.7809 134.846C67.8017 135.188 67.7316 135.529 67.5779 135.834C67.5153 135.942 67.4249 136.03 67.3164 136.089C67.208 136.148 67.0856 136.176 66.9625 136.17L67.6763 138.694C67.6841 138.739 67.6841 138.785 67.6763 138.831C67.6763 138.942 67.6271 138.974 67.5348 138.918L66.7779 138.476C66.7234 138.447 66.6753 138.407 66.6364 138.358C66.5957 138.302 66.5664 138.239 66.5502 138.172L65.9349 135.791L65.1226 135.319V137.115C65.1226 137.245 65.1226 137.333 65.0549 137.37C64.9872 137.407 64.9319 137.37 64.8149 137.326L64.3104 137.034C64.2103 136.979 64.1272 136.898 64.0704 136.798ZM65.8672 134.66C66.1256 134.809 66.3164 134.852 66.4456 134.778C66.5749 134.703 66.6425 134.517 66.6425 134.2C66.6511 133.921 66.5897 133.646 66.4641 133.398C66.34 133.175 66.1567 132.992 65.9349 132.87L65.1226 132.397V134.231L65.8672 134.66Z" fill="#455A64"/>
<path d="M68.384 139.315C68.3338 139.209 68.3106 139.091 68.3163 138.974V133.541C68.3098 133.495 68.3124 133.448 68.324 133.403C68.3357 133.359 68.356 133.317 68.384 133.28C68.4332 133.243 68.5132 133.28 68.6178 133.317L71.4423 134.964C71.537 135.011 71.6146 135.088 71.6638 135.182C71.7101 135.285 71.7312 135.398 71.7253 135.511V135.853C71.7253 135.996 71.7253 136.083 71.6638 136.121C71.6023 136.158 71.553 136.121 71.4423 136.083L69.4362 134.908V136.357L70.8392 137.177C70.9314 137.228 71.008 137.303 71.0607 137.395C71.107 137.498 71.1281 137.611 71.1223 137.724V138.047C71.1223 138.184 71.1223 138.277 71.0607 138.315C70.9992 138.352 70.9438 138.315 70.8392 138.271L69.4362 137.457V138.905L71.4361 140.074C71.5313 140.123 71.6088 140.201 71.6576 140.298C71.7044 140.403 71.7255 140.518 71.7192 140.633V140.963C71.7192 141.106 71.7192 141.193 71.6576 141.224C71.5961 141.255 71.5407 141.224 71.4361 141.18L68.6178 139.527C68.5231 139.478 68.4425 139.405 68.384 139.315Z" fill="#455A64"/>
<path d="M72.2852 141.59C72.2379 141.483 72.2148 141.366 72.2175 141.249V135.797C72.2071 135.705 72.2312 135.612 72.2852 135.536C72.3345 135.499 72.4145 135.511 72.5252 135.573L73.9528 136.406C74.6921 136.826 75.303 137.444 75.7189 138.19C76.1514 139.027 76.3633 139.963 76.3343 140.907C76.3343 141.967 76.1291 142.633 75.7189 142.902C75.3128 143.169 74.722 143.082 73.959 142.635L72.5314 141.802C72.4309 141.757 72.3455 141.683 72.2852 141.59ZM74.0021 141.59C74.4123 141.827 74.7138 141.851 74.9066 141.665C75.1097 141.479 75.2082 141.043 75.2082 140.285C75.2361 139.696 75.1331 139.107 74.9066 138.563C74.7126 138.151 74.3965 137.81 74.0021 137.587L73.3375 137.202V141.199L74.0021 141.59Z" fill="#455A64"/>
<path d="M76.9557 144.307C76.9034 144.203 76.878 144.087 76.8818 143.971V138.538C76.8758 138.492 76.8793 138.445 76.892 138.4C76.9047 138.355 76.9264 138.313 76.9557 138.277C76.9987 138.24 77.0787 138.277 77.1895 138.314L77.7002 138.613C77.8009 138.665 77.8828 138.747 77.9341 138.849C77.985 138.955 78.0083 139.073 78.0018 139.191V144.624C78.0018 144.76 78.0018 144.847 77.9341 144.885C77.8664 144.922 77.811 144.885 77.7002 144.841L77.1895 144.543C77.0888 144.491 77.007 144.408 76.9557 144.307Z" fill="#455A64"/>
<path d="M79.8974 146.028C79.8452 145.922 79.8198 145.805 79.8236 145.687V140.969L78.7098 140.347C78.6176 140.297 78.541 140.221 78.4883 140.13C78.4419 140.024 78.4208 139.909 78.4268 139.794V139.452C78.4268 139.315 78.4268 139.228 78.4883 139.191C78.5498 139.154 78.6052 139.191 78.7098 139.228L82.0696 141.186C82.1664 141.236 82.2459 141.314 82.2973 141.41C82.3459 141.517 82.369 141.634 82.365 141.752V142.088C82.365 142.224 82.365 142.311 82.2973 142.342C82.2296 142.374 82.1804 142.342 82.0696 142.305L80.9559 141.652V146.364C80.9559 146.501 80.9558 146.582 80.882 146.619C80.8082 146.656 80.7528 146.619 80.642 146.575L80.1374 146.283C80.0348 146.223 79.9515 146.135 79.8974 146.028Z" fill="#455A64"/>
<path d="M85.7432 148.85C85.3107 147.987 85.0991 147.027 85.1278 146.059C85.1278 145.003 85.337 144.319 85.7432 144.014C86.1493 143.71 86.777 143.778 87.5892 144.238C87.9102 144.426 88.2113 144.647 88.4876 144.897C88.7447 145.128 88.974 145.389 89.1707 145.674C89.2117 145.728 89.2353 145.793 89.2384 145.861C89.2385 145.909 89.2257 145.956 89.2014 145.997L88.9615 146.414C88.9615 146.463 88.8999 146.476 88.8692 146.457C88.8226 146.426 88.7828 146.386 88.7522 146.339C88.4764 145.961 88.1267 145.643 87.7246 145.407C87.2569 145.139 86.8939 145.108 86.6354 145.32C86.4788 145.512 86.3635 145.735 86.2967 145.975C86.23 146.214 86.2133 146.466 86.2478 146.712C86.228 147.358 86.3675 147.999 86.6539 148.577C86.9012 149.071 87.2835 149.483 87.7554 149.764C88.0706 149.984 88.4502 150.089 88.8322 150.062C88.8701 150.049 88.9113 150.049 88.9492 150.062C88.9951 150.103 89.0274 150.158 89.0415 150.218L89.3061 150.982C89.3224 151.024 89.3328 151.068 89.3368 151.113C89.3368 151.15 89.3061 151.175 89.2568 151.2C88.8999 151.337 88.3523 151.2 87.6138 150.759C86.8232 150.315 86.1742 149.653 85.7432 148.85Z" fill="#455A64"/>
<path d="M89.546 151.592C89.54 151.548 89.54 151.504 89.546 151.461L91.3059 146.836C91.321 146.774 91.3582 146.718 91.4105 146.681C91.4391 146.673 91.4692 146.673 91.4981 146.679C91.527 146.686 91.554 146.699 91.5767 146.718L92.0751 147.011C92.1423 147.045 92.1995 147.096 92.2412 147.16C92.2839 147.249 92.3169 147.343 92.3397 147.439L94.0996 154.115C94.1067 154.167 94.1067 154.219 94.0996 154.271C94.0996 154.376 94.0565 154.407 93.9765 154.358L93.152 153.879C93.097 153.848 93.0489 153.805 93.0104 153.755C92.976 153.693 92.9511 153.626 92.9366 153.556L92.6227 152.313L91.0105 151.337L90.709 152.238C90.709 152.3 90.6598 152.338 90.629 152.344C90.5982 152.35 90.5552 152.344 90.4875 152.306L89.6629 151.828C89.6234 151.804 89.5915 151.768 89.5708 151.727C89.5502 151.685 89.5415 151.638 89.546 151.592ZM92.4074 151.094L91.8413 148.782L91.269 150.429L92.4074 151.094Z" fill="#455A64"/>
<path d="M94.7765 154.706C94.7243 154.6 94.6989 154.482 94.7027 154.364V148.931C94.6967 148.885 94.7002 148.838 94.7129 148.793C94.7256 148.748 94.7472 148.706 94.7765 148.67C94.8258 148.633 94.8996 148.67 95.0104 148.707L96.7333 149.714C97.2749 150.005 97.724 150.445 98.0288 150.983C98.3337 151.521 98.4819 152.135 98.4563 152.754C98.4787 153.094 98.4085 153.433 98.2533 153.736C98.191 153.844 98.1008 153.933 97.9924 153.993C97.884 154.053 97.7615 154.082 97.6379 154.078L98.3517 156.601C98.3573 156.647 98.3573 156.693 98.3517 156.738C98.3517 156.85 98.3086 156.875 98.2102 156.819L97.4533 156.378C97.3992 156.35 97.3511 156.312 97.3118 156.266C97.2745 156.207 97.2475 156.141 97.2318 156.073L96.6164 153.699L95.8103 153.226V155.016C95.8227 155.109 95.7984 155.203 95.7426 155.277C95.6934 155.315 95.6134 155.277 95.5026 155.234L94.9919 154.936C94.8999 154.881 94.8252 154.801 94.7765 154.706ZM96.5672 152.567C96.8256 152.717 97.0226 152.754 97.1518 152.685C97.281 152.617 97.3426 152.418 97.3426 152.101C97.3543 151.825 97.2927 151.55 97.1641 151.306C97.0404 151.081 96.8571 150.896 96.6349 150.771L95.8288 150.305V152.132L96.5672 152.567Z" fill="#455A64"/>
<path d="M99.09 157.217C99.0382 157.113 99.0129 156.998 99.0162 156.882V151.449C99.0162 151.312 99.0408 151.225 99.09 151.188C99.1331 151.151 99.2131 151.188 99.3238 151.225L100.751 152.058C101.493 152.472 102.105 153.088 102.517 153.836C102.949 154.673 103.161 155.608 103.133 156.552C103.133 157.615 102.93 158.28 102.517 158.554C102.105 158.827 101.521 158.728 100.758 158.286L99.33 157.453C99.227 157.403 99.1429 157.32 99.09 157.217ZM100.807 157.217C101.217 157.453 101.519 157.478 101.711 157.292C101.968 156.884 102.073 156.397 102.007 155.918C102.034 155.329 101.933 154.742 101.711 154.196C101.515 153.786 101.2 153.445 100.807 153.22L100.136 152.829V156.832L100.807 157.217Z" fill="#455A64"/>
<g opacity="0.15">
<path opacity="0.15" d="M59.8982 133.765C59.4558 132.901 59.2337 131.94 59.2521 130.967C59.2521 129.917 59.4613 129.233 59.8674 128.922C60.2736 128.612 60.8951 128.692 61.7135 129.152C62.0349 129.34 62.336 129.561 62.6119 129.811C62.8705 130.041 63.0999 130.302 63.295 130.588C63.3344 130.643 63.3578 130.707 63.3626 130.775C63.3647 130.822 63.3493 130.869 63.3196 130.905L63.0857 131.328C63.055 131.371 63.018 131.39 62.9873 131.371C62.9439 131.334 62.9047 131.293 62.8704 131.247C62.5949 130.872 62.2475 130.557 61.8489 130.321C61.3689 130.047 61.0058 130.008 60.7597 130.203C60.6034 130.395 60.4883 130.618 60.4216 130.858C60.3548 131.098 60.338 131.349 60.372 131.595C60.3535 132.241 60.493 132.882 60.7782 133.46C61.022 133.955 61.4053 134.366 61.8796 134.641C62.1946 134.861 62.5744 134.966 62.9565 134.939C62.9948 134.929 63.0351 134.929 63.0734 134.939C63.118 134.981 63.15 135.035 63.1657 135.095L63.4303 135.866C63.4369 135.907 63.4369 135.949 63.4303 135.99C63.4303 136.027 63.4303 136.058 63.3503 136.083C62.9996 136.214 62.4519 136.083 61.7135 135.636C60.9477 135.195 60.319 134.547 59.8982 133.765Z" fill="#455A64"/>
<path opacity="0.15" d="M64.0701 136.798C64.0228 136.69 63.9996 136.574 64.0024 136.456V131.03C63.99 130.937 64.0143 130.843 64.0701 130.769C64.1193 130.727 64.1993 130.74 64.3101 130.806L66.0515 131.807C66.5942 132.097 67.0445 132.536 67.3505 133.074C67.6565 133.612 67.8056 134.226 67.7806 134.846C67.8014 135.188 67.7313 135.529 67.5776 135.834C67.515 135.942 67.4246 136.03 67.3161 136.089C67.2077 136.148 67.0853 136.176 66.9622 136.17L67.676 138.694C67.6838 138.739 67.6838 138.785 67.676 138.831C67.676 138.942 67.6268 138.974 67.5345 138.918L66.7776 138.476C66.7231 138.447 66.675 138.407 66.6361 138.358C66.5954 138.302 66.5661 138.239 66.5499 138.172L65.9346 135.791L65.1223 135.319V137.115C65.1223 137.245 65.1223 137.333 65.0546 137.37C64.9869 137.407 64.9316 137.37 64.8146 137.326L64.3101 137.034C64.21 136.979 64.1269 136.898 64.0701 136.798ZM65.8669 134.66C66.1253 134.809 66.3161 134.852 66.4453 134.778C66.5746 134.703 66.6422 134.517 66.6422 134.2C66.6508 133.921 66.5894 133.646 66.4638 133.398C66.3397 133.175 66.1564 132.992 65.9346 132.87L65.1223 132.397V134.231L65.8669 134.66Z" fill="#455A64"/>
<path opacity="0.15" d="M68.3839 139.315C68.3337 139.209 68.3105 139.091 68.3162 138.974V133.541C68.3097 133.495 68.3124 133.448 68.324 133.403C68.3356 133.359 68.356 133.317 68.3839 133.28C68.4331 133.243 68.5131 133.28 68.6177 133.317L71.4422 134.964C71.537 135.011 71.6146 135.088 71.6637 135.182C71.71 135.285 71.7311 135.398 71.7253 135.511V135.853C71.7253 135.996 71.7253 136.083 71.6637 136.121C71.6022 136.158 71.553 136.121 71.4422 136.083L69.4361 134.908V136.357L70.8392 137.177C70.9313 137.228 71.008 137.303 71.0607 137.395C71.107 137.498 71.1281 137.611 71.1222 137.724V138.047C71.1222 138.184 71.1222 138.277 71.0607 138.315C70.9991 138.352 70.9438 138.315 70.8392 138.271L69.4361 137.457V138.905L71.436 140.074C71.5313 140.123 71.6088 140.201 71.6576 140.298C71.7044 140.403 71.7255 140.518 71.7191 140.633V140.963C71.7191 141.106 71.7191 141.193 71.6576 141.224C71.596 141.255 71.5407 141.224 71.436 141.18L68.6177 139.527C68.523 139.478 68.4425 139.405 68.3839 139.315Z" fill="#455A64"/>
<path opacity="0.15" d="M72.2852 141.59C72.2379 141.483 72.2148 141.366 72.2175 141.249V135.797C72.207 135.705 72.2311 135.612 72.2852 135.536C72.3344 135.499 72.4144 135.511 72.5252 135.573L73.9528 136.406C74.692 136.826 75.3029 137.444 75.7188 138.19C76.1513 139.027 76.3633 139.963 76.3342 140.907C76.3342 141.967 76.1291 142.633 75.7188 142.902C75.3127 143.169 74.722 143.082 73.9589 142.635L72.5313 141.802C72.4309 141.757 72.3454 141.683 72.2852 141.59ZM74.002 141.59C74.4122 141.827 74.7138 141.851 74.9066 141.665C75.1096 141.479 75.2081 141.043 75.2081 140.285C75.2361 139.696 75.1331 139.107 74.9066 138.563C74.7125 138.151 74.3964 137.81 74.002 137.587L73.3374 137.202V141.199L74.002 141.59Z" fill="#455A64"/>
<path opacity="0.15" d="M76.9556 144.307C76.9033 144.203 76.8779 144.087 76.8818 143.971V138.538C76.8758 138.492 76.8792 138.445 76.8919 138.4C76.9046 138.355 76.9263 138.313 76.9556 138.277C76.9987 138.24 77.0787 138.277 77.1894 138.314L77.7002 138.613C77.8009 138.665 77.8827 138.747 77.934 138.849C77.9849 138.955 78.0082 139.073 78.0017 139.191V144.624C78.0017 144.76 78.0017 144.847 77.934 144.885C77.8663 144.922 77.8109 144.885 77.7002 144.841L77.1894 144.543C77.0888 144.491 77.0069 144.408 76.9556 144.307Z" fill="#455A64"/>
<path opacity="0.15" d="M79.8971 146.028C79.8449 145.922 79.8195 145.805 79.8233 145.687V140.969L78.7095 140.347C78.6173 140.297 78.5407 140.221 78.488 140.13C78.4416 140.024 78.4205 139.909 78.4264 139.794V139.452C78.4264 139.315 78.4264 139.228 78.488 139.191C78.5495 139.154 78.6049 139.191 78.7095 139.228L82.0693 141.186C82.1661 141.236 82.2456 141.314 82.297 141.41C82.3456 141.517 82.3687 141.634 82.3647 141.752V142.088C82.3647 142.224 82.3647 142.311 82.297 142.342C82.2293 142.374 82.1801 142.342 82.0693 142.305L80.9555 141.652V146.364C80.9555 146.501 80.9555 146.582 80.8817 146.619C80.8079 146.656 80.7525 146.619 80.6417 146.575L80.1371 146.283C80.0345 146.223 79.9512 146.135 79.8971 146.028Z" fill="#455A64"/>
<path opacity="0.15" d="M85.7429 148.85C85.3104 147.987 85.0989 147.027 85.1276 146.059C85.1276 145.003 85.3368 144.319 85.7429 144.014C86.1491 143.71 86.7767 143.778 87.589 144.238C87.91 144.426 88.211 144.647 88.4874 144.897C88.7445 145.128 88.9738 145.389 89.1704 145.674C89.2115 145.728 89.2351 145.793 89.2381 145.861C89.2382 145.909 89.2255 145.956 89.2012 145.997L88.9612 146.414C88.9612 146.463 88.8997 146.476 88.8689 146.457C88.8223 146.426 88.7825 146.386 88.752 146.339C88.4762 145.961 88.1264 145.643 87.7244 145.407C87.2567 145.139 86.8936 145.108 86.6352 145.32C86.4786 145.512 86.3632 145.735 86.2965 145.975C86.2298 146.214 86.2131 146.466 86.2475 146.712C86.2277 147.358 86.3673 147.999 86.6536 148.577C86.901 149.071 87.2832 149.483 87.7551 149.764C88.0703 149.984 88.45 150.089 88.832 150.062C88.8699 150.049 88.911 150.049 88.9489 150.062C88.9949 150.103 89.0271 150.158 89.0412 150.218L89.3058 150.982C89.3222 151.024 89.3325 151.068 89.3366 151.113C89.3366 151.15 89.3058 151.175 89.2566 151.2C88.8997 151.337 88.352 151.2 87.6136 150.759C86.8229 150.315 86.174 149.653 85.7429 148.85Z" fill="#455A64"/>
<path opacity="0.15" d="M89.5459 151.592C89.5399 151.548 89.5399 151.504 89.5459 151.461L91.3058 146.836C91.3209 146.774 91.3581 146.718 91.4105 146.681C91.4391 146.673 91.4691 146.673 91.498 146.679C91.5269 146.686 91.5539 146.699 91.5766 146.718L92.075 147.011C92.1422 147.045 92.1995 147.096 92.2412 147.16C92.2838 147.249 92.3168 147.343 92.3396 147.439L94.0995 154.115C94.1066 154.167 94.1066 154.219 94.0995 154.271C94.0995 154.376 94.0565 154.407 93.9765 154.358L93.1519 153.879C93.097 153.848 93.0489 153.805 93.0104 153.755C92.9759 153.693 92.951 153.626 92.9365 153.556L92.6227 152.313L91.0105 151.337L90.709 152.238C90.709 152.3 90.6597 152.338 90.629 152.344C90.5982 152.35 90.5551 152.344 90.4874 152.306L89.6628 151.828C89.6234 151.804 89.5915 151.768 89.5708 151.727C89.5501 151.685 89.5415 151.638 89.5459 151.592ZM92.4073 151.094L91.8412 148.782L91.2689 150.429L92.4073 151.094Z" fill="#455A64"/>
<path opacity="0.15" d="M94.7765 154.706C94.7242 154.6 94.6988 154.482 94.7026 154.364V148.931C94.6966 148.885 94.7001 148.838 94.7128 148.793C94.7255 148.748 94.7472 148.706 94.7765 148.67C94.8257 148.633 94.8995 148.67 95.0103 148.707L96.7333 149.714C97.2748 150.005 97.7239 150.445 98.0288 150.983C98.3336 151.521 98.4818 152.135 98.4563 152.754C98.4787 153.094 98.4084 153.433 98.2532 153.736C98.1909 153.844 98.1007 153.933 97.9924 153.993C97.884 154.053 97.7615 154.082 97.6379 154.078L98.3517 156.601C98.3573 156.647 98.3573 156.693 98.3517 156.738C98.3517 156.85 98.3086 156.875 98.2101 156.819L97.4532 156.378C97.3992 156.35 97.3511 156.312 97.3117 156.266C97.2745 156.207 97.2474 156.141 97.2317 156.073L96.6164 153.699L95.8103 153.226V155.016C95.8227 155.109 95.7983 155.203 95.7426 155.277C95.6933 155.315 95.6133 155.277 95.5026 155.234L94.9918 154.936C94.8998 154.881 94.8251 154.801 94.7765 154.706ZM96.5671 152.567C96.8256 152.717 97.0225 152.754 97.1517 152.685C97.2809 152.617 97.3425 152.418 97.3425 152.101C97.3542 151.825 97.2926 151.55 97.164 151.306C97.0403 151.081 96.8571 150.896 96.6348 150.771L95.8287 150.305V152.132L96.5671 152.567Z" fill="#455A64"/>
<path opacity="0.15" d="M99.0899 157.217C99.0382 157.113 99.0128 156.998 99.0161 156.882V151.449C99.0161 151.312 99.0407 151.225 99.0899 151.188C99.133 151.151 99.213 151.188 99.3238 151.225L100.751 152.058C101.493 152.472 102.105 153.088 102.517 153.836C102.949 154.673 103.161 155.608 103.133 156.552C103.133 157.615 102.93 158.28 102.517 158.554C102.105 158.827 101.521 158.728 100.758 158.286L99.3299 157.453C99.227 157.403 99.1428 157.32 99.0899 157.217ZM100.807 157.217C101.217 157.453 101.519 157.478 101.711 157.292C101.968 156.884 102.073 156.397 102.007 155.918C102.034 155.329 101.933 154.742 101.711 154.196C101.515 153.786 101.2 153.445 100.807 153.22L100.136 152.829V156.832L100.807 157.217Z" fill="#455A64"/>
</g>
<path d="M38.9763 146.408L42.053 148.173C42.2612 148.308 42.4346 148.491 42.5587 148.707C42.6829 148.923 42.7542 149.166 42.7668 149.416V150.348C42.7668 150.808 42.4469 150.97 42.053 150.765L38.9763 149C38.7706 148.862 38.5995 148.679 38.4766 148.463C38.3537 148.247 38.2825 148.005 38.2686 147.756V146.824C38.2932 146.364 38.6132 146.178 38.9763 146.408Z" fill="#27DEBF"/>
<path d="M32.3306 142.516L35.3581 144.282C35.5656 144.417 35.7385 144.601 35.8625 144.817C35.9866 145.033 36.0583 145.276 36.0719 145.525V146.457C36.0719 146.917 35.7519 147.079 35.3581 146.874L32.3306 145.121C32.1249 144.984 31.9538 144.8 31.8309 144.584C31.708 144.368 31.6368 144.126 31.6229 143.878V142.945C31.6229 142.473 31.9429 142.286 32.3306 142.516Z" fill="#27DEBF"/>
<path d="M70.5192 171.271L32.8659 149.31C32.2136 148.925 31.6844 149.236 31.6844 150V151.125C31.7065 151.541 31.8249 151.945 32.0302 152.306C32.2354 152.666 32.5217 152.973 32.8659 153.201L70.5192 175.156C71.1777 175.541 71.7069 175.231 71.7069 174.466V173.341C71.6841 172.926 71.5647 172.522 71.3583 172.162C71.152 171.803 70.8645 171.497 70.5192 171.271Z" fill="#27DEBF"/>
<path d="M38.9763 146.408L42.053 148.173C42.2612 148.308 42.4346 148.491 42.5587 148.707C42.6829 148.923 42.7542 149.166 42.7668 149.416V150.348C42.7668 150.808 42.4469 150.97 42.053 150.765L38.9763 149C38.7706 148.862 38.5995 148.679 38.4766 148.463C38.3537 148.247 38.2825 148.005 38.2686 147.756V146.824C38.2932 146.364 38.6132 146.178 38.9763 146.408Z" fill="#455A64"/>
<path d="M32.3306 142.516L35.3581 144.282C35.5656 144.417 35.7385 144.601 35.8625 144.817C35.9866 145.033 36.0583 145.276 36.0719 145.525V146.457C36.0719 146.917 35.7519 147.079 35.3581 146.874L32.3306 145.121C32.1249 144.984 31.9538 144.8 31.8309 144.584C31.708 144.368 31.6368 144.126 31.6229 143.878V142.945C31.6229 142.473 31.9429 142.286 32.3306 142.516Z" fill="#455A64"/>
<path d="M70.5192 171.271L32.8659 149.31C32.2136 148.925 31.6844 149.236 31.6844 150V151.125C31.7065 151.541 31.8249 151.945 32.0302 152.306C32.2354 152.666 32.5217 152.973 32.8659 153.201L70.5192 175.156C71.1777 175.541 71.7069 175.231 71.7069 174.466V173.341C71.6841 172.926 71.5647 172.522 71.3583 172.162C71.152 171.803 70.8645 171.497 70.5192 171.271Z" fill="#455A64"/>
<path d="M32.3921 131.925L32.5336 132.005C32.7686 132.176 32.9606 132.4 33.0942 132.659C33.2278 132.918 33.2993 133.205 33.3028 133.497V136.493C33.3028 137.065 32.9521 137.339 32.5213 137.115L32.4044 137.053C32.1669 136.89 31.9719 136.671 31.8359 136.416C31.6998 136.161 31.6268 135.876 31.6229 135.586V132.528C31.6229 131.943 31.9675 131.676 32.3921 131.925Z" fill="#FAFAFA"/>
<path d="M36.3674 134.262L36.5089 134.343C36.7442 134.512 36.9369 134.734 37.0715 134.992C37.2062 135.25 37.2791 135.536 37.2843 135.828V138.824C37.2843 139.402 36.9335 139.676 36.5028 139.446L36.3797 139.377C36.1419 139.215 35.9465 138.996 35.8104 138.741C35.6743 138.485 35.6015 138.201 35.5982 137.91V134.852C35.5982 134.274 35.9428 134.013 36.3674 134.262Z" fill="#FAFAFA"/>
<path d="M40.3486 136.593L40.4839 136.674C40.72 136.843 40.9132 137.067 41.0479 137.326C41.1826 137.585 41.255 137.873 41.2593 138.165V141.162C41.2593 141.733 40.9085 142.007 40.4778 141.783L40.3547 141.721C40.119 141.555 39.9264 141.333 39.7936 141.076C39.6607 140.818 39.5915 140.532 39.5917 140.242V137.183C39.5917 136.611 39.924 136.344 40.3486 136.593Z" fill="#FAFAFA"/>
<path d="M44.3238 138.905L44.4653 138.986C44.6994 139.156 44.8909 139.378 45.0245 139.636C45.158 139.894 45.23 140.18 45.2345 140.471V143.467C45.2345 144.046 44.8837 144.319 44.453 144.089L44.3361 144.021C44.0986 143.858 43.9035 143.639 43.7675 143.384C43.6314 143.128 43.5584 142.844 43.5546 142.554V139.527C43.5546 138.942 43.8992 138.681 44.3238 138.905Z" fill="#FAFAFA"/>
<path d="M50.994 142.771L51.1355 142.852C51.3705 143.023 51.5625 143.246 51.6961 143.505C51.8297 143.765 51.9012 144.052 51.9047 144.344V147.34C51.9047 147.912 51.554 148.185 51.1232 147.962L51.0063 147.899C50.7688 147.736 50.5738 147.518 50.4377 147.263C50.3017 147.007 50.2286 146.722 50.2248 146.432V143.374C50.2248 142.79 50.5694 142.523 50.994 142.771Z" fill="#FAFAFA"/>
<path d="M54.9754 145.121L55.117 145.202C55.3511 145.372 55.5426 145.594 55.6762 145.852C55.8097 146.11 55.8817 146.396 55.8862 146.687V149.684C55.8862 150.255 55.5354 150.529 55.1047 150.305L54.9878 150.243C54.7503 150.08 54.5552 149.862 54.4192 149.606C54.2831 149.351 54.2101 149.066 54.2063 148.776V145.718C54.2001 145.121 54.5447 144.86 54.9754 145.121Z" fill="#FAFAFA"/>
<path d="M58.9507 147.44L59.0861 147.52C59.3222 147.69 59.5154 147.914 59.6501 148.173C59.7848 148.432 59.8572 148.719 59.8614 149.012V152.008C59.8614 152.58 59.5107 152.854 59.0799 152.63L58.9569 152.561C58.7199 152.399 58.5251 152.182 58.389 151.928C58.253 151.673 58.1797 151.39 58.1754 151.101V148.042C58.1754 147.458 58.52 147.191 58.9507 147.44Z" fill="#FAFAFA"/>
<path d="M62.9259 149.777L63.0675 149.857C63.3008 150.027 63.4918 150.248 63.6253 150.505C63.7588 150.762 63.8312 151.047 63.8367 151.337V154.333C63.8367 154.905 63.4859 155.178 63.0552 154.954L62.9383 154.892C62.7 154.73 62.5044 154.512 62.3683 154.256C62.2322 154.001 62.1596 153.716 62.1568 153.425V150.367C62.1506 149.789 62.5014 149.528 62.9259 149.777Z" fill="#FAFAFA"/>
<path d="M69.5963 153.618L69.7379 153.699C69.9728 153.869 70.1648 154.093 70.2984 154.352C70.432 154.611 70.5035 154.898 70.5071 155.191V158.174C70.5071 158.746 70.1563 159.02 69.7256 158.796L69.6086 158.727C69.3705 158.567 69.1749 158.349 69.0387 158.095C68.9025 157.84 68.8299 157.556 68.8271 157.267V154.208C68.8271 153.63 69.1717 153.369 69.5963 153.618Z" fill="#FAFAFA"/>
<path d="M73.5716 155.955L73.7131 156.036C73.9514 156.209 74.1455 156.436 74.2793 156.7C74.4131 156.964 74.4827 157.256 74.4823 157.553V160.549C74.4823 161.12 74.1316 161.394 73.7008 161.17L73.5839 161.108C73.3464 160.945 73.1514 160.727 73.0154 160.471C72.8793 160.216 72.8063 159.931 72.8024 159.641V156.583C72.8209 155.967 73.147 155.688 73.5716 155.955Z" fill="#FAFAFA"/>
<path d="M77.5464 158.286L77.6879 158.367C77.9229 158.537 78.1149 158.761 78.2485 159.02C78.3821 159.28 78.4536 159.567 78.4571 159.859V162.849C78.4571 163.427 78.1125 163.7 77.6756 163.47L77.5587 163.402C77.3209 163.239 77.1256 163.021 76.9895 162.765C76.8534 162.51 76.7805 162.225 76.7772 161.935V158.883C76.7772 158.299 77.128 158.038 77.5464 158.286Z" fill="#FAFAFA"/>
<path d="M81.5278 160.617L81.6632 160.704C81.8985 160.873 82.0912 161.096 82.2258 161.354C82.3605 161.612 82.4333 161.898 82.4386 162.19V165.186C82.4386 165.758 82.0878 166.031 81.6571 165.807L81.534 165.745C81.2965 165.582 81.1015 165.364 80.9654 165.109C80.8294 164.853 80.7563 164.568 80.7525 164.278V161.22C80.7525 160.661 81.0971 160.369 81.5278 160.617Z" fill="#FAFAFA"/>
<path d="M88.2044 164.465L88.3398 164.546C88.5759 164.715 88.7691 164.939 88.9038 165.198C89.0385 165.457 89.1109 165.745 89.1152 166.037V169.027C89.1152 169.605 88.7644 169.879 88.3337 169.649L88.2106 169.58C87.9727 169.418 87.7774 169.199 87.6413 168.944C87.5052 168.688 87.4324 168.404 87.4291 168.113V165.061C87.4229 164.477 87.7675 164.216 88.2044 164.465Z" fill="#FAFAFA"/>
<path d="M92.1735 166.796L92.315 166.883C92.5491 167.053 92.7406 167.276 92.8742 167.534C93.0078 167.792 93.0797 168.078 93.0842 168.369V171.365C93.0842 171.937 92.7335 172.21 92.3027 171.986L92.1858 171.924C91.9483 171.761 91.7533 171.543 91.6172 171.287C91.4812 171.032 91.4081 170.747 91.4043 170.457V167.399C91.4043 166.815 91.7489 166.547 92.1735 166.796Z" fill="#FAFAFA"/>
<path d="M96.1488 169.133L96.2903 169.214C96.5244 169.383 96.7159 169.606 96.8495 169.864C96.9831 170.122 97.055 170.408 97.0595 170.699V173.714C97.0595 174.292 96.7087 174.566 96.278 174.336L96.1611 174.267C95.9232 174.105 95.7279 173.886 95.5918 173.631C95.4557 173.375 95.3829 173.09 95.3796 172.8V169.748C95.3796 169.145 95.7242 168.884 96.1488 169.133Z" fill="#FAFAFA"/>
<path d="M100.124 171.464L100.265 171.545C100.5 171.715 100.692 171.939 100.826 172.198C100.96 172.457 101.031 172.744 101.035 173.036V176.033C101.035 176.604 100.684 176.878 100.253 176.654L100.13 176.592C99.8925 176.429 99.6975 176.21 99.5614 175.955C99.4254 175.7 99.3523 175.415 99.3485 175.125V172.067C99.3547 171.482 99.6993 171.228 100.124 171.464Z" fill="#FAFAFA"/>
<path d="M14.0483 178.687L74.3897 242.518C75.0051 243.183 75.6204 243.382 75.9773 243.139C76.3343 242.897 76.5127 242.437 76.5127 241.647V166.255C76.4723 165.305 76.2639 164.37 75.8974 163.495C75.5505 162.541 75.0286 161.662 74.359 160.903L14.0483 97.0408C12.3065 95.2506 11.3167 92.85 11.2854 90.3401V171.973C11.3135 174.488 12.3036 176.893 14.0483 178.687Z" fill="#0A374A"/>
<path d="M15.5929 106.222C15.5113 106.222 15.4331 106.189 15.3754 106.131C15.3177 106.072 15.2852 105.993 15.2852 105.911V104.979C15.2838 104.917 15.3014 104.856 15.3356 104.805C15.3698 104.754 15.4188 104.714 15.476 104.693C15.5328 104.669 15.5952 104.663 15.6554 104.676C15.7155 104.688 15.7708 104.717 15.8144 104.761L16.4298 105.439C16.4577 105.468 16.4795 105.503 16.4939 105.542C16.5084 105.58 16.5153 105.621 16.5141 105.662C16.513 105.703 16.5039 105.743 16.4873 105.781C16.4707 105.818 16.447 105.852 16.4175 105.88C16.388 105.908 16.3533 105.93 16.3154 105.945C16.2775 105.959 16.2371 105.966 16.1965 105.965C16.1559 105.964 16.116 105.955 16.0789 105.938C16.0419 105.921 16.0085 105.897 15.9806 105.867L15.876 105.756V105.911C15.8762 105.989 15.8472 106.065 15.7947 106.122C15.7422 106.18 15.6702 106.215 15.5929 106.222Z" fill="#455A64"/>
<path d="M72.2053 230.216C72.1237 230.216 72.0454 230.184 71.9877 230.125C71.93 230.067 71.8976 229.988 71.8976 229.906V228.072C71.8976 227.989 71.93 227.91 71.9877 227.852C72.0454 227.794 72.1237 227.761 72.2053 227.761C72.2869 227.761 72.3652 227.794 72.4229 227.852C72.4806 227.91 72.513 227.989 72.513 228.072V229.906C72.513 229.988 72.4806 230.067 72.4229 230.125C72.3652 230.184 72.2869 230.216 72.2053 230.216ZM72.2053 225.324C72.1237 225.324 72.0454 225.292 71.9877 225.233C71.93 225.175 71.8976 225.096 71.8976 225.014V223.18C71.8976 223.097 71.93 223.018 71.9877 222.96C72.0454 222.902 72.1237 222.869 72.2053 222.869C72.2869 222.869 72.3652 222.902 72.4229 222.96C72.4806 223.018 72.513 223.097 72.513 223.18V225.014C72.5083 225.093 72.4738 225.167 72.4166 225.221C72.3594 225.276 72.2838 225.306 72.2053 225.306V225.324ZM72.2053 220.432C72.1237 220.432 72.0454 220.4 71.9877 220.341C71.93 220.283 71.8976 220.204 71.8976 220.122V218.257C71.8976 218.175 71.93 218.095 71.9877 218.037C72.0454 217.979 72.1237 217.946 72.2053 217.946C72.2869 217.946 72.3652 217.979 72.4229 218.037C72.4806 218.095 72.513 218.175 72.513 218.257V220.122C72.513 220.204 72.4806 220.283 72.4229 220.341C72.3652 220.4 72.2869 220.432 72.2053 220.432ZM72.2053 215.541C72.1237 215.541 72.0454 215.508 71.9877 215.45C71.93 215.391 71.8976 215.312 71.8976 215.23V213.365C71.8976 213.283 71.93 213.204 71.9877 213.145C72.0454 213.087 72.1237 213.054 72.2053 213.054C72.2869 213.054 72.3652 213.087 72.4229 213.145C72.4806 213.204 72.513 213.283 72.513 213.365V215.23C72.513 215.312 72.4806 215.391 72.4229 215.45C72.3652 215.508 72.2869 215.541 72.2053 215.541ZM72.2053 210.649C72.1237 210.649 72.0454 210.616 71.9877 210.558C71.93 210.499 71.8976 210.42 71.8976 210.338V208.523C71.8976 208.44 71.93 208.361 71.9877 208.303C72.0454 208.245 72.1237 208.212 72.2053 208.212C72.2869 208.212 72.3652 208.245 72.4229 208.303C72.4806 208.361 72.513 208.44 72.513 208.523V210.357C72.5083 210.436 72.4738 210.51 72.4166 210.564C72.3594 210.619 72.2838 210.649 72.2053 210.649ZM72.2053 205.757C72.1237 205.757 72.0454 205.724 71.9877 205.666C71.93 205.607 71.8976 205.528 71.8976 205.446V203.612C71.8976 203.53 71.93 203.451 71.9877 203.393C72.0454 203.334 72.1237 203.301 72.2053 203.301C72.2869 203.301 72.3652 203.334 72.4229 203.393C72.4806 203.451 72.513 203.53 72.513 203.612V205.446C72.513 205.528 72.4806 205.607 72.4229 205.666C72.3652 205.724 72.2869 205.757 72.2053 205.757ZM72.2053 200.865C72.1237 200.865 72.0454 200.832 71.9877 200.774C71.93 200.716 71.8976 200.636 71.8976 200.554V198.689C71.8976 198.607 71.93 198.528 71.9877 198.47C72.0454 198.411 72.1237 198.379 72.2053 198.379C72.2869 198.379 72.3652 198.411 72.4229 198.47C72.4806 198.528 72.513 198.607 72.513 198.689V200.554C72.513 200.595 72.505 200.635 72.4896 200.673C72.4741 200.711 72.4514 200.745 72.4229 200.774C72.3943 200.803 72.3604 200.826 72.323 200.841C72.2857 200.857 72.2457 200.865 72.2053 200.865ZM72.2053 195.979C72.1237 195.979 72.0454 195.946 71.9877 195.888C71.93 195.83 71.8976 195.751 71.8976 195.668V193.804C71.8976 193.721 71.93 193.642 71.9877 193.584C72.0454 193.526 72.1237 193.493 72.2053 193.493C72.2869 193.493 72.3652 193.526 72.4229 193.584C72.4806 193.642 72.513 193.721 72.513 193.804V195.668C72.513 195.709 72.505 195.75 72.4896 195.787C72.4741 195.825 72.4514 195.859 72.4229 195.888C72.3943 195.917 72.3604 195.94 72.323 195.956C72.2857 195.971 72.2457 195.979 72.2053 195.979ZM72.2053 191.087C72.1237 191.087 72.0454 191.055 71.9877 190.996C71.93 190.938 71.8976 190.859 71.8976 190.776V188.943C71.8976 188.86 71.93 188.781 71.9877 188.723C72.0454 188.665 72.1237 188.632 72.2053 188.632C72.2869 188.632 72.3652 188.665 72.4229 188.723C72.4806 188.781 72.513 188.86 72.513 188.943V190.776C72.5173 190.82 72.5125 190.864 72.499 190.905C72.4855 190.946 72.4635 190.984 72.4345 191.017C72.4055 191.049 72.3701 191.075 72.3306 191.092C72.2911 191.11 72.2484 191.119 72.2053 191.118V191.087ZM72.2053 186.195C72.1237 186.195 72.0454 186.163 71.9877 186.104C71.93 186.046 71.8976 185.967 71.8976 185.885V184.02C71.8976 183.937 71.93 183.858 71.9877 183.8C72.0454 183.742 72.1237 183.709 72.2053 183.709C72.2869 183.709 72.3652 183.742 72.4229 183.8C72.4806 183.858 72.513 183.937 72.513 184.02V185.885C72.513 185.925 72.505 185.966 72.4896 186.004C72.4741 186.041 72.4514 186.075 72.4229 186.104C72.3943 186.133 72.3604 186.156 72.323 186.172C72.2857 186.187 72.2457 186.195 72.2053 186.195ZM72.2053 181.303C72.1237 181.303 72.0454 181.271 71.9877 181.212C71.93 181.154 71.8976 181.075 71.8976 180.993V179.128C71.8976 179.045 71.93 178.966 71.9877 178.908C72.0454 178.85 72.1237 178.817 72.2053 178.817C72.2869 178.817 72.3652 178.85 72.4229 178.908C72.4806 178.966 72.513 179.045 72.513 179.128V180.993C72.513 181.033 72.505 181.074 72.4896 181.112C72.4741 181.149 72.4514 181.184 72.4229 181.212C72.3943 181.241 72.3604 181.264 72.323 181.28C72.2857 181.295 72.2457 181.303 72.2053 181.303ZM72.2053 176.412C72.1237 176.412 72.0454 176.379 71.9877 176.321C71.93 176.262 71.8976 176.183 71.8976 176.101V174.236C71.8976 174.154 71.93 174.075 71.9877 174.016C72.0454 173.958 72.1237 173.925 72.2053 173.925C72.2869 173.925 72.3652 173.958 72.4229 174.016C72.4806 174.075 72.513 174.154 72.513 174.236V176.101C72.513 176.142 72.505 176.182 72.4896 176.22C72.4741 176.257 72.4514 176.292 72.4229 176.321C72.3943 176.349 72.3604 176.372 72.323 176.388C72.2857 176.404 72.2457 176.412 72.2053 176.412ZM72.2053 171.52C72.1237 171.52 72.0454 171.487 71.9877 171.429C71.93 171.37 71.8976 171.291 71.8976 171.209V169.363C71.8976 169.28 71.93 169.201 71.9877 169.143C72.0454 169.085 72.1237 169.052 72.2053 169.052C72.2869 169.052 72.3652 169.085 72.4229 169.143C72.4806 169.201 72.513 169.28 72.513 169.363V171.227C72.5083 171.307 72.4738 171.381 72.4166 171.435C72.3594 171.49 72.2838 171.52 72.2053 171.52ZM72.2053 166.603C72.1661 166.606 72.1266 166.601 72.0894 166.589C72.0522 166.576 72.018 166.555 71.989 166.528C71.9601 166.502 71.937 166.469 71.9213 166.432C71.9055 166.396 71.8975 166.357 71.8976 166.317C71.8703 165.929 71.7788 165.549 71.6269 165.192C71.5633 165.029 71.4914 164.869 71.4115 164.713C71.3936 164.677 71.3831 164.637 71.3806 164.596C71.378 164.555 71.3835 164.514 71.3967 164.475C71.4098 164.437 71.4304 164.401 71.4572 164.37C71.4841 164.34 71.5166 164.315 71.553 164.297C71.5888 164.278 71.6281 164.266 71.6684 164.263C71.7088 164.259 71.7494 164.264 71.7879 164.277C71.8264 164.289 71.8619 164.31 71.8924 164.337C71.9229 164.364 71.9477 164.397 71.9653 164.434C72.0392 164.589 72.1191 164.763 72.1991 164.968C72.3696 165.38 72.4755 165.816 72.513 166.261C72.5148 166.347 72.4839 166.43 72.4266 166.494C72.3694 166.558 72.2902 166.597 72.2053 166.603ZM69.7439 162.581C69.66 162.579 69.5804 162.543 69.5224 162.482L68.2917 161.158C68.2354 161.098 68.205 161.017 68.2073 160.934C68.2096 160.852 68.2444 160.773 68.304 160.716C68.3635 160.66 68.443 160.629 68.525 160.631C68.6069 160.634 68.6846 160.669 68.7409 160.729L69.9716 162.053C70.0004 162.082 70.0233 162.116 70.0389 162.154C70.0545 162.192 70.0626 162.232 70.0626 162.273C70.0626 162.315 70.0545 162.355 70.0389 162.393C70.0233 162.431 70.0004 162.465 69.9716 162.494C69.91 162.552 69.8282 162.584 69.7439 162.581ZM66.4025 159.038C66.3194 159.038 66.2397 159.004 66.181 158.945L64.9503 157.615C64.9009 157.554 64.8759 157.477 64.8805 157.399C64.885 157.32 64.9187 157.247 64.9747 157.192C65.0308 157.138 65.1051 157.107 65.1827 157.106C65.2604 157.105 65.3356 157.133 65.3934 157.186L66.6241 158.516C66.6527 158.544 66.6755 158.578 66.691 158.616C66.7066 158.653 66.7146 158.693 66.7146 158.734C66.7146 158.774 66.7066 158.814 66.691 158.852C66.6755 158.889 66.6527 158.923 66.6241 158.951C66.5933 158.985 66.5547 159.011 66.5118 159.026C66.4688 159.041 66.4229 159.045 66.3779 159.038H66.4025ZM63.0366 155.501C62.9952 155.502 62.9542 155.494 62.916 155.478C62.8778 155.462 62.8434 155.438 62.815 155.408L61.5843 154.078C61.5528 154.049 61.5276 154.014 61.51 153.975C61.4925 153.937 61.4831 153.894 61.4824 153.852C61.4818 153.809 61.4898 153.766 61.5061 153.727C61.5224 153.688 61.5466 153.652 61.5772 153.622C61.6077 153.593 61.644 153.57 61.6837 153.555C61.7235 153.54 61.7658 153.534 61.808 153.536C61.8503 153.539 61.8916 153.55 61.9293 153.57C61.9671 153.589 62.0004 153.616 62.0274 153.649L63.2581 154.979C63.2867 155.007 63.3095 155.041 63.325 155.079C63.3406 155.116 63.3486 155.156 63.3486 155.197C63.3486 155.237 63.3406 155.277 63.325 155.315C63.3095 155.352 63.2867 155.386 63.2581 155.414C63.1984 155.471 63.1188 155.503 63.0366 155.501ZM59.689 151.958C59.6473 151.958 59.6059 151.95 59.5677 151.933C59.5295 151.915 59.4954 151.89 59.4675 151.859L58.2368 150.535C58.186 150.476 58.1591 150.399 58.1615 150.321C58.1639 150.243 58.1955 150.168 58.2499 150.113C58.3043 150.057 58.3776 150.024 58.455 150.02C58.5324 150.017 58.6083 150.043 58.6676 150.093L59.8983 151.417C59.9271 151.446 59.95 151.481 59.9656 151.519C59.9812 151.556 59.9893 151.597 59.9893 151.638C59.9893 151.679 59.9812 151.72 59.9656 151.758C59.95 151.795 59.9271 151.83 59.8983 151.859C59.8432 151.917 59.7686 151.953 59.689 151.958ZM56.3477 148.421C56.2638 148.419 56.1842 148.383 56.1262 148.322L54.8955 146.998C54.8666 146.969 54.8437 146.935 54.8281 146.897C54.8125 146.859 54.8044 146.818 54.8044 146.777C54.8044 146.736 54.8125 146.696 54.8281 146.658C54.8437 146.62 54.8666 146.585 54.8955 146.557C54.9235 146.528 54.957 146.505 54.994 146.489C55.031 146.473 55.0707 146.465 55.1108 146.465C55.1509 146.465 55.1906 146.473 55.2276 146.489C55.2646 146.505 55.2981 146.528 55.3262 146.557L56.5569 147.881C56.5857 147.909 56.6086 147.944 56.6242 147.982C56.6399 148.02 56.6479 148.06 56.6479 148.101C56.6479 148.142 56.6399 148.183 56.6242 148.221C56.6086 148.259 56.5857 148.293 56.5569 148.322C56.5021 148.382 56.4278 148.419 56.3477 148.428V148.421ZM53.0063 144.878C52.965 144.879 52.9241 144.871 52.886 144.855C52.8479 144.839 52.8134 144.815 52.7848 144.785L51.5541 143.455C51.5047 143.394 51.4797 143.317 51.4842 143.239C51.4888 143.161 51.5225 143.087 51.5785 143.033C51.6346 142.978 51.7089 142.948 51.7865 142.946C51.8642 142.945 51.9394 142.974 51.9971 143.026L53.2278 144.356C53.2565 144.385 53.2793 144.418 53.2948 144.456C53.3103 144.493 53.3183 144.533 53.3183 144.574C53.3183 144.614 53.3103 144.654 53.2948 144.692C53.2793 144.729 53.2565 144.763 53.2278 144.791C53.2002 144.823 53.1659 144.847 53.1276 144.863C53.0893 144.88 53.0478 144.887 53.0063 144.885V144.878ZM49.665 141.341C49.6228 141.342 49.5808 141.334 49.5417 141.318C49.5026 141.302 49.4671 141.278 49.4373 141.248L48.2066 139.918C48.1777 139.889 48.1548 139.855 48.1392 139.817C48.1236 139.779 48.1156 139.738 48.1156 139.697C48.1156 139.656 48.1236 139.616 48.1392 139.578C48.1548 139.54 48.1777 139.506 48.2066 139.477C48.2352 139.448 48.2692 139.424 48.3067 139.409C48.3442 139.393 48.3844 139.385 48.425 139.385C48.4656 139.385 48.5059 139.393 48.5433 139.409C48.5808 139.424 48.6149 139.448 48.6435 139.477L49.8742 140.807C49.9028 140.835 49.9256 140.869 49.9411 140.906C49.9567 140.944 49.9647 140.984 49.9647 141.024C49.9647 141.065 49.9567 141.105 49.9411 141.142C49.9256 141.18 49.9028 141.214 49.8742 141.242C49.8205 141.303 49.7456 141.341 49.665 141.348V141.341ZM46.3174 137.805C46.2757 137.805 46.2343 137.796 46.1961 137.779C46.1579 137.762 46.1238 137.737 46.0959 137.705L44.8652 136.381C44.8089 136.321 44.7786 136.241 44.7809 136.158C44.7832 136.075 44.818 135.997 44.8775 135.94C44.9371 135.883 45.0166 135.852 45.0985 135.855C45.1805 135.857 45.2581 135.892 45.3144 135.952L46.5451 137.276C46.574 137.305 46.5969 137.34 46.6125 137.377C46.6281 137.415 46.6361 137.456 46.6361 137.497C46.6361 137.538 46.6281 137.579 46.6125 137.616C46.5969 137.654 46.574 137.689 46.5451 137.718C46.5151 137.748 46.4796 137.771 46.4405 137.787C46.4014 137.803 46.3596 137.811 46.3174 137.811V137.805ZM42.9761 134.262C42.8929 134.261 42.8133 134.228 42.7546 134.168L41.5239 132.844C41.495 132.815 41.4721 132.781 41.4565 132.743C41.4409 132.705 41.4328 132.665 41.4328 132.624C41.4328 132.583 41.4409 132.542 41.4565 132.504C41.4721 132.466 41.495 132.432 41.5239 132.403C41.5519 132.374 41.5854 132.351 41.6224 132.335C41.6594 132.32 41.6991 132.312 41.7392 132.312C41.7793 132.312 41.819 132.32 41.856 132.335C41.893 132.351 41.9265 132.374 41.9546 132.403L43.1853 133.727C43.2141 133.756 43.237 133.79 43.2526 133.828C43.2683 133.866 43.2763 133.907 43.2763 133.948C43.2763 133.989 43.2683 134.029 43.2526 134.067C43.237 134.105 43.2141 134.139 43.1853 134.168C43.1588 134.198 43.1267 134.223 43.0907 134.24C43.0548 134.257 43.0158 134.266 42.9761 134.268V134.262ZM39.6347 130.725C39.5925 130.725 39.5506 130.718 39.5115 130.702C39.4724 130.686 39.4368 130.662 39.407 130.631L38.1763 129.301C38.1477 129.273 38.1249 129.239 38.1094 129.202C38.0938 129.164 38.0858 129.124 38.0858 129.084C38.0858 129.043 38.0938 129.003 38.1094 128.966C38.1249 128.928 38.1477 128.895 38.1763 128.866C38.2049 128.837 38.239 128.814 38.2765 128.798C38.314 128.782 38.3542 128.774 38.3948 128.774C38.4354 128.774 38.4756 128.782 38.5131 128.798C38.5506 128.814 38.5846 128.837 38.6132 128.866L39.8439 130.196C39.8726 130.225 39.8954 130.259 39.9109 130.296C39.9264 130.333 39.9344 130.373 39.9344 130.414C39.9344 130.454 39.9264 130.495 39.9109 130.532C39.8954 130.569 39.8726 130.603 39.8439 130.631C39.8177 130.662 39.7856 130.686 39.7496 130.703C39.7136 130.72 39.6745 130.73 39.6347 130.731V130.725ZM36.2872 127.188C36.2041 127.188 36.1244 127.154 36.0657 127.095L34.835 125.764C34.7787 125.704 34.7483 125.624 34.7506 125.541C34.753 125.458 34.7877 125.38 34.8473 125.323C34.9069 125.266 34.9863 125.236 35.0683 125.238C35.1502 125.24 35.2279 125.275 35.2842 125.336L36.5149 126.666C36.5443 126.694 36.5678 126.727 36.5838 126.765C36.5999 126.802 36.6081 126.843 36.6081 126.883C36.6081 126.924 36.5999 126.964 36.5838 127.002C36.5678 127.039 36.5443 127.073 36.5149 127.101C36.4849 127.131 36.4493 127.154 36.4103 127.17C36.3712 127.186 36.3294 127.194 36.2872 127.194V127.188ZM32.9458 123.651C32.9041 123.651 32.8627 123.642 32.8245 123.625C32.7863 123.608 32.7522 123.583 32.7243 123.552L31.4936 122.228C31.4648 122.199 31.4419 122.164 31.4263 122.126C31.4106 122.089 31.4026 122.048 31.4026 122.007C31.4026 121.966 31.4106 121.925 31.4263 121.887C31.4419 121.85 31.4648 121.815 31.4936 121.786C31.5217 121.757 31.5552 121.734 31.5922 121.719C31.6292 121.703 31.6689 121.695 31.709 121.695C31.7491 121.695 31.7888 121.703 31.8258 121.719C31.8628 121.734 31.8963 121.757 31.9244 121.786L33.1551 123.11C33.1839 123.139 33.2068 123.174 33.2224 123.211C33.238 123.249 33.2461 123.29 33.2461 123.331C33.2461 123.372 33.238 123.413 33.2224 123.45C33.2068 123.488 33.1839 123.523 33.1551 123.552C33.1289 123.582 33.0969 123.608 33.061 123.626C33.0251 123.644 32.9859 123.655 32.9458 123.657V123.651ZM29.6045 120.108C29.5632 120.109 29.5222 120.101 29.4841 120.085C29.446 120.069 29.4116 120.045 29.383 120.015L28.1523 118.691C28.1234 118.662 28.1005 118.627 28.0849 118.59C28.0693 118.552 28.0612 118.511 28.0612 118.47C28.0612 118.429 28.0693 118.388 28.0849 118.351C28.1005 118.313 28.1234 118.278 28.1523 118.249C28.2108 118.192 28.2892 118.16 28.3707 118.16C28.4523 118.16 28.5306 118.192 28.5892 118.249L29.8199 119.58C29.8487 119.609 29.8716 119.643 29.8872 119.681C29.9028 119.719 29.9109 119.759 29.9109 119.8C29.9109 119.841 29.9028 119.882 29.8872 119.92C29.8716 119.958 29.8487 119.992 29.8199 120.021C29.7922 120.051 29.7588 120.074 29.7217 120.09C29.6847 120.106 29.6448 120.114 29.6045 120.114V120.108ZM26.257 116.571C26.1738 116.571 26.0941 116.537 26.0354 116.478L24.8047 115.148C24.7753 115.12 24.7518 115.086 24.7358 115.049C24.7198 115.011 24.7115 114.971 24.7115 114.93C24.7115 114.889 24.7198 114.849 24.7358 114.812C24.7518 114.774 24.7753 114.74 24.8047 114.713C24.8333 114.683 24.8674 114.66 24.9049 114.645C24.9424 114.629 24.9826 114.621 25.0232 114.621C25.0638 114.621 25.104 114.629 25.1415 114.645C25.179 114.66 25.213 114.683 25.2416 114.713L26.4723 116.043C26.501 116.071 26.5238 116.105 26.5393 116.142C26.5548 116.18 26.5628 116.22 26.5628 116.26C26.5628 116.301 26.5548 116.341 26.5393 116.378C26.5238 116.416 26.501 116.45 26.4723 116.478C26.4454 116.509 26.4123 116.534 26.3752 116.551C26.3381 116.568 26.2978 116.577 26.257 116.577V116.571ZM22.9156 113.034C22.8738 113.034 22.8325 113.026 22.7943 113.009C22.7561 112.991 22.7219 112.966 22.6941 112.935L21.4634 111.611C21.4355 111.581 21.4137 111.546 21.3992 111.508C21.3848 111.469 21.3779 111.429 21.379 111.388C21.3802 111.347 21.3893 111.306 21.4059 111.269C21.4225 111.231 21.4462 111.198 21.4757 111.17C21.5052 111.141 21.5399 111.119 21.5778 111.105C21.6157 111.09 21.6561 111.083 21.6967 111.084C21.7373 111.085 21.7772 111.095 21.8142 111.111C21.8513 111.128 21.8847 111.152 21.9126 111.182L23.1433 112.506C23.1721 112.535 23.195 112.569 23.2106 112.607C23.2263 112.645 23.2343 112.686 23.2343 112.727C23.2343 112.768 23.2263 112.808 23.2106 112.846C23.195 112.884 23.1721 112.918 23.1433 112.947C23.1133 112.977 23.0777 113.001 23.0387 113.017C22.9996 113.033 22.9578 113.041 22.9156 113.041V113.034ZM19.5742 109.497C19.5323 109.498 19.4907 109.49 19.4524 109.473C19.4141 109.456 19.38 109.43 19.3527 109.398L18.122 108.074C18.0932 108.045 18.0703 108.011 18.0547 107.973C18.039 107.935 18.031 107.894 18.031 107.853C18.031 107.812 18.039 107.772 18.0547 107.734C18.0703 107.696 18.0932 107.662 18.122 107.633C18.1501 107.604 18.1836 107.581 18.2206 107.565C18.2576 107.549 18.2973 107.541 18.3374 107.541C18.3775 107.541 18.4172 107.549 18.4542 107.565C18.4912 107.581 18.5247 107.604 18.5528 107.633L19.7835 108.957C19.8123 108.986 19.8352 109.02 19.8508 109.058C19.8664 109.096 19.8745 109.136 19.8745 109.177C19.8745 109.218 19.8664 109.259 19.8508 109.297C19.8352 109.335 19.8123 109.369 19.7835 109.398C19.7573 109.429 19.7253 109.454 19.6894 109.472C19.6535 109.49 19.6143 109.501 19.5742 109.504V109.497Z" fill="#455A64"/>
<path d="M72.2053 234.207C72.1222 234.207 72.0425 234.173 71.9838 234.114L71.3685 233.436C71.3121 233.376 71.2818 233.296 71.2841 233.213C71.2864 233.13 71.3212 233.052 71.3808 232.995C71.4403 232.938 71.5198 232.907 71.6018 232.91C71.6837 232.912 71.7614 232.947 71.8177 233.007L71.9223 233.119V232.964C71.9223 232.881 71.9547 232.802 72.0124 232.744C72.0701 232.686 72.1483 232.653 72.2299 232.653C72.3115 232.653 72.3898 232.686 72.4475 232.744C72.5052 232.802 72.5376 232.881 72.5376 232.964V233.896C72.5381 233.958 72.5202 234.018 72.4862 234.069C72.4521 234.12 72.4035 234.16 72.3469 234.182C72.3029 234.203 72.2539 234.212 72.2053 234.207Z" fill="#455A64"/>
<path d="M69.4056 231.248C69.3224 231.248 69.2428 231.215 69.1841 231.155L67.898 229.781C67.8665 229.753 67.8412 229.718 67.8237 229.679C67.8062 229.64 67.7968 229.598 67.7961 229.555C67.7954 229.512 67.8035 229.47 67.8198 229.431C67.8361 229.391 67.8603 229.355 67.8908 229.326C67.9214 229.296 67.9577 229.273 67.9974 229.259C68.0371 229.244 68.0794 229.238 68.1217 229.24C68.1639 229.243 68.2052 229.254 68.243 229.273C68.2807 229.292 68.3141 229.319 68.341 229.352L69.6394 230.72C69.6683 230.749 69.6912 230.783 69.7068 230.821C69.7224 230.859 69.7304 230.9 69.7304 230.941C69.7304 230.982 69.7224 231.022 69.7068 231.06C69.6912 231.098 69.6683 231.132 69.6394 231.161C69.6082 231.191 69.5714 231.214 69.5312 231.229C69.4911 231.244 69.4484 231.25 69.4056 231.248ZM65.9535 227.593C65.9116 227.594 65.87 227.586 65.8316 227.569C65.7933 227.552 65.7593 227.526 65.732 227.494L64.4336 226.126C64.4047 226.098 64.3818 226.063 64.3662 226.025C64.3506 225.987 64.3425 225.947 64.3425 225.906C64.3425 225.865 64.3506 225.824 64.3662 225.786C64.3818 225.748 64.4047 225.714 64.4336 225.685C64.4616 225.656 64.4951 225.633 64.5321 225.617C64.5691 225.602 64.6088 225.594 64.6489 225.594C64.689 225.594 64.7288 225.602 64.7657 225.617C64.8027 225.633 64.8362 225.656 64.8643 225.685L66.1627 227.053C66.1915 227.081 66.2144 227.116 66.23 227.154C66.2457 227.192 66.2537 227.232 66.2537 227.273C66.2537 227.314 66.2457 227.355 66.23 227.393C66.2144 227.431 66.1915 227.465 66.1627 227.494C66.136 227.524 66.1038 227.548 66.0679 227.565C66.032 227.582 65.9931 227.592 65.9535 227.593ZM62.4952 223.938C62.4534 223.939 62.4121 223.93 62.3739 223.913C62.3357 223.896 62.3015 223.87 62.2737 223.839L60.9753 222.471C60.9474 222.442 60.9256 222.407 60.9111 222.368C60.8967 222.33 60.8898 222.289 60.8909 222.248C60.8921 222.207 60.9012 222.167 60.9178 222.129C60.9344 222.092 60.9581 222.058 60.9876 222.03C61.0171 222.002 61.0518 221.98 61.0897 221.965C61.1276 221.951 61.168 221.944 61.2086 221.945C61.2492 221.946 61.2891 221.955 61.3261 221.972C61.3632 221.989 61.3966 222.013 61.4245 222.043L62.7167 223.41C62.7456 223.439 62.7685 223.473 62.7841 223.511C62.7997 223.549 62.8077 223.59 62.8077 223.631C62.8077 223.672 62.7997 223.712 62.7841 223.75C62.7685 223.788 62.7456 223.823 62.7167 223.851C62.6567 223.908 62.5774 223.939 62.4952 223.938ZM59.0431 220.283C59.0005 220.283 58.9584 220.274 58.9193 220.257C58.8802 220.24 58.8449 220.215 58.8154 220.184L57.5232 218.81C57.4945 218.782 57.4717 218.748 57.4562 218.711C57.4407 218.673 57.4327 218.633 57.4327 218.593C57.4327 218.552 57.4407 218.512 57.4562 218.475C57.4717 218.437 57.4945 218.404 57.5232 218.375C57.5518 218.346 57.5858 218.323 57.6233 218.307C57.6608 218.291 57.701 218.283 57.7416 218.283C57.7822 218.283 57.8224 218.291 57.8599 218.307C57.8974 218.323 57.9315 218.346 57.9601 218.375L59.2831 219.755C59.3119 219.784 59.3348 219.818 59.3504 219.856C59.366 219.894 59.3741 219.935 59.3741 219.976C59.3741 220.017 59.366 220.057 59.3504 220.095C59.3348 220.133 59.3119 220.168 59.2831 220.196C59.2513 220.227 59.2136 220.251 59.1722 220.266C59.1309 220.281 59.0869 220.287 59.0431 220.283ZM55.591 216.604C55.5078 216.603 55.4281 216.57 55.3694 216.51L54.071 215.137C54.0216 215.076 53.9967 214.999 54.0012 214.921C54.0057 214.842 54.0394 214.769 54.0955 214.715C54.1515 214.66 54.2258 214.629 54.3035 214.628C54.3811 214.627 54.4563 214.655 54.5141 214.708L55.8125 216.082C55.8413 216.11 55.8642 216.145 55.8798 216.183C55.8954 216.221 55.9035 216.261 55.9035 216.302C55.9035 216.343 55.8954 216.384 55.8798 216.422C55.8642 216.46 55.8413 216.494 55.8125 216.523C55.783 216.551 55.7481 216.573 55.71 216.587C55.6719 216.6 55.6314 216.606 55.591 216.604ZM52.1327 212.949C52.0907 212.953 52.0484 212.948 52.0082 212.935C51.9681 212.923 51.9309 212.902 51.8988 212.874L50.6066 211.5C50.5778 211.472 50.5549 211.437 50.5393 211.399C50.5236 211.361 50.5156 211.321 50.5156 211.28C50.5156 211.239 50.5236 211.198 50.5393 211.16C50.5549 211.122 50.5778 211.088 50.6066 211.059C50.6352 211.03 50.6692 211.007 50.7067 210.991C50.7442 210.975 50.7844 210.967 50.8251 210.967C50.8657 210.967 50.9059 210.975 50.9434 210.991C50.9809 211.007 51.0149 211.03 51.0435 211.059L52.3357 212.433C52.3652 212.461 52.3886 212.494 52.4047 212.532C52.4207 212.569 52.429 212.61 52.429 212.65C52.429 212.691 52.4207 212.731 52.4047 212.769C52.3886 212.806 52.3652 212.84 52.3357 212.868C52.3095 212.898 52.2774 212.923 52.2414 212.94C52.2054 212.957 52.1663 212.966 52.1265 212.967L52.1327 212.949ZM48.6805 209.294C48.6383 209.294 48.5964 209.287 48.5573 209.271C48.5182 209.255 48.4827 209.231 48.4529 209.201L47.1606 207.827C47.1039 207.768 47.0721 207.689 47.0721 207.606C47.0721 207.524 47.1039 207.445 47.1606 207.386C47.1892 207.356 47.2233 207.333 47.2608 207.317C47.2982 207.302 47.3385 207.294 47.3791 207.294C47.4197 207.294 47.4599 207.302 47.4974 207.317C47.5349 207.333 47.5689 207.356 47.5975 207.386L48.8959 208.753C48.9248 208.782 48.9477 208.816 48.9633 208.854C48.9789 208.892 48.9869 208.933 48.9869 208.974C48.9869 209.015 48.9789 209.055 48.9633 209.093C48.9477 209.131 48.9248 209.165 48.8959 209.194C48.869 209.228 48.8354 209.256 48.7973 209.277C48.7592 209.297 48.7174 209.309 48.6744 209.312L48.6805 209.294ZM45.2223 205.639C45.1805 205.639 45.1391 205.63 45.1009 205.613C45.0628 205.596 45.0286 205.571 45.0007 205.539L43.6962 204.172C43.6674 204.143 43.6445 204.109 43.6289 204.071C43.6132 204.033 43.6052 203.992 43.6052 203.951C43.6052 203.91 43.6132 203.87 43.6289 203.832C43.6445 203.794 43.6674 203.759 43.6962 203.731C43.7243 203.702 43.7578 203.679 43.7948 203.663C43.8317 203.647 43.8715 203.639 43.9116 203.639C43.9517 203.639 43.9914 203.647 44.0284 203.663C44.0654 203.679 44.0989 203.702 44.1269 203.731L45.4253 205.098C45.4821 205.157 45.5138 205.236 45.5138 205.319C45.5138 205.401 45.4821 205.48 45.4253 205.539C45.3726 205.604 45.298 205.646 45.2161 205.657L45.2223 205.639ZM41.764 201.984C41.7222 201.984 41.6809 201.975 41.6427 201.958C41.6045 201.941 41.5703 201.916 41.5425 201.884L40.2502 200.517C40.2214 200.488 40.1985 200.454 40.1829 200.416C40.1673 200.378 40.1592 200.337 40.1592 200.296C40.1592 200.255 40.1673 200.215 40.1829 200.177C40.1985 200.139 40.2214 200.104 40.2502 200.076C40.2788 200.046 40.3129 200.023 40.3504 200.008C40.3878 199.992 40.4281 199.984 40.4687 199.984C40.5093 199.984 40.5495 199.992 40.587 200.008C40.6245 200.023 40.6585 200.046 40.6871 200.076L41.9794 201.443C42.0082 201.472 42.0311 201.506 42.0467 201.544C42.0623 201.582 42.0704 201.623 42.0704 201.664C42.0704 201.705 42.0623 201.745 42.0467 201.783C42.0311 201.821 42.0082 201.856 41.9794 201.884C41.9522 201.918 41.9186 201.946 41.8805 201.966C41.8425 201.987 41.8007 201.999 41.7578 202.003L41.764 201.984ZM38.3119 198.329C38.2702 198.328 38.2291 198.319 38.191 198.302C38.1529 198.285 38.1187 198.26 38.0903 198.229L36.792 196.856C36.7425 196.795 36.7176 196.718 36.7221 196.64C36.7266 196.562 36.7603 196.488 36.8164 196.434C36.8724 196.379 36.9467 196.348 37.0244 196.347C37.102 196.346 37.1773 196.374 37.235 196.427L38.5334 197.801C38.5622 197.829 38.5851 197.864 38.6007 197.902C38.6164 197.94 38.6244 197.98 38.6244 198.021C38.6244 198.062 38.6164 198.103 38.6007 198.141C38.5851 198.179 38.5622 198.213 38.5334 198.242C38.5052 198.275 38.4702 198.302 38.4309 198.32C38.3917 198.338 38.3489 198.347 38.3057 198.348L38.3119 198.329ZM34.8536 194.668C34.7704 194.668 34.6908 194.634 34.6321 194.575L33.3337 193.201C33.305 193.172 33.2823 193.139 33.2667 193.101C33.2512 193.064 33.2432 193.024 33.2432 192.983C33.2432 192.943 33.2512 192.903 33.2667 192.865C33.2823 192.828 33.305 192.794 33.3337 192.766C33.3623 192.737 33.3963 192.713 33.4338 192.698C33.4713 192.682 33.5115 192.674 33.5521 192.674C33.5927 192.674 33.633 192.682 33.6704 192.698C33.7079 192.713 33.742 192.737 33.7706 192.766L35.0628 194.139C35.1196 194.199 35.1513 194.278 35.1513 194.36C35.1513 194.442 35.1196 194.522 35.0628 194.581C35.0069 194.642 34.9299 194.68 34.8474 194.686L34.8536 194.668ZM31.3953 191.013C31.3122 191.013 31.2325 190.979 31.1738 190.92L29.8815 189.546C29.8527 189.517 29.8298 189.483 29.8142 189.445C29.7986 189.407 29.7905 189.366 29.7905 189.325C29.7905 189.284 29.7986 189.244 29.8142 189.206C29.8298 189.168 29.8527 189.133 29.8815 189.105C29.9102 189.075 29.9442 189.052 29.9817 189.037C30.0192 189.021 30.0594 189.013 30.1 189.013C30.1406 189.013 30.1808 189.021 30.2183 189.037C30.2558 189.052 30.2898 189.075 30.3184 189.105L31.5922 190.497C31.6209 190.525 31.6436 190.559 31.6592 190.596C31.6747 190.634 31.6827 190.674 31.6827 190.714C31.6827 190.755 31.6747 190.795 31.6592 190.832C31.6436 190.87 31.6209 190.904 31.5922 190.932C31.5667 190.962 31.5356 190.986 31.5007 191.003C31.4658 191.02 31.4279 191.03 31.3892 191.031L31.3953 191.013ZM27.937 187.389C27.8958 187.39 27.8548 187.382 27.8167 187.366C27.7786 187.35 27.7441 187.326 27.7155 187.296L26.4171 185.922C26.3883 185.893 26.3654 185.859 26.3498 185.821C26.3341 185.783 26.3261 185.742 26.3261 185.701C26.3261 185.66 26.3341 185.62 26.3498 185.582C26.3654 185.544 26.3883 185.51 26.4171 185.481C26.4452 185.452 26.4787 185.429 26.5157 185.413C26.5527 185.397 26.5924 185.389 26.6325 185.389C26.6726 185.389 26.7123 185.397 26.7493 185.413C26.7863 185.429 26.8198 185.452 26.8479 185.481L28.1463 186.848C28.1751 186.877 28.198 186.911 28.2136 186.949C28.2292 186.987 28.2373 187.028 28.2373 187.069C28.2373 187.11 28.2292 187.151 28.2136 187.188C28.198 187.226 28.1751 187.261 28.1463 187.29C28.1196 187.319 28.0874 187.343 28.0515 187.36C28.0156 187.377 27.9767 187.387 27.937 187.389ZM24.4788 183.734C24.437 183.734 24.3956 183.725 24.3574 183.708C24.3192 183.691 24.2851 183.666 24.2572 183.635L22.9773 182.255C22.921 182.194 22.8907 182.114 22.893 182.031C22.8953 181.949 22.93 181.87 22.9896 181.813C23.0492 181.756 23.1287 181.726 23.2106 181.728C23.2925 181.73 23.3702 181.766 23.4265 181.826L24.7187 183.193C24.7476 183.222 24.7705 183.257 24.7861 183.294C24.8017 183.332 24.8098 183.373 24.8098 183.414C24.8098 183.455 24.8017 183.496 24.7861 183.533C24.7705 183.571 24.7476 183.606 24.7187 183.635C24.6868 183.665 24.649 183.688 24.6077 183.703C24.5664 183.718 24.5225 183.724 24.4788 183.722V183.734ZM21.0205 180.079C20.9787 180.079 20.9373 180.071 20.8992 180.053C20.861 180.036 20.8268 180.011 20.799 179.98L19.5067 178.612C19.4752 178.584 19.4499 178.549 19.4324 178.51C19.4149 178.471 19.4055 178.429 19.4048 178.386C19.4041 178.343 19.4122 178.301 19.4285 178.261C19.4448 178.222 19.469 178.186 19.4996 178.157C19.5301 178.127 19.5664 178.104 19.6061 178.089C19.6458 178.075 19.6882 178.068 19.7304 178.071C19.7727 178.073 19.814 178.085 19.8517 178.104C19.8894 178.123 19.9228 178.15 19.9498 178.183L21.2482 179.551C21.277 179.58 21.2999 179.614 21.3155 179.652C21.3311 179.69 21.3392 179.73 21.3392 179.771C21.3392 179.812 21.3311 179.853 21.3155 179.891C21.2999 179.929 21.277 179.963 21.2482 179.992C21.1847 180.046 21.1031 180.072 21.0205 180.067V180.079ZM17.5684 176.424C17.5267 176.424 17.4856 176.414 17.4475 176.397C17.4094 176.38 17.3752 176.356 17.3468 176.325L16.9407 175.896C16.6258 175.567 16.3473 175.204 16.11 174.814C16.0675 174.743 16.0547 174.658 16.0743 174.578C16.094 174.497 16.1444 174.428 16.2146 174.385C16.2848 174.342 16.3689 174.33 16.4485 174.349C16.5282 174.369 16.5967 174.42 16.6392 174.491C16.8548 174.84 17.1042 175.167 17.3838 175.467L17.7899 175.896C17.8187 175.925 17.8416 175.959 17.8572 175.997C17.8729 176.035 17.8809 176.075 17.8809 176.116C17.8809 176.157 17.8729 176.198 17.8572 176.236C17.8416 176.274 17.8187 176.308 17.7899 176.337C17.7597 176.364 17.7246 176.384 17.6866 176.397C17.6485 176.41 17.6083 176.415 17.5684 176.412V176.424ZM15.5931 171.942C15.5115 171.942 15.4332 171.91 15.3755 171.851C15.3178 171.793 15.2854 171.714 15.2854 171.632V169.736C15.2854 169.653 15.3178 169.574 15.3755 169.516C15.4332 169.458 15.5115 169.425 15.5931 169.425C15.6747 169.425 15.7529 169.458 15.8106 169.516C15.8683 169.574 15.9008 169.653 15.9008 169.736V171.632C15.9008 171.714 15.8683 171.793 15.8106 171.851C15.7529 171.91 15.6747 171.942 15.5931 171.942ZM15.5931 166.877C15.5115 166.877 15.4332 166.844 15.3755 166.785C15.3178 166.727 15.2854 166.648 15.2854 166.566V164.67C15.2854 164.587 15.3178 164.508 15.3755 164.45C15.4332 164.392 15.5115 164.359 15.5931 164.359C15.6747 164.359 15.7529 164.392 15.8106 164.45C15.8683 164.508 15.9008 164.587 15.9008 164.67V166.566C15.9008 166.648 15.8683 166.727 15.8106 166.785C15.7529 166.844 15.6747 166.877 15.5931 166.877ZM15.5931 161.817C15.5115 161.817 15.4332 161.784 15.3755 161.726C15.3178 161.667 15.2854 161.588 15.2854 161.506V159.641C15.2854 159.559 15.3178 159.48 15.3755 159.421C15.4332 159.363 15.5115 159.33 15.5931 159.33C15.6747 159.33 15.7529 159.363 15.8106 159.421C15.8683 159.48 15.9008 159.559 15.9008 159.641V161.506C15.9024 161.548 15.8957 161.59 15.881 161.629C15.8662 161.668 15.8438 161.704 15.8151 161.734C15.7864 161.764 15.7519 161.788 15.7137 161.804C15.6756 161.821 15.6345 161.829 15.5931 161.829V161.817ZM15.5931 156.763C15.5115 156.763 15.4332 156.731 15.3755 156.672C15.3178 156.614 15.2854 156.535 15.2854 156.452V154.569C15.2854 154.487 15.3178 154.408 15.3755 154.349C15.4332 154.291 15.5115 154.258 15.5931 154.258C15.6747 154.258 15.7529 154.291 15.8106 154.349C15.8683 154.408 15.9008 154.487 15.9008 154.569V156.465C15.9008 156.547 15.8683 156.626 15.8106 156.685C15.7529 156.743 15.6747 156.776 15.5931 156.776V156.763ZM15.5931 151.71C15.5115 151.71 15.4332 151.677 15.3755 151.619C15.3178 151.56 15.2854 151.481 15.2854 151.399V149.503C15.2854 149.421 15.3178 149.342 15.3755 149.283C15.4332 149.225 15.5115 149.192 15.5931 149.192C15.6747 149.192 15.7529 149.225 15.8106 149.283C15.8683 149.342 15.9008 149.421 15.9008 149.503V151.399C15.9024 151.441 15.8957 151.483 15.881 151.522C15.8662 151.561 15.8438 151.597 15.8151 151.627C15.7864 151.657 15.7519 151.681 15.7137 151.697C15.6756 151.714 15.6345 151.722 15.5931 151.722V151.71ZM15.5931 146.656C15.5115 146.656 15.4332 146.623 15.3755 146.565C15.3178 146.507 15.2854 146.428 15.2854 146.345V144.45C15.2854 144.367 15.3178 144.288 15.3755 144.23C15.4332 144.172 15.5115 144.139 15.5931 144.139C15.6747 144.139 15.7529 144.172 15.8106 144.23C15.8683 144.288 15.9008 144.367 15.9008 144.45V146.364C15.8991 146.445 15.866 146.523 15.8085 146.58C15.751 146.637 15.6736 146.669 15.5931 146.669V146.656ZM15.5931 141.596C15.5115 141.596 15.4332 141.564 15.3755 141.505C15.3178 141.447 15.2854 141.368 15.2854 141.286V139.421C15.2854 139.338 15.3178 139.259 15.3755 139.201C15.4332 139.143 15.5115 139.11 15.5931 139.11C15.6747 139.11 15.7529 139.143 15.8106 139.201C15.8683 139.259 15.9008 139.338 15.9008 139.421V141.286C15.9024 141.328 15.8957 141.369 15.881 141.408C15.8662 141.448 15.8438 141.483 15.8151 141.514C15.7864 141.544 15.7519 141.568 15.7137 141.584C15.6756 141.601 15.6345 141.609 15.5931 141.609V141.596ZM15.5931 136.543C15.5115 136.543 15.4332 136.51 15.3755 136.452C15.3178 136.394 15.2854 136.315 15.2854 136.232V134.336C15.2854 134.254 15.3178 134.175 15.3755 134.117C15.4332 134.058 15.5115 134.026 15.5931 134.026C15.6747 134.026 15.7529 134.058 15.8106 134.117C15.8683 134.175 15.9008 134.254 15.9008 134.336V136.232C15.9024 136.274 15.8957 136.316 15.881 136.355C15.8662 136.394 15.8438 136.43 15.8151 136.46C15.7864 136.49 15.7519 136.514 15.7137 136.531C15.6756 136.547 15.6345 136.555 15.5931 136.555V136.543ZM15.5931 131.489C15.5115 131.489 15.4332 131.457 15.3755 131.398C15.3178 131.34 15.2854 131.261 15.2854 131.179V129.283C15.2854 129.2 15.3178 129.121 15.3755 129.063C15.4332 129.005 15.5115 128.972 15.5931 128.972C15.6747 128.972 15.7529 129.005 15.8106 129.063C15.8683 129.121 15.9008 129.2 15.9008 129.283V131.179C15.9024 131.22 15.8957 131.262 15.881 131.301C15.8662 131.341 15.8438 131.376 15.8151 131.406C15.7864 131.437 15.7519 131.461 15.7137 131.477C15.6756 131.493 15.6345 131.502 15.5931 131.502V131.489ZM15.5931 126.473C15.5115 126.473 15.4332 126.44 15.3755 126.382C15.3178 126.324 15.2854 126.245 15.2854 126.162V124.267C15.2854 124.184 15.3178 124.105 15.3755 124.047C15.4332 123.989 15.5115 123.956 15.5931 123.956C15.6747 123.956 15.7529 123.989 15.8106 124.047C15.8683 124.105 15.9008 124.184 15.9008 124.267V126.162C15.9008 126.245 15.8683 126.324 15.8106 126.382C15.7529 126.44 15.6747 126.473 15.5931 126.473ZM15.5931 121.413C15.5115 121.413 15.4332 121.381 15.3755 121.322C15.3178 121.264 15.2854 121.185 15.2854 121.103V119.238C15.2854 119.155 15.3178 119.076 15.3755 119.018C15.4332 118.96 15.5115 118.927 15.5931 118.927C15.6747 118.927 15.7529 118.96 15.8106 119.018C15.8683 119.076 15.9008 119.155 15.9008 119.238V121.103C15.8946 121.181 15.8594 121.254 15.8024 121.307C15.7453 121.36 15.6706 121.389 15.5931 121.389V121.413ZM15.5931 116.36C15.5115 116.36 15.4332 116.327 15.3755 116.269C15.3178 116.211 15.2854 116.132 15.2854 116.049V114.184C15.2854 114.102 15.3178 114.023 15.3755 113.965C15.4332 113.906 15.5115 113.874 15.5931 113.874C15.6747 113.874 15.7529 113.906 15.8106 113.965C15.8683 114.023 15.9008 114.102 15.9008 114.184V116.049C15.8946 116.127 15.8594 116.2 15.8024 116.253C15.7453 116.306 15.6706 116.335 15.5931 116.335V116.36ZM15.5931 111.306C15.5115 111.306 15.4332 111.274 15.3755 111.215C15.3178 111.157 15.2854 111.078 15.2854 110.996V109.131C15.2854 109.048 15.3178 108.969 15.3755 108.911C15.4332 108.853 15.5115 108.82 15.5931 108.82C15.6747 108.82 15.7529 108.853 15.8106 108.911C15.8683 108.969 15.9008 109.048 15.9008 109.131V110.996C15.8946 111.074 15.8594 111.146 15.8024 111.199C15.7453 111.253 15.6706 111.282 15.5931 111.282V111.306Z" fill="#455A64"/>
<path d="M80.1065 161.058L75.9282 163.501C76.2948 164.377 76.5032 165.311 76.5436 166.261V241.647C76.5436 242.437 76.3405 242.94 76.0082 243.139L80.1188 240.74C80.4511 240.547 80.6603 240.037 80.6603 239.248V163.862C80.6478 162.901 80.46 161.95 80.1065 161.058Z" fill="#263238"/>
<path d="M65.4856 192.362C65.4196 190.149 64.6322 188.021 63.2457 186.307C62.015 185.002 61.0058 185.586 61.0058 187.619C61.0717 189.829 61.8592 191.956 63.2457 193.667C64.4825 194.96 65.4856 194.375 65.4856 192.362Z" fill="#FAFAFA"/>
<path d="M122.744 164.906L133.119 170.954L122.744 177.002V164.906Z" fill="#37474F"/>
<path d="M130.621 172.415L132.953 171.053C133.274 170.943 133.553 170.734 133.751 170.455C133.949 170.177 134.055 169.842 134.055 169.5C134.055 169.157 133.949 168.822 133.751 168.544C133.553 168.265 133.274 168.056 132.953 167.946L122.75 161.991V164.906L129.876 169.058C129.951 169.103 130.014 169.167 130.057 169.244C130.1 169.321 130.123 169.408 130.123 169.496C130.123 169.585 130.1 169.672 130.057 169.749C130.014 169.825 129.951 169.889 129.876 169.935L128.128 170.954L130.621 172.415Z" fill="#455A64"/>
<path d="M115.951 178.065C113.009 179.781 110.622 183.784 110.622 187.004C110.622 188.557 111.176 189.645 112.08 190.161C112.985 190.677 114.615 191.634 114.615 191.634L130.455 181.266C130.759 181.132 131.022 180.918 131.216 180.645C131.41 180.373 131.527 180.053 131.556 179.718V168.039C131.528 168.374 131.411 168.696 131.217 168.969C131.024 169.243 130.76 169.458 130.455 169.593L115.951 178.065Z" fill="#455A64"/>
<path d="M118.449 179.507C115.508 181.223 113.12 185.226 113.12 188.446C113.12 191.665 115.508 192.884 118.449 191.168L132.953 182.708C133.257 182.574 133.52 182.36 133.714 182.087C133.908 181.815 134.026 181.495 134.054 181.161V169.5C134.027 169.835 133.91 170.156 133.716 170.43C133.522 170.703 133.258 170.919 132.953 171.053L118.449 179.507Z" fill="#37474F"/>
<path d="M119.353 181.254C121.046 180.265 122.43 181.067 122.43 183.038C122.372 184.113 122.063 185.16 121.528 186.092C120.994 187.024 120.248 187.816 119.353 188.402C117.667 189.39 116.277 188.588 116.277 186.612C116.336 185.537 116.645 184.492 117.18 183.561C117.715 182.63 118.459 181.839 119.353 181.254Z" fill="#FAFAFA"/>
<path d="M78.5003 158.51L17.3835 93.821C16.8181 93.2302 16.3876 92.5216 16.1221 91.7449L14.0483 97.0408L74.3898 160.909C75.0564 161.669 75.5762 162.548 75.922 163.501L80.1064 161.058C79.7415 160.111 79.1958 159.245 78.5003 158.51Z" fill="#455A64"/>
<path d="M102.16 27.1152C102.16 41.9814 90.1084 54.0327 75.2423 54.0327C67.4054 54.0327 60.3508 50.684 55.4321 45.3389C54.14 43.9359 52.9963 42.3945 52.0229 40.741C49.6728 36.744 48.3248 32.0867 48.3248 27.1152C48.3248 12.2491 60.3761 0.197754 75.2423 0.197754C80.2149 0.197754 84.8721 1.54583 88.868 3.89699C90.5215 4.86931 92.0619 6.01303 93.4649 7.30617C98.8099 12.2227 102.16 19.2784 102.16 27.1152Z" fill="#F0CD00"/>
<path d="M102.16 27.1152C102.16 41.6463 90.6468 53.4878 76.2443 54.0141C61.8418 53.4878 50.3288 41.6463 50.3288 27.1152C50.3288 12.5842 61.8418 0.742695 76.2443 0.216431C90.6468 0.742695 102.16 12.5842 102.16 27.1152Z" fill="#FFDE50"/>
<path d="M93.4649 7.30628L55.4321 45.3391C54.1401 43.936 52.9964 42.3946 52.0229 40.7411L88.8681 3.89709C90.5216 4.86942 92.0619 6.01314 93.4649 7.30628Z" fill="#FFEA94"/>
<path d="M100.303 17.2745L65.4005 52.1772C62.9295 51.206 60.6366 49.8799 58.5854 48.2615L96.3885 10.4584C98.0069 12.5096 99.333 14.8025 100.303 17.2745Z" fill="#FFEA94"/>
<path d="M96.1589 27.1153C96.1589 38.6667 86.7938 48.0318 75.2423 48.0318C71.219 48.0318 67.4615 46.8958 64.2721 44.927C62.8823 44.07 61.6012 43.0537 60.452 41.9045C59.6071 41.0607 58.8337 40.1433 58.1426 39.1644C57.1911 37.8164 56.3946 36.3507 55.7804 34.7939C54.8707 32.4922 54.3588 29.9894 54.328 27.3724C54.3258 27.2867 54.3258 27.201 54.3258 27.1153C54.3258 15.5638 63.6898 6.19873 75.2423 6.19873C75.328 6.19873 75.4148 6.19873 75.5005 6.20093C78.1176 6.23169 80.6193 6.74477 82.921 7.65337C84.4778 8.26863 85.9434 9.06407 87.2915 10.0155C88.2704 10.7077 89.1867 11.4801 90.0316 12.3249C91.1808 13.473 92.1971 14.7552 93.054 16.145C95.0229 19.3345 96.1589 23.0919 96.1589 27.1153Z" fill="#FAA300"/>
<path d="M90.0316 12.3249L60.452 41.9045C59.6071 41.0607 58.8337 40.1433 58.1426 39.1644C57.1911 37.8164 56.3946 36.3507 55.7804 34.7939C54.8707 32.4922 54.3588 29.9894 54.328 27.3724C54.3258 27.2867 54.3258 27.201 54.3258 27.1153C54.3258 15.5638 63.6898 6.19873 75.2423 6.19873C75.328 6.19873 75.4148 6.19873 75.5005 6.20093C78.1176 6.23169 80.6193 6.74477 82.921 7.65337C84.4778 8.26863 85.9434 9.06407 87.2915 10.0155C88.2704 10.7077 89.1867 11.4801 90.0316 12.3249Z" fill="#FFBD00"/>
<path d="M96.1584 27.1153C96.1584 38.6667 86.7933 48.0318 75.2419 48.0318C74.8452 48.0318 74.4519 48.0208 74.0608 47.9989C85.0629 47.3869 93.7952 38.2701 93.7952 27.1153C93.7952 15.9604 85.0629 6.84365 74.0608 6.23169C74.4519 6.20972 74.8452 6.19873 75.2419 6.19873C86.7933 6.19873 96.1584 15.5638 96.1584 27.1153Z" fill="#F68E00"/>
<path d="M74.5533 25.5081V17.0372C75.8735 17.7655 76.77 19.1712 76.77 20.7826C76.77 21.9193 77.6915 22.8408 78.8282 22.8408C79.9648 22.8408 80.8863 21.9193 80.8863 20.7826C80.8863 16.8657 78.1883 13.5677 74.5533 12.6477V10.9725C74.5533 9.83576 73.6319 8.91431 72.4952 8.91431C71.3585 8.91431 70.437 9.83576 70.437 10.9725V12.6476C66.8021 13.5677 64.1041 16.8656 64.1041 20.7825C64.1041 23.1213 64.791 24.945 66.204 26.3581C67.2342 27.3883 68.6027 28.1507 70.437 28.7095V37.1937C69.1169 36.4654 68.2204 35.0599 68.2204 33.4485C68.2204 32.3118 67.2989 31.3903 66.1622 31.3903C65.0255 31.3903 64.1041 32.3118 64.1041 33.4485C64.1041 37.3653 66.8021 40.6632 70.437 41.5834V43.2585C70.437 44.3952 71.3585 45.3167 72.4952 45.3167C73.6319 45.3167 74.5533 44.3952 74.5533 43.2585V41.5834C78.1883 40.6632 80.8863 37.3654 80.8863 33.4485C80.8863 31.1421 80.17 29.2565 78.7573 27.8438C77.7306 26.817 76.345 26.0472 74.5533 25.5081ZM69.1147 23.4474C68.6983 23.0312 68.2205 22.352 68.2205 20.7825C68.2205 19.1711 69.117 17.7655 70.4371 17.0371V24.3231C69.882 24.066 69.4425 23.7754 69.1147 23.4474ZM74.5533 37.1937V29.8852C76.3421 30.7183 76.77 31.91 76.77 33.4485C76.77 35.0599 75.8735 36.4654 74.5533 37.1937Z" fill="#F68E00"/>
<path d="M77.3002 25.5081V17.0372C78.6204 17.7655 79.5169 19.1712 79.5169 20.7826C79.5169 21.9193 80.4384 22.8408 81.575 22.8408C82.7117 22.8408 83.6332 21.9193 83.6332 20.7826C83.6332 16.8657 80.9352 13.5677 77.3002 12.6477V10.9725C77.3002 9.83576 76.3788 8.91431 75.2421 8.91431C74.1054 8.91431 73.1839 9.83576 73.1839 10.9725V12.6476C69.549 13.5677 66.851 16.8656 66.851 20.7825C66.851 23.1213 67.5378 24.945 68.9508 26.3581C69.9811 27.3883 71.3496 28.1507 73.1839 28.7095V37.1937C71.8638 36.4654 70.9672 35.0599 70.9672 33.4485C70.9672 32.3118 70.0458 31.3903 68.9091 31.3903C67.7724 31.3903 66.851 32.3118 66.851 33.4485C66.851 37.3653 69.549 40.6632 73.1839 41.5834V43.2585C73.1839 44.3952 74.1054 45.3167 75.2421 45.3167C76.3788 45.3167 77.3002 44.3952 77.3002 43.2585V41.5834C80.9352 40.6632 83.6332 37.3654 83.6332 33.4485C83.6332 31.1421 82.9169 29.2565 81.5042 27.8438C80.4775 26.817 79.0918 26.0472 77.3002 25.5081ZM71.8615 23.4474C71.4451 23.0312 70.9672 22.352 70.9672 20.7825C70.9672 19.1711 71.8638 17.7655 73.1839 17.0371V24.3231C72.6289 24.066 72.1894 23.7754 71.8615 23.4474ZM77.3002 37.1937V29.8852C79.089 30.7183 79.5169 31.91 79.5169 33.4485C79.5168 35.0599 78.6204 36.4654 77.3002 37.1937Z" fill="#FFEA94"/>
</svg>
