<svg width="209" height="215" viewBox="0 0 209 215" fill="none" xmlns="http://www.w3.org/2000/svg">
<path d="M137.868 97.5222L37.3623 106.363L46.5741 211.799L147.079 202.958L137.868 97.5222Z" fill="#00C2BE"/>
<path d="M90.11 101.725L6.86084 109.048L16.0726 214.484L99.3218 207.161L90.11 101.725Z" fill="#00C2BE"/>
<path d="M39.6902 109.52L49.2935 211.551L62.4562 210.388L51.4989 108.469L39.6902 109.52Z" fill="#FAFAFA"/>
<path d="M12.0249 166.943C12.0249 166.943 12.8205 166.901 14.2163 166.663C16.1605 166.374 18.0456 165.774 19.7997 164.884C22.4049 163.558 24.6294 161.586 26.2624 159.156C28.2134 156.147 29.0848 152.56 28.733 148.988C28.447 145.412 26.9265 142.049 24.4338 139.478C22.6796 137.766 20.5552 136.484 18.2261 135.731C15.8971 134.978 13.4262 134.774 11.0059 135.136C9.6101 135.36 8.89823 135.64 8.87031 135.57C8.84239 135.5 9.03781 135.458 9.38677 135.332C9.8988 135.131 10.4263 134.972 10.9641 134.856C12.9535 134.449 15.0046 134.449 16.9941 134.856C20.3196 135.486 23.3445 137.201 25.5987 139.733C27.8529 142.266 29.2099 145.475 29.4588 148.862C29.833 152.637 28.8854 156.425 26.7788 159.576C25.0612 162.079 22.7166 164.084 19.9811 165.388C18.1706 166.263 16.2178 166.804 14.2163 166.985C13.6678 167.018 13.1178 167.018 12.5693 166.985C12.3867 166.999 12.2032 166.984 12.0249 166.943Z" fill="#FAFAFA"/>
<path d="M98.8177 146.467C98.6876 145.252 98.4872 144.045 98.2175 142.854C97.3624 139.647 95.4604 136.822 92.8156 134.828C90.8742 133.367 88.5994 132.415 86.1982 132.061C83.797 131.706 81.3454 131.959 79.0666 132.798C77.7496 133.27 76.5118 133.941 75.3956 134.786C74.2232 135.643 73.1958 136.683 72.3527 137.868C70.5265 140.352 69.5412 143.359 69.5412 146.446C69.5412 149.533 70.5265 152.54 72.3527 155.024C73.2045 156.21 74.2359 157.254 75.4096 158.12C76.5292 158.96 77.7662 159.63 79.0806 160.108C80.9922 160.802 83.0267 161.089 85.0548 160.952C87.0829 160.814 89.0604 160.255 90.8614 159.309C92.6625 158.363 94.2478 157.052 95.5165 155.458C96.7853 153.865 97.7099 152.024 98.2314 150.052C98.4982 148.865 98.6986 147.663 98.8316 146.453C98.9178 147.685 98.8094 148.924 98.5106 150.122C97.8392 152.922 96.3773 155.469 94.3002 157.456C92.223 159.443 89.6188 160.787 86.7996 161.327C84.1404 161.842 81.3922 161.629 78.8433 160.711C77.4684 160.221 76.1745 159.527 75.0048 158.652C73.7633 157.767 72.6701 156.689 71.7664 155.459C69.8443 152.852 68.8069 149.695 68.8069 146.453C68.8069 143.211 69.8443 140.054 71.7664 137.447C73.5534 135.03 76.0097 133.194 78.8294 132.167C81.3786 131.252 84.1248 131.034 86.7856 131.537C89.602 132.083 92.2029 133.43 94.2789 135.416C96.355 137.402 97.8189 139.945 98.4966 142.742C98.8014 143.958 98.9098 145.216 98.8177 146.467Z" fill="#FAFAFA"/>
<path d="M142.326 130.248C140.084 130.463 137.896 131.069 135.863 132.041C133.458 133.269 131.438 135.142 130.027 137.45C128.616 139.759 127.87 142.414 127.87 145.122C127.87 147.83 128.616 150.486 130.027 152.794C131.438 155.103 133.458 156.975 135.863 158.204C137.896 159.175 140.084 159.782 142.326 159.996C142.326 159.996 142.158 159.996 141.851 159.996C141.386 160.022 140.92 160.022 140.455 159.996C138.764 159.832 137.118 159.357 135.598 158.596C133.797 157.731 132.188 156.512 130.867 155.01C129.546 153.509 128.539 151.756 127.907 149.856C127.414 148.326 127.155 146.73 127.139 145.122C127.153 141.995 128.128 138.948 129.931 136.397C131.405 134.351 133.375 132.717 135.654 131.649C137.173 130.886 138.82 130.411 140.511 130.248C140.976 130.214 141.442 130.214 141.907 130.248C142.158 130.248 142.326 130.248 142.326 130.248Z" fill="#FAFAFA"/>
<path d="M134.007 187.307C133.876 186.097 133.676 184.895 133.406 183.708C132.545 180.501 130.638 177.676 127.991 175.682C126.048 174.222 123.773 173.272 121.372 172.92C118.97 172.568 116.519 172.824 114.242 173.666C112.91 174.129 111.658 174.795 110.529 175.64C109.355 176.501 108.324 177.54 107.472 178.722C105.65 181.208 104.667 184.214 104.667 187.3C104.667 190.386 105.65 193.392 107.472 195.878C108.324 197.064 109.355 198.108 110.529 198.974C111.643 199.814 112.876 200.484 114.186 200.963C116.624 201.852 119.253 202.079 121.807 201.621C124.055 201.208 126.174 200.268 127.991 198.876C130.64 196.89 132.548 194.069 133.406 190.864C133.673 189.677 133.874 188.475 134.007 187.265C134.093 188.493 133.985 189.727 133.686 190.921C133.008 193.717 131.544 196.26 129.468 198.246C127.392 200.233 124.791 201.579 121.975 202.125C119.315 202.64 116.567 202.427 114.018 201.509C111.194 200.484 108.736 198.641 106.955 196.215C105.034 193.61 103.998 190.456 103.998 187.216C103.998 183.976 105.034 180.822 106.955 178.217C108.742 175.8 111.199 173.964 114.018 172.937C116.567 172.022 119.314 171.804 121.975 172.307C124.283 172.759 126.453 173.747 128.312 175.192C131.01 177.29 132.903 180.258 133.672 183.596C133.983 184.806 134.096 186.06 134.007 187.307Z" fill="#FAFAFA"/>
<path d="M65.8623 209.464C65.3702 207.263 64.5012 205.163 63.294 203.26C61.7769 201.021 59.6727 199.246 57.2136 198.131C54.7546 197.016 52.0363 196.605 49.359 196.942C46.6816 197.28 44.1493 198.353 42.0416 200.044C39.934 201.735 38.3329 203.977 37.4152 206.523C36.7099 208.667 36.384 210.919 36.4521 213.176C36.4521 213.176 36.4521 213.022 36.3404 212.713C36.2634 212.25 36.2168 211.782 36.2009 211.313C36.1404 209.621 36.3863 207.931 36.9267 206.327C37.7168 203.917 39.1106 201.752 40.9746 200.038C42.0782 199.025 43.3245 198.18 44.6736 197.531C46.1258 196.836 47.6738 196.364 49.2658 196.131C52.3586 195.753 55.4922 196.34 58.241 197.811C60.4686 199.015 62.3522 200.77 63.7127 202.91C64.6372 204.327 65.2948 205.903 65.6529 207.559C65.7486 208.021 65.8139 208.489 65.8483 208.96C65.946 209.296 65.946 209.464 65.8623 209.464Z" fill="#FAFAFA"/>
<path d="M117.41 101.691C117.282 100.462 117.082 99.2411 116.81 98.0355C115.955 94.8294 114.053 92.0036 111.408 90.0103C109.467 88.5487 107.192 87.5973 104.791 87.2426C102.39 86.8879 99.9382 87.1412 97.6594 87.9795C96.3455 88.4493 95.1119 89.1201 94.0023 89.9683C92.8328 90.8412 91.8142 91.9011 90.9873 93.1055C89.1569 95.5886 88.1691 98.5955 88.1691 101.684C88.1691 104.772 89.1569 107.779 90.9873 110.262C91.8274 111.458 92.8606 112.504 94.0442 113.358C95.1537 114.206 96.3873 114.877 97.7013 115.346C99.6104 116.033 101.641 116.315 103.664 116.174C105.687 116.033 107.659 115.472 109.456 114.527C111.252 113.582 112.833 112.273 114.099 110.683C115.365 109.093 116.288 107.257 116.81 105.29C117.077 104.103 117.277 102.901 117.41 101.691C117.506 102.924 117.397 104.163 117.089 105.36C116.418 108.16 114.956 110.707 112.879 112.694C110.802 114.681 108.198 116.025 105.378 116.565C102.719 117.08 99.971 116.867 97.4221 115.949C96.0472 115.459 94.7533 114.765 93.5836 113.89C92.3492 112.995 91.2654 111.907 90.3731 110.669C88.4426 108.066 87.3999 104.908 87.3999 101.663C87.3999 98.4184 88.4426 95.2603 90.3731 92.6574C91.2609 91.415 92.3454 90.3268 93.5836 89.4361C94.75 88.5559 96.0447 87.8615 97.4221 87.3773C99.9713 86.4619 102.718 86.2443 105.378 86.747C108.195 87.2932 110.796 88.6395 112.872 90.6257C114.948 92.612 116.412 95.1547 117.089 97.9515C117.405 99.171 117.514 100.435 117.41 101.691Z" fill="#FAFAFA"/>
<path d="M53.6903 105.108C53.5495 103.899 53.3445 102.697 53.0762 101.509C52.3634 98.8107 50.9012 96.371 48.86 94.4741C46.8188 92.5773 44.2826 91.3013 41.5466 90.7948C38.9931 90.3286 36.3619 90.5559 33.9254 91.453C31.2418 92.4486 28.9077 94.2112 27.2114 96.5231C25.3894 99.0096 24.4067 102.015 24.4067 105.101C24.4067 108.188 25.3894 111.193 27.2114 113.68C28.0592 114.869 29.0912 115.914 30.2683 116.775C31.3815 117.618 32.6142 118.288 33.9254 118.764C35.8369 119.458 37.8714 119.745 39.8996 119.607C41.9277 119.47 43.9051 118.91 45.7062 117.964C47.5072 117.019 49.0925 115.707 50.3613 114.114C51.6301 112.52 52.5546 110.679 53.0762 108.708C53.3419 107.519 53.5469 106.318 53.6903 105.108C53.757 106.34 53.6251 107.575 53.2995 108.764C52.6228 111.559 51.161 114.1 49.0876 116.086C47.0142 118.072 44.4163 119.42 41.6024 119.968C38.9433 120.484 36.195 120.271 33.6462 119.352C30.8167 118.337 28.3562 116.493 26.5833 114.058C24.6623 111.454 23.6255 108.299 23.6255 105.059C23.6255 101.82 24.6623 98.6652 26.5833 96.0609C27.4755 94.8223 28.5593 93.7349 29.7937 92.8396C31.0002 91.9608 32.3383 91.2801 33.7579 90.8228C36.3069 89.9067 39.0533 89.6892 41.7141 90.1925C44.0188 90.6413 46.1853 91.6298 48.0372 93.0777C50.7461 95.1683 52.6459 98.1391 53.4112 101.481C53.6948 102.668 53.789 103.892 53.6903 105.108Z" fill="#FAFAFA"/>
<path d="M112.176 103.133L122.198 205.136L136.38 203.89L125.925 101.929L112.176 103.133Z" fill="#E0E0E0"/>
<g opacity="0.3">
<path opacity="0.3" d="M138.18 100.851L90.4149 105.052L7.16748 112.377L91.4339 116.705L99.3343 207.153L147.086 202.951L138.18 100.851Z" fill="black"/>
</g>
<path d="M37.4435 70.1595C37.4435 80.2334 29.2769 88.4 19.2029 88.4C13.8923 88.4 9.11182 86.1307 5.77865 82.5087C4.9031 81.5579 4.12806 80.5134 3.46843 79.3929C1.87592 76.6844 0.962402 73.5284 0.962402 70.1595C0.962402 60.0855 9.12895 51.9189 19.2029 51.9189C22.5726 51.9189 25.7286 52.8325 28.4364 54.4257C29.5568 55.0846 30.6006 55.8596 31.5514 56.7359C35.1734 60.0676 37.4435 64.8489 37.4435 70.1595Z" fill="#F0CD00"/>
<path d="M37.4434 70.1593C37.4434 80.0062 29.6416 88.0305 19.8818 88.3871C10.122 88.0305 2.32031 80.0062 2.32031 70.1593C2.32031 60.3124 10.122 52.288 19.8818 51.9314C29.6416 52.288 37.4434 60.3124 37.4434 70.1593Z" fill="#FFDE50"/>
<path d="M31.5515 56.736L5.77872 82.5087C4.90318 81.558 4.12814 80.5135 3.46851 79.393L28.4364 54.4258C29.5569 55.0847 30.6007 55.8597 31.5515 56.736Z" fill="#FFEA94"/>
<path d="M36.1851 63.491L12.5335 87.1427C10.8591 86.4845 9.30529 85.5859 7.91528 84.4892L33.5324 58.8721C34.6291 60.2621 35.5277 61.8159 36.1851 63.491Z" fill="#FFEA94"/>
<path d="M33.3768 70.1594C33.3768 77.9871 27.0306 84.3334 19.2028 84.3334C16.4764 84.3334 13.9302 83.5635 11.7689 82.2294C10.8271 81.6487 9.95896 80.96 9.1802 80.1812C8.60767 79.6094 8.08354 78.9878 7.61524 78.3244C6.97049 77.4109 6.43072 76.4177 6.01454 75.3627C5.39809 73.803 5.05114 72.107 5.0303 70.3336C5.02881 70.2755 5.02881 70.2174 5.02881 70.1594C5.02881 62.3316 11.3743 55.9854 19.2028 55.9854C19.2609 55.9854 19.3197 55.9854 19.3778 55.9868C21.1512 56.0077 22.8465 56.3554 24.4062 56.9711C25.4612 57.388 26.4544 57.927 27.3679 58.5718C28.0312 59.0408 28.6522 59.5642 29.2247 60.1367C30.0034 60.9148 30.6921 61.7836 31.2728 62.7254C32.607 64.8867 33.3768 67.433 33.3768 70.1594Z" fill="#FAA300"/>
<path d="M29.2247 60.1367L9.1802 80.1812C8.60767 79.6094 8.08354 78.9878 7.61524 78.3244C6.97049 77.4109 6.43072 76.4177 6.01454 75.3627C5.39809 73.803 5.05114 72.107 5.0303 70.3336C5.02881 70.2755 5.02881 70.2174 5.02881 70.1594C5.02881 62.3316 11.3743 55.9854 19.2028 55.9854C19.2609 55.9854 19.3197 55.9854 19.3778 55.9868C21.1512 56.0077 22.8465 56.3554 24.4062 56.9711C25.4612 57.388 26.4544 57.927 27.3679 58.5718C28.0312 59.0408 28.6522 59.5642 29.2247 60.1367Z" fill="#FFBD00"/>
<path d="M33.3762 70.1594C33.3762 77.9871 27.03 84.3334 19.2022 84.3334C18.9334 84.3334 18.6669 84.3259 18.4019 84.311C25.8574 83.8963 31.7748 77.7184 31.7748 70.1594C31.7748 62.6003 25.8574 56.4224 18.4019 56.0077C18.6669 55.9928 18.9334 55.9854 19.2022 55.9854C27.03 55.9854 33.3762 62.3316 33.3762 70.1594Z" fill="#F68E00"/>
<path d="M18.7357 69.0704V63.3302C19.6303 63.8237 20.2378 64.7762 20.2378 65.8682C20.2378 66.6385 20.8622 67.2629 21.6325 67.2629C22.4028 67.2629 23.0272 66.6385 23.0272 65.8682C23.0272 63.2139 21.1989 60.9791 18.7357 60.3556V59.2204C18.7357 58.4501 18.1113 57.8257 17.341 57.8257C16.5707 57.8257 15.9463 58.4501 15.9463 59.2204V60.3555C13.4831 60.9791 11.6548 63.2139 11.6548 65.8681C11.6548 67.453 12.1203 68.6888 13.0778 69.6464C13.7759 70.3445 14.7033 70.8611 15.9463 71.2398V76.9891C15.0517 76.4956 14.4442 75.5431 14.4442 74.4511C14.4442 73.6809 13.8197 73.0564 13.0495 73.0564C12.2792 73.0564 11.6548 73.6809 11.6548 74.4511C11.6548 77.1054 13.4831 79.3402 15.9463 79.9637V81.0989C15.9463 81.8692 16.5707 82.4936 17.341 82.4936C18.1113 82.4936 18.7357 81.8692 18.7357 81.0989V79.9637C21.1989 79.3402 23.0272 77.1055 23.0272 74.4511C23.0272 72.8883 22.5418 71.6105 21.5845 70.6532C20.8887 69.9573 19.9498 69.4357 18.7357 69.0704ZM15.0502 67.674C14.768 67.3919 14.4442 66.9317 14.4442 65.8681C14.4442 64.7761 15.0518 63.8237 15.9464 63.3301V68.2674C15.5702 68.0932 15.2724 67.8962 15.0502 67.674ZM18.7357 76.9891V72.0365C19.9478 72.601 20.2378 73.4086 20.2378 74.4511C20.2378 75.5431 19.6303 76.4956 18.7357 76.9891Z" fill="#F68E00"/>
<path d="M20.5977 69.0704V63.3302C21.4923 63.8237 22.0999 64.7762 22.0999 65.8682C22.0999 66.6385 22.7243 67.2629 23.4946 67.2629C24.2648 67.2629 24.8893 66.6385 24.8893 65.8682C24.8893 63.2139 23.061 60.9791 20.5977 60.3556V59.2204C20.5977 58.4501 19.9733 57.8257 19.203 57.8257C18.4328 57.8257 17.8084 58.4501 17.8084 59.2204V60.3555C15.3451 60.9791 13.5168 63.2139 13.5168 65.8681C13.5168 67.453 13.9823 68.6888 14.9398 69.6464C15.638 70.3445 16.5653 70.8611 17.8084 71.2398V76.9891C16.9138 76.4956 16.3062 75.5431 16.3062 74.4511C16.3062 73.6809 15.6818 73.0564 14.9115 73.0564C14.1413 73.0564 13.5168 73.6809 13.5168 74.4511C13.5168 77.1054 15.3451 79.3402 17.8084 79.9637V81.0989C17.8084 81.8692 18.4328 82.4936 19.203 82.4936C19.9733 82.4936 20.5977 81.8692 20.5977 81.0989V79.9637C23.061 79.3402 24.8893 77.1055 24.8893 74.4511C24.8893 72.8883 24.4038 71.6105 23.4465 70.6532C22.7508 69.9573 21.8118 69.4357 20.5977 69.0704ZM16.9122 67.674C16.63 67.3919 16.3062 66.9317 16.3062 65.8681C16.3062 64.7761 16.9138 63.8237 17.8084 63.3301V68.2674C17.4322 68.0932 17.1344 67.8962 16.9122 67.674ZM20.5977 76.9891V72.0365C21.8099 72.601 22.0999 73.4086 22.0999 74.4511C22.0998 75.5431 21.4923 76.4956 20.5977 76.9891Z" fill="#FFEA94"/>
<path d="M129.196 61.0062C129.425 60.5571 130.917 60.7048 133.428 61.3415C135.94 61.9782 139.49 63.1289 143.807 64.3724C145.981 64.9943 148.336 65.6299 150.867 66.1665C152.133 66.4192 153.443 66.6784 154.784 66.8753C156.102 67.0973 157.431 67.2505 158.765 67.3341C159.548 67.4359 160.343 67.2926 161.043 66.9239C161.15 66.7924 161.229 66.6392 161.272 66.4747C161.439 65.969 161.552 65.4475 161.611 64.9184C162.121 61.7436 162.395 58.5361 162.433 55.3221C162.417 53.8473 162.253 52.3784 161.944 50.9372C161.781 50.2726 161.582 49.5577 161.375 48.9804C161.162 48.4486 160.897 47.9395 160.584 47.4603C160.418 47.1546 160.191 46.8868 159.917 46.6738C159.642 46.4608 159.327 46.3072 158.99 46.2227C157.932 46.0941 156.859 46.1892 155.839 46.5018C150.917 47.7391 146.197 49.6782 141.823 52.2596C134.284 56.7466 130.606 61.191 129.763 60.5406C129.372 60.2625 129.767 58.7817 131.194 56.4754C133.297 53.261 135.913 50.4151 138.939 48.0525C143.459 44.477 148.597 41.7679 154.094 40.0616C156.053 39.3685 158.142 39.128 160.204 39.3581C161.506 39.5545 162.748 40.0328 163.845 40.7598C164.881 41.4585 165.779 42.3431 166.494 43.3691C167.151 44.2856 167.697 45.2768 168.122 46.322C168.477 47.2703 168.773 48.2402 169.006 49.2261C169.462 51.173 169.707 53.1641 169.737 55.1649C169.7 58.8122 169.344 62.45 168.672 66.0365C168.497 67.1397 168.189 68.218 167.755 69.2477C167.184 70.5901 166.251 71.7476 165.062 72.5907C163.966 73.3364 162.712 73.8166 161.401 73.9931C160.392 74.1097 159.374 74.1175 158.364 74.0164C156.751 73.8283 155.151 73.5374 153.575 73.1453C152.085 72.8097 150.665 72.3995 149.326 71.9836C146.846 71.1896 144.413 70.2579 142.037 69.1927C138.657 67.6865 135.397 65.9234 132.286 63.9189C130.088 62.4832 128.973 61.5054 129.196 61.0062Z" fill="#0A374A"/>
<path d="M130.508 62.3671C130.279 62.8162 128.634 62.3857 125.933 61.2283C122.154 59.559 118.487 57.6461 114.956 55.5018C109.581 52.3318 104.556 48.6032 99.9625 44.3776C98.4193 43.02 97.0718 41.4542 95.9586 39.7248C95.217 38.5299 94.7417 37.188 94.5653 35.7908C94.3921 34.0899 94.7861 32.378 95.6858 30.9223C96.3751 29.8635 97.199 28.8991 98.1368 28.0533L100.305 26.0149C101.862 24.5853 103.515 23.2643 105.252 22.0611C107.115 20.773 109.139 19.7384 111.272 18.9846C112.338 18.6172 113.431 18.3337 114.541 18.1367C115.735 17.9163 116.949 17.8342 118.16 17.892C120.774 18.0007 123.274 18.9827 125.262 20.6816C126.902 22.1907 128.206 24.0293 129.09 26.0781C131.726 31.9182 133.332 38.1742 133.837 44.5691C134.203 48.8539 133.824 53.1717 132.717 57.3307C131.871 60.2481 130.92 61.6814 130.466 61.5594C129.375 61.3016 130.697 54.9635 128.727 45.2481C127.587 39.6172 125.684 34.171 123.071 29.0607C122.52 27.8964 121.739 26.8564 120.776 26.0031C119.931 25.357 118.895 25.0109 117.831 25.0192C117.171 25.0091 116.512 25.074 115.867 25.2125C115.111 25.3689 114.367 25.5836 113.644 25.8547C112.116 26.433 110.668 27.2058 109.336 28.154C107.866 29.1726 106.462 30.2837 105.132 31.4807C104.439 32.1019 103.746 32.7232 103.065 33.3508C102.585 33.7443 102.155 34.1955 101.785 34.6941C101.625 35.006 101.657 34.9436 101.581 35.0933C101.635 35.4899 101.772 35.8703 101.983 36.2102C102.745 37.4492 103.659 38.5868 104.705 39.5962C108.827 43.7896 113.236 47.6888 117.901 51.2653C121.9 54.4221 125.243 56.9296 127.455 58.8287C129.668 60.7277 130.774 61.937 130.508 62.3671Z" fill="#0A374A"/>
<path d="M193.073 94.895L89.3184 42.0142L74.2219 71.5912L177.976 124.472L193.073 94.895Z" fill="#00C2BE"/>
<path d="M154.924 75.4532L61.1318 27.6501L46.0353 57.2271L139.827 105.03L154.924 75.4532Z" fill="#00C2BE"/>
<path d="M89.9029 42.318L75.1608 72.2664L86.17 77.6981L100.742 47.8469L89.9029 42.318Z" fill="#FAFAFA"/>
<path d="M167.548 82.0815L153.337 111.955L165.361 118.084L180.067 88.2696L167.548 82.0815Z" fill="#E0E0E0"/>
<path d="M110.017 53.6812C109.278 55.6929 108.895 57.8168 108.884 59.9579C108.947 62.5194 109.716 65.0116 111.105 67.1594C112.494 69.3073 114.45 71.0275 116.756 72.1303C119.062 73.2332 121.63 73.6759 124.176 73.4096C126.721 73.1434 129.146 72.1785 131.183 70.6213C132.844 69.2659 134.264 67.6383 135.381 65.8081C135.348 65.9588 135.294 66.1041 135.22 66.24C135.045 66.6487 134.84 67.0437 134.606 67.4217C133.783 68.8029 132.721 70.0268 131.47 71.0358C129.59 72.5509 127.35 73.5514 124.971 73.9391C123.576 74.1847 122.153 74.2231 120.747 74.0531C119.243 73.838 117.778 73.4067 116.398 72.7724C113.734 71.4862 111.536 69.4049 110.104 66.8142C108.936 64.7204 108.334 62.3569 108.354 59.9556C108.35 58.3455 108.636 56.747 109.199 55.2372C109.363 54.8217 109.549 54.4154 109.758 54.0204C109.924 53.7798 109.994 53.6672 110.017 53.6812Z" fill="#FAFAFA"/>
<path d="M104.433 86.4309C105.167 84.4203 105.554 82.3 105.577 80.1613C105.504 77.6101 104.731 75.1304 103.343 72.9935C101.956 70.8567 100.007 69.145 97.7098 68.0458C95.4128 66.9466 92.8563 66.5022 90.3199 66.7613C87.7836 67.0204 85.3651 67.9729 83.3292 69.5147C81.6711 70.8666 80.2539 72.4904 79.1383 74.3166C79.1681 74.1695 79.22 74.0277 79.2922 73.8961C79.4673 73.4874 79.6727 73.0924 79.9067 72.7143C80.7302 71.3336 81.7919 70.1098 83.0422 69.1002C84.5317 67.9054 86.2448 67.0218 88.0799 66.5018C89.9149 65.9818 91.8344 65.836 93.7245 66.0731C95.2365 66.2785 96.7087 66.7087 98.0926 67.3496C100.746 68.6484 102.934 70.7338 104.361 73.3233C105.524 75.4189 106.127 77.7812 106.111 80.1819C106.115 81.792 105.829 83.3905 105.266 84.9002C105.102 85.3158 104.916 85.722 104.707 86.1171C104.554 86.2874 104.455 86.445 104.433 86.4309Z" fill="#FAFAFA"/>
<path d="M162.992 99.7178C163.485 98.6736 163.925 97.605 164.309 96.5162C164.887 94.6721 165.075 92.7285 164.861 90.8098C164.647 88.8911 164.034 87.0396 163.064 85.3737C162.093 83.7079 160.785 82.2643 159.224 81.1355C157.663 80.0067 155.882 79.2175 153.997 78.8183C152.704 78.5415 151.376 78.4604 150.057 78.5777C148.678 78.6781 147.323 78.999 146.044 79.5281C143.329 80.6103 141.028 82.5317 139.476 85.0121C137.924 87.4926 137.203 90.4022 137.417 93.3169C137.609 96.0342 138.594 98.6328 140.249 100.79C141.658 102.611 143.501 104.048 145.609 104.97C147.718 105.893 150.025 106.271 152.32 106.072C155.45 105.788 158.397 104.46 160.689 102.302C161.502 101.482 162.271 100.619 162.992 99.7178C162.44 100.752 161.727 101.691 160.878 102.498C158.58 104.797 155.561 106.229 152.333 106.55C150.117 106.782 147.879 106.487 145.801 105.689C143.409 104.756 141.311 103.2 139.723 101.182C138.852 100.103 138.154 98.8954 137.655 97.601C137.113 96.2608 136.789 94.8418 136.695 93.3977C136.461 90.3364 137.214 87.2777 138.845 84.6718C140.475 82.066 142.897 80.0506 145.752 78.9224C148.408 77.8318 151.328 77.5633 154.133 78.1517C156.641 78.701 158.955 79.9112 160.837 81.6572C162.821 83.5141 164.231 85.9033 164.898 88.5417C165.566 91.1802 165.463 93.9573 164.604 96.544C164.243 97.6824 163.699 98.7545 162.992 99.7178Z" fill="#FAFAFA"/>
<path d="M82.1532 57C82.6569 55.9616 83.1002 54.8949 83.4808 53.8054C84.3848 50.8126 84.2647 47.606 83.1397 44.6956C82.3144 42.5447 80.9647 40.6361 79.2132 39.1436C77.4617 37.6511 75.3641 36.6219 73.1111 36.1497C71.8158 35.8615 70.4829 35.778 69.1606 35.9021C67.7869 35.9964 66.4373 36.3161 65.1657 36.8483C62.446 37.9235 60.1401 39.8434 58.587 42.3255C57.034 44.8077 56.3159 47.721 56.5383 50.637C56.6179 52.016 56.9181 53.3725 57.4274 54.6548C57.9146 55.8784 58.584 57.0207 59.4129 58.0429C60.8228 59.8625 62.6657 61.2988 64.7739 62.2212C66.8821 63.1437 69.1887 63.5229 71.4839 63.3244C74.6126 63.0554 77.5632 61.7404 79.8608 59.591C80.6704 58.7747 81.4334 57.9135 82.1462 57.0113C81.5991 58.0369 80.894 58.9701 80.057 59.7764C77.7634 62.0802 74.7416 63.513 71.5124 63.8278C69.2917 64.0603 67.0492 63.7629 64.9686 62.9599C62.5758 62.0307 60.4755 60.4787 58.8841 58.4638C58.0319 57.3715 57.3438 56.16 56.8415 54.8677C56.2983 53.5213 55.9727 52.0963 55.877 50.6462C55.6427 47.5872 56.3956 44.5307 58.0248 41.9268C59.6541 39.3228 62.0735 37.3091 64.9269 36.1821C66.2697 35.633 67.692 35.3063 69.1382 35.2145C70.5182 35.0937 71.908 35.1866 73.2584 35.4901C75.77 36.0296 78.0881 37.2366 79.9697 38.9844C81.6017 40.5044 82.8498 42.3911 83.6119 44.4898C84.741 47.5315 84.774 50.8756 83.7052 53.9458C83.3482 55.0375 82.8246 56.0678 82.1532 57Z" fill="#FAFAFA"/>
<g opacity="0.4">
<path opacity="0.4" d="M193.072 94.892L154.918 75.4463L139.822 105.023L177.975 124.469L193.072 94.892Z" fill="black"/>
</g>
</svg>
