<svg width="20" height="11" viewBox="0 0 20 11" fill="none" xmlns="http://www.w3.org/2000/svg">
<path d="M0.500149 8.08828V8.73533C0.50066 8.90678 0.568996 9.07106 0.690231 9.1923C0.811466 9.31353 0.975748 9.38187 1.1472 9.38238H18.2941L18.8311 9.02327C18.9646 8.93482 19.0741 8.81463 19.1498 8.67348C19.2254 8.53232 19.2649 8.37461 19.2646 8.21445V6.44153C19.2633 6.2497 19.2072 6.06224 19.1029 5.90124L18.6176 5.17655C18.6642 4.52974 18.6523 3.88005 18.582 3.23539L18.2941 2.91187H16.3529L0.500149 8.08828Z" fill="#00C2BE"/>
<path d="M4.0589 3.88243L2.44127 4.61684L0.519524 6.47064C0.50651 6.56281 0.500023 6.65579 0.500113 6.74887V8.08827H12.4609C12.6642 8.08835 12.8647 8.04067 13.0462 7.94908C13.2277 7.85748 13.3851 7.72452 13.5059 7.56092L16.2882 3.76273C16.4089 3.59913 16.5663 3.46617 16.7478 3.37457C16.9294 3.28298 17.1298 3.2353 17.3332 3.23538H18.582C18.5337 2.75033 18.4416 2.27064 18.307 1.80216C18.1451 1.27625 17.8177 0.816702 17.3734 0.49198C16.9292 0.167259 16.3919 -0.00526088 15.8417 0.000122255H14.4117L4.0589 3.88243Z" fill="#00CDC8"/>
<path d="M3.41182 11C2.51843 11 1.79419 10.2758 1.79419 9.3824C1.79419 8.48901 2.51843 7.76477 3.41182 7.76477C4.30521 7.76477 5.02945 8.48901 5.02945 9.3824C5.02945 10.2758 4.30521 11 3.41182 11Z" fill="#0A374A"/>
<path d="M16.6765 11C15.7831 11 15.0588 10.2758 15.0588 9.3824C15.0588 8.48901 15.7831 7.76477 16.6765 7.76477C17.5699 7.76477 18.2941 8.48901 18.2941 9.3824C18.2941 10.2758 17.5699 11 16.6765 11Z" fill="#0A374A"/>
<path d="M0.519571 6.47062H1.79426C1.96571 6.47011 2.13 6.40178 2.25123 6.28054C2.37247 6.15931 2.4408 5.99502 2.44131 5.82357V4.61682L1.63897 4.98241C1.3426 5.11676 1.08476 5.32347 0.88916 5.58352C0.693557 5.84357 0.566466 6.14862 0.519571 6.47062Z" fill="#DFF8FF"/>
<path d="M4.05888 3.88243L14.1141 3.29038C14.2316 3.28343 14.3464 3.25138 14.4505 3.19637C14.5547 3.14137 14.6458 3.0647 14.7179 2.97151C14.7899 2.87833 14.8411 2.77079 14.8681 2.65614C14.8951 2.5415 14.8972 2.4224 14.8743 2.30686L14.4117 0.00012207H10.9823C9.4377 0.000558718 7.94395 0.552394 6.77002 1.55628L4.05888 3.88243Z" fill="#DBE2F2"/>
<path d="M16.6764 10.0294C16.319 10.0294 16.0294 9.7397 16.0294 9.38234C16.0294 9.02499 16.319 8.73529 16.6764 8.73529C17.0338 8.73529 17.3235 9.02499 17.3235 9.38234C17.3235 9.7397 17.0338 10.0294 16.6764 10.0294Z" fill="#DFF8FF"/>
<path d="M3.41185 10.0294C3.05449 10.0294 2.7648 9.7397 2.7648 9.38234C2.7648 9.02499 3.05449 8.73529 3.41185 8.73529C3.7692 8.73529 4.0589 9.02499 4.0589 9.38234C4.0589 9.7397 3.7692 10.0294 3.41185 10.0294Z" fill="#DFF8FF"/>
<path d="M12.4706 5.17653H13.1177C13.2035 5.17653 13.2858 5.14245 13.3465 5.08177C13.4071 5.0211 13.4412 4.93881 13.4412 4.85301C13.4412 4.7672 13.4071 4.68491 13.3465 4.62424C13.2858 4.56357 13.2035 4.52948 13.1177 4.52948H12.4706C12.3848 4.52948 12.3026 4.56357 12.2419 4.62424C12.1812 4.68491 12.1471 4.7672 12.1471 4.85301C12.1471 4.93881 12.1812 5.0211 12.2419 5.08177C12.3026 5.14245 12.3848 5.17653 12.4706 5.17653Z" fill="#00C2BE"/>
</svg>
