<svg width="208" height="282" viewBox="0 0 208 282" fill="none" xmlns="http://www.w3.org/2000/svg">
<path d="M96.125 37.8093C108.044 36.8666 119.799 37.5932 131.18 41.6321C131.534 41.7565 131.914 42.0445 132.491 41.5601C130.885 40.8008 129.429 40.0807 127.948 39.4327C119.059 35.4796 109.477 33.3153 99.7505 33.0634C96.7042 32.8965 93.6511 32.8965 90.6049 33.0634C88.3234 32.8016 86.0878 33.358 83.8391 33.5151C78.39 33.938 72.9743 34.7143 67.6261 35.8389C57.8839 37.8027 48.2007 40.0218 38.4323 41.7761C26.3824 43.9494 14.2538 45.4484 1.96132 44.3945C0.755022 44.2767 0.420667 44.4273 1.08938 45.6252C2.22505 47.7471 2.93123 50.0715 3.16763 52.4657C3.82323 58.128 2.76771 63.6528 1.94166 69.2038C1.81054 70.1137 1.47618 71.0433 1.74498 71.9531C2.56448 74.7155 3.45609 77.4583 4.32148 80.2142C4.35027 80.8519 4.61139 81.4572 5.05575 81.9161V78.2504C5.1672 77.6678 5.29177 77.0786 5.377 76.4895C6.39727 68.9729 8.55936 61.6555 11.7888 54.7896C12.0605 54.1465 12.4989 53.5875 13.059 53.1698C13.619 52.7522 14.2803 52.4911 14.975 52.4134C25.0909 50.7049 35.1346 48.6363 45.185 46.5613C62.0666 43.0788 78.8828 39.1708 96.125 37.8093Z" fill="white"/>
<path d="M197.854 56.3737L202.313 58.2262C202.382 58.2665 202.454 58.3015 202.529 58.331L205.381 59.7449C204.796 58.8892 203.953 58.2424 202.975 57.8989C201.46 57.1134 200.084 56.0595 198.386 55.6602C197.146 55.1038 195.934 54.4819 194.668 53.9844C185.85 50.5281 176.606 49.3237 167.231 49.1208C153.87 48.8393 140.653 50.6132 127.423 52.145C114.416 53.6506 101.409 55.2805 88.2514 54.3183C79.4271 53.6899 70.9567 51.9159 63.0371 47.7985C62.4774 47.359 61.7821 47.1276 61.0703 47.1439C63.2968 49.919 66.0422 52.2355 69.1538 53.9648C76.3654 58.0822 84.3179 59.3849 92.4473 59.7973C100.859 60.2228 109.257 59.6467 117.622 58.7565C132 57.2181 146.298 54.914 160.728 53.8273C169.775 53.1727 178.829 52.9305 187.863 54.2201C191.141 54.6979 194.367 55.5816 197.605 56.2886L197.854 56.3737Z" fill="white"/>
<path d="M168.123 57.5454C168.444 57.5454 168.909 57.7091 169.08 57.0872C168.804 57.0218 168.549 56.9432 168.293 56.8974C160.092 55.4507 151.903 55.9809 143.721 57.1069C137.028 58.0298 130.38 59.267 123.693 60.2751C112.803 61.9247 101.888 63.2601 90.8276 62.5073C85.1647 62.1432 79.5553 61.1911 74.0901 59.6663C68.2845 57.9425 62.573 55.9171 56.979 53.5982C54.4549 52.5901 51.7801 52.6818 49.1118 52.7145C51.59 53.8208 54.1796 54.7372 56.5397 56.0595C65.2998 60.8816 74.8428 64.1235 84.7305 65.6363C93.0369 66.9364 101.477 67.1565 109.84 66.2909C122.349 65.093 134.576 62.1669 146.894 59.8365C153.929 58.547 160.885 56.7665 168.123 57.5454Z" fill="white"/>
<path d="M51.4655 17.0846C60.0473 18.2367 66.4197 22.7273 70.4254 30.9294C70.6116 30.0156 70.5756 29.0706 70.3205 28.1735C69.4231 23.9176 67.113 20.0888 63.7645 17.3072C62.6238 16.358 62.5844 15.6772 63.4564 14.5251C65.2659 12.0856 67.543 10.0294 70.1553 8.47607C72.7677 6.92278 75.6631 5.90334 78.6734 5.477C81.6837 5.05065 84.7488 5.22591 87.6907 5.99258C90.6326 6.75925 93.3926 8.10205 95.8102 9.94294C97.5727 11.3692 99.203 12.9509 100.681 14.6691C100.787 14.6007 100.861 14.4938 100.888 14.3713C100.915 14.2489 100.892 14.1207 100.826 14.0145C98.9112 9.36035 96.1249 5.40657 91.6472 2.84054C80.7642 -3.42397 66.0788 1.05349 60.0342 12.5352C59.3786 13.8443 58.723 14.0669 57.4118 13.5367C53.7012 12.0284 49.6588 11.5204 45.6897 12.0638C40.1761 12.8297 35.6065 15.1863 32.4859 19.919C31.2823 21.6366 30.4904 23.6075 30.1716 25.6795C35.5017 18.3807 42.8378 15.926 51.4655 17.0846Z" fill="#00C2BE"/>
<path d="M113.42 4.2741C126.145 6.68303 131.573 18.0207 125.483 29.4173C125.148 30.0718 124.598 30.6283 124.65 31.5382C126.368 31.3025 127.974 30.9948 129.593 30.8836C137.644 30.2944 142.62 33.371 142.922 41.6386C142.968 42.9478 143.577 43.0002 144.587 42.7973C149.564 41.7601 154.651 41.3467 159.731 41.5666C165.323 41.835 170.627 43.1377 175.433 46.1488C175.957 46.5219 176.357 47.1307 177.183 47.2027C177.129 46.8615 177.002 46.536 176.809 46.2489C176.617 45.9618 176.364 45.7199 176.069 45.54C175.26 44.444 174.245 43.5167 173.079 42.8103C169.497 40.6293 165.506 39.2033 161.351 38.6202C157.196 38.037 152.966 38.3091 148.92 39.4195C147.478 39.7992 147.058 39.5897 146.862 38.0776C146.134 32.5986 142.535 28.9132 137.211 27.9313C135.75 27.7286 134.27 27.689 132.799 27.8135C130.832 27.892 130.832 27.9248 131.573 25.9937C132.544 23.577 132.923 20.9639 132.679 18.3715C132.435 15.7791 131.575 13.2823 130.17 11.0885C125.974 4.22174 117.943 0.745816 109.689 2.10738C107.184 2.43692 104.756 3.20355 102.517 4.37229C106.116 3.69189 109.809 3.65864 113.42 4.2741Z" fill="#00C2BE"/>
<path d="M152.624 65.9635C152.178 66.4937 151.116 67.1156 151.706 67.7964C152.296 68.4772 153.345 68.1171 154.178 67.7964C154.422 67.6759 154.655 67.5335 154.873 67.3709C163.717 61.9508 172.574 61.8854 181.412 67.3709C182.129 67.8854 183.011 68.1184 183.89 68.0255C184.106 67.9797 184.65 68.2546 184.867 67.7244C185.024 67.3251 184.637 67.0698 184.408 66.7425C177.006 57.061 160.465 56.6551 152.624 65.9635Z" fill="white"/>
<path d="M44.0246 59.5288C41.8605 59.0985 39.6327 59.0985 37.4686 59.5288C32.6285 60.0708 28.1756 62.4295 25.0122 66.1272C24.573 66.6247 23.6617 67.2203 24.0944 67.8422C24.5271 68.4641 25.517 68.032 26.2578 67.9993C26.4763 67.9702 26.6827 67.8819 26.8544 67.744C30.788 64.8703 35.3313 63.6004 40.15 63.2273H41.2907C46.1094 63.6004 50.6068 64.8965 54.5666 67.7702C55.0941 68.0664 55.7097 68.1661 56.304 68.0517C56.6514 68.0517 57.13 68.2219 57.3267 67.7833C57.5234 67.3447 57.1431 67.0698 56.9137 66.7883C55.3522 64.788 53.4091 63.1165 51.1968 61.8705C48.9845 60.6244 46.5468 59.8285 44.0246 59.5288Z" fill="white"/>
<path d="M206.311 64.7394C203.105 59.9739 197.972 58.632 192.826 57.2377C194.438 59.987 195.579 62.7559 195.448 65.9307C195.415 66.9977 196.268 67.0632 197.074 67.0632C199.742 67.0632 202.417 67.0632 205.085 67.0632C205.741 67.0632 206.528 67.3316 206.895 66.6574C207.262 65.9831 206.685 65.3023 206.311 64.7394Z" fill="white"/>
<path d="M109.42 7.70422C117.537 10.9118 122.604 16.3449 122.814 25.601C125.247 21.8501 124.82 15.1274 122.159 12.1097C119.418 8.96105 112.357 6.41466 109.42 7.70422Z" fill="#00C2BE"/>
<path d="M69.0684 13.7593C77.8796 10.6041 86.6319 11.1998 95.3644 14.1782C88.1725 7.43586 78.1156 5.65535 69.0684 13.7593Z" fill="#00C2BE"/>
<path d="M31.5683 36.3953C35.4363 28.0819 41.8022 23.0022 50.3512 20.5278C37.8031 19.2317 30.9914 26.7858 31.5683 36.3953Z" fill="#00C2BE"/>
<path d="M93.1943 41.8677C92.7026 44.401 91.1685 45.4418 89.2607 46.1684C91.5947 47.53 91.5947 47.53 93.4697 50.0371C93.6559 49.1417 94.0862 48.3151 94.7133 47.6486C95.3404 46.9821 96.1397 46.5015 97.023 46.26C96.1052 45.6054 95.2726 45.324 94.6957 44.6759C94.0445 43.8283 93.5373 42.8796 93.1943 41.8677Z" fill="#05D8CD"/>
<path d="M143.02 21.6145C143.261 20.7974 143.714 20.0586 144.333 19.4733C144.953 18.888 145.717 18.4771 146.547 18.2826C144.882 17.2941 143.656 16.3188 143.013 14.2699C142.703 15.1442 142.214 15.9447 141.577 16.6207C140.941 17.2968 140.171 17.8337 139.316 18.1975C140.137 18.4795 140.89 18.9289 141.528 19.5172C142.165 20.1054 142.674 20.8196 143.02 21.6145Z" fill="#05D8CD"/>
<path d="M19.3936 56.9104C19.0927 57.7453 18.6068 58.5015 17.9722 59.1227C17.3376 59.7438 16.5707 60.2138 15.7288 60.4976C17.0986 60.9101 18.2549 61.837 18.9543 63.0833C19.2821 63.6921 19.7082 63.4957 19.8984 63.0178C20.4228 61.7086 21.5177 61.054 22.8551 60.347C22.0724 60.0429 21.3609 59.5806 20.7653 58.9893C20.1696 58.398 19.7027 57.6902 19.3936 56.9104Z" fill="#05D8CD"/>
<path d="M93.7321 25.8825C94.0664 24.0169 95.1154 23.0022 96.6626 22.2102C95.1547 21.3134 94.0402 20.3511 93.5944 18.7866C92.9388 20.6522 91.6276 21.5883 89.4248 22.3869C91.7784 22.8059 92.8143 24.1151 93.7321 25.8825Z" fill="#05D8CD"/>
<path d="M51.2755 31.3026C51.4667 30.7111 51.7731 30.1632 52.177 29.6902C52.5809 29.2173 53.0744 28.8287 53.6291 28.5467C52.7899 27.8266 52.1802 26.8775 51.4787 26.4651C50.3445 25.8105 50.3707 27.8463 49.3152 27.9772C49.0202 28.0165 48.7514 28.2718 48.1155 28.6318C49.4635 29.101 50.5893 30.0526 51.2755 31.3026Z" fill="#05D8CD"/>
</svg>
