<svg width="204" height="134" viewBox="0 0 204 134" fill="none" xmlns="http://www.w3.org/2000/svg">
<g style="mix-blend-mode:multiply" opacity="0.2">
<path d="M-39.8934 77.2839L71.4743 140.897C80.8145 146.232 91.3878 149.026 102.142 149C112.896 148.974 123.455 146.129 132.77 140.749L158.765 125.734C159.367 125.386 159.866 124.887 160.213 124.285C160.561 123.683 160.744 123.001 160.745 122.306C160.745 121.611 160.563 120.928 160.217 120.326C159.87 119.724 159.372 119.223 158.771 118.875L19.4833 38.0931C18.8792 37.7427 18.1932 37.5585 17.495 37.5593C16.7968 37.5601 16.1113 37.7458 15.5079 38.0975L-39.9237 70.4201C-40.5244 70.7703 -41.0223 71.2726 -41.3673 71.8766C-41.7124 72.4806 -41.8924 73.165 -41.8894 73.8607C-41.8863 74.5565 -41.7002 75.2392 -41.3498 75.8401C-40.9994 76.4411 -40.4971 76.939 -39.8934 77.2839Z" fill="#AFB6E5"/>
</g>
<path d="M61.8038 123.167L81.7499 111.532C81.7499 111.532 68.0648 104.452 67.4496 104.452C66.8343 104.452 58.5317 109.839 58.5317 109.839L61.8038 123.167Z" fill="url(#paint0_linear_2_259)"/>
<path d="M92.4459 130.623C92.4459 134.197 91.214 136.728 89.2108 137.951C89.1509 137.987 82.8833 141.619 82.8219 141.652C80.7381 142.819 82.0706 140.172 78.9028 138.343C72.5331 134.662 67.3673 125.747 67.3673 118.432C67.3673 114.814 64.0257 114.784 66.0725 113.577C66.1294 113.543 72.8015 109.848 72.8563 109.817C74.9341 108.691 77.7751 108.898 80.9067 110.706C87.2823 114.392 92.4459 123.307 92.4459 130.623Z" fill="url(#paint1_linear_2_259)"/>
<path d="M82.339 123.011C77.807 115.251 70.5048 111.084 66.029 113.703C61.5533 116.322 61.5988 124.736 66.1308 132.496C70.6628 140.256 77.965 144.423 82.4408 141.804C86.9165 139.185 86.871 130.771 82.339 123.011Z" fill="url(#paint2_linear_2_259)"/>
<path style="mix-blend-mode:screen" d="M74.7879 114.229C71.7347 112.464 68.9603 112.23 66.8972 113.259C68.8198 112.72 71.2068 113.123 73.7919 114.617C80.1615 118.298 85.3274 127.213 85.3274 134.528C85.3274 138.337 83.9224 140.958 81.6848 142.078C84.4999 141.289 86.3234 138.486 86.3234 134.138C86.3212 126.825 81.1561 117.91 74.7879 114.229Z" fill="url(#paint3_radial_2_259)"/>
<path style="mix-blend-mode:multiply" d="M83.4995 133.076C83.4995 138.711 79.5227 140.979 74.6172 138.145C69.7116 135.311 65.7356 128.444 65.7356 122.81C65.7356 117.176 69.7124 114.906 74.6172 117.741C79.522 120.576 83.4995 127.442 83.4995 133.076ZM77.6364 129.523C77.6364 129.58 77.6364 129.636 77.6364 129.691C77.6364 129.745 77.6364 129.801 77.6364 129.854C77.6453 130.214 77.7771 130.56 78.0098 130.834L80.765 134.254C81.1776 134.767 81.7107 134.832 81.8365 134.376C82.0178 133.688 82.1061 132.979 82.099 132.268C82.0941 131.458 82.0062 130.65 81.8365 129.857C81.7107 129.256 81.1776 128.705 80.765 128.74L78.0098 128.975C77.7724 128.994 77.6231 129.202 77.6364 129.522V129.523ZM79.9287 124.963C79.0316 123.385 77.8863 121.961 76.5368 120.748C76.0709 120.337 75.6139 120.475 75.6139 121.028V124.673C75.6299 125.038 75.7685 125.387 76.0073 125.664C76.0916 125.763 76.1737 125.865 76.2528 125.97C76.3349 126.1 76.4467 126.209 76.5792 126.287C76.7117 126.366 76.8609 126.411 77.0145 126.421L79.7689 126.186C80.1808 126.149 80.2636 125.545 79.9272 124.962L79.9287 124.963ZM72.7012 118.531C72.1451 118.349 71.558 118.282 70.9751 118.332C70.3923 118.383 69.8257 118.552 69.3094 118.827C68.9729 119.022 69.0557 119.722 69.4691 120.233L72.2236 123.652C72.3059 123.78 72.4184 123.887 72.5511 123.961C72.6839 124.036 72.8329 124.077 72.9852 124.081C73.0662 124.068 73.148 124.061 73.2299 124.059C73.4762 124.055 73.6241 123.837 73.6241 123.523V119.876C73.6121 119.587 73.519 119.308 73.3555 119.069C73.192 118.831 72.9647 118.644 72.6998 118.529L72.7012 118.531ZM67.4001 121.513C67.2188 122.201 67.1305 122.91 67.1376 123.621C67.1424 124.432 67.2303 125.239 67.4001 126.032C67.5258 126.633 68.0589 127.184 68.4716 127.149L71.2268 126.914C71.4641 126.893 71.6135 126.687 71.6002 126.366C71.6002 126.309 71.6002 126.253 71.6002 126.198C71.6002 126.144 71.6002 126.088 71.6002 126.035C71.5912 125.675 71.4594 125.329 71.2268 125.055L68.4716 121.635C68.0575 121.121 67.5243 121.056 67.3986 121.512L67.4001 121.513ZM69.3094 130.926C70.2061 132.506 71.3514 133.93 72.7012 135.145C73.1671 135.556 73.6241 135.418 73.6241 134.865V131.22C73.6081 130.855 73.4695 130.505 73.2307 130.229C73.1464 130.13 73.0646 130.028 72.9852 129.923C72.9031 129.793 72.7912 129.684 72.6588 129.606C72.5263 129.527 72.3771 129.482 72.2236 129.472L69.4691 129.707C69.0543 129.737 68.9714 130.341 69.3079 130.925L69.3094 130.926ZM76.5368 137.358C77.093 137.54 77.68 137.608 78.2629 137.557C78.8457 137.506 79.4123 137.338 79.9287 137.062C80.2651 136.867 80.1816 136.167 79.7689 135.656L77.0145 132.237C76.9321 132.109 76.8196 132.003 76.6869 131.928C76.5541 131.853 76.4051 131.812 76.2528 131.808C76.1716 131.821 76.0896 131.828 76.0073 131.83C75.7618 131.834 75.6139 132.052 75.6139 132.366V136.012C75.626 136.3 75.7188 136.579 75.8817 136.817C76.0446 137.055 76.2711 137.242 76.5353 137.357L76.5368 137.358Z" fill="url(#paint4_linear_2_259)"/>
<path d="M82.9426 133.298C82.9426 138.932 78.9665 141.201 74.061 138.366C69.1555 135.532 65.1794 128.666 65.1794 123.032C65.1794 117.398 69.1562 115.128 74.061 117.963C78.9658 120.798 82.9426 127.663 82.9426 133.298ZM77.0795 129.745C77.0795 129.801 77.0832 129.856 77.0832 129.912C77.0832 129.968 77.0832 130.022 77.0795 130.076C77.0889 130.435 77.2206 130.781 77.4529 131.056L80.2081 134.475C80.6215 134.987 81.1546 135.053 81.2796 134.597C81.4608 133.909 81.5491 133.2 81.5421 132.489C81.5376 131.679 81.4497 130.87 81.2796 130.078C81.1546 129.477 80.6215 128.926 80.2081 128.961L77.4529 129.196C77.2192 129.215 77.0691 129.424 77.0824 129.744L77.0795 129.745ZM79.3718 125.184C78.4745 123.604 77.3293 122.18 75.9799 120.965C75.514 120.554 75.0571 120.691 75.0571 121.245V124.89C75.0732 125.255 75.2117 125.605 75.4504 125.882C75.5347 125.98 75.6161 126.082 75.6959 126.187C75.7777 126.317 75.8894 126.426 76.0218 126.505C76.1541 126.583 76.3033 126.629 76.4568 126.638L79.2113 126.403C79.6269 126.371 79.7097 125.766 79.374 125.183L79.3718 125.184ZM72.1436 118.751C71.5874 118.57 71.0003 118.503 70.4175 118.553C69.8347 118.604 69.2681 118.772 68.7517 119.048C68.416 119.242 68.4989 119.942 68.9122 120.454L71.6667 123.872C71.7488 124 71.8612 124.107 71.9938 124.181C72.1264 124.256 72.2754 124.297 72.4276 124.301C72.5087 124.288 72.5908 124.28 72.6731 124.279C72.9193 124.275 73.0664 124.061 73.0664 123.743V120.098C73.0547 119.81 72.9622 119.53 72.7996 119.292C72.6369 119.054 72.4107 118.866 72.1466 118.751L72.1436 118.751ZM66.8432 121.734C66.662 122.421 66.5737 123.13 66.5807 123.842C66.5855 124.652 66.6735 125.461 66.8432 126.253C66.9682 126.854 67.5013 127.405 67.9147 127.369L70.6699 127.135C70.9065 127.115 71.0566 126.908 71.0433 126.586C71.0433 126.53 71.0396 126.475 71.0396 126.419C71.0396 126.364 71.0396 126.309 71.0433 126.255C71.0339 125.896 70.9021 125.55 70.6699 125.275L67.9147 121.856C67.5036 121.343 66.9704 121.277 66.8454 121.733L66.8432 121.734ZM68.7517 131.147C69.649 132.726 70.7943 134.151 72.1436 135.366C72.6095 135.777 73.0664 135.638 73.0664 135.084V131.44C73.0507 131.074 72.9121 130.725 72.6731 130.449C72.5888 130.349 72.5074 130.248 72.4276 130.144C72.3458 130.013 72.2341 129.904 72.1017 129.826C71.9694 129.747 71.8202 129.701 71.6667 129.692L68.9122 129.927C68.5011 129.959 68.4182 130.563 68.754 131.146L68.7517 131.147ZM75.9799 137.58C76.5361 137.761 77.1232 137.829 77.706 137.778C78.2888 137.727 78.8554 137.559 79.3718 137.284C79.7075 137.089 79.6247 136.389 79.2113 135.877L76.4568 132.459C76.3748 132.331 76.2625 132.224 76.1299 132.149C75.9972 132.075 75.8482 132.033 75.6959 132.03C75.6148 132.043 75.5327 132.05 75.4504 132.051C75.2049 132.056 75.0571 132.27 75.0571 132.588V136.234C75.0697 136.522 75.1631 136.802 75.3267 137.039C75.4903 137.277 75.7174 137.464 75.9821 137.579L75.9799 137.58Z" fill="url(#paint5_linear_2_259)"/>
<path d="M112.04 48.2736C112.04 48.2736 114.406 41.6926 116.693 44.3662C118.979 47.0397 117.912 56.8931 117.912 56.8931L112.04 48.2736Z" fill="url(#paint6_radial_2_259)"/>
<path d="M157.86 91.6746C154.17 84.7486 115.654 50.7569 95.2803 34.7274C74.9061 18.6979 47.0635 6.69349 40.4905 4.45368C33.9175 2.21387 15.8504 0.794927 6.71445 1.01698C-3.84347 1.27309 -35.0455 21.632 -39.1568 25.0783C-39.1568 25.0783 -44.9985 48.1648 -44.9985 50.6281C-44.9985 52.9923 -40.1647 63.2957 -35.3013 67.2498C-35.3235 66.8738 -35.339 66.4993 -35.339 66.1292C-35.339 57.6296 -29.3398 54.2055 -21.9401 58.4823C-14.5404 62.7591 -8.54049 73.1166 -8.54049 81.6169C-8.54049 82.0832 -8.56192 82.5318 -8.59742 82.967C11.8855 94.7427 40.3596 110.968 61.8052 123.159C61.4629 121.65 61.2846 120.108 61.2736 118.56C61.2736 110.06 67.272 106.636 74.6725 110.913C82.0729 115.19 88.0714 125.547 88.0714 134.047C88.0833 135.315 87.9263 136.579 87.6048 137.805C89.2515 138.736 90.4887 139.433 91.2451 139.862C102.119 145.981 124.292 137.019 145.715 125.068C166.618 113.415 161.552 98.6027 157.86 91.6746Z" fill="url(#paint7_radial_2_259)"/>
<g style="mix-blend-mode:multiply">
<path d="M70.9863 92.7545C61.1457 82.7501 54.5334 66.5881 46.077 53.6607C37.6206 40.7333 7.02206 27.9577 0.718212 27.0339C-5.04953 26.1886 -28.0577 27.1686 -39.074 25.0162L-39.1569 25.0843C-39.1569 25.0843 -44.9985 48.1707 -44.9985 50.6341C-44.9985 52.9983 -40.1647 63.3017 -35.3013 67.2558C-35.3235 66.8797 -35.339 66.5052 -35.339 66.1351C-35.339 57.6355 -29.3398 54.2114 -21.9401 58.4882C-14.5404 62.765 -8.54493 73.1225 -8.54493 81.6228C-8.54493 82.0891 -8.56638 82.5377 -8.60187 82.9729C11.881 94.7486 40.3552 110.974 61.8008 123.165C61.4585 121.656 61.2802 120.114 61.2691 118.566C61.2691 110.066 67.2676 106.642 74.668 110.919C82.0685 115.196 88.067 125.553 88.067 134.053C88.0788 135.321 87.9219 136.584 87.6003 137.811C89.2471 138.742 90.4842 139.439 91.2407 139.868C94.3981 141.644 98.5125 142.143 103.28 141.673C103.842 135.346 104.078 126.21 101.274 122.919C96.8176 117.689 80.827 102.759 70.9863 92.7545Z" fill="#E5E9FF"/>
</g>
<path opacity="0.5" d="M102.802 122.211C98.3431 116.978 82.3524 102.048 72.5118 92.044C62.6711 82.0396 54.8447 65.0323 46.3883 52.1041C37.9319 39.176 8.54751 27.2471 2.24293 26.3233C-3.52481 25.478 -26.5322 26.458 -37.5493 24.3063C-37.5759 24.3285 -6.85383 25.9717 -1.65178 26.7341C4.65207 27.6572 35.369 39.2796 43.8246 52.207C52.2803 65.1344 58.8932 81.2964 68.7339 91.3008C78.5745 101.305 94.4469 117.389 98.9036 122.621C101.671 125.869 101.476 134.799 100.931 141.114C102.224 141.143 103.518 141.094 104.805 140.966C105.369 134.637 105.607 125.501 102.802 122.211Z" fill="#00C2BE"/>
<path d="M-0.409513 23.6994L32.085 5.17836C32.085 5.17836 17.6317 0.920052 3.48593 5.69131C-10.6598 10.4626 -23.32 20.0562 -22.7048 22.5188C-22.0896 24.9814 -3.94632 24.6224 -0.409513 23.6994Z" fill="url(#paint8_linear_2_259)"/>
<path d="M8.214 5.60472C11.5085 4.50949 14.9135 3.78093 18.3674 3.43226C13.3169 3.36644 8.2898 4.12957 3.4859 5.69132C-10.6599 10.4626 -23.32 20.0562 -22.7048 22.5188C-22.5813 23.0117 -21.7487 23.39 -20.4798 23.6749C-20.0339 20.5069 -6.66456 10.6239 8.214 5.60472Z" fill="url(#paint9_linear_2_259)"/>
<path d="M52.6634 55.1389C53.8169 50.4446 85.4374 33.498 88.5128 33.344C91.5882 33.1901 122.647 57.3543 121.571 63.2032C120.494 69.0522 85.4389 91.6746 73.8118 86.9677C60.9312 81.7494 51.6895 59.11 52.6634 55.1389Z" fill="url(#paint10_linear_2_259)"/>
<path d="M53.9686 55.5586C55.0896 50.9953 85.8309 34.5202 88.8205 34.3707C91.8101 34.2211 122.006 57.7125 120.959 63.3986C119.912 69.0848 85.8309 91.0817 74.5276 86.5014C62.005 81.4289 53.0199 59.4194 53.9686 55.5586Z" fill="url(#paint11_linear_2_259)"/>
<path d="M116.684 55.3891C117.263 56.1991 117.557 57.1783 117.522 58.1737C116.418 64.1744 81.2884 86.9715 68.2437 83.4519C69.8967 84.9193 71.778 86.1069 73.8132 86.9677C85.4396 91.6768 120.497 69.0552 121.573 63.2032C121.861 61.6377 119.846 58.7606 116.684 55.3891Z" fill="url(#paint12_linear_2_259)"/>
<path d="M58.993 87.9833L-23.7808 39.706C-23.7808 39.706 -5.27888 27.6498 8.86761 32.575C23.0141 37.5002 44.232 52.4291 48.0757 61.3565C51.9194 70.2839 58.993 87.9833 58.993 87.9833Z" fill="url(#paint13_linear_2_259)"/>
<path d="M56.7414 86.1365L-21.5298 40.4846C-21.5298 40.4846 -4.03354 29.0857 9.34244 33.7415C22.7184 38.3973 42.7835 52.5164 46.4186 60.9575C50.0538 69.3986 56.7414 86.1365 56.7414 86.1365Z" fill="url(#paint14_linear_2_259)"/>
<path d="M116.705 118.765C116.705 118.765 120.984 126.537 123.162 126.615C125.341 126.693 131.042 124.681 142.421 118.063C149.693 113.832 152.915 110.916 153.632 108.607C154.349 106.299 152.53 98.1416 152.53 98.1416C152.53 98.1416 148.225 103.221 136.539 109.837C130.169 113.324 123.538 116.309 116.705 118.765Z" fill="url(#paint15_linear_2_259)"/>
<path style="mix-blend-mode:screen" d="M152.533 98.1416C152.533 98.1416 152.311 98.4 151.844 98.8722C152.329 101.339 153.16 106.15 152.635 107.838C151.918 110.147 148.697 113.063 141.424 117.293C130.046 123.911 124.342 125.922 122.165 125.845C121.939 125.828 121.72 125.759 121.525 125.645C121.948 126.142 122.525 126.484 123.165 126.615C125.343 126.689 131.045 124.681 142.423 118.063C149.696 113.832 152.918 110.916 153.635 108.607C154.352 106.299 152.533 98.1416 152.533 98.1416Z" fill="url(#paint16_radial_2_259)"/>
<path d="M113.68 119.278L119.216 128C119.216 128 112.245 129.642 107.632 129.386C105.671 129.24 103.771 128.64 102.082 127.634C100.392 126.628 98.9584 125.243 97.8943 123.589C96.459 121.126 96.1514 116.611 96.1514 116.611C96.1514 116.611 101.79 119.176 106.095 119.794C108.631 120.171 111.218 119.995 113.68 119.278Z" fill="url(#paint17_linear_2_259)"/>
<path style="mix-blend-mode:multiply" d="M113.68 119.278L119.216 128C119.216 128 111.222 126.948 105.018 123.781C98.8141 120.614 96.1499 116.612 96.1499 116.612C96.1499 116.612 101.788 119.177 106.093 119.794C108.63 120.171 111.218 119.995 113.68 119.278Z" fill="url(#paint18_linear_2_259)"/>
<path d="M154.448 97.5613L155.516 107.222C155.516 107.222 160.743 103.015 161.05 99.5243C161.358 96.0336 158.552 92.252 158.552 92.252C157.661 94.3443 156.247 96.1724 154.448 97.5613Z" fill="url(#paint19_linear_2_259)"/>
<path style="mix-blend-mode:multiply" d="M154.448 97.5613L155.516 107.222C155.516 107.222 158.067 101.63 158.374 98.1416C158.559 96.185 158.619 94.2185 158.553 92.2542C157.661 94.3456 156.248 96.173 154.448 97.5613Z" fill="url(#paint20_linear_2_259)"/>
<path d="M114.251 123.063L112.065 127.693C112.065 127.693 105.41 123.572 106.069 122.148C106.728 120.724 114.251 123.063 114.251 123.063Z" fill="url(#paint21_linear_2_259)"/>
<path d="M111.354 126.349C111.354 127.515 112.178 127.985 113.194 127.398C113.728 127.051 114.173 126.582 114.493 126.03C114.813 125.479 114.998 124.859 115.033 124.222C115.033 123.056 114.21 122.586 113.194 123.173C112.659 123.52 112.214 123.989 111.894 124.54C111.575 125.092 111.389 125.712 111.354 126.349Z" fill="url(#paint22_linear_2_259)"/>
<path d="M109.08 122.934L106.876 127.603C106.876 127.603 100.162 123.447 100.828 122.01C101.495 120.574 109.08 122.934 109.08 122.934Z" fill="url(#paint23_linear_2_259)"/>
<path d="M106.158 126.247C106.158 127.424 106.99 127.899 108.014 127.306C108.553 126.956 109.002 126.483 109.324 125.927C109.647 125.37 109.833 124.745 109.869 124.103C109.869 122.926 109.039 122.452 108.014 123.045C107.475 123.395 107.026 123.867 106.704 124.424C106.381 124.98 106.194 125.605 106.158 126.247Z" fill="url(#paint24_linear_2_259)"/>
<path d="M104.984 120.246L103.041 124.361C103.041 124.361 97.1254 120.698 97.7095 119.432C98.2937 118.165 104.984 120.246 104.984 120.246Z" fill="url(#paint25_radial_2_259)"/>
<path d="M102.409 123.164C102.409 124.2 103.141 124.619 104.044 124.097C104.519 123.788 104.914 123.372 105.199 122.881C105.483 122.39 105.648 121.839 105.679 121.273C105.679 120.237 104.947 119.817 104.044 120.34C103.569 120.649 103.173 121.065 102.889 121.556C102.605 122.047 102.44 122.598 102.409 123.164Z" fill="url(#paint26_radial_2_259)"/>
<path d="M158.594 98.6279L156.651 102.744C156.651 102.744 154.158 99.9077 154.746 98.6413C155.334 97.3748 158.594 98.6279 158.594 98.6279Z" fill="url(#paint27_linear_2_259)"/>
<path d="M158.819 98.6116C158.184 98.2403 157.149 98.8313 156.506 99.9317C155.863 101.032 155.857 102.225 156.492 102.597C157.126 102.968 158.162 102.377 158.804 101.276C159.447 100.176 159.453 98.983 158.819 98.6116Z" fill="url(#paint28_linear_2_259)"/>
<path d="M159.679 95.1394L158.183 98.3059C158.183 98.3059 156.025 96.7686 156.477 95.7945C156.929 94.8204 159.679 95.1394 159.679 95.1394Z" fill="url(#paint29_linear_2_259)"/>
<path d="M157.697 97.3866C157.697 98.1853 158.26 98.5065 158.954 98.1054C159.319 97.8675 159.624 97.5468 159.842 97.1692C160.06 96.7916 160.187 96.3678 160.211 95.9322C160.211 95.1342 159.648 94.813 158.954 95.2142C158.589 95.452 158.284 95.7726 158.066 96.1501C157.848 96.5275 157.721 96.9511 157.697 97.3866Z" fill="url(#paint30_linear_2_259)"/>
<path opacity="0.2" d="M-23.5714 40.6223L60.174 88.7346L75.0887 104.434L73.5514 105.973L60.6354 101.509L-33.571 47.589L-23.5714 40.6223Z" fill="#00C2BE"/>
<g style="mix-blend-mode:multiply">
<path style="mix-blend-mode:multiply" d="M159.878 110.809C155.42 115.078 150.707 119.072 145.765 122.768C135.924 129.948 111.425 137.72 102.302 133.233C100.641 132.419 94.5422 128.982 85.6843 123.914C87.1722 127.092 87.9845 130.545 88.0698 134.054C88.0817 135.322 87.9247 136.585 87.6032 137.811C89.25 138.743 90.4871 139.44 91.2435 139.868C102.114 145.987 124.29 137.025 145.713 125.075C153.777 120.578 157.972 115.612 159.878 110.809Z" fill="url(#paint31_linear_2_259)"/>
<path style="mix-blend-mode:multiply" d="M61.8036 123.167C61.4613 121.658 61.283 120.116 61.272 118.568C61.272 115.335 62.1408 112.84 63.6234 111.22C39.7095 97.4081 9.36231 79.762 -13.8979 66.2166C-10.6444 70.9034 -8.5421 76.5873 -8.5421 81.6206C-8.5421 82.0869 -8.56354 82.5355 -8.59903 82.9707C11.8868 94.7486 40.358 110.974 61.8036 123.167Z" fill="url(#paint32_linear_2_259)"/>
</g>
<path d="M93.8968 124.461C93.8968 124.461 103.892 130.518 108.043 130.617C114.5 130.771 127.423 127.598 140.443 119.563C160.526 107.171 161.243 99.2186 161.243 99.2186C161.243 99.2186 162.777 108.833 162.165 113.378C161.554 117.924 157.549 123.737 140.025 132.925C123.148 141.775 109.426 143.546 102.813 142.776C98.8459 142.317 94.9558 141.34 91.2422 139.87L93.8968 124.461Z" fill="url(#paint33_radial_2_259)"/>
<path style="mix-blend-mode:color-dodge" d="M108.76 131.951C115.217 132.104 128.141 128.932 141.161 120.897C156.58 111.382 160.58 104.49 161.608 101.8C161.408 100.254 161.243 99.2194 161.243 99.2194C161.243 99.2194 160.525 107.172 140.443 119.564C127.423 127.599 114.5 130.771 108.043 130.617C103.892 130.519 93.8968 124.461 93.8968 124.461L93.6838 125.696C98.0962 128.018 105.859 131.882 108.76 131.951Z" fill="url(#paint34_radial_2_259)"/>
<path style="mix-blend-mode:multiply" d="M162.166 113.378C162.333 111.768 162.36 110.146 162.247 108.531C157.079 113.642 151.573 118.398 145.766 122.768C135.925 129.948 111.426 137.72 102.303 133.233C101.17 132.677 97.9742 130.902 93.249 128.224L91.2444 139.87C94.9572 141.34 98.8466 142.317 102.813 142.776C109.425 143.546 123.148 141.775 140.023 132.925C157.55 123.737 161.555 117.924 162.166 113.378Z" fill="url(#paint35_linear_2_259)"/>
<path style="mix-blend-mode:multiply" d="M162.166 113.378C162.333 111.768 162.36 110.146 162.247 108.531C157.079 113.642 151.573 118.398 145.766 122.768C135.925 129.948 111.426 137.72 102.303 133.233C101.17 132.677 97.9742 130.902 93.249 128.224L91.2444 139.87C94.9572 141.34 98.8466 142.317 102.813 142.776C109.425 143.546 123.148 141.775 140.023 132.925C157.55 123.737 161.555 117.924 162.166 113.378Z" fill="url(#paint36_linear_2_259)"/>
<path d="M49.4238 82.4023L58.9931 87.9833C58.9931 87.9833 55.0429 78.0988 51.4425 69.3779L49.4238 82.4023Z" fill="url(#paint37_linear_2_259)"/>
<path d="M0.831221 31.4032C-11.4127 31.6512 -23.7808 39.7059 -23.7808 39.7059L-7.80858 49.0205C-7.43885 47.0531 -6.92123 44.4446 -6.35259 41.9147C-5.4512 37.8836 -0.930899 33.1331 0.831221 31.4032Z" fill="url(#paint38_linear_2_259)"/>
<path style="mix-blend-mode:screen" d="M57.1289 50.6408C79.8679 57.3669 103.689 57.1848 117.71 56.5127C109.48 47.2529 90.8598 33.2271 88.515 33.3448C86.1081 33.4647 66.2138 43.8725 57.1289 50.6408Z" fill="url(#paint39_linear_2_259)"/>
<path d="M137.769 132.617C153.247 124.919 159.709 118.378 160.427 116.12C161.145 113.863 159.75 115.954 156.736 118.276C152.739 121.353 146.598 125.066 136.539 130.361C119.562 139.297 108.452 138.774 107.94 139.8C107.427 140.826 115.173 143.852 137.769 132.617Z" fill="url(#paint40_linear_2_259)"/>
<path opacity="0.5" d="M125.612 64.0656C125.612 64.0656 155.345 87.7227 151.076 93.8278C146.807 99.9329 118.293 118.859 107.01 115.348C95.7268 111.837 78.4976 91.5384 78.4976 91.5384C78.4976 91.5384 98.624 86.8071 111.584 77.9552C124.545 69.1033 125.612 64.0656 125.612 64.0656Z" fill="#00C2BE"/>
<path style="mix-blend-mode:screen" d="M113.68 119.278C113.68 119.278 110.835 127.597 100.716 123.879C98.0421 122.897 96.1514 116.611 96.1514 116.611C96.1514 116.611 101.79 119.176 106.095 119.794C108.631 120.171 111.218 119.995 113.68 119.278Z" fill="url(#paint41_radial_2_259)"/>
<path d="M51.6628 49.8473C51.6628 49.8473 84.1064 31.6853 84.4132 30.6083C84.7201 29.5313 42.4374 6.29013 36.748 6.29013C31.0586 6.29013 6.76462 22.9125 7.99508 24.2974C9.22553 25.6823 28.4484 32.6075 34.1377 37.0724C39.8271 41.5372 47.0538 47.5386 51.6628 49.8473Z" fill="#00C2BE"/>
<path d="M16.0945 62.9464L24.7054 67.8716L27.678 42.4247L22.9625 39.4491L16.0945 62.9464Z" fill="url(#paint42_linear_2_259)"/>
<path opacity="0.5" d="M59.192 88.4703C57.534 93.0867 56.5865 97.9286 56.3821 102.83C56.0375 109.145 55.9495 114.053 55.9274 116.116L20.021 95.4014C19.8011 87.0566 20.0126 78.706 20.6547 70.3831C21.7409 57.0315 26.2745 41.7267 26.3204 41.5734L25.1417 41.2211C25.0958 41.3758 20.5253 56.7999 19.4294 70.2831C18.8033 78.399 18.5836 86.5412 18.7713 94.679L-1.77814 82.8271C-2.36157 81.5599 -5.97158 73.7147 -9.89365 64.9523C-11.127 62.2989 -11.8253 59.428 -11.9486 56.504C-12.072 53.5801 -11.6179 50.6605 -10.6124 47.9124L-11.7327 47.4032C-11.8843 47.7363 -15.3944 55.6748 -11.0161 65.4556C-6.74949 74.9885 -2.85181 83.437 -2.81262 83.5207L-2.73129 83.6991L57.1482 118.241V117.176C57.1482 117.117 57.1534 111.247 57.6081 102.895C57.821 98.1316 58.7387 93.426 60.3315 88.9322L59.192 88.4703Z" fill="#00C2BE"/>
<path style="mix-blend-mode:multiply" d="M58.2239 87.5214C58.2239 87.5214 47.5381 96.2171 42.0025 93.2949C36.467 90.3726 52.6122 83.8286 52.6122 83.8286L58.2239 87.5214Z" fill="url(#paint43_linear_2_259)"/>
<path d="M51.6694 79.2283C50.0485 79.0803 42.2783 79.725 40.988 83.1461C39.6976 86.5673 58.0745 88.4651 58.6676 87.7294C59.2606 86.9936 55.221 79.5577 51.6694 79.2283Z" fill="url(#paint44_radial_2_259)"/>
<path style="mix-blend-mode:screen" d="M51.3789 79.8168C50.1055 79.6932 44.0191 80.0707 43.0423 82.4874C42.0655 84.9041 56.5003 86.4437 56.9566 85.927C57.4128 85.4104 54.1681 80.0877 51.3789 79.8168Z" fill="url(#paint45_linear_2_259)"/>
<path style="mix-blend-mode:screen" d="M-19.7854 39.4402C-1.864 44.2189 16.4012 44.928 29.7476 44.6696C23.026 40.0102 15.4814 35.8792 9.34241 33.7415C-1.49576 29.968 -15.0374 36.7363 -19.7854 39.4402Z" fill="url(#paint46_linear_2_259)"/>
<path opacity="0.5" d="M-5.69727 84.6428C-5.67082 84.1499 -5.46948 83.6826 -5.1295 83.3251C-4.78952 82.9675 -4.33323 82.7432 -3.84272 82.6924C-2.5679 82.7013 -1.45794 84.161 -0.260763 83.7228C-0.75176 82.7294 0.176992 81.4822 1.27212 81.309C1.82616 81.2736 2.38129 81.358 2.89983 81.5565C3.41838 81.755 3.88816 82.0629 4.27724 82.4593C5.04771 83.2561 5.86768 84.0035 6.73223 84.6969C7.72188 85.3597 8.90378 85.674 10.0916 85.5903C11.7864 85.4659 13.6816 84.5851 15.0459 85.6029C16.3769 86.5977 16.1203 88.6051 16.0294 90.266C15.9029 93.1187 16.6705 95.9397 18.2248 98.3341C9.78987 93.5177 1.61445 88.8382 -5.69727 84.6428Z" fill="url(#paint47_linear_2_259)"/>
<path opacity="0.5" d="M14.9364 90.8478C15.0274 89.1757 15.2862 87.1528 13.9455 86.1498C12.5746 85.1247 10.6646 86.0114 8.95793 86.1372C7.75929 86.2217 6.56669 85.9042 5.56829 85.235C4.69797 84.5357 3.87212 83.7827 3.09556 82.9803C2.71737 82.6023 2.26729 82.3041 1.77195 82.1032C1.27661 81.9023 0.746056 81.8029 0.21167 81.8108C0.343687 81.7547 0.481979 81.7147 0.623551 81.6917C1.17773 81.6559 1.73313 81.7401 2.25185 81.9386C2.77057 82.1371 3.24042 82.4452 3.62943 82.8419C4.40009 83.6386 5.22004 84.3859 6.08442 85.0795C7.07414 85.7436 8.25666 86.0587 9.44523 85.9751C11.1393 85.8508 13.0353 84.97 14.3996 85.9877C15.7306 86.9833 15.4733 88.9907 15.3831 90.6509C15.2278 93.4858 15.9206 95.3193 17.4535 97.7071C17.1563 97.5399 14.7959 93.4118 14.9364 90.8478Z" fill="url(#paint48_linear_2_259)"/>
<path opacity="0.5" d="M99.1958 60.0271C97.8271 60.5127 96.2424 60.2092 94.941 60.8524C93.1234 61.751 92.5806 64.1759 93.014 66.1588C93.4473 68.1418 94.5964 69.8812 95.3529 71.7643C96.1112 73.6551 96.4712 75.6825 96.4103 77.7191C96.3062 78.7795 96.3007 79.8472 96.394 80.9086C96.4461 81.4402 96.6269 81.9512 96.9208 82.3971C97.2147 82.843 97.6128 83.2104 98.0807 83.4674C98.8953 83.7834 99.7873 83.8408 100.636 83.6317C106.525 81.9012 106.034 90.2194 110.784 88.4126C116.552 86.2216 101.454 79.6725 115.162 77.0581C117.818 76.5518 117.211 81.0181 124.216 79.916C128.74 79.2047 123.856 70.7495 124.102 68.714C124.348 66.6784 125.089 64.5297 124.107 62.731C123.458 61.5423 119.045 58.845 117.947 57.6977C115.911 55.5623 113.391 52.0294 110.569 51.7022C107.746 51.375 106.122 51.1619 104.388 53.4143C102.641 55.6829 101.893 59.0708 99.1958 60.0271Z" fill="url(#paint49_linear_2_259)"/>
<path opacity="0.5" d="M102.12 57.6526C102.94 56.358 103.58 54.8228 104.511 53.6134C104.518 53.6052 104.524 53.5993 104.53 53.5919C103.688 54.9235 103.042 56.4661 102.12 57.6526Z" fill="url(#paint50_linear_2_259)"/>
<path opacity="0.5" d="M95.809 71.2321C96.5522 73.0825 97.2916 74.691 97.2303 76.6843C97.1283 77.7255 97.1231 78.7739 97.2147 79.816C97.2653 80.3388 97.4426 80.8413 97.7313 81.2799C98.0199 81.7185 98.4112 82.0799 98.8711 82.3327C99.6707 82.6432 100.547 82.6996 101.379 82.494C107.163 80.7953 106.679 88.9603 111.345 87.1883C111.471 87.1391 111.594 87.0833 111.715 87.021C111.435 87.2948 111.096 87.5018 110.725 87.6265C106.107 89.38 106.584 81.2994 100.862 82.9811C100.038 83.1841 99.1715 83.1283 98.3801 82.8212C97.9256 82.5713 97.5389 82.2143 97.2534 81.7811C96.9678 81.3478 96.7921 80.8515 96.7415 80.3349C96.6509 79.3034 96.6561 78.2656 96.757 77.235C96.8165 75.2558 96.4668 73.2857 95.7299 71.4482C94.9971 69.617 95.0659 69.3838 95.809 71.2321Z" fill="url(#paint51_linear_2_259)"/>
<path d="M163.604 80.1602L164.725 76.5585L172.596 78.5984C172.891 77.3638 174.699 68.7169 175.197 67.1551C176.149 64.1707 177.066 59.2099 181.124 60.8805C183.639 61.9168 183.005 65.6858 182.012 68.2824C181.364 69.9752 180.47 72.5555 179.941 74.195C179.489 75.5925 176.777 83.9182 174.787 84.383C172.797 84.8478 170.545 83.6465 168.751 82.8227C166.798 81.93 163.604 80.1602 163.604 80.1602Z" fill="url(#paint52_linear_2_259)"/>
<g style="mix-blend-mode:multiply">
<path d="M168.746 82.8249C166.798 81.93 163.604 80.1602 163.604 80.1602L163.81 79.4992C165.612 80.2017 172.993 83.1373 174.236 82.4267C175.629 81.6295 177.52 70.973 177.52 70.973L179.759 63.9012L182.856 63.5467C182.921 65.1684 182.632 66.7848 182.011 68.2839C181.363 69.9767 180.469 72.557 179.94 74.1965C179.489 75.594 176.776 83.9197 174.786 84.3845C172.797 84.8493 170.54 83.6487 168.746 82.8249Z" fill="#CED3F4"/>
</g>
<path d="M177.698 61.3387C178.654 60.4136 179.905 59.8549 181.232 59.7606C180.688 60.202 180.292 60.7983 180.095 61.4705L184.658 60.1981C185.132 60.2995 185.634 60.3543 186.079 60.4734C185.908 60.3885 185.732 60.3158 185.551 60.2558C186.279 60.4863 186.983 60.7903 187.65 61.1633C190.119 62.4497 192.689 63.1707 193.418 65.2625C194.06 67.1011 194.106 88.9004 194.173 90.0195C194.39 93.5969 178.349 88.0758 178.197 85.517C178.001 82.2846 176.39 68.9427 176.404 67.6399C176.418 66.3372 176.631 62.4298 177.698 61.3387Z" fill="url(#paint53_linear_2_259)"/>
<path d="M185.553 60.2558C185.455 60.2277 185.361 60.1944 185.257 60.1714C185.261 60.1714 185.378 60.1981 185.553 60.2558Z" fill="url(#paint54_linear_2_259)"/>
<g style="mix-blend-mode:multiply">
<path d="M190.757 81.5303L189.11 67.7191L193.507 65.6614C194.067 69.1122 194.113 88.9529 194.177 90.0195C194.236 90.9951 192.342 91.4903 190.636 91.3571L190.757 81.5303Z" fill="#CED3F4"/>
</g>
<path opacity="0.9" d="M151.403 74.6577C134.289 67.7524 112.893 50.7651 106.065 53.7103C97.4373 57.4276 168.513 81.5636 151.403 74.6577Z" fill="url(#paint55_linear_2_259)"/>
<path opacity="0.9" d="M152.496 74.8035C134.66 70.0663 105.74 51.9635 102.002 57.9486C96.6263 66.557 170.331 79.5355 152.496 74.8035Z" fill="url(#paint56_linear_2_259)"/>
<path opacity="0.9" d="M149.576 75.2224C131.129 74.7835 102.994 83.9833 99.9582 77.6125C96.922 71.2417 168.023 75.6614 149.576 75.2224Z" fill="url(#paint57_linear_2_259)"/>
<path opacity="0.9" d="M150.854 75.0677C132.479 73.3794 99.3141 79.8656 97.8352 72.9649C96.0339 64.5674 169.229 76.7568 150.854 75.0677Z" fill="url(#paint58_linear_2_259)"/>
<path opacity="0.9" d="M149.359 74.9338C131.525 70.1966 95.897 73.7494 97.1614 64.5089C98.3668 55.7014 167.194 79.6739 149.359 74.9338Z" fill="url(#paint59_linear_2_259)"/>
<path d="M181.159 127.637L181.367 128.821C181.415 129.095 181.373 129.377 181.248 129.626C181.123 129.875 180.922 130.077 180.674 130.202C180.461 130.317 180.24 130.415 180.012 130.498C179.536 130.646 176.381 132.616 175.058 132.881C173.633 133.165 172.635 132.707 172.613 132.295C172.59 131.884 172.959 131.213 174.257 130.371C175.244 129.575 176.061 128.588 176.66 127.469L181.159 127.637Z" fill="black"/>
<path d="M181.267 128.98C181.072 129.218 179.255 129.54 178.297 130.278C177.283 131.058 175.623 132.219 174.499 132.413C173.476 132.589 172.69 132.078 172.788 131.686C172.929 131.122 173.867 130.605 174.689 129.976C175.355 129.369 175.931 128.668 176.398 127.897L181.072 127.594L181.267 128.98Z" fill="#363339"/>
<path d="M195.86 132.432L195.888 133.708C195.893 133.921 195.855 134.132 195.776 134.33C195.696 134.527 195.578 134.707 195.428 134.857L195.017 135.269C194.324 136.231 193.455 137.053 192.456 137.691C190.991 138.64 189.217 138.409 188.784 138.061C188.352 137.712 188.352 137.389 189.434 135.939C190.515 134.488 192.073 132.386 192.073 132.386L195.86 132.432Z" fill="black"/>
<path d="M195.749 133.569C194.974 134.275 194.264 135.048 193.628 135.881C192.808 137.171 190.642 138.161 189.214 137.685C187.786 137.208 189.712 135.714 190.101 135.064C190.491 134.414 191.594 132.79 191.594 132.79L195.814 132.746L195.749 133.569Z" fill="#363339"/>
<g style="mix-blend-mode:multiply">
<path d="M190.337 90.742L194.942 89.8197C194.945 89.8267 194.947 89.8339 194.948 89.8412C195.238 92.1157 195.266 94.416 195.03 96.6968C194.7 100.091 192.654 106.097 192.195 114.861C192.064 117.367 195.671 131.224 195.862 132.25C195.842 132.768 195.365 133.11 194.734 133.307L189.388 115.038L190.337 90.742Z" fill="#CED3F4"/>
</g>
<path d="M177.89 85.3615L177.701 80.4674L178.218 79.6362C178.218 79.6362 177.985 74.2794 177.695 70.0285C177.598 66.8635 177.871 63.6979 178.508 60.5963L180.135 60.0723C180.135 60.0723 179.553 63.7406 179.322 66.1855C179.237 68.4595 179.334 70.7367 179.612 72.9952L184.265 73.0537C184.265 73.0537 185.022 69.5008 185.892 66.8235C186.566 64.9203 187.423 63.0871 188.452 61.3498L189.848 62.0486C189.848 62.0486 187.172 67.4638 186.532 72.3549C186.133 75.4038 187.754 78.9929 187.754 78.9929C187.754 78.9929 190.145 81.6273 191.89 81.3941C192.678 81.2533 193.479 81.2088 194.278 81.2616C195.473 86.3159 195.726 91.5476 195.025 96.6938C194.496 100.063 192.648 106.094 192.189 114.858C192.058 117.364 195.665 131.221 195.856 132.247C196.141 133.774 191.679 133.801 191.44 132.903C191.315 132.434 185.462 118.208 185.02 115.035C184.675 112.563 184.705 104.86 184.793 98.7094L180.767 111.852C180.767 111.852 181.162 126.546 181.185 127.56C181.215 128.905 176.591 129.115 176.441 127.769C176.292 126.423 174.652 111.365 174.652 110.23C174.658 108.505 177.679 86.6036 177.89 85.3615Z" fill="#C0C6DE"/>
<g style="mix-blend-mode:multiply" opacity="0.327">
<path d="M188.91 115.127C188.711 112.804 191.63 97.001 191.431 94.0129C191.265 91.5244 189.952 83.2364 189.515 80.5348C190.183 81.0925 191.025 81.3978 191.895 81.3971C192.683 81.2562 193.485 81.2117 194.283 81.2646C195.478 86.3188 195.732 91.5505 195.03 96.6968C194.502 100.066 192.653 106.097 192.195 114.861C192.063 117.367 195.67 131.224 195.861 132.25C195.993 132.954 195.112 133.336 194.103 133.458C193.07 130.111 189.083 117.149 188.91 115.127Z" fill="#CED3F4"/>
</g>
<path d="M180.562 56.7222C180.459 55.9272 181.474 55.1278 182.838 54.9339C184.203 54.7399 185.4 55.224 185.522 56.0168C185.522 56.0168 186.809 61.7702 186.81 61.7784C186.946 62.7369 185.724 63.7029 184.08 63.9368C182.436 64.1707 180.994 63.583 180.857 62.6252C180.857 62.617 180.562 56.7222 180.562 56.7222H180.562Z" fill="#FFD4C0"/>
<g style="mix-blend-mode:multiply">
<path d="M184.91 58.8709C185.218 57.7573 185.314 56.5954 185.193 55.4461C184.858 55.2006 184.476 55.0282 184.07 54.9399C183.664 54.8517 183.245 54.8496 182.838 54.9339C181.474 55.1278 180.459 55.9272 180.562 56.7222C180.562 56.7222 180.858 62.617 180.858 62.6252C180.894 62.8374 180.99 63.0348 181.135 63.1944C182.914 62.4964 184.442 60.3728 184.91 58.8709Z" fill="#F1D5BE"/>
</g>
<path d="M178.625 52.6667C177.446 54.851 178.484 61.993 180.736 62.0108C182.988 62.0286 185.123 59.2795 185.69 57.452C186.258 55.6245 186.282 51.7821 184.311 50.848C183.314 50.3507 182.161 50.2624 181.099 50.602C180.038 50.9416 179.15 51.6823 178.625 52.6667Z" fill="#FFD4C0"/>
<path d="M180.026 55.0634C177.36 55.1841 176.773 53.8117 177.231 52.3247C177.608 51.0952 180.212 49.1944 183.835 49.5653C187.459 49.9361 186.969 54.1063 186.917 55.7451C186.866 57.3839 186.601 58.7421 186.051 58.3143C185.5 57.8865 186.136 55.996 185.478 55.7192C185.131 55.5712 184.799 55.9235 184.706 56.3484C184.572 57.0797 185.002 59.1174 184.542 59.8843C183.998 60.7917 181.627 62.7947 180.222 62.0619C178.734 61.2847 178.591 59.3099 178.591 59.3099C178.977 59.1673 179.388 59.1004 179.799 59.113C180.631 59.2036 181.432 59.482 182.14 59.9272C182.14 59.9272 183.757 59.1566 183.877 58.4912C183.788 57.1702 183.594 55.8584 183.296 54.5682C182.233 54.8798 181.134 55.0463 180.026 55.0634ZM180.464 59.7347C180.397 59.7207 179.821 59.6518 179.75 59.6437C179.055 59.5697 179.217 60.1093 179.217 60.1093C179.217 60.1093 179.302 60.3313 180.071 60.4113C180.411 60.4696 180.759 60.4442 181.087 60.3372C181.063 60.1824 180.989 60.0396 180.877 59.9308C180.765 59.8219 180.619 59.753 180.464 59.7347Z" fill="#363339"/>
<path d="M149.743 72.8412L149.147 76.2091L146.825 75.7976H146.812C146.271 75.7013 145.966 74.8701 146.13 73.9397C146.295 73.0093 146.87 72.3335 147.408 72.4297H147.421L149.743 72.8412Z" fill="#454E9C"/>
<path d="M149.735 72.8398C149.193 72.7443 148.622 73.4201 148.457 74.3505C148.292 75.2809 148.598 76.1121 149.139 76.2076C149.679 76.3031 150.248 75.6273 150.416 74.6976C150.585 73.768 150.277 72.936 149.735 72.8398Z" fill="#747DC2"/>
<path d="M190.857 80.5711L190.413 83.0603L149.304 75.7828H149.294C148.894 75.7087 148.669 75.0974 148.79 74.4097C148.911 73.7221 149.334 73.2254 149.734 73.2935H149.744L190.857 80.5711Z" fill="url(#paint60_linear_2_259)"/>
<path d="M190.853 80.5711C190.453 80.497 190.03 80.9996 189.908 81.6873C189.786 82.3749 190.013 82.9892 190.413 83.0596C190.813 83.1299 191.235 82.631 191.356 81.9441C191.477 81.2572 191.253 80.6451 190.853 80.5711Z" fill="url(#paint61_linear_2_259)"/>
<path d="M190.852 80.571C192.214 80.8523 191.074 85.1054 190.47 86.2083C189.558 87.8782 182.716 86.1691 181.473 85.5873C179.558 84.6909 178.663 80.1839 178.663 80.1839L180.154 80.3719C180.154 80.3719 181.788 83.5207 183.098 83.89C184.408 84.2594 188.48 85.0314 188.679 84.0684C188.914 82.9322 189.177 81.5118 189.177 81.5118L190.852 80.571Z" fill="url(#paint62_linear_2_259)"/>
<path d="M181.009 84.6917C182.252 85.2735 189.093 86.9862 190.006 85.3127C190.5 84.4082 191.343 82.0699 191.155 80.6984C192.079 81.3009 190.969 85.2964 190.47 86.209C189.558 87.8789 182.716 86.1698 181.473 85.588C180.043 84.9219 179.21 82.326 178.862 80.9819C179.293 82.2735 179.85 84.1499 181.009 84.6917Z" fill="url(#paint63_linear_2_259)"/>
<path d="M190.535 78.2935L192.354 80.9581C192.354 80.9581 190.969 81.2779 190.579 81.4452C190.189 81.6125 188.399 82.6783 187.765 83.0736C186.722 83.581 185.548 83.7551 184.403 83.5725C183.562 83.4558 182.776 83.09 182.144 82.5222C181.645 82.0677 181.397 81.4267 181.821 81.4267C182.617 81.4871 183.417 81.412 184.187 81.2046C184.913 80.9145 185.692 80.3164 185.679 79.9219C185.673 79.6998 185.256 79.5858 184.734 79.4859L183.391 79.2121C183.508 78.7206 185.259 78.5799 185.877 78.4526C186.919 78.4425 187.96 78.5138 188.991 78.6658C189.488 78.6357 189.976 78.5231 190.435 78.3327L190.535 78.2935Z" fill="#FFD4C0"/>
<g style="mix-blend-mode:multiply" opacity="0.5">
<path d="M191.576 79.799L192.352 80.9589C192.352 80.9589 190.967 81.2787 190.578 81.4459C190.188 81.6132 188.398 82.6791 187.763 83.0743C186.72 83.5817 185.547 83.7559 184.402 83.5732C183.561 83.4562 182.774 83.0905 182.143 82.5229C181.665 82.0884 181.424 81.4866 181.773 81.4378C182.592 82.1333 183.626 82.5254 184.7 82.5481C185.693 82.4615 188.41 81.1195 189.227 80.5177C189.968 80.1574 190.76 79.9149 191.576 79.799Z" fill="#F1D5BE"/>
</g>
<path d="M191.702 72.1669C189.664 69.7909 186.291 66.7828 189.84 64.2003C192.04 62.5993 193.526 64.1699 196.273 67.1218C197.508 68.4482 205.214 76.3742 203.835 79.007C203.105 80.4015 190.599 81.9618 190.599 81.9618L189.537 78.4756L195.629 76.3068C194.175 74.8146 192.375 72.9523 191.702 72.1669Z" fill="url(#paint64_linear_2_259)"/>
<path d="M163.664 80.084C163.548 80.0515 163.43 80.0251 163.312 80.0048C162.211 79.8228 161.156 79.4276 160.206 78.8412C159.789 78.4107 159.494 77.8777 159.35 77.2961C159.206 76.7145 159.217 76.1051 159.384 75.5296C159.793 74.6836 160.175 74.6525 160.703 74.6577C161.166 74.6628 163.581 74.7998 163.91 75.2498C164.239 75.6999 164.132 75.8775 164.132 75.8775C164.008 75.8144 163.872 75.7785 163.733 75.7723C163.595 75.7661 163.456 75.7897 163.327 75.8415C163.198 75.8933 163.082 75.9722 162.986 76.0727C162.89 76.1733 162.817 76.2932 162.771 76.4245C162.442 77.4178 162.923 77.8694 164.314 78.423C164.416 78.4637 164.515 78.5022 164.609 78.5385L163.664 80.084Z" fill="#FFD4C0"/>
<g style="mix-blend-mode:multiply" opacity="0.327">
<path d="M183.548 94.833L184.926 95.1061C184.892 96.6183 184.839 95.9026 184.799 98.7123L180.77 111.855C180.77 111.855 181.165 126.549 181.188 127.563C181.199 128.06 180.573 128.401 179.772 128.566L177.638 111.01L183.548 94.833Z" fill="#CED3F4"/>
</g>
<g style="mix-blend-mode:multiply">
<path d="M190.23 80.7376C192.678 80.2535 201.254 78.5303 202.244 77.9448C203.085 77.4467 202.625 75.5392 202.085 74.01C203.467 76.0167 204.392 77.9434 203.836 79.007C203.106 80.4015 190.6 81.9619 190.6 81.9619L190.23 80.7376Z" fill="#CED3F4"/>
</g>
<g style="mix-blend-mode:multiply" opacity="0.5">
<path d="M162.113 76.1188C162.384 75.0196 164.07 75.1395 164.138 75.8486C164.136 75.859 164.132 75.8692 164.128 75.879C164.004 75.8158 163.868 75.78 163.73 75.7738C163.591 75.7676 163.452 75.7912 163.324 75.843C163.195 75.8948 163.078 75.9736 162.982 76.0742C162.886 76.1748 162.813 76.2947 162.767 76.426C162.438 77.4193 162.92 77.8708 164.31 78.4245C164.412 78.4652 164.512 78.5037 164.606 78.5399C164.609 78.5422 161.698 77.7953 162.113 76.1188Z" fill="#F1D5BE"/>
</g>
<path d="M123.175 65.9264C123.175 65.9264 117.736 62.2084 116.807 63.2706C115.879 64.3328 123.175 65.9264 123.175 65.9264Z" fill="url(#paint65_linear_2_259)"/>
<path d="M106.194 69.7776C106.194 69.7776 100.622 67.52 100.224 68.8479C99.8266 70.1758 106.194 69.7776 106.194 69.7776Z" fill="url(#paint66_linear_2_259)"/>
<path d="M112.96 59.0212C112.96 59.0212 107.521 54.7718 106.725 56.0997C105.929 57.4276 112.96 59.0212 112.96 59.0212Z" fill="url(#paint67_linear_2_259)"/>
<path d="M128.88 74.691C128.88 74.691 124.237 74.2928 124.104 75.2224C123.972 76.1521 128.88 74.691 128.88 74.691Z" fill="url(#paint68_linear_2_259)"/>
<path d="M140.953 72.6991C140.953 72.6991 134.85 70.5741 134.718 71.2387C134.585 71.9034 140.953 72.6991 140.953 72.6991Z" fill="url(#paint69_linear_2_259)"/>
<path d="M116.012 72.1677C116.012 72.1677 110.836 70.7073 110.705 71.9027C110.574 73.0981 116.012 72.1677 116.012 72.1677Z" fill="url(#paint70_linear_2_259)"/>
<path d="M110.307 76.9448C110.307 76.9448 105.929 78.1403 105.796 77.2106C105.663 76.2809 110.307 76.9448 110.307 76.9448Z" fill="url(#paint71_linear_2_259)"/>
<path opacity="0.5" d="M118.058 90.1202C115.163 91.6065 112.187 85.2401 112.983 84.5429C113.779 83.8456 121.938 88.1291 118.058 90.1202Z" fill="url(#paint72_linear_2_259)"/>
<path opacity="0.5" d="M118.354 89.3008C118.42 89.2668 118.474 89.2268 118.534 89.1957C118.351 89.397 118.132 89.5613 117.888 89.6798C115.427 90.9433 112.903 85.8656 113.27 84.8234C113.764 86.779 116.083 90.4666 118.354 89.3008Z" fill="url(#paint73_linear_2_259)"/>
<defs>
<linearGradient id="paint0_linear_2_259" x1="-4985.28" y1="113.81" x2="-5008.5" y2="113.81" gradientUnits="userSpaceOnUse">
<stop stop-color="#124257"/>
<stop offset="1" stop-color="#10054D"/>
</linearGradient>
<linearGradient id="paint1_linear_2_259" x1="-5017.65" y1="137.772" x2="-4993.06" y2="115.403" gradientUnits="userSpaceOnUse">
<stop stop-color="#0A374A"/>
<stop offset="1" stop-color="#10054D"/>
</linearGradient>
<linearGradient id="paint2_linear_2_259" x1="-2481.32" y1="-4247.97" x2="-2492.99" y2="-4267.91" gradientUnits="userSpaceOnUse">
<stop stop-color="#0A374A"/>
<stop offset="1" stop-color="#10054D"/>
</linearGradient>
<radialGradient id="paint3_radial_2_259" cx="0" cy="0" r="1" gradientUnits="userSpaceOnUse" gradientTransform="translate(-237.086 127.363) scale(12.4704 12.4784)">
<stop stop-color="white"/>
<stop offset="1"/>
</radialGradient>
<linearGradient id="paint4_linear_2_259" x1="-4992.48" y1="127.943" x2="-5010.24" y2="127.943" gradientUnits="userSpaceOnUse">
<stop stop-color="#BCBEC0"/>
<stop offset="1" stop-color="#E6E7E8"/>
</linearGradient>
<linearGradient id="paint5_linear_2_259" x1="-4991.94" y1="128.165" x2="-5009.7" y2="128.165" gradientUnits="userSpaceOnUse">
<stop stop-color="#BCBEC0"/>
<stop offset="1" stop-color="#E6E7E8"/>
</linearGradient>
<radialGradient id="paint6_radial_2_259" cx="0" cy="0" r="1" gradientUnits="userSpaceOnUse" gradientTransform="translate(-1511.11 44.9911) scale(10.3386 10.3484)">
<stop stop-color="#00C2BE"/>
<stop offset="0.258" stop-color="#03CECA"/>
<stop offset="0.676" stop-color="#00BAB7"/>
<stop offset="1" stop-color="#00C2BE"/>
</radialGradient>
<radialGradient id="paint7_radial_2_259" cx="0" cy="0" r="1" gradientUnits="userSpaceOnUse" gradientTransform="translate(-75.9024 29.8675) scale(121.229 121.409)">
<stop stop-color="#00C2BE"/>
<stop offset="0.258" stop-color="#03CECA"/>
<stop offset="0.676" stop-color="#00BAB7"/>
<stop offset="1" stop-color="#00C2BE"/>
</radialGradient>
<linearGradient id="paint8_linear_2_259" x1="-4904.01" y1="13.9135" x2="-4958.82" y2="13.9135" gradientUnits="userSpaceOnUse">
<stop stop-color="#0A374A"/>
<stop offset="1" stop-color="#10054D"/>
</linearGradient>
<linearGradient id="paint9_linear_2_259" x1="-4904" y1="13.5516" x2="-4945.1" y2="13.5516" gradientUnits="userSpaceOnUse">
<stop stop-color="#124257"/>
<stop offset="1" stop-color="#10054D"/>
</linearGradient>
<linearGradient id="paint10_linear_2_259" x1="-4979.33" y1="60.4753" x2="-5048.34" y2="60.4753" gradientUnits="userSpaceOnUse">
<stop stop-color="#124257"/>
<stop offset="1" stop-color="#10054D"/>
</linearGradient>
<linearGradient id="paint11_linear_2_259" x1="-4984.01" y1="98.73" x2="-5031.22" y2="-0.115223" gradientUnits="userSpaceOnUse">
<stop stop-color="#0A374A"/>
<stop offset="1" stop-color="#10054D"/>
</linearGradient>
<linearGradient id="paint12_linear_2_259" x1="-4994.99" y1="71.4985" x2="-5048.35" y2="71.4985" gradientUnits="userSpaceOnUse">
<stop stop-color="#124257"/>
<stop offset="1" stop-color="#10054D"/>
</linearGradient>
<linearGradient id="paint13_linear_2_259" x1="-4902.96" y1="59.688" x2="-4985.73" y2="59.688" gradientUnits="userSpaceOnUse">
<stop stop-color="#124257"/>
<stop offset="1" stop-color="#10054D"/>
</linearGradient>
<linearGradient id="paint14_linear_2_259" x1="-4905.18" y1="59.3803" x2="-4983.45" y2="59.3803" gradientUnits="userSpaceOnUse">
<stop stop-color="#0A374A"/>
<stop offset="1" stop-color="#10054D"/>
</linearGradient>
<linearGradient id="paint15_linear_2_259" x1="-5043.44" y1="112.379" x2="-5080.53" y2="112.379" gradientUnits="userSpaceOnUse">
<stop stop-color="#124257"/>
<stop offset="1" stop-color="#10054D"/>
</linearGradient>
<radialGradient id="paint16_radial_2_259" cx="0" cy="0" r="1" gradientUnits="userSpaceOnUse" gradientTransform="translate(-119.209 112.379) scale(15.2135 15.2344)">
<stop stop-color="white"/>
<stop offset="1"/>
</radialGradient>
<linearGradient id="paint17_linear_2_259" x1="-5034.81" y1="119.043" x2="-5034.46" y2="129.031" gradientUnits="userSpaceOnUse">
<stop stop-color="#BCBEC0"/>
<stop offset="1" stop-color="#E6E7E8"/>
</linearGradient>
<linearGradient id="paint18_linear_2_259" x1="-5034.83" y1="126.987" x2="-5034.78" y2="111.6" gradientUnits="userSpaceOnUse">
<stop stop-color="#9C9C9C"/>
<stop offset="0.005" stop-color="#9C9C9C"/>
<stop offset="0.315" stop-color="#C7C7C7"/>
<stop offset="0.595" stop-color="#E5E5E5"/>
<stop offset="0.833" stop-color="#F8F8F8"/>
<stop offset="1" stop-color="white"/>
</linearGradient>
<linearGradient id="paint19_linear_2_259" x1="-5081.33" y1="99.8419" x2="-5087.89" y2="99.7862" gradientUnits="userSpaceOnUse">
<stop stop-color="#BCBEC0"/>
<stop offset="1" stop-color="#E6E7E8"/>
</linearGradient>
<linearGradient id="paint20_linear_2_259" x1="-5084.35" y1="88.1381" x2="-5075.49" y2="91.2203" gradientUnits="userSpaceOnUse">
<stop stop-color="#9C9C9C"/>
<stop offset="0.005" stop-color="#9C9C9C"/>
<stop offset="0.315" stop-color="#C7C7C7"/>
<stop offset="0.595" stop-color="#E5E5E5"/>
<stop offset="0.833" stop-color="#F8F8F8"/>
<stop offset="1" stop-color="white"/>
</linearGradient>
<linearGradient id="paint21_linear_2_259" x1="-5032.61" y1="124.691" x2="-5040.83" y2="124.691" gradientUnits="userSpaceOnUse">
<stop stop-color="#BCBEC0"/>
<stop offset="1" stop-color="#E6E7E8"/>
</linearGradient>
<linearGradient id="paint22_linear_2_259" x1="5156.14" y1="125.285" x2="5152.46" y2="125.285" gradientUnits="userSpaceOnUse">
<stop stop-color="#BCBEC0"/>
<stop offset="0.686" stop-color="#E8E9EA"/>
<stop offset="1" stop-color="white"/>
</linearGradient>
<linearGradient id="paint23_linear_2_259" x1="-5027.53" y1="124.575" x2="-5035.83" y2="124.575" gradientUnits="userSpaceOnUse">
<stop stop-color="#BCBEC0"/>
<stop offset="1" stop-color="#E6E7E8"/>
</linearGradient>
<linearGradient id="paint24_linear_2_259" x1="5150.98" y1="125.175" x2="5147.26" y2="125.175" gradientUnits="userSpaceOnUse">
<stop stop-color="#BCBEC0"/>
<stop offset="0.686" stop-color="#E8E9EA"/>
<stop offset="1" stop-color="white"/>
</linearGradient>
<radialGradient id="paint25_radial_2_259" cx="0" cy="0" r="1" gradientUnits="userSpaceOnUse" gradientTransform="translate(-879.462 121.692) scale(3.19941 3.20305)">
<stop offset="0.159" stop-color="#FF9900"/>
<stop offset="0.34" stop-color="#FC9500"/>
<stop offset="0.518" stop-color="#F58900"/>
<stop offset="0.694" stop-color="#EA7500"/>
<stop offset="0.867" stop-color="#DA5A00"/>
<stop offset="0.995" stop-color="#CC4100"/>
</radialGradient>
<radialGradient id="paint26_radial_2_259" cx="0" cy="0" r="1" gradientUnits="userSpaceOnUse" gradientTransform="translate(-924.799 122.218) rotate(180) scale(1.88282 1.88456)">
<stop offset="0.159" stop-color="#FF9900"/>
<stop offset="0.34" stop-color="#FC9500"/>
<stop offset="0.518" stop-color="#F58900"/>
<stop offset="0.694" stop-color="#EA7500"/>
<stop offset="0.867" stop-color="#DA5A00"/>
<stop offset="0.995" stop-color="#CC4100"/>
</radialGradient>
<linearGradient id="paint27_linear_2_259" x1="-5081.44" y1="100.41" x2="-5085.38" y2="100.41" gradientUnits="userSpaceOnUse">
<stop stop-color="#BCBEC0"/>
<stop offset="1" stop-color="#E6E7E8"/>
</linearGradient>
<linearGradient id="paint28_linear_2_259" x1="4510.46" y1="2647.72" x2="4507.63" y2="2646.07" gradientUnits="userSpaceOnUse">
<stop stop-color="#BCBEC0"/>
<stop offset="0.686" stop-color="#E8E9EA"/>
<stop offset="1" stop-color="white"/>
</linearGradient>
<linearGradient id="paint29_linear_2_259" x1="-5083.17" y1="96.6977" x2="-5086.44" y2="96.6977" gradientUnits="userSpaceOnUse">
<stop stop-color="#BCBEC0"/>
<stop offset="1" stop-color="#E6E7E8"/>
</linearGradient>
<linearGradient id="paint30_linear_2_259" x1="5196.82" y1="96.6598" x2="5194.3" y2="96.6598" gradientUnits="userSpaceOnUse">
<stop stop-color="#BCBEC0"/>
<stop offset="0.686" stop-color="#E8E9EA"/>
<stop offset="1" stop-color="white"/>
</linearGradient>
<linearGradient id="paint31_linear_2_259" x1="-5035.4" y1="147.65" x2="-5036.49" y2="134.117" gradientUnits="userSpaceOnUse">
<stop stop-color="#9C9C9C"/>
<stop offset="0.005" stop-color="#9C9C9C"/>
<stop offset="0.315" stop-color="#C7C7C7"/>
<stop offset="0.595" stop-color="#E5E5E5"/>
<stop offset="0.833" stop-color="#F8F8F8"/>
<stop offset="1" stop-color="white"/>
</linearGradient>
<linearGradient id="paint32_linear_2_259" x1="-4946.66" y1="101.697" x2="-4950.84" y2="88.2279" gradientUnits="userSpaceOnUse">
<stop stop-color="#9C9C9C"/>
<stop offset="0.005" stop-color="#9C9C9C"/>
<stop offset="0.315" stop-color="#C7C7C7"/>
<stop offset="0.595" stop-color="#E5E5E5"/>
<stop offset="0.833" stop-color="#F8F8F8"/>
<stop offset="1" stop-color="white"/>
</linearGradient>
<radialGradient id="paint33_radial_2_259" cx="0" cy="0" r="1" gradientUnits="userSpaceOnUse" gradientTransform="translate(-69.1587 111.766) scale(29.5018 29.5102)">
<stop stop-color="#00C2BE"/>
<stop offset="0.258" stop-color="#03CECA"/>
<stop offset="0.676" stop-color="#00BAB7"/>
<stop offset="1" stop-color="#00C2BE"/>
</radialGradient>
<radialGradient id="paint34_radial_2_259" cx="0" cy="0" r="1" gradientUnits="userSpaceOnUse" gradientTransform="translate(-94.4149 128.846) scale(28.5875 28.6444)">
<stop stop-color="#FFE4A7"/>
<stop offset="1"/>
</radialGradient>
<linearGradient id="paint35_linear_2_259" x1="-5056.85" y1="144.107" x2="-5056.18" y2="125.039" gradientUnits="userSpaceOnUse">
<stop stop-color="#9C9C9C"/>
<stop offset="0.005" stop-color="#9C9C9C"/>
<stop offset="0.315" stop-color="#C7C7C7"/>
<stop offset="0.595" stop-color="#E5E5E5"/>
<stop offset="0.833" stop-color="#F8F8F8"/>
<stop offset="1" stop-color="white"/>
</linearGradient>
<linearGradient id="paint36_linear_2_259" x1="-5037.1" y1="151.849" x2="-5038.83" y2="139.226" gradientUnits="userSpaceOnUse">
<stop stop-color="#9C9C9C"/>
<stop offset="0.005" stop-color="#9C9C9C"/>
<stop offset="0.315" stop-color="#C7C7C7"/>
<stop offset="0.595" stop-color="#E5E5E5"/>
<stop offset="0.833" stop-color="#F8F8F8"/>
<stop offset="1" stop-color="white"/>
</linearGradient>
<linearGradient id="paint37_linear_2_259" x1="-4976.18" y1="78.6806" x2="-4985.75" y2="78.6806" gradientUnits="userSpaceOnUse">
<stop stop-color="#124257"/>
<stop offset="1" stop-color="#10054D"/>
</linearGradient>
<linearGradient id="paint38_linear_2_259" x1="-4902.96" y1="40.2119" x2="-4927.57" y2="40.2119" gradientUnits="userSpaceOnUse">
<stop stop-color="#124257"/>
<stop offset="1" stop-color="#10054D"/>
</linearGradient>
<linearGradient id="paint39_linear_2_259" x1="-5041.57" y1="15.2403" x2="-5035.63" y2="70.5088" gradientUnits="userSpaceOnUse">
<stop stop-color="#5277F7"/>
<stop offset="0.075" stop-color="#4869DB"/>
<stop offset="0.27" stop-color="#334A99"/>
<stop offset="0.455" stop-color="#202F62"/>
<stop offset="0.626" stop-color="#121B38"/>
<stop offset="0.779" stop-color="#080C19"/>
<stop offset="0.909" stop-color="#020306"/>
<stop offset="1"/>
</linearGradient>
<linearGradient id="paint40_linear_2_259" x1="-5034.67" y1="128.051" x2="-5087.36" y2="128.051" gradientUnits="userSpaceOnUse">
<stop stop-color="#124257"/>
<stop offset="1" stop-color="#10054D"/>
</linearGradient>
<radialGradient id="paint41_radial_2_259" cx="0" cy="0" r="1" gradientUnits="userSpaceOnUse" gradientTransform="translate(-376.476 120.723) scale(6.84807 6.85107)">
<stop stop-color="white"/>
<stop offset="1"/>
</radialGradient>
<linearGradient id="paint42_linear_2_259" x1="-4942.96" y1="53.6604" x2="-4954.54" y2="53.6604" gradientUnits="userSpaceOnUse">
<stop stop-color="#124257"/>
<stop offset="1" stop-color="#10054D"/>
</linearGradient>
<linearGradient id="paint43_linear_2_259" x1="-4983.96" y1="86.4158" x2="-4971.2" y2="98.2993" gradientUnits="userSpaceOnUse">
<stop stop-color="#696969"/>
<stop offset="0.242" stop-color="#9C9C9C"/>
<stop offset="0.48" stop-color="#C6C6C6"/>
<stop offset="0.692" stop-color="#E5E5E5"/>
<stop offset="0.873" stop-color="#F8F8F8"/>
<stop offset="1" stop-color="white"/>
</linearGradient>
<radialGradient id="paint44_radial_2_259" cx="0" cy="0" r="1" gradientUnits="userSpaceOnUse" gradientTransform="translate(-446.612 79.0528) scale(10.2219 10.231)">
<stop stop-color="#00C2BE"/>
<stop offset="0.258" stop-color="#03CECA"/>
<stop offset="0.676" stop-color="#00BAB7"/>
<stop offset="1" stop-color="#00C2BE"/>
</radialGradient>
<linearGradient id="paint45_linear_2_259" x1="-4976.05" y1="78.4005" x2="-4976.21" y2="85.9038" gradientUnits="userSpaceOnUse">
<stop stop-color="#9C9C9C"/>
<stop offset="0.013" stop-color="#989898"/>
<stop offset="0.262" stop-color="#626262"/>
<stop offset="0.493" stop-color="#383838"/>
<stop offset="0.7" stop-color="#191919"/>
<stop offset="0.876" stop-color="#060606"/>
<stop offset="1"/>
</linearGradient>
<linearGradient id="paint46_linear_2_259" x1="-4951.49" y1="14.3888" x2="-4949.8" y2="54.0272" gradientUnits="userSpaceOnUse">
<stop stop-color="#5277F7"/>
<stop offset="0.075" stop-color="#4869DB"/>
<stop offset="0.27" stop-color="#334A99"/>
<stop offset="0.455" stop-color="#202F62"/>
<stop offset="0.626" stop-color="#121B38"/>
<stop offset="0.779" stop-color="#080C19"/>
<stop offset="0.909" stop-color="#020306"/>
<stop offset="1"/>
</linearGradient>
<linearGradient id="paint47_linear_2_259" x1="4.56531" y1="99.3901" x2="6.42977" y2="82.2833" gradientUnits="userSpaceOnUse">
<stop stop-color="white"/>
<stop offset="0.876" stop-color="#79D2FF"/>
<stop offset="1" stop-color="#66CCFF"/>
</linearGradient>
<linearGradient id="paint48_linear_2_259" x1="6.83254" y1="99.1332" x2="9.75148" y2="83.3483" gradientUnits="userSpaceOnUse">
<stop stop-color="white"/>
<stop offset="0.876" stop-color="#79D2FF"/>
<stop offset="1" stop-color="#66CCFF"/>
</linearGradient>
<linearGradient id="paint49_linear_2_259" x1="117.195" y1="98.5586" x2="105.785" y2="63.14" gradientUnits="userSpaceOnUse">
<stop stop-color="white"/>
<stop offset="0.876" stop-color="#79D2FF"/>
<stop offset="1" stop-color="#66CCFF"/>
</linearGradient>
<linearGradient id="paint50_linear_2_259" x1="104.53" y1="55.6222" x2="102.12" y2="55.6222" gradientUnits="userSpaceOnUse">
<stop stop-color="white"/>
<stop offset="0.876" stop-color="#79D2FF"/>
<stop offset="1" stop-color="#66CCFF"/>
</linearGradient>
<linearGradient id="paint51_linear_2_259" x1="111.715" y1="78.9162" x2="95.2146" y2="78.9162" gradientUnits="userSpaceOnUse">
<stop stop-color="white"/>
<stop offset="0.876" stop-color="#79D2FF"/>
<stop offset="1" stop-color="#66CCFF"/>
</linearGradient>
<linearGradient id="paint52_linear_2_259" x1="171.105" y1="78.621" x2="182.702" y2="62.45" gradientUnits="userSpaceOnUse">
<stop offset="0.005" stop-color="#66CCFF"/>
<stop offset="0.203" stop-color="#42CAEA"/>
<stop offset="0.525" stop-color="#00C7C5"/>
<stop offset="0.674" stop-color="#08CEBD"/>
<stop offset="0.915" stop-color="#20E0AB"/>
<stop offset="1" stop-color="#2BE9A3"/>
</linearGradient>
<linearGradient id="paint53_linear_2_259" x1="185.077" y1="91.1908" x2="186.741" y2="60.6709" gradientUnits="userSpaceOnUse">
<stop offset="0.005" stop-color="#66CCFF"/>
<stop offset="0.203" stop-color="#42CAEA"/>
<stop offset="0.525" stop-color="#00C7C5"/>
<stop offset="0.674" stop-color="#08CEBD"/>
<stop offset="0.915" stop-color="#20E0AB"/>
<stop offset="1" stop-color="#2BE9A3"/>
</linearGradient>
<linearGradient id="paint54_linear_2_259" x1="185.404" y1="60.2534" x2="185.404" y2="60.1759" gradientUnits="userSpaceOnUse">
<stop offset="0.005" stop-color="#66CCFF"/>
<stop offset="0.203" stop-color="#42CAEA"/>
<stop offset="0.525" stop-color="#00C7C5"/>
<stop offset="0.674" stop-color="#08CEBD"/>
<stop offset="0.915" stop-color="#20E0AB"/>
<stop offset="1" stop-color="#2BE9A3"/>
</linearGradient>
<linearGradient id="paint55_linear_2_259" x1="153.828" y1="64.6318" x2="105.871" y2="64.6318" gradientUnits="userSpaceOnUse">
<stop stop-color="white"/>
<stop offset="0.876" stop-color="#79D2FF"/>
<stop offset="1" stop-color="#66CCFF"/>
</linearGradient>
<linearGradient id="paint56_linear_2_259" x1="356.531" y1="452.572" x2="306.233" y2="452.572" gradientUnits="userSpaceOnUse">
<stop stop-color="white"/>
<stop offset="0.876" stop-color="#79D2FF"/>
<stop offset="1" stop-color="#66CCFF"/>
</linearGradient>
<linearGradient id="paint57_linear_2_259" x1="-815.317" y1="4756.36" x2="-862.284" y2="4756.36" gradientUnits="userSpaceOnUse">
<stop stop-color="white"/>
<stop offset="0.876" stop-color="#79D2FF"/>
<stop offset="1" stop-color="#66CCFF"/>
</linearGradient>
<linearGradient id="paint58_linear_2_259" x1="-1013.79" y1="4889.51" x2="-1064.09" y2="4889.51" gradientUnits="userSpaceOnUse">
<stop stop-color="white"/>
<stop offset="0.876" stop-color="#79D2FF"/>
<stop offset="1" stop-color="#66CCFF"/>
</linearGradient>
<linearGradient id="paint59_linear_2_259" x1="-1543.76" y1="5156.9" x2="-1593.92" y2="5156.9" gradientUnits="userSpaceOnUse">
<stop stop-color="white"/>
<stop offset="0.876" stop-color="#79D2FF"/>
<stop offset="1" stop-color="#66CCFF"/>
</linearGradient>
<linearGradient id="paint60_linear_2_259" x1="-5487.87" y1="-486.384" x2="-5490.36" y2="-486.384" gradientUnits="userSpaceOnUse">
<stop offset="0.04" stop-color="#AFB6E5"/>
<stop offset="0.293" stop-color="#B9C0EA"/>
<stop offset="0.348" stop-color="#BDC3EC"/>
<stop offset="0.929" stop-color="#9AA0C9"/>
</linearGradient>
<linearGradient id="paint61_linear_2_259" x1="-5487.7" y1="-508.419" x2="-5489.85" y2="-507.965" gradientUnits="userSpaceOnUse">
<stop stop-color="#9F79C8"/>
<stop offset="0.137" stop-color="#A47FCA"/>
<stop offset="0.329" stop-color="#B491D3"/>
<stop offset="0.553" stop-color="#CDAFE1"/>
<stop offset="0.581" stop-color="#D1B4E3"/>
<stop offset="0.764" stop-color="#DAC3E8"/>
<stop offset="1" stop-color="#EBDEF3"/>
</linearGradient>
<linearGradient id="paint62_linear_2_259" x1="184.886" y1="82.4477" x2="185.032" y2="79.5784" gradientUnits="userSpaceOnUse">
<stop offset="0.04" stop-color="#AFB6E5"/>
<stop offset="0.293" stop-color="#B9C0EA"/>
<stop offset="0.348" stop-color="#BDC3EC"/>
<stop offset="0.929" stop-color="#9AA0C9"/>
</linearGradient>
<linearGradient id="paint63_linear_2_259" x1="185.25" y1="80.381" x2="185.179" y2="85.4004" gradientUnits="userSpaceOnUse">
<stop offset="0.04" stop-color="#AFB6E5"/>
<stop offset="0.466" stop-color="#A6ADDA"/>
<stop offset="0.929" stop-color="#9AA0C9"/>
</linearGradient>
<linearGradient id="paint64_linear_2_259" x1="192.907" y1="79.3858" x2="200.336" y2="67.7347" gradientUnits="userSpaceOnUse">
<stop offset="0.005" stop-color="#66CCFF"/>
<stop offset="0.203" stop-color="#42CAEA"/>
<stop offset="0.525" stop-color="#00C7C5"/>
<stop offset="0.674" stop-color="#08CEBD"/>
<stop offset="0.915" stop-color="#20E0AB"/>
<stop offset="1" stop-color="#2BE9A3"/>
</linearGradient>
<linearGradient id="paint65_linear_2_259" x1="124.278" y1="66.9768" x2="121.317" y2="59.0655" gradientUnits="userSpaceOnUse">
<stop stop-color="white"/>
<stop offset="0.876" stop-color="#79D2FF"/>
<stop offset="1" stop-color="#66CCFF"/>
</linearGradient>
<linearGradient id="paint66_linear_2_259" x1="107.499" y1="70.113" x2="106.23" y2="65.9866" gradientUnits="userSpaceOnUse">
<stop stop-color="white"/>
<stop offset="0.876" stop-color="#79D2FF"/>
<stop offset="1" stop-color="#66CCFF"/>
</linearGradient>
<linearGradient id="paint67_linear_2_259" x1="112.96" y1="57.4319" x2="106.662" y2="57.4319" gradientUnits="userSpaceOnUse">
<stop stop-color="white"/>
<stop offset="0.876" stop-color="#79D2FF"/>
<stop offset="1" stop-color="#66CCFF"/>
</linearGradient>
<linearGradient id="paint68_linear_2_259" x1="128.88" y1="75.0691" x2="119.988" y2="75.0691" gradientUnits="userSpaceOnUse">
<stop stop-color="white"/>
<stop offset="0.876" stop-color="#79D2FF"/>
<stop offset="1" stop-color="#66CCFF"/>
</linearGradient>
<linearGradient id="paint69_linear_2_259" x1="140.953" y1="71.9046" x2="125.759" y2="71.9046" gradientUnits="userSpaceOnUse">
<stop stop-color="white"/>
<stop offset="0.876" stop-color="#79D2FF"/>
<stop offset="1" stop-color="#66CCFF"/>
</linearGradient>
<linearGradient id="paint70_linear_2_259" x1="116.012" y1="71.9725" x2="106.726" y2="71.9725" gradientUnits="userSpaceOnUse">
<stop stop-color="white"/>
<stop offset="0.876" stop-color="#79D2FF"/>
<stop offset="1" stop-color="#66CCFF"/>
</linearGradient>
<linearGradient id="paint71_linear_2_259" x1="110.307" y1="77.1399" x2="103.672" y2="77.1399" gradientUnits="userSpaceOnUse">
<stop stop-color="white"/>
<stop offset="0.876" stop-color="#79D2FF"/>
<stop offset="1" stop-color="#66CCFF"/>
</linearGradient>
<linearGradient id="paint72_linear_2_259" x1="119.792" y1="91.9959" x2="111.776" y2="81.159" gradientUnits="userSpaceOnUse">
<stop stop-color="white"/>
<stop offset="0.876" stop-color="#79D2FF"/>
<stop offset="1" stop-color="#66CCFF"/>
</linearGradient>
<linearGradient id="paint73_linear_2_259" x1="119.032" y1="91.6706" x2="111.788" y2="82.1456" gradientUnits="userSpaceOnUse">
<stop stop-color="white"/>
<stop offset="0.876" stop-color="#79D2FF"/>
<stop offset="1" stop-color="#66CCFF"/>
</linearGradient>
</defs>
</svg>
