<svg width="56" height="47" viewBox="0 0 56 47" fill="none" xmlns="http://www.w3.org/2000/svg">
<path d="M52.8704 37.0948V37.3102C52.8704 39.9363 50.7747 41.5686 47.3998 41.5686H46.2515V45.2728C46.2515 45.4032 46.2816 45.5324 46.3402 45.6529C46.3988 45.7735 46.4847 45.883 46.5929 45.9752C46.7012 46.0674 46.8297 46.1405 46.9711 46.1903C47.1125 46.2402 47.264 46.2658 47.417 46.2656H51.8955C52.0485 46.2658 52.2 46.2402 52.3414 46.1903C52.4828 46.1405 52.6113 46.0674 52.7196 45.9752C52.8278 45.883 52.9137 45.7735 52.9723 45.6529C53.0309 45.5324 53.061 45.4032 53.061 45.2728V37.0654L52.8704 37.0948Z" fill="#0A374A"/>
<path d="M3.17203 37.3063V37.2083L2.91021 37.1359V45.263C2.9087 45.3942 2.93769 45.5243 2.99553 45.6459C3.05337 45.7675 3.1389 45.8781 3.24717 45.9714C3.35545 46.0646 3.48432 46.1386 3.62635 46.1891C3.76837 46.2396 3.92073 46.2656 4.07461 46.2656H8.55308C8.86189 46.2656 9.15806 46.161 9.37643 45.9748C9.5948 45.7886 9.71748 45.5361 9.71748 45.2728V41.5686H8.64264C5.26887 41.5686 3.17203 39.9363 3.17203 37.3063Z" fill="#0A374A"/>
<path d="M6.38043 19.2827C6.28872 19.1003 6.12748 18.9496 5.92282 18.8551C5.71816 18.7605 5.48207 18.7277 5.25277 18.7618L2.38082 19.1917C2.11551 19.2282 1.87418 19.3442 1.70013 19.5188C1.52608 19.6934 1.43072 19.9152 1.43115 20.1444V20.6252C1.43121 20.8458 1.51972 21.0598 1.68201 21.2317C1.84429 21.4035 2.0706 21.5229 2.3234 21.5701L6.39421 22.3632L7.34502 21.1245L6.38043 19.2827Z" fill="#0A374A"/>
<path d="M53.596 19.1917L50.7251 18.7667C50.496 18.7328 50.2602 18.7658 50.0558 18.8603C49.8514 18.9548 49.6903 19.1054 49.5986 19.2876L48.6421 21.1314L49.6044 22.372L53.6557 21.5701C53.9088 21.5233 54.1355 21.404 54.298 21.2321C54.4606 21.0602 54.5492 20.846 54.5491 20.6252V20.1444C54.5494 19.9148 54.4535 19.6927 54.2788 19.518C54.104 19.3433 53.8619 19.2276 53.596 19.1917Z" fill="#0A374A"/>
<path d="M51.606 24.7798L48.6353 20.917L48.3401 20.5331L45.8242 15.4708C45.4182 14.6488 44.7735 13.9284 43.9508 13.3775C43.1281 12.8266 42.1546 12.4633 41.1218 12.3218C36.7755 11.7592 32.3844 11.4858 27.9884 11.5042C23.5926 11.4867 19.202 11.7611 14.8562 12.3248C13.8224 12.4656 12.8477 12.8285 12.0239 13.3795C11.2002 13.9304 10.5546 14.6512 10.148 15.4738L7.63666 20.5331L7.34154 20.917L4.37082 24.7798C3.41774 26.0192 2.91006 27.469 2.91016 28.951V37.3063C2.91016 40.1204 5.2068 41.7605 8.61043 41.7605H47.3675C50.7665 41.7605 53.0678 40.1204 53.0678 37.3063V28.951C53.0675 27.4689 52.5594 26.0191 51.606 24.7798Z" fill="#00B7B2"/>
<path d="M2.91016 35.7582V37.3062C2.91016 40.1204 5.2068 41.7605 8.61043 41.7605H47.3675C50.7665 41.7605 53.0678 40.1204 53.0678 37.3062V35.7582H2.91016Z" fill="#00CDC8"/>
<path d="M9.17993 19.9378L11.2102 15.8557C11.5381 15.1854 12.0618 14.5979 12.7313 14.149C13.4009 13.7001 14.194 13.4048 15.0352 13.2912C19.3219 12.7367 23.6526 12.4667 27.9883 12.4834C32.324 12.4667 36.6547 12.7367 40.9414 13.2912C41.7826 13.4048 42.5758 13.7001 43.2453 14.149C43.9148 14.5979 44.4385 15.1854 44.7665 15.8557L46.7967 19.9378H9.17993Z" fill="#C1ECFB"/>
<path d="M21.5314 18.9586H46.3099L44.7666 15.8556C44.4386 15.1854 43.915 14.5979 43.2454 14.149C42.5759 13.7001 41.7827 13.4048 40.9415 13.2912C36.6548 12.7367 32.3241 12.4667 27.9884 12.4834C24.7928 12.4789 21.5993 12.6218 18.4218 12.9113C18.3239 12.9721 18.2368 13.0446 18.1634 13.1267C17.6736 13.6616 17.3705 14.3034 17.2889 14.9785C17.2073 15.6536 17.3506 16.3346 17.7022 16.9435C18.0538 17.5523 18.5995 18.0643 19.2768 18.4207C19.9541 18.7772 20.7355 18.9636 21.5314 18.9586Z" fill="#DFF8FF"/>
<path d="M53.0679 28.951C53.0676 27.4689 52.5595 26.0191 51.606 24.7798L48.6353 20.917L48.3402 20.5331L48.0439 19.9378H10.1826C9.96553 20.2648 9.7462 20.6036 9.52343 20.9571C7.88362 23.5578 6.28516 25.1528 6.28516 28.9912V35.3264C6.28516 35.4733 6.29319 35.6201 6.30583 35.7582H53.0679V28.951Z" fill="#00CDC8"/>
<path d="M6.30225 35.7582C6.53191 38.304 8.76081 39.7806 11.9819 39.7806H50.7389C51.3009 39.7775 51.861 39.7237 52.4097 39.62C52.8647 38.9118 53.0917 38.1135 53.0677 37.3062V35.7582H6.30225Z" fill="#0A374A"/>
<path d="M7.62861 26.8194C7.62861 26.8194 12.1323 27.0583 12.7409 27.2179C13.3496 27.3775 15.6852 31.1639 15.6852 31.1639L8.08564 30.2494C7.74807 30.2074 7.43306 30.08 7.18143 29.8836C6.92979 29.6872 6.75314 29.4309 6.67435 29.1478C6.57055 28.8177 6.52983 28.4755 6.55378 28.1344C6.6468 27.2571 6.97407 26.8194 7.62861 26.8194Z" fill="#DFF8FF"/>
<path d="M48.3472 26.8194C48.3472 26.8194 43.8434 27.0583 43.236 27.2179C42.6285 27.3775 40.2905 31.1639 40.2905 31.1639L47.8901 30.2494C48.2277 30.2074 48.5427 30.08 48.7943 29.8836C49.046 29.6872 49.2226 29.4309 49.3014 29.1478C49.4033 28.8175 49.4421 28.4753 49.4162 28.1344C49.329 27.2571 49.0028 26.8194 48.3472 26.8194Z" fill="#DFF8FF"/>
<path d="M19.0406 31.725L16.7727 27.6233C16.7727 27.6233 24.7616 28.2166 27.9872 28.2166C31.2129 28.2166 39.2041 27.6233 39.2041 27.6233L36.9361 31.725L27.9333 32.1637L19.0406 31.725Z" fill="#0A374A"/>
<path d="M48.0386 15C51.0761 15 53.5386 12.5376 53.5386 9.5C53.5386 6.46243 51.0761 4 48.0386 4C45.001 4 42.5386 6.46243 42.5386 9.5C42.5386 12.5376 45.001 15 48.0386 15Z" fill="#BECFF2"/>
<path d="M29.7966 13.5751C32.0058 13.5751 33.7966 11.7843 33.7966 9.57514C33.7966 7.366 32.0058 5.57514 29.7966 5.57514C27.5875 5.57514 25.7966 7.366 25.7966 9.57514C25.7966 11.7843 27.5875 13.5751 29.7966 13.5751Z" fill="#BECFF2"/>
<path d="M43.7993 23C46.2846 23 48.2993 20.9853 48.2993 18.5C48.2993 16.0147 46.2846 14 43.7993 14C41.314 14 39.2993 16.0147 39.2993 18.5C39.2993 20.9853 41.314 23 43.7993 23Z" fill="#A9C0EE"/>
<path d="M9.90723 27.3393C11.5641 27.3393 12.9072 25.9962 12.9072 24.3393C12.9072 22.6825 11.5641 21.3393 9.90723 21.3393C8.25037 21.3393 6.90723 22.6825 6.90723 24.3393C6.90723 25.9962 8.25037 27.3393 9.90723 27.3393Z" fill="#A9C0EE"/>
<path d="M18.748 15.5736C20.1288 15.5736 21.248 14.4543 21.248 13.0736C21.248 11.6928 20.1288 10.5736 18.748 10.5736C17.3673 10.5736 16.248 11.6928 16.248 13.0736C16.248 14.4543 17.3673 15.5736 18.748 15.5736Z" fill="#A9C0EE"/>
<path d="M20.7012 20.2262C22.358 20.2262 23.7012 18.8831 23.7012 17.2262C23.7012 15.5694 22.358 14.2262 20.7012 14.2262C19.0443 14.2262 17.7012 15.5694 17.7012 17.2262C17.7012 18.8831 19.0443 20.2262 20.7012 20.2262Z" fill="#BECFF2"/>
</svg>
