<svg width="56" height="47" viewBox="0 0 56 47" fill="none" xmlns="http://www.w3.org/2000/svg">
<path d="M48.0484 15C51.3282 15 53.987 12.5376 53.987 9.5C53.987 6.46243 51.3282 4 48.0484 4C44.7686 4 42.1099 6.46243 42.1099 9.5C42.1099 12.5376 44.7686 15 48.0484 15Z" fill="#BECFF2"/>
<path d="M29.9346 13.8417C32.4567 13.8417 34.5012 11.9912 34.5012 9.70844C34.5012 7.42568 32.4567 5.57514 29.9346 5.57514C27.4125 5.57514 25.3679 7.42568 25.3679 9.70844C25.3679 11.9912 27.4125 13.8417 29.9346 13.8417Z" fill="#BECFF2"/>
<path d="M43.7294 23C46.4129 23 48.5882 20.9853 48.5882 18.5C48.5882 16.0147 46.4129 14 43.7294 14C41.046 14 38.8706 16.0147 38.8706 18.5C38.8706 20.9853 41.046 23 43.7294 23Z" fill="#A9C0EE"/>
<path d="M9.79972 27.4912C11.634 27.4912 13.1209 26.1141 13.1209 24.4153C13.1209 22.7165 11.634 21.3393 9.79972 21.3393C7.96547 21.3393 6.47852 22.7165 6.47852 24.4153C6.47852 26.1141 7.96547 27.4912 9.79972 27.4912Z" fill="#A9C0EE"/>
<path d="M18.414 15.1875C19.847 15.1875 21.0087 14.1546 21.0087 12.8805C21.0087 11.6064 19.847 10.5736 18.414 10.5736C16.981 10.5736 15.8193 11.6064 15.8193 12.8805C15.8193 14.1546 16.981 15.1875 18.414 15.1875Z" fill="#A9C0EE"/>
<path d="M20.5937 20.3781C22.4279 20.3781 23.9149 19.001 23.9149 17.3022C23.9149 15.6034 22.4279 14.2262 20.5937 14.2262C18.7594 14.2262 17.2725 15.6034 17.2725 17.3022C17.2725 19.001 18.7594 20.3781 20.5937 20.3781Z" fill="#BECFF2"/>
<path d="M23.8529 45.5625C23.1749 45.5626 22.5141 45.3651 21.964 44.9979C21.414 44.6308 21.0026 44.1127 20.7882 43.5169L19.3463 39.5092C19.2471 39.2341 19.1965 38.946 19.1965 38.656C19.1964 38.2663 19.2875 37.8812 19.4636 37.5272C19.6397 37.1732 19.8965 36.8588 20.2164 36.6056C20.5364 36.3524 20.9117 36.1665 21.3167 36.0606C21.7217 35.9548 22.1467 35.9315 22.5623 35.9923L31.6135 37.6562H36.2699V28.3125C36.2695 26.4513 36.9538 24.6456 38.21 23.1928L39.3741 21.8438V18.25C39.3741 17.4875 39.7011 16.7562 40.2833 16.2171C40.8655 15.6779 41.655 15.375 42.4783 15.375H45.5826C46.4059 15.375 47.1954 15.6779 47.7776 16.2171C48.3598 16.7562 48.6868 17.4875 48.6868 18.25V19.6875L46.6559 41.9795C46.5747 42.9542 46.0994 43.8647 45.325 44.529C44.5505 45.1932 43.5339 45.5623 42.4783 45.5625H23.8529Z" fill="#43525B"/>
<path d="M46.3587 18.25V16.8125C46.3554 16.3196 46.214 15.8359 45.9482 15.4088C45.8271 15.3909 45.7051 15.3797 45.5826 15.375H42.4784C41.6551 15.375 40.8655 15.6779 40.2834 16.2171C39.7012 16.7562 39.3742 17.4875 39.3742 18.25V21.8438L38.2101 23.1928C36.9538 24.6456 36.2695 26.4513 36.2699 28.3125V37.6562H31.6136L22.5624 35.9923C21.8549 35.8899 21.1315 36.033 20.5309 36.3942C19.9304 36.7554 19.495 37.3092 19.3083 37.9495L33.9417 40.5312L44.2113 41.1652C44.2688 40.9608 44.3078 40.7524 44.3277 40.542L46.3587 18.25Z" fill="#69737A"/>
<path d="M47.9107 4.59375C47.9107 4.02188 47.6655 3.47343 47.2288 3.06905C46.7922 2.66468 46.2 2.4375 45.5826 2.4375H42.4783C41.8609 2.4375 41.2687 2.66468 40.8321 3.06905C40.3954 3.47343 40.1501 4.02188 40.1501 4.59375V10.3438C40.1501 10.9156 40.3954 11.4641 40.8321 11.8684C41.2687 12.2728 41.8609 12.5 42.4783 12.5H45.5826C46.2 12.5 46.7922 12.2728 47.2288 11.8684C47.6655 11.4641 47.9107 10.9156 47.9107 10.3438V4.59375Z" fill="#69737A"/>
<path d="M42.4783 2.4375C41.8609 2.4375 41.2687 2.66468 40.8321 3.06905C40.3954 3.47343 40.1501 4.02188 40.1501 4.59375V10.3438C40.1501 10.4034 40.1641 10.4587 40.1688 10.5177C40.5907 10.8669 41.1363 11.0608 41.7023 11.0625H44.8065C45.424 11.0625 46.0162 10.8353 46.4528 10.4309C46.8894 10.0266 47.1347 9.47812 47.1347 8.90625V3.15625C47.1347 3.09659 47.1207 3.04125 47.1161 2.98231C46.6941 2.63305 46.1485 2.43921 45.5826 2.4375H42.4783Z" fill="#91989D"/>
<path d="M42.4785 12.5H45.5828V15.375H42.4785V12.5Z" fill="#43525B"/>
<path d="M9.10783 35.5H4.45147C3.834 35.5 3.24182 35.7272 2.8052 36.1316C2.36858 36.5359 2.12329 37.0844 2.12329 37.6562V45.5625H14.5402C14.9519 45.5625 15.3467 45.4111 15.6378 45.1415C15.9288 44.8719 16.0924 44.5062 16.0924 44.125V41.9688C16.0924 41.1193 15.9117 40.2781 15.5607 39.4933C15.2097 38.7084 14.6952 37.9953 14.0466 37.3947C13.3981 36.794 12.6281 36.3175 11.7807 35.9924C10.9333 35.6673 10.0251 35.5 9.10783 35.5Z" fill="#00B7B2"/>
<path d="M9.10771 35.5H4.45135C4.22476 35.5031 3.99989 35.537 3.78394 35.6006C3.71525 35.8006 3.67865 36.0089 3.67529 36.2188V44.125H16.0923V41.9688C16.0923 41.1193 15.9116 40.2781 15.5606 39.4933C15.2096 38.7084 14.6951 37.9953 14.0465 37.3947C13.398 36.794 12.628 36.3175 11.7806 35.9924C10.9332 35.6673 10.0249 35.5 9.10771 35.5Z" fill="#00CDC8"/>
<path d="M6.7796 45.5625C8.06541 45.5625 9.10778 44.5971 9.10778 43.4062C9.10778 42.2154 8.06541 41.25 6.7796 41.25C5.49378 41.25 4.45142 42.2154 4.45142 43.4062C4.45142 44.5971 5.49378 45.5625 6.7796 45.5625Z" fill="#0A374A"/>
<path d="M3.67529 36.9375H5.22741V39.8125H3.67529V36.9375Z" fill="#91989D"/>
<path d="M6.00366 36.9375H7.55578V39.8125H6.00366V36.9375Z" fill="#91989D"/>
<path d="M4.45142 35.5V32.625H9.10778V35.5" fill="#00B7B2"/>
<path d="M23.853 31.4175C24.3052 31.4176 24.7459 31.5496 25.1125 31.7947C25.4792 32.0398 25.7531 32.3857 25.8956 32.7831L26.1812 33.5737L26.4668 32.7831C26.6093 32.3857 26.8833 32.0398 27.2499 31.7947C27.6165 31.5496 28.0572 31.4176 28.5094 31.4175C28.0572 31.4174 27.6165 31.2854 27.2499 31.0403C26.8833 30.7952 26.6093 30.4493 26.4668 30.0519L26.1812 29.2612L25.8956 30.0519C25.7531 30.4493 25.4792 30.7952 25.1125 31.0403C24.7459 31.2854 24.3052 31.4174 23.853 31.4175Z" fill="#FBE47F"/>
<path d="M13.7642 12.5L13.9752 11.718C14.1364 11.1203 14.5087 10.5896 15.0329 10.2104C15.5571 9.83113 16.2032 9.62508 16.8684 9.625C16.2031 9.62508 15.5568 9.41911 15.0324 9.03985C14.508 8.6606 14.1356 8.12984 13.9745 7.532L13.7642 6.75L13.5531 7.532C13.3919 8.12972 13.0196 8.66039 12.4954 9.03963C11.9712 9.41887 11.3251 9.62492 10.6599 9.625C11.3252 9.62492 11.9715 9.83089 12.4959 10.2101C13.0203 10.5894 13.3927 11.1202 13.5538 11.718L13.7642 12.5Z" fill="#FBE47F"/>
<path d="M29.2854 42.6875H46.3587V41.9688C46.3587 40.825 45.8681 39.7281 44.9949 38.9194C44.1217 38.1106 42.9373 37.6563 41.7024 37.6563H31.6136L22.5624 35.9923C22.0685 35.92 21.5628 35.9667 21.0941 36.1279C20.6253 36.2891 20.2093 36.5595 19.8862 36.9129C19.563 37.2663 19.3436 37.6908 19.249 38.1455C19.1545 38.6003 19.188 39.0699 19.3464 39.5092L19.4551 39.8125H26.1812L29.2854 42.6875Z" fill="#91989D"/>
<path d="M10.66 40.5312C11.152 40.987 11.7361 41.3486 12.379 41.5952C13.0219 41.8419 13.711 41.9688 14.4068 41.9688H16.0924C16.0924 41.1193 15.9118 40.2781 15.5608 39.4933C15.2098 38.7084 14.6953 37.9953 14.0467 37.3947C13.3981 36.794 12.6282 36.3175 11.7808 35.9924C10.9334 35.6673 10.0251 35.5 9.10791 35.5V37.0611C9.10785 37.7056 9.2449 38.3438 9.51121 38.9392C9.77753 39.5346 10.1679 40.0756 10.66 40.5312Z" fill="#BAD9F0"/>
<path d="M4.45142 32.625H9.10778V34.7812H4.45142V32.625Z" fill="#00CDC8"/>
<path d="M7.55578 32.625H6.00366V18.9688C6.00366 18.3969 6.24895 17.8484 6.68557 17.4441C7.12219 17.0397 7.71437 16.8125 8.33184 16.8125C8.94931 16.8125 9.5415 17.0397 9.97811 17.4441C10.4147 17.8484 10.66 18.3969 10.66 18.9688V28.3125C10.66 28.5031 10.7418 28.6859 10.8873 28.8207C11.0329 28.9555 11.2303 29.0312 11.4361 29.0312C11.6419 29.0312 11.8393 28.9555 11.9848 28.8207C12.1304 28.6859 12.2121 28.5031 12.2121 28.3125V25.9097C12.2073 23.6801 12.971 21.5073 14.3921 19.7076L15.2264 18.7625L16.4269 19.6724L15.6198 20.5859C14.4077 22.1336 13.758 23.9978 13.7643 25.9097V28.3125C13.7643 28.8844 13.519 29.4328 13.0824 29.8372C12.6457 30.2416 12.0536 30.4688 11.4361 30.4688C10.8186 30.4688 10.2264 30.2416 9.78981 29.8372C9.35319 29.4328 9.1079 28.8844 9.1079 28.3125V18.9688C9.1079 18.7781 9.02614 18.5953 8.8806 18.4605C8.73506 18.3257 8.53767 18.25 8.33184 18.25C8.12602 18.25 7.92862 18.3257 7.78308 18.4605C7.63755 18.5953 7.55578 18.7781 7.55578 18.9688V32.625Z" fill="#AAB1B7"/>
<path d="M31.9799 7.808L33.9418 9.625L29.2854 13.9375L27.3228 12.1198" fill="#0A374A"/>
<path d="M26.5691 7.10938L24.629 5.3125L19.5846 9.98438C19.8394 10.2203 20.0416 10.5004 20.1795 10.8088C20.3174 11.1171 20.3884 11.4475 20.3884 11.7812C20.3884 12.115 20.3174 12.4454 20.1795 12.7537C20.0416 13.0621 19.8394 13.3422 19.5846 13.5781L13.7642 18.9688L16.0923 21.125L24.8618 13.0031L26.5691 7.10938Z" fill="#00CDC8"/>
<path d="M29.2854 4.59375L24.7579 8.78694C24.4711 9.05251 24.2435 9.36781 24.0882 9.71485C23.933 10.0619 23.853 10.4339 23.853 10.8095C23.8528 11.4396 24.0774 12.052 24.4917 12.5518L25.5386 13.8139L32.3897 7.46875L29.2854 4.59375Z" fill="#0A374A"/>
<path d="M23.853 10.8095C23.8528 11.4396 24.0774 12.052 24.4917 12.5518L24.8642 13.001L31.6136 6.75L29.2854 4.59375L24.7579 8.78694C24.4711 9.05251 24.2435 9.36781 24.0882 9.71485C23.933 10.0619 23.853 10.4339 23.853 10.8095Z" fill="#00C2BE"/>
<path d="M27.3179 12.1194L31.9734 7.80774L33.1596 8.90637L28.5041 13.2181L27.3179 12.1194Z" fill="#00B7B2"/>
<path d="M6.77972 44.125C7.20833 44.125 7.55578 43.8032 7.55578 43.4062C7.55578 43.0093 7.20833 42.6875 6.77972 42.6875C6.35112 42.6875 6.00366 43.0093 6.00366 43.4062C6.00366 43.8032 6.35112 44.125 6.77972 44.125Z" fill="#69737A"/>
</svg>
