<svg width="40" height="41" viewBox="0 0 40 41" fill="none" xmlns="http://www.w3.org/2000/svg">
<g clip-path="url(#clip0_2_386)">
<path d="M34.9599 38.5953H35.1785C37.2382 38.5953 40.0001 37.1297 40.0001 35.0645V34.1848C40.0001 33.2651 39.9556 32.3478 39.8673 31.436C39.8037 30.7795 38.9125 30.1259 38.8038 29.4763C38.7311 29.0425 39.4533 28.6105 39.3606 28.1805C38.9553 26.2991 38.3593 24.4588 37.5789 22.6887L35.383 17.708C35.2542 17.4158 34.9656 17.2273 34.6469 17.2273H23.6627C18.2171 17.2273 13.1024 19.1029 8.57812 21.9531L6.27679 23.5658C4.98898 24.566 4.55043 24.8132 3.43607 26.0366L2.66536 26.9047C1.05434 28.6733 0.322021 30.6601 0.322021 33.0554V35.0645C0.322021 37.1297 1.86955 38.4803 3.92926 38.4803H4.14021L34.9599 38.5953Z" fill="#00C2BE"/>
<path d="M36.4316 37.1942H36.213H24.8975L20.0907 37.999L14.9894 37.1942H4.10133H3.89038C3.70334 37.1942 3.52242 37.1765 3.34817 37.1443C2.35292 36.9605 1.61376 36.0918 1.60974 35.0797C1.60974 35.0746 1.60974 35.0695 1.60974 35.0645V33.0554C1.60974 30.6601 2.66398 28.5124 4.27501 26.7438C4.27501 26.7438 6.67912 24.4854 7.96692 23.4853L10.2683 21.8726C14.7925 19.0224 19.8268 17.2273 25.2724 17.2273H23.6627C19.7683 17.2273 15.9607 18.0219 12.4528 19.517C11.0555 20.1125 8.90197 22.0056 8.90197 22.0056L6.55936 24.0331C5.55582 24.8124 4.15638 24.8726 3.25594 25.7885C3.00089 26.048 2.75026 26.3127 2.50431 26.5828C2.05465 27.0764 1.66101 27.6121 1.327 28.18L1.14479 29.756L0.175855 31.2241C0.0596378 31.8235 0 32.4365 0 33.0554V35.0645C0 37.1297 1.6697 38.8039 3.72942 38.8039H3.94036H5.33908H14.9433L20.0702 37.999L24.9437 38.8039H36.052H36.2706C38.3303 38.8039 40 37.1297 40 35.0645V34.5431C39.5351 36.0774 38.1136 37.1942 36.4316 37.1942Z" fill="#00CDC8"/>
<path d="M36.7206 36.4327C36.7206 33.927 34.6847 31.8958 32.1733 31.8958C31.118 31.8958 30.1467 32.2544 29.3751 32.8562C28.3104 33.6865 27.7793 35.0678 27.7793 36.5206C27.7793 39.0262 29.5739 40.7735 32.0862 40.8557C33.4236 40.8995 34.7147 40.3928 35.5468 39.4749C36.2764 38.6702 36.7206 37.6032 36.7206 36.4327Z" fill="#6D7C84"/>
<path d="M12.3602 36.4294C12.3602 33.9238 10.3243 31.8925 7.81289 31.8925C6.81442 31.8925 5.89112 32.2136 5.1411 32.7579C4.00452 33.5827 3.44629 34.9232 3.44629 36.4327C3.44629 38.9383 5.22126 40.7804 7.73265 40.7804C9.11076 40.7804 10.4258 40.3548 11.2598 39.3887C11.9456 38.5943 12.3602 37.5602 12.3602 36.4294Z" fill="#6D7C84"/>
<path d="M33.1393 40.0843C30.6279 40.0843 28.592 38.0531 28.592 35.5474C28.592 34.4611 28.9751 33.4644 29.6132 32.6833C28.4138 33.5001 27.6262 34.8745 27.6262 36.4327C27.6262 38.9384 29.6621 40.9696 32.1735 40.9696C33.5961 40.9696 34.8657 40.3174 35.6995 39.2968C34.9703 39.7935 34.0889 40.0843 33.1393 40.0843Z" fill="#5F6C75"/>
<path d="M8.7787 40.0811C6.26731 40.0811 4.23142 38.0498 4.23142 35.5441C4.23142 34.4579 4.61452 33.4612 5.25259 32.6801C4.05323 33.4969 3.26562 34.8713 3.26562 36.4295C3.26562 38.9351 5.30152 40.9664 7.81291 40.9664C9.23552 40.9664 10.5051 40.3142 11.3389 39.2935C10.6097 39.7903 9.7284 40.0811 8.7787 40.0811Z" fill="#5F6C75"/>
<path d="M9.87203 36.4327C9.87203 35.3018 8.95316 34.385 7.81971 34.385C7.52354 34.385 7.24201 34.4477 6.98768 34.5603C6.26881 34.8788 5.91211 35.5974 5.91211 36.4327C5.91211 37.5635 6.65883 38.2836 7.79235 38.2836C8.6313 38.2836 9.38012 37.978 9.69835 37.2584C9.80998 37.0059 9.87203 36.7265 9.87203 36.4327Z" fill="#E9EDF1"/>
<path d="M34.2258 36.4327C34.2258 35.3018 33.3069 34.385 32.1734 34.385C31.8773 34.385 31.5957 34.4477 31.3414 34.5603C30.6225 34.8788 30.2625 35.6852 30.2625 36.5206C30.2625 37.6514 30.9529 38.3145 32.0864 38.3145C32.9253 38.3145 33.7338 37.978 34.0521 37.2584C34.1638 37.0059 34.2258 36.7265 34.2258 36.4327Z" fill="#E9EDF1"/>
<path d="M8.86593 37.434C7.73248 37.434 6.81361 36.5173 6.81361 35.3864C6.81361 35.0926 6.87607 34.8134 6.98786 34.5609C6.26898 34.8794 5.76733 35.5974 5.76733 36.4327C5.76733 37.5635 6.68621 38.4803 7.81965 38.4803C8.6586 38.4803 9.37949 37.9778 9.69772 37.2583C9.44339 37.3709 9.1621 37.434 8.86593 37.434Z" fill="#DCE6EB"/>
<path d="M33.2197 37.434C32.0862 37.434 31.1674 36.5173 31.1674 35.3864C31.1674 35.0926 31.2298 34.8134 31.3416 34.5609C30.6227 34.8794 30.1211 35.5974 30.1211 36.4327C30.1211 37.5635 31.04 38.4803 32.1734 38.4803C33.0124 38.4803 33.7332 37.9778 34.0515 37.2583C33.7972 37.3709 33.5159 37.434 33.2197 37.434Z" fill="#DCE6EB"/>
<path d="M29.7692 25.4407C30.1447 25.4409 30.4704 25.1821 30.5542 24.8169L30.5809 24.7009C30.6475 24.4105 31.127 24.4776 31.2001 24.1888C31.4932 23.0304 31.838 21.8853 32.2334 20.7573L32.4832 20.0447C32.5594 19.7862 32.3661 19.5269 32.0972 19.5269H29.2041L28.4918 19.5552C28.477 19.5557 28.462 19.5572 28.4473 19.5594C24.3369 20.1716 22.0239 21.0927 19.7687 24.603L19.6089 24.8518C19.5052 25.0131 19.6214 25.225 19.8134 25.225L29.7692 25.4407Z" fill="#BED9FD"/>
<path d="M31.2001 24.1887L28.384 24.1867L27.1048 24.9907L25.9699 24.185L21.3674 24.1817C21.2309 24.1817 21.1576 24.0231 21.2437 23.9173C23.2451 21.4576 25.5157 19.8514 29.2042 19.5268H28.4687C27.1597 19.5097 25.1154 19.7681 23.0244 20.8046C21.9717 21.3265 21.2012 21.9092 20.9105 22.1372C20.9105 22.1372 19.6863 23.097 18.7259 24.3516C18.5111 24.6322 18.3515 24.8667 18.3515 24.8667C18.1894 25.1047 17.9915 25.4172 17.9915 25.4172C17.8878 25.5785 18.0039 25.7904 18.196 25.7904L25.615 25.7948L26.958 24.9908L28.0291 25.7962L30.179 25.7975C30.5544 25.7978 30.8801 25.5389 30.964 25.1738L30.9906 25.0578C31.0599 24.7559 31.2001 24.1887 31.2001 24.1887Z" fill="#9EC8FC"/>
<path d="M1.32773 28.1804H4.78503C5.12338 28.1804 5.31067 28.5717 5.09795 28.8343L3.86246 30.3592C3.41932 30.9062 2.7522 31.224 2.04733 31.224H0.175537L1.43244 29.7811L1.32773 28.1804Z" fill="#FFD064"/>
<path d="M2.42141 30.0149C2.30632 30.0148 2.22785 29.8976 2.273 29.7916C2.42037 29.4459 2.60588 29.0671 2.84033 28.6705C2.9427 28.4973 3.04693 28.3347 3.15131 28.1803H1.32773C1.07501 28.6094 0.804913 29.1444 0.574249 29.7809C0.382781 30.3092 0.258113 30.7982 0.175537 31.2238H2.04741C2.75228 31.2238 3.4194 30.906 3.86254 30.3591L4.14013 30.0164L2.42141 30.0149Z" fill="#FFC250"/>
<path d="M37.1359 18.4351H34.6598C34.3264 18.4351 34.0562 18.1648 34.0562 17.8315C34.0562 17.4981 34.3264 17.2278 34.6598 17.2278H37.1359C37.4693 17.2278 37.7395 17.4981 37.7395 17.8315C37.7395 18.1648 37.4693 18.4351 37.1359 18.4351Z" fill="#B3E59F"/>
<path d="M12.3816 19.9781L14.6687 19.5269H18.3749C18.6093 19.5269 18.7062 19.828 18.516 19.9654L17.69 20.6382C16.1355 21.9507 15.1783 22.9549 14.3181 24.1821C14.0138 24.6164 12.2459 25.3412 12.1034 25.3412L4.97021 25.0468C6.14478 23.851 6.04595 23.9049 8.05255 22.5946C9.65931 21.5455 11.0628 20.5374 12.3816 19.9781Z" fill="#BED9FD"/>
<path d="M7.96679 23.4853L10.2681 21.8726C11.6859 20.9795 13.1537 20.19 14.6686 19.5269H12.4568C11.2316 20.0465 9.82811 20.743 8.34683 21.6803L6.16349 23.2103C5.60043 23.6456 5.08325 24.0793 4.60904 24.5026H4.60888C4.60695 24.5044 4.6051 24.5061 4.60308 24.5079C4.23568 24.8361 3.89427 25.1579 3.5787 25.4691C3.57532 25.4724 3.57178 25.4757 3.56848 25.479C3.46208 25.5841 3.35842 25.688 3.25781 25.7904H5.30691H13.0721C13.2153 25.7904 13.3473 25.7145 13.4199 25.5912C13.6494 25.2011 14.091 24.5223 14.3181 24.1821H7.56204C7.41282 24.1821 7.34425 23.9964 7.45733 23.8989C7.63343 23.7471 7.73033 23.6689 7.96679 23.4853Z" fill="#9EC8FC"/>
<path d="M39.3278 31.1429L38.0469 31.2799C37.0186 31.2799 36.2351 30.7252 35.629 29.8964L35.2454 29.3621C34.8574 28.8315 35.2035 28.3758 35.8619 28.3758L36.1489 28.1807H39.3598C39.4855 28.7545 39.6 29.3675 39.6957 30.0171C39.6982 30.034 39.7007 30.051 39.7031 30.0679C39.7718 30.5409 39.2868 30.7046 39.3278 31.1429Z" fill="#DF646E"/>
<path d="M39.1652 30.0678C38.1369 30.0678 37.1705 29.5777 36.5644 28.7489L36.1489 28.1806H35.766C35.1077 28.1806 34.7278 28.9262 35.1158 29.4568L35.5985 30.117C36.2046 30.9458 37.171 31.436 38.1993 31.436H39.8663C39.8253 30.9977 39.7715 30.5408 39.7027 30.0678H39.1652V30.0678Z" fill="#DC4955"/>
<path d="M27.6424 25.0502L28.3839 24.1867L28.5156 23.5926C28.6566 22.9563 28.2596 22.3482 27.6643 22.1928C27.5692 22.1679 27.0795 22.6617 27.0795 22.6617C26.5272 22.6617 26.3957 23.1842 26.2759 23.7248L26.1321 25.0502H27.6424Z" fill="#E9EDF1"/>
<path d="M27.3306 23.697L27.664 22.194C27.5688 22.1691 27.4691 22.1546 27.3652 22.1546C26.8128 22.1546 26.3346 22.5393 26.2147 23.0799L25.615 25.7947L28.0291 25.7962L28.3835 24.1865H27.7234C27.466 24.1866 27.2748 23.9483 27.3306 23.697Z" fill="#DCE6EB"/>
<path d="M23.656 38.3762L24.5807 37.5608C24.5807 37.4472 24.928 37.2981 24.8985 37.194C24.7555 36.6879 24.2894 36.317 23.7364 36.317H16.1505C15.5976 36.317 15.1314 36.6879 14.9884 37.194C14.959 37.2981 15.2515 37.4201 15.2515 37.5337L15.9605 38.3865L23.656 38.3762Z" fill="#6D7C84"/>
<path d="M14.9895 37.1949C14.9601 37.2988 14.9434 37.4081 14.9434 37.5215V38.8045H24.9438V37.5215C24.9438 37.4081 24.9269 37.2988 24.8976 37.1949H14.9895Z" fill="#5F6C75"/>
<path d="M27.7504 28.7524H25.8668C25.5334 28.7524 25.2632 28.4821 25.2632 28.1487C25.2632 27.8154 25.5334 27.5451 25.8668 27.5451H27.7504C28.0838 27.5451 28.354 27.8154 28.354 28.1487C28.354 28.4821 28.0838 28.7524 27.7504 28.7524Z" fill="#01BBB6"/>
<path d="M14.4 8.2C14.4 12.1765 11.1765 15.4 7.2 15.4C5.10377 15.4 3.21678 14.5043 1.90109 13.0745C1.55549 12.6993 1.24957 12.287 0.989191 11.8447C0.360588 10.7755 0 9.52979 0 8.2C0 4.22354 3.22354 1 7.2 1C8.53009 1 9.77583 1.36059 10.8447 1.98949C11.287 2.24957 11.699 2.55549 12.0742 2.90139C13.504 4.21649 14.4 6.10377 14.4 8.2Z" fill="#F0CD00"/>
<path d="M14.3999 8.19994C14.3999 12.0868 11.3203 15.2542 7.46787 15.3949C3.61543 15.2542 0.535889 12.0868 0.535889 8.19994C0.535889 4.31312 3.61543 1.14571 7.46787 1.00494C11.3203 1.14571 14.3999 4.31312 14.3999 8.19994Z" fill="#FFDE50"/>
<path d="M12.0741 2.9014L1.90092 13.0746C1.55532 12.6993 1.24939 12.287 0.989014 11.8447L10.8445 1.9895C11.2868 2.24958 11.6988 2.55551 12.0741 2.9014Z" fill="#FFEA94"/>
<path d="M13.9035 5.56775L4.56755 14.9037C3.90662 14.6439 3.2933 14.2892 2.74463 13.8563L12.8564 3.74454C13.2892 4.29321 13.644 4.90653 13.9035 5.56775Z" fill="#FFEA94"/>
<path d="M12.7949 8.2C12.7949 11.2898 10.2899 13.7948 7.20006 13.7948C6.12388 13.7948 5.11882 13.491 4.2657 12.9643C3.89394 12.7351 3.55128 12.4633 3.24389 12.1559C3.01789 11.9302 2.811 11.6848 2.62616 11.423C2.37166 11.0624 2.1586 10.6703 1.99432 10.2539C1.75099 9.63824 1.61404 8.96879 1.60581 8.26877C1.60522 8.24585 1.60522 8.22293 1.60522 8.2C1.60522 5.11018 4.10994 2.60516 7.20006 2.60516C7.22299 2.60516 7.2462 2.60516 7.26913 2.60575C7.96914 2.61398 8.6383 2.75122 9.25397 2.99426C9.6704 3.15883 10.0624 3.3716 10.423 3.62609C10.6849 3.81124 10.93 4.01783 11.1559 4.24382C11.4633 4.55093 11.7352 4.89388 11.9644 5.26564C12.491 6.11876 12.7949 7.12382 12.7949 8.2Z" fill="#FAA300"/>
<path d="M11.1559 4.24382L3.24389 12.1559C3.01789 11.9302 2.811 11.6848 2.62616 11.423C2.37166 11.0624 2.1586 10.6703 1.99432 10.2539C1.75099 9.63824 1.61404 8.96879 1.60581 8.26877C1.60522 8.24585 1.60522 8.22293 1.60522 8.2C1.60522 5.11018 4.10994 2.60516 7.20006 2.60516C7.22299 2.60516 7.2462 2.60516 7.26913 2.60575C7.96914 2.61398 8.6383 2.75122 9.25397 2.99426C9.6704 3.15883 10.0624 3.3716 10.423 3.62609C10.6849 3.81124 10.93 4.01783 11.1559 4.24382Z" fill="#FFBD00"/>
<path d="M12.7945 8.2C12.7945 11.2898 10.2895 13.7948 7.19971 13.7948C7.09362 13.7948 6.98841 13.7919 6.88379 13.786C9.82668 13.6223 12.1624 11.1837 12.1624 8.2C12.1624 5.21627 9.82668 2.77767 6.88379 2.61398C6.98841 2.6081 7.09362 2.60516 7.19971 2.60516C10.2895 2.60516 12.7945 5.11018 12.7945 8.2Z" fill="#F68E00"/>
<path d="M7.01571 7.77006V5.50424C7.36884 5.69905 7.60864 6.07503 7.60864 6.50606C7.60864 6.81011 7.85512 7.05658 8.15916 7.05658C8.46321 7.05658 8.70968 6.81011 8.70968 6.50606C8.70968 5.45836 7.98801 4.5762 7.01571 4.33011V3.882C7.01571 3.57796 6.76924 3.33148 6.46519 3.33148C6.16115 3.33148 5.91467 3.57796 5.91467 3.882V4.33008C4.94238 4.5762 4.2207 5.45833 4.2207 6.50603C4.2207 7.13161 4.40444 7.61945 4.78239 7.9974C5.05796 8.27297 5.42401 8.47689 5.91467 8.62639V10.8958C5.56155 10.701 5.32174 10.325 5.32174 9.89397C5.32174 9.58993 5.07527 9.34345 4.77122 9.34345C4.46718 9.34345 4.2207 9.58993 4.2207 9.89397C4.2207 10.9417 4.94238 11.8238 5.91467 12.0699V12.518C5.91467 12.822 6.16115 13.0685 6.46519 13.0685C6.76924 13.0685 7.01571 12.822 7.01571 12.518V12.0699C7.98801 11.8238 8.70968 10.9417 8.70968 9.89397C8.70968 9.27706 8.51807 8.77268 8.14021 8.39481C7.86558 8.12016 7.49497 7.91427 7.01571 7.77006ZM5.56096 7.21886C5.44958 7.10751 5.32177 6.92584 5.32177 6.50603C5.32177 6.075 5.56158 5.69905 5.9147 5.50421V7.45308C5.7662 7.38432 5.64865 7.30659 5.56096 7.21886ZM7.01571 10.8958V8.94087C7.49417 9.16369 7.60864 9.48245 7.60864 9.89397C7.60864 10.325 7.36884 10.701 7.01571 10.8958Z" fill="#F68E00"/>
<path d="M7.75058 7.77006V5.50424C8.1037 5.69905 8.3435 6.07503 8.3435 6.50606C8.3435 6.81011 8.58998 7.05658 8.89402 7.05658C9.19807 7.05658 9.44454 6.81011 9.44454 6.50606C9.44454 5.45836 8.72287 4.5762 7.75058 4.33011V3.882C7.75058 3.57796 7.5041 3.33148 7.20006 3.33148C6.89601 3.33148 6.64954 3.57796 6.64954 3.882V4.33008C5.67724 4.5762 4.95557 5.45833 4.95557 6.50603C4.95557 7.13161 5.1393 7.61945 5.51725 7.9974C5.79282 8.27297 6.15888 8.47689 6.64954 8.62639V10.8958C6.29641 10.701 6.05661 10.325 6.05661 9.89397C6.05661 9.58993 5.81013 9.34345 5.50609 9.34345C5.20204 9.34345 4.95557 9.58993 4.95557 9.89397C4.95557 10.9417 5.67724 11.8238 6.64954 12.0699V12.518C6.64954 12.822 6.89601 13.0685 7.20006 13.0685C7.5041 13.0685 7.75058 12.822 7.75058 12.518V12.0699C8.72287 11.8238 9.44454 10.9417 9.44454 9.89397C9.44454 9.27706 9.25294 8.77268 8.87507 8.39481C8.60044 8.12016 8.2298 7.91427 7.75058 7.77006ZM6.29579 7.21886C6.18442 7.10751 6.05661 6.92584 6.05661 6.50603C6.05661 6.075 6.29641 5.69905 6.64954 5.50421V7.45308C6.50107 7.38432 6.38352 7.30659 6.29579 7.21886ZM7.75058 10.8958V8.94087C8.22904 9.16369 8.3435 9.48245 8.3435 9.89397C8.34347 10.325 8.1037 10.701 7.75058 10.8958Z" fill="#FFEA94"/>
</g>
<defs>
<clipPath id="clip0_2_386">
<rect width="40" height="40" fill="white" transform="translate(0 0.969574)"/>
</clipPath>
</defs>
</svg>
