<svg width="35" height="44" viewBox="0 0 35 44" fill="none" xmlns="http://www.w3.org/2000/svg">
<path d="M2.79828 34.6598C2.97828 34.6598 3.13161 34.7231 3.25828 34.8498C3.38495 34.9764 3.44828 35.1298 3.44828 35.3098C3.44828 35.4831 3.38495 35.6331 3.25828 35.7598C3.13161 35.8864 2.97828 35.9498 2.79828 35.9498C2.61828 35.9498 2.46495 35.8864 2.33828 35.7598C2.21161 35.6331 2.14828 35.4831 2.14828 35.3098C2.14828 35.1298 2.21161 34.9764 2.33828 34.8498C2.46495 34.7231 2.61828 34.6598 2.79828 34.6598ZM4.31828 34.6598C4.49828 34.6598 4.65162 34.7231 4.77828 34.8498C4.90495 34.9764 4.96828 35.1298 4.96828 35.3098C4.96828 35.4831 4.90495 35.6331 4.77828 35.7598C4.65162 35.8864 4.49828 35.9498 4.31828 35.9498C4.14495 35.9498 3.99495 35.8864 3.86828 35.7598C3.74161 35.6331 3.67828 35.4831 3.67828 35.3098C3.67828 35.1298 3.74161 34.9764 3.86828 34.8498C3.99495 34.7231 4.14495 34.6598 4.31828 34.6598ZM4.96828 36.5898V40.1898C4.96828 40.2698 4.99161 40.3298 5.03828 40.3698C5.07828 40.4164 5.13162 40.4398 5.19828 40.4398H5.47828V41.4598H4.84828C4.54161 41.4598 4.26495 41.3364 4.01828 41.0898C3.63828 41.4031 3.21495 41.5598 2.74828 41.5598C2.22161 41.5598 1.76828 41.3931 1.38828 41.0598C0.881615 40.5864 0.628281 39.9531 0.628281 39.1598C0.628281 38.4331 0.861615 37.8298 1.32828 37.3498C1.75495 36.9164 2.27828 36.6998 2.89828 36.6998C3.24495 36.6998 3.59161 36.7731 3.93828 36.9198L4.36828 36.5898H4.96828ZM3.74828 37.8798C3.51495 37.7931 3.29161 37.7498 3.07828 37.7498C2.71828 37.7498 2.42161 37.8831 2.18828 38.1498C1.95495 38.4098 1.83828 38.7498 1.83828 39.1698C1.83828 39.5898 1.94161 39.9264 2.14828 40.1798C2.36161 40.4331 2.64495 40.5598 2.99828 40.5598C3.23828 40.5598 3.48828 40.5064 3.74828 40.3998V37.8798ZM8.17961 36.8598V40.2898V40.4398H8.68961V41.4598H8.33961L7.96961 41.0498H7.94961C7.72294 41.3231 7.43961 41.4598 7.09961 41.4598H5.16961V40.4398H6.67961C6.77294 40.4398 6.83961 40.4131 6.87961 40.3598C6.93961 40.3064 6.96961 40.2398 6.96961 40.1598V36.8598H8.17961ZM6.00961 42.1898C6.18961 42.1898 6.34294 42.2531 6.46961 42.3798C6.59628 42.5064 6.65961 42.6598 6.65961 42.8398C6.65961 43.0198 6.59628 43.1731 6.46961 43.2998C6.34294 43.4264 6.18961 43.4898 6.00961 43.4898C5.82961 43.4898 5.67628 43.4264 5.54961 43.2998C5.42294 43.1731 5.35961 43.0198 5.35961 42.8398C5.35961 42.6598 5.42294 42.5064 5.54961 42.3798C5.67628 42.2531 5.82961 42.1898 6.00961 42.1898ZM7.52961 42.1898C7.70961 42.1898 7.86294 42.2531 7.98961 42.3798C8.11628 42.5064 8.17961 42.6598 8.17961 42.8398C8.17961 43.0198 8.11628 43.1731 7.98961 43.2998C7.86294 43.4264 7.70961 43.4898 7.52961 43.4898C7.35628 43.4898 7.20628 43.4264 7.07961 43.2998C6.95294 43.1731 6.88961 43.0198 6.88961 42.8398C6.88961 42.6598 6.95294 42.5064 7.07961 42.3798C7.20628 42.2531 7.35628 42.1898 7.52961 42.1898ZM18.9869 36.8598V40.1298V40.4398H19.4969V41.4598H19.1069L18.7769 41.0498H18.7569C18.5302 41.3231 18.2469 41.4598 17.9069 41.4598H15.7669L15.4369 41.0498H15.4069C15.1869 41.3231 14.9069 41.4598 14.5669 41.4598H12.4169L12.0869 41.0498H12.0569C11.8369 41.3231 11.5569 41.4598 11.2169 41.4598H8.37688V40.4398H10.8269C10.9935 40.4398 11.0769 40.3564 11.0769 40.1898V38.0098H12.2969V40.1298C12.2969 40.2698 12.2935 40.3731 12.2869 40.4398H14.1769C14.3435 40.4398 14.4269 40.3564 14.4269 40.1898V37.4298H15.6469V40.0998C15.6469 40.1398 15.6435 40.1998 15.6369 40.2798C15.6369 40.3531 15.6369 40.4064 15.6369 40.4398H17.5169C17.6835 40.4398 17.7669 40.3564 17.7669 40.1898V36.8598H18.9869ZM22.2016 36.8598V40.2898V40.4398H22.7116V41.4598H22.3616L21.9916 41.0498H21.9716C21.7449 41.3231 21.4616 41.4598 21.1216 41.4598H19.1916V40.4398H20.7016C20.7949 40.4398 20.8616 40.4131 20.9016 40.3598C20.9616 40.3064 20.9916 40.2398 20.9916 40.1598V36.8598H22.2016ZM20.0316 42.1898C20.2116 42.1898 20.3649 42.2531 20.4916 42.3798C20.6182 42.5064 20.6816 42.6598 20.6816 42.8398C20.6816 43.0198 20.6182 43.1731 20.4916 43.2998C20.3649 43.4264 20.2116 43.4898 20.0316 43.4898C19.8516 43.4898 19.6982 43.4264 19.5716 43.2998C19.4449 43.1731 19.3816 43.0198 19.3816 42.8398C19.3816 42.6598 19.4449 42.5064 19.5716 42.3798C19.6982 42.2531 19.8516 42.1898 20.0316 42.1898ZM21.5516 42.1898C21.7316 42.1898 21.8849 42.2531 22.0116 42.3798C22.1382 42.5064 22.2016 42.6598 22.2016 42.8398C22.2016 43.0198 22.1382 43.1731 22.0116 43.2998C21.8849 43.4264 21.7316 43.4898 21.5516 43.4898C21.3782 43.4898 21.2282 43.4264 21.1016 43.2998C20.9749 43.1731 20.9116 43.0198 20.9116 42.8398C20.9116 42.6598 20.9749 42.5064 21.1016 42.3798C21.2282 42.2531 21.3782 42.1898 21.5516 42.1898ZM24.0788 35.3698C23.9722 35.1898 23.9188 34.9998 23.9188 34.7998C23.9188 34.5131 24.0022 34.2864 24.1688 34.1198C24.3355 33.9464 24.5588 33.8598 24.8388 33.8598C25.0188 33.8598 25.1922 33.8864 25.3588 33.9398V34.4698C25.1988 34.4298 25.0755 34.4098 24.9888 34.4098C24.8622 34.4098 24.7555 34.4564 24.6688 34.5498C24.5888 34.6364 24.5488 34.7498 24.5488 34.8898C24.5488 35.0164 24.5855 35.1198 24.6588 35.1998C24.7322 35.3131 24.8522 35.3698 25.0188 35.3698H25.6888V35.6198L25.4588 35.9098H23.6888V35.3698H24.0788ZM25.4088 36.8598V40.3598C25.4088 40.6198 25.3222 40.8598 25.1488 41.0798C24.9288 41.3331 24.6555 41.4598 24.3288 41.4598H22.3988V40.4398H23.9388C24.0122 40.4398 24.0755 40.4131 24.1288 40.3598C24.1755 40.3131 24.1988 40.2564 24.1988 40.1898V36.8598H25.4088ZM28.6573 36.8598V40.4398H29.1673V41.4598H28.6473C28.594 42.2598 28.2773 42.8731 27.6973 43.2998C27.2173 43.6531 26.6273 43.8298 25.9273 43.8298C25.8073 43.8298 25.6773 43.8264 25.5373 43.8198L25.0473 43.2098V42.7798C25.2607 42.8131 25.4673 42.8298 25.6673 42.8298C26.8473 42.8298 27.4373 42.2564 27.4373 41.1098V36.8598H28.6573ZM31.8722 34.2998V40.3598C31.8722 40.6398 31.7822 40.8798 31.6022 41.0798C31.3955 41.3331 31.1255 41.4598 30.7922 41.4598H28.8622V40.4398H30.4022C30.4755 40.4398 30.5389 40.4131 30.5922 40.3598C30.6389 40.3131 30.6622 40.2564 30.6622 40.1898V34.2998H31.8722ZM34.2341 34.2998V41.2098L33.6141 41.7098H33.0141V34.2998H34.2341Z" fill="#0A374A"/>
<g clip-path="url(#clip0_2_539)">
<path d="M23.375 24.5501H10.625C7.52338 24.5501 5 22.0557 5 18.9897V11.1927C5 9.4694 5.82758 7.81663 7.21372 6.77152L13.5887 1.96511C15.5973 0.450798 18.4027 0.450798 20.4113 1.96511L22.4375 3.49143V2.30869C22.487 1.07912 24.2634 1.08004 24.3125 2.30869V5.36276C24.3125 5.71505 24.1104 6.03686 23.791 6.19324C23.4716 6.34958 23.0902 6.31335 22.8067 6.09988L19.2745 3.43911C17.9352 2.42935 16.0648 2.42935 14.7258 3.43888L8.35077 8.24529C7.42672 8.94195 6.875 10.0438 6.875 11.1927V18.9897C6.875 21.0337 8.55725 22.6966 10.625 22.6966H23.375C25.4427 22.6966 27.125 21.0337 27.125 18.9897V11.1927C27.125 10.0297 26.5795 8.92411 25.6658 8.23519C25.2541 7.92478 25.175 7.34326 25.489 6.93634C25.803 6.52937 26.3913 6.4511 26.8029 6.76151C28.1787 7.7987 29 9.45522 29 11.1927V18.9897C29 22.0557 26.4766 24.5501 23.375 24.5501V24.5501ZM15.125 11.5296C14.4778 11.5296 13.9531 12.0482 13.9531 12.688C14.015 14.225 16.2355 14.2238 16.2969 12.688C16.2969 12.0482 15.7722 11.5296 15.125 11.5296ZM20.0469 12.688C19.985 14.2249 17.7645 14.2238 17.7031 12.688C17.765 11.151 19.9855 11.1522 20.0469 12.688ZM16.2969 16.3949C16.235 17.9318 14.0145 17.9307 13.9531 16.3949C14.015 14.8579 16.2355 14.8591 16.2969 16.3949ZM20.0469 16.3949C19.985 17.9318 17.7645 17.9307 17.7031 16.3949C17.765 14.8579 19.9855 14.8591 20.0469 16.3949Z" fill="#00C2BE"/>
</g>
<defs>
<clipPath id="clip0_2_539">
<rect width="24" height="23.7241" fill="white" transform="translate(5 0.827576)"/>
</clipPath>
</defs>
</svg>
