<svg width="29" height="45" viewBox="0 0 29 45" fill="none" xmlns="http://www.w3.org/2000/svg">
<path d="M2.26879 38.7198V40.1098C2.26879 40.7431 2.42546 41.1864 2.73879 41.4398C3.05879 41.6998 3.60546 41.8298 4.37879 41.8298C5.05212 41.8298 5.53879 41.7431 5.83879 41.5698C6.20546 41.3631 6.41546 40.9931 6.46879 40.4598H5.84879L5.32879 39.8198V39.4398H8.08879V40.4598H7.70879C7.65546 41.2931 7.32212 41.9198 6.70879 42.3398C6.22879 42.6798 5.61879 42.8498 4.87879 42.8498H3.88879C3.04879 42.8498 2.37879 42.6331 1.87879 42.1998C1.32546 41.7464 1.04879 41.0864 1.04879 40.2198V39.2098L1.66879 38.7198H2.26879ZM3.58879 43.4298C3.76879 43.4298 3.92212 43.4931 4.04879 43.6198C4.17546 43.7464 4.23879 43.8998 4.23879 44.0798C4.23879 44.2598 4.17546 44.4131 4.04879 44.5398C3.92212 44.6664 3.76879 44.7298 3.58879 44.7298C3.40879 44.7298 3.25546 44.6664 3.12879 44.5398C3.00212 44.4131 2.93879 44.2598 2.93879 44.0798C2.93879 43.8998 3.00212 43.7464 3.12879 43.6198C3.25546 43.4931 3.40879 43.4298 3.58879 43.4298ZM5.10879 43.4298C5.28879 43.4298 5.44212 43.4931 5.56879 43.6198C5.69546 43.7464 5.75879 43.8998 5.75879 44.0798C5.75879 44.2598 5.69546 44.4131 5.56879 44.5398C5.44212 44.6664 5.28879 44.7298 5.10879 44.7298C4.93546 44.7298 4.78546 44.6664 4.65879 44.5398C4.53212 44.4131 4.46879 44.2598 4.46879 44.0798C4.46879 43.8998 4.53212 43.7464 4.65879 43.6198C4.78546 43.4931 4.93546 43.4298 5.10879 43.4298ZM7.94332 33.6598C8.12332 33.6598 8.27665 33.7231 8.40332 33.8498C8.52999 33.9764 8.59332 34.1298 8.59332 34.3098C8.59332 34.4831 8.52999 34.6331 8.40332 34.7598C8.27665 34.8864 8.12332 34.9498 7.94332 34.9498C7.76332 34.9498 7.60999 34.8864 7.48332 34.7598C7.35665 34.6331 7.29332 34.4831 7.29332 34.3098C7.29332 34.1298 7.35665 33.9764 7.48332 33.8498C7.60999 33.7231 7.76332 33.6598 7.94332 33.6598ZM9.46332 33.6598C9.64332 33.6598 9.79665 33.7231 9.92332 33.8498C10.05 33.9764 10.1133 34.1298 10.1133 34.3098C10.1133 34.4831 10.05 34.6331 9.92332 34.7598C9.79665 34.8864 9.64332 34.9498 9.46332 34.9498C9.28999 34.9498 9.13999 34.8864 9.01332 34.7598C8.88665 34.6331 8.82332 34.4831 8.82332 34.3098C8.82332 34.1298 8.88665 33.9764 9.01332 33.8498C9.13999 33.7231 9.28999 33.6598 9.46332 33.6598ZM9.98332 35.8598V39.3598C9.98332 39.6198 9.89665 39.8598 9.72332 40.0798C9.50332 40.3331 9.22999 40.4598 8.90332 40.4598H6.97332V39.4398H8.51332C8.58665 39.4398 8.64999 39.4131 8.70332 39.3598C8.74999 39.3131 8.77332 39.2564 8.77332 39.1898V35.8598H9.98332ZM12.4724 33.2998V39.1898C12.4724 39.2564 12.4924 39.3098 12.5324 39.3498C12.5724 39.4098 12.6357 39.4398 12.7224 39.4398H12.9824V40.4598H12.3324C12.0591 40.4598 11.8191 40.3631 11.6124 40.1698C11.3724 39.9498 11.2524 39.6798 11.2524 39.3598V33.2998H12.4724ZM15.6852 35.8598V39.2898V39.4398H16.1952V40.4598H15.8452L15.4752 40.0498H15.4552C15.2285 40.3231 14.9452 40.4598 14.6052 40.4598H12.6752V39.4398H14.1852C14.2785 39.4398 14.3452 39.4131 14.3852 39.3598C14.4452 39.3064 14.4752 39.2398 14.4752 39.1598V35.8598H15.6852ZM15.0452 41.1898C15.2185 41.1898 15.3685 41.2531 15.4952 41.3798C15.6219 41.5064 15.6852 41.6598 15.6852 41.8398C15.6852 42.0198 15.6219 42.1731 15.4952 42.2998C15.3685 42.4264 15.2185 42.4898 15.0452 42.4898C14.8652 42.4898 14.7119 42.4264 14.5852 42.2998C14.4585 42.1731 14.3952 42.0198 14.3952 41.8398C14.3952 41.6598 14.4585 41.5064 14.5852 41.3798C14.7119 41.2531 14.8652 41.1898 15.0452 41.1898ZM18.8925 33.2998V39.2898V39.4398H19.4025V40.4598H19.0625L18.6825 40.0498H18.6625C18.4358 40.3231 18.1525 40.4598 17.8125 40.4598H15.8825V39.4398H17.4225C17.5025 39.4398 17.5691 39.4131 17.6225 39.3598C17.6625 39.2931 17.6825 39.2364 17.6825 39.1898V33.2998H18.8925ZM22.0897 33.2998V37.5398C22.9831 36.3331 24.0931 35.7298 25.4197 35.7298C26.2131 35.7298 26.8664 35.9831 27.3797 36.4898C27.8531 36.9498 28.0897 37.5198 28.0897 38.1998V39.3598C28.0897 39.6731 27.9731 39.9398 27.7397 40.1598C27.5264 40.3598 27.2831 40.4598 27.0097 40.4598H19.0797V39.4398H20.8797V33.2998H22.0897ZM26.8697 38.2598C26.8631 37.8464 26.7264 37.5131 26.4597 37.2598C26.1531 36.9398 25.7364 36.7798 25.2097 36.7798C24.6764 36.7798 24.1664 36.9564 23.6797 37.3098C23.0531 37.7631 22.5231 38.4731 22.0897 39.4398H26.6197C26.7864 39.4398 26.8697 39.3564 26.8697 39.1898V38.2598Z" fill="#B6BCCC"/>
<rect x="4" y="0.816101" width="9.39848" height="9.29045" rx="2" stroke="#B6BCCC" stroke-width="1.5" stroke-linecap="round"/>
<rect x="4" y="14.2613" width="9.39848" height="9.29045" rx="2" stroke="#B6BCCC" stroke-width="1.5" stroke-linecap="round"/>
<rect x="17.6016" y="0.816101" width="9.39848" height="9.29045" rx="2" stroke="#B6BCCC" stroke-width="1.5" stroke-linecap="round"/>
<rect x="17.6016" y="14.2613" width="9.39848" height="9.29045" rx="2" stroke="#B6BCCC" stroke-width="1.5" stroke-linecap="round"/>
</svg>
